<svg width="87" height="60" viewBox="0 0 87 60" fill="none" xmlns="http://www.w3.org/2000/svg">
<path d="M81.7334 18.1395H81.0357V4.88372C81.0343 3.58892 80.5193 2.34756 79.6037 1.43199C78.6881 0.516425 77.4468 0.00143116 76.152 0H10.5706C9.27578 0.00143116 8.03442 0.516425 7.11885 1.43199C6.20329 2.34756 5.68829 3.58892 5.68686 4.88372V26.5116H4.98919C3.69439 26.5131 2.45302 27.028 1.53746 27.9436C0.621893 28.8592 0.1069 30.1005 0.105469 31.3953V55.1163C0.1069 56.4111 0.621893 57.6524 1.53746 58.568C2.45302 59.4836 3.69439 59.9986 4.98919 60H17.5473C18.8421 59.9986 20.0835 59.4836 20.9991 58.568C21.9146 57.6524 22.4296 56.4111 22.431 55.1163V50.2326H34.5967L33.8991 53.0233H30.8031C30.4331 53.0233 30.0782 53.1703 29.8165 53.4319C29.5548 53.6936 29.4078 54.0485 29.4078 54.4186V58.6046C29.4078 58.9747 29.5548 59.3296 29.8165 59.5913C30.0782 59.853 30.4331 60 30.8031 60H55.9194C56.2895 60 56.6444 59.853 56.9061 59.5913C57.1678 59.3296 57.3148 58.9747 57.3148 58.6046V54.4186C57.3148 54.0485 57.1678 53.6936 56.9061 53.4319C56.6444 53.1703 56.2895 53.0233 55.9194 53.0233H52.8235L52.1258 50.2326H58.7101V55.1163C58.7115 56.4111 59.2265 57.6524 60.1421 58.568C61.0577 59.4836 62.299 59.9986 63.5938 60H81.7334C83.0282 59.9986 84.2695 59.4836 85.1851 58.568C86.1007 57.6524 86.6157 56.4111 86.6171 55.1163V23.0233C86.6157 21.7285 86.1007 20.4871 85.1851 19.5715C84.2695 18.656 83.0282 18.141 81.7334 18.1395ZM19.6404 55.1163C19.6399 55.6712 19.4192 56.2033 19.0268 56.5958C18.6344 56.9882 18.1023 57.2088 17.5473 57.2093H4.98919C4.43423 57.2088 3.90213 56.9882 3.50971 56.5958C3.11729 56.2033 2.89663 55.6712 2.89617 55.1163V31.3953C2.89663 30.8404 3.11729 30.3083 3.50971 29.9159C3.90213 29.5234 4.43423 29.3028 4.98919 29.3023H6.07582L7.15372 32.5343C7.24635 32.8121 7.42404 33.0538 7.66164 33.225C7.89924 33.3963 8.18469 33.4884 8.47756 33.4884H14.059C14.3518 33.4884 14.6373 33.3963 14.8749 33.225C15.1125 33.0538 15.2902 32.8121 15.3828 32.5343L16.4607 29.3023H17.5473C18.1023 29.3028 18.6344 29.5234 19.0268 29.9159C19.4192 30.3083 19.6399 30.8404 19.6404 31.3953V55.1163ZM9.01826 29.3023H13.5183L13.0526 30.6977H9.48396L9.01826 29.3023ZM54.5241 55.8139V57.2093H32.1985V55.8139H54.5241ZM36.777 53.0233L37.4747 50.2326H49.2479L49.9456 53.0233H36.777ZM58.7101 47.4419H22.431V41.8605H58.7101V47.4419ZM58.7101 23.0233V39.0698H22.431V31.3953C22.4296 30.1005 21.9146 28.8592 20.9991 27.9436C20.0835 27.028 18.8421 26.5131 17.5473 26.5116H8.47756V4.88372C8.47802 4.32876 8.69869 3.79666 9.0911 3.40424C9.48352 3.01182 10.0156 2.79116 10.5706 2.7907H76.152C76.7069 2.79116 77.239 3.01182 77.6315 3.40424C78.0239 3.79666 78.2445 4.32876 78.245 4.88372V18.1395H63.5938C62.299 18.141 61.0577 18.656 60.1421 19.5715C59.2265 20.4871 58.7115 21.7285 58.7101 23.0233ZM74.9136 20.9302L74.4479 22.3256H70.8793L70.4136 20.9302H74.9136ZM83.8264 55.1163C83.8259 55.6712 83.6053 56.2033 83.2129 56.5958C82.8204 56.9882 82.2883 57.2088 81.7334 57.2093H63.5938C63.0389 57.2088 62.5068 56.9882 62.1144 56.5958C61.7219 56.2033 61.5013 55.6712 61.5008 55.1163V23.0233C61.5013 22.4683 61.7219 21.9362 62.1144 21.5438C62.5068 21.1514 63.0389 20.9307 63.5938 20.9302H67.4712L68.5491 24.1622C68.6417 24.44 68.8194 24.6817 69.057 24.8529C69.2946 25.0242 69.58 25.1163 69.8729 25.1163H75.4543C75.7472 25.1163 76.0326 25.0242 76.2702 24.8529C76.5078 24.6817 76.6855 24.44 76.7781 24.1622L77.856 20.9302H81.7334C82.2883 20.9307 82.8204 21.1514 83.2129 21.5438C83.6053 21.9362 83.8259 22.4683 83.8264 23.0233V55.1163Z" fill="#155263"/>
<path d="M75.4553 53.0234H69.8739C69.5038 53.0234 69.1489 53.1704 68.8872 53.4321C68.6255 53.6938 68.4785 54.0487 68.4785 54.4188C68.4785 54.7889 68.6255 55.1438 68.8872 55.4054C69.1489 55.6671 69.5038 55.8141 69.8739 55.8141H75.4553C75.8253 55.8141 76.1802 55.6671 76.4419 55.4054C76.7036 55.1438 76.8506 54.7889 76.8506 54.4188C76.8506 54.0487 76.7036 53.6938 76.4419 53.4321C76.1802 53.1704 75.8253 53.0234 75.4553 53.0234Z" fill="#155263"/>
<path d="M14.0588 53.0234H8.47738C8.10731 53.0234 7.7524 53.1704 7.49072 53.4321C7.22904 53.6938 7.08203 54.0487 7.08203 54.4188C7.08203 54.7889 7.22904 55.1438 7.49072 55.4054C7.7524 55.6671 8.10731 55.8141 8.47738 55.8141H14.0588C14.4288 55.8141 14.7838 55.6671 15.0454 55.4054C15.3071 55.1438 15.4541 54.7889 15.4541 54.4188C15.4541 54.0487 15.3071 53.6938 15.0454 53.4321C14.7838 53.1704 14.4288 53.0234 14.0588 53.0234Z" fill="#155263"/>
<path d="M44.7564 43.2559H41.9657C41.5956 43.2559 41.2407 43.4029 40.979 43.6645C40.7173 43.9262 40.5703 44.2811 40.5703 44.6512C40.5703 45.0213 40.7173 45.3762 40.979 45.6379C41.2407 45.8995 41.5956 46.0466 41.9657 46.0466H44.7564C45.1264 46.0466 45.4813 45.8995 45.743 45.6379C46.0047 45.3762 46.1517 45.0213 46.1517 44.6512C46.1517 44.2811 46.0047 43.9262 45.743 43.6645C45.4813 43.4029 45.1264 43.2559 44.7564 43.2559Z" fill="#155263"/>
</svg>
