<svg width="61" height="60" viewBox="0 0 61 60" fill="none" xmlns="http://www.w3.org/2000/svg">
<path d="M5.11328 35.6087C5.59867 35.6087 5.99219 35.2152 5.99219 34.7298V15.5672C5.99219 14.9201 6.51871 14.3936 7.16582 14.3936H13.8582C14.3436 14.3936 14.7371 14 14.7371 13.5146C14.7371 13.0293 14.3436 12.6357 13.8582 12.6357H7.16582C5.54945 12.6357 4.23438 13.9508 4.23438 15.5672V34.7298C4.23438 35.2152 4.62789 35.6087 5.11328 35.6087Z" fill="#155263"/>
<path d="M47.2695 14.3936H54.065C54.7121 14.3936 55.2386 14.9201 55.2386 15.5672V34.6454C55.2386 35.1308 55.6321 35.5243 56.1175 35.5243C56.6029 35.5243 56.9964 35.1308 56.9964 34.6454V15.5672C56.9964 13.9508 55.6814 12.6357 54.065 12.6357H47.2695C46.7841 12.6357 46.3906 13.0293 46.3906 13.5146C46.3906 14 46.7841 14.3936 47.2695 14.3936Z" fill="#155263"/>
<path d="M30.6152 19.4989C33.9149 19.4989 36.5995 16.8143 36.5995 13.5146C36.5995 10.2148 33.9149 7.53027 30.6152 7.53027C27.3154 7.53027 24.6309 10.2148 24.6309 13.5146C24.6309 16.8142 27.3154 19.4989 30.6152 19.4989ZM30.6152 9.28797C32.9457 9.28797 34.8416 11.1839 34.8416 13.5145C34.8416 15.845 32.9457 17.7409 30.6152 17.7409C28.2846 17.7409 26.3887 15.845 26.3887 13.5145C26.3887 11.1841 28.2846 9.28797 30.6152 9.28797Z" fill="#155263"/>
<path d="M17.9898 15.6068L20.7379 16.6444C20.9168 17.2097 21.1451 17.7606 21.4183 18.2865L20.2087 20.9634C19.9749 21.4809 20.0876 22.0985 20.4891 22.5L21.631 23.6419C22.0325 24.0434 22.6499 24.156 23.1675 23.9223L25.8445 22.7127C26.3705 22.986 26.9213 23.2141 27.4865 23.3931L28.5241 26.141C28.7247 26.6723 29.241 27.0293 29.8089 27.0293H31.4236C31.9915 27.0293 32.5079 26.6723 32.7085 26.141L33.7459 23.3931C34.3112 23.2141 34.8621 22.9859 35.388 22.7127L38.065 23.9223C38.5826 24.1562 39.2001 24.0435 39.6016 23.6419L40.7433 22.5C41.1449 22.0984 41.2575 21.4809 41.0238 20.9634L39.8141 18.2865C40.0873 17.7606 40.3156 17.2098 40.4945 16.6444L43.2425 15.6068C43.7738 15.4062 44.1307 14.8898 44.1307 14.322V12.7072C44.1307 12.1393 43.7738 11.623 43.2425 11.4224L40.4945 10.3848C40.3156 9.81961 40.0874 9.26871 39.8141 8.74277L41.0238 6.06586C41.2577 5.54824 41.1449 4.93078 40.7433 4.52918L39.6016 3.38742C39.2 2.98582 38.5823 2.87309 38.065 3.10699L35.388 4.31648C34.862 4.0432 34.3112 3.81504 33.7458 3.63609L32.7084 0.888047C32.5077 0.356953 31.9914 0 31.4235 0H29.8088C29.2409 0 28.7246 0.356953 28.5239 0.888281L27.4865 3.63621C26.9212 3.81516 26.3703 4.04344 25.8443 4.3166L23.1673 3.10699C22.6498 2.8732 22.0322 2.98582 21.6307 3.38754L20.489 4.5293C20.0874 4.93078 19.9748 5.54836 20.2086 6.06586L21.4182 8.74277C21.1449 9.26883 20.9167 9.81961 20.7378 10.3848L17.9897 11.4224C17.4585 11.623 17.1016 12.1393 17.1016 12.7072V14.322C17.1017 14.8898 17.4586 15.4061 17.9898 15.6068ZM18.8595 12.973L21.5352 11.9627C21.9345 11.812 22.246 11.4755 22.3687 11.0623C22.5381 10.4912 22.7682 9.93633 23.0525 9.41309C23.2567 9.03715 23.2744 8.58199 23.0999 8.19574L21.92 5.58434L22.6859 4.8184L25.2973 5.99848C25.6837 6.17297 26.1387 6.15527 26.5148 5.9509C27.0379 5.6666 27.5928 5.43656 28.1639 5.26711C28.577 5.14453 28.9136 4.83305 29.0644 4.43379L30.0747 1.75781H31.1579L32.1681 4.43379C32.3188 4.83305 32.6555 5.14453 33.0686 5.26699C33.6398 5.43645 34.1946 5.6666 34.7177 5.95066C35.0936 6.15504 35.5489 6.17297 35.9352 5.99824L38.5468 4.81828L39.3127 5.5841L38.1327 8.19562C37.9582 8.58187 37.9759 9.03691 38.1802 9.41297C38.4645 9.93621 38.6945 10.4911 38.864 11.0621C38.9866 11.4752 39.2982 11.8118 39.6973 11.9625L42.3732 12.9728V14.0559L39.6971 15.0663C39.2979 15.2171 38.9864 15.5537 38.8639 15.9668C38.6944 16.538 38.4644 17.0927 38.1801 17.616C37.9758 17.9919 37.9581 18.4471 38.1326 18.8334L39.3126 21.4448L38.5466 22.2108L35.9352 21.0308C35.549 20.8562 35.0939 20.874 34.7178 21.0783C34.1946 21.3625 33.6399 21.5926 33.0687 21.762C32.6556 21.8845 32.3191 22.1961 32.1682 22.5954L31.158 25.2712H30.0748L29.0645 22.5954C28.9138 22.1961 28.5771 21.8846 28.1641 21.7621C27.5929 21.5926 27.0381 21.3626 26.5149 21.0783C26.1389 20.874 25.6838 20.8562 25.2975 21.0308L22.6861 22.2108L21.9203 21.4448L23.1003 18.8333C23.2748 18.4471 23.2571 17.9919 23.0527 17.6159C22.7685 17.0929 22.5385 16.538 22.3689 15.9668C22.2463 15.5538 21.935 15.2173 21.5356 15.0663L18.8597 14.0561V12.973H18.8595Z" fill="#155263"/>
<path d="M59.7363 44.2993C60.2217 44.2993 60.6152 43.9058 60.6152 43.4204V40.9679C60.6152 39.1909 59.1696 37.7453 57.3926 37.7453H52.5442L43.1331 27.6724C42.5808 27.0813 41.8001 26.7422 40.991 26.7422C40.1821 26.7422 39.4014 27.0812 38.8491 27.6724L30.6152 36.4854L22.3813 27.6725C21.829 27.0814 21.0483 26.7423 20.2393 26.7423C19.4304 26.7423 18.6496 27.0813 18.0973 27.6725L12.2996 33.8779C11.9682 34.2325 11.9871 34.7886 12.3418 35.1202C12.6966 35.4517 13.2526 35.4326 13.584 35.078L19.3818 28.8725C19.6062 28.6324 19.9107 28.5001 20.2393 28.5001C20.5679 28.5001 20.8725 28.6323 21.0969 28.8725L29.4124 37.7728L24.6293 42.8923V40.968C24.6293 39.191 23.1837 37.7454 21.4066 37.7454H3.83789C2.06086 37.7454 0.615234 39.191 0.615234 40.968V56.7775C0.615234 58.5545 2.06086 60.0001 3.83789 60.0001H21.4066C23.1837 60.0001 24.6293 58.5545 24.6293 56.7775V50.5061H36.6012V56.7775C36.6012 58.5545 38.0468 60.0001 39.8238 60.0001H57.3926C59.1696 60.0001 60.6152 58.5545 60.6152 56.7775V48.0751C60.6152 47.5897 60.2217 47.1962 59.7363 47.1962C59.2509 47.1962 58.8574 47.5897 58.8574 48.0751V56.7775C58.8574 57.5852 58.2004 58.2423 57.3926 58.2423H39.8238C39.0161 58.2423 38.359 57.5852 38.359 56.7775V40.9679C38.359 40.1602 39.0161 39.5031 39.8238 39.5031H57.3926C58.2004 39.5031 58.8574 40.1602 58.8574 40.9679V43.4204C58.8574 43.9058 59.2509 44.2993 59.7363 44.2993ZM22.8715 56.7775C22.8715 57.5852 22.2144 58.2423 21.4066 58.2423H3.83789C3.03012 58.2423 2.37305 57.5852 2.37305 56.7775V40.9679C2.37305 40.1602 3.03012 39.5031 3.83789 39.5031H21.4066C22.2144 39.5031 22.8715 40.1602 22.8715 40.9679V56.7775ZM36.6012 40.9679V48.7482H24.6293V45.4669L40.1336 28.8724C40.358 28.6323 40.6625 28.5 40.9911 28.5C41.3197 28.5 41.6244 28.6322 41.8487 28.8724L50.1386 37.7452H39.8238C38.0469 37.7453 36.6012 39.191 36.6012 40.9679Z" fill="#155263"/>
<path d="M45.7244 43.3932C45.2659 43.137 44.7216 43.1429 44.2686 43.4085C43.8155 43.6744 43.5449 44.1467 43.5449 44.672V53.0731C43.5449 53.5983 43.8154 54.0707 44.2684 54.3365C44.4995 54.4721 44.7543 54.5399 45.0094 54.5399C45.2543 54.5399 45.4996 54.4772 45.7243 54.3518L53.2418 50.1513C53.7046 49.8926 53.9922 49.4027 53.9922 48.8725C53.9922 48.3423 53.7047 47.8524 53.2418 47.5938L45.7244 43.3932ZM45.3029 52.5738V45.1713L51.9269 48.8725L45.3029 52.5738Z" fill="#155263"/>
<path d="M18.7434 43.7646H6.50195C6.01656 43.7646 5.62305 44.1582 5.62305 44.6436C5.62305 45.1289 6.01656 45.5225 6.50195 45.5225H18.7434C19.2288 45.5225 19.6223 45.1289 19.6223 44.6436C19.6223 44.1582 19.2288 43.7646 18.7434 43.7646Z" fill="#155263"/>
<path d="M18.7434 47.9937H6.50195C6.01656 47.9937 5.62305 48.3872 5.62305 48.8726C5.62305 49.3579 6.01656 49.7515 6.50195 49.7515H18.7434C19.2288 49.7515 19.6223 49.3579 19.6223 48.8726C19.6223 48.3872 19.2288 47.9937 18.7434 47.9937Z" fill="#155263"/>
<path d="M18.7434 52.2227H6.50195C6.01656 52.2227 5.62305 52.6162 5.62305 53.1016C5.62305 53.587 6.01656 53.9805 6.50195 53.9805H18.7434C19.2288 53.9805 19.6223 53.587 19.6223 53.1016C19.6223 52.6162 19.2288 52.2227 18.7434 52.2227Z" fill="#155263"/>
</svg>
