<svg width="61" height="60" viewBox="0 0 61 60" fill="none" xmlns="http://www.w3.org/2000/svg">
<path d="M28.6133 56H32.6133C33.1655 56 33.6133 55.5523 33.6133 55C33.6133 54.4477 33.1655 54 32.6133 54H28.6133C28.061 54 27.6133 54.4477 27.6133 55C27.6133 55.5523 28.061 56 28.6133 56Z" fill="#155263"/>
<path d="M13.6133 15C14.1655 15 14.6133 14.5522 14.6133 14V8H46.6133V16C46.6133 16.5522 47.061 17 47.6133 17C48.1655 17 48.6133 16.5522 48.6133 16V4C48.6133 2.2 46.3053 0 43.6133 0H17.6133C14.8533 0.00325 12.6165 2.24 12.6133 5V14C12.6133 14.5522 13.061 15 13.6133 15ZM14.6133 5C14.6133 3.34312 15.9564 2 17.6133 2H43.6133C45.3463 2 46.6133 3.4 46.6133 4V6H14.6133V5Z" fill="#155263"/>
<path d="M47.6133 44C47.061 44 46.6133 44.4477 46.6133 45V50H14.6133V46C14.6133 45.4477 14.1655 45 13.6133 45C13.061 45 12.6133 45.4477 12.6133 46V55C12.6165 57.76 14.8533 59.9967 17.6133 60H43.6133C46.3733 59.9967 48.61 57.76 48.6133 55V45C48.6133 44.4477 48.1655 44 47.6133 44ZM46.6133 55C46.6133 56.6569 45.2702 58 43.6133 58H17.6133C15.9564 58 14.6133 56.6569 14.6133 55V52H46.6133V55Z" fill="#155263"/>
<path d="M28.6133 3H26.6133C26.061 3 25.6133 3.44775 25.6133 4C25.6133 4.55225 26.061 5 26.6133 5H28.6133C29.1655 5 29.6133 4.55225 29.6133 4C29.6133 3.44775 29.1655 3 28.6133 3Z" fill="#155263"/>
<path d="M34.6133 3H32.6133C32.061 3 31.6133 3.44775 31.6133 4C31.6133 4.55225 32.061 5 32.6133 5H34.6133C35.1655 5 35.6133 4.55225 35.6133 4C35.6133 3.44775 35.1655 3 34.6133 3Z" fill="#155263"/>
<path d="M60.3833 19.361C60.1932 19.1321 59.9109 18.9998 59.6133 19H33.3653L32.8553 15.561C32.6302 14.0937 31.3717 13.0079 29.8873 13H25.6133V15H29.8873C30.3834 14.9996 30.8048 15.3631 30.8773 15.854L34.3713 39.439C34.5964 40.9062 35.8549 41.9921 37.3393 42H39.7973C40.3392 43.5553 42.0392 44.3767 43.5943 43.835C44.4539 43.5355 45.1298 42.8598 45.4293 42H49.7973C50.3495 43.5621 52.0637 44.3808 53.6257 43.8284C55.1877 43.276 56.0064 41.562 55.454 40C54.9018 38.4379 53.1877 37.6192 51.6257 38.1716C50.7713 38.4736 50.0993 39.1458 49.7973 40H45.4293C44.8874 38.4447 43.1874 37.6233 41.6323 38.165C40.7727 38.4645 40.0968 39.1402 39.7973 40H37.3393C36.8443 39.9974 36.4245 39.6354 36.3493 39.146L36.0313 37H56.6133C57.0939 36.9996 57.5064 36.6574 57.5953 36.185L60.5953 20.185C60.6508 19.8925 60.573 19.5904 60.3833 19.361ZM52.6133 40C53.1655 40 53.6133 40.4478 53.6133 41C53.6133 41.5522 53.1655 42 52.6133 42C52.061 42 51.6133 41.5522 51.6133 41C51.6133 40.4478 52.061 40 52.6133 40ZM42.6133 40C43.1655 40 43.6133 40.4478 43.6133 41C43.6133 41.5522 43.1655 42 42.6133 42C42.061 42 41.6133 41.5522 41.6133 41C41.6133 40.4478 42.061 40 42.6133 40ZM55.7833 35H35.7353L33.6623 21H58.4133L55.7833 35Z" fill="#155263"/>
<path d="M26.6133 30C26.6133 22.8203 20.793 17 13.6133 17C6.43353 17 0.613281 22.8203 0.613281 30C0.613281 37.1798 6.43353 43 13.6133 43C20.7895 42.9918 26.605 37.1763 26.6133 30ZM2.61328 30C2.61328 23.9249 7.53816 19 13.6133 19C19.6884 19 24.6133 23.9249 24.6133 30C24.6133 36.0751 19.6884 41 13.6133 41C7.54116 40.9929 2.62041 36.0721 2.61328 30Z" fill="#155263"/>
<path d="M14.6133 38V36.858C16.7484 36.3085 18.0338 34.1321 17.4843 31.997C17.0298 30.2312 15.4367 28.9977 13.6133 29C12.5087 29 11.6133 28.1046 11.6133 27C11.6133 25.8954 12.5087 25 13.6133 25C14.7179 25 15.6133 25.8954 15.6133 27C15.6133 27.5522 16.061 28 16.6133 28C17.1655 28 17.6133 27.5522 17.6133 27C17.6064 25.1816 16.374 23.5966 14.6133 23.142V22C14.6133 21.4477 14.1655 21 13.6133 21C13.061 21 12.6133 21.4477 12.6133 22V23.142C10.4782 23.6915 9.19278 25.8679 9.74228 28.003C10.1968 29.7688 11.7899 31.0022 13.6133 31C14.7179 31 15.6133 31.8954 15.6133 33C15.6133 34.1046 14.7179 35 13.6133 35C12.5087 35 11.6133 34.1046 11.6133 33C11.6133 32.4478 11.1655 32 10.6133 32C10.061 32 9.61328 32.4478 9.61328 33C9.62016 34.8184 10.8525 36.4034 12.6133 36.858V38C12.6133 38.5522 13.061 39 13.6133 39C14.1655 39 14.6133 38.5522 14.6133 38Z" fill="#155263"/>
<path d="M36.6133 24H50.6133C51.1655 24 51.6133 23.5523 51.6133 23C51.6133 22.4477 51.1655 22 50.6133 22H36.6133C36.061 22 35.6133 22.4477 35.6133 23C35.6133 23.5523 36.061 24 36.6133 24Z" fill="#155263"/>
<path d="M53.6133 24H55.6133C56.1655 24 56.6133 23.5523 56.6133 23C56.6133 22.4477 56.1655 22 55.6133 22H53.6133C53.061 22 52.6133 22.4477 52.6133 23C52.6133 23.5523 53.061 24 53.6133 24Z" fill="#155263"/>
</svg>
