<svg width="68" height="60" viewBox="0 0 68 60" fill="none" xmlns="http://www.w3.org/2000/svg">
<path d="M32.955 49.8046H6.4707C3.18945 49.8046 0.611328 47.2265 0.611328 43.9453V5.85937C0.611328 2.57812 3.18945 0 6.4707 0H59.205C62.4863 0 65.0644 2.57812 65.0644 5.85937V31.289H62.1347V5.85937C62.1347 4.21875 60.8456 2.92969 59.205 2.92969H6.4707C4.83007 2.92969 3.54101 4.21875 3.54101 5.85937V43.9453C3.54101 45.5859 4.83007 46.875 6.4707 46.875H32.955V49.8046Z" fill="#155263"/>
<path d="M2.13477 13.125H63.6581V16.0547H2.13477V13.125Z" fill="#155263"/>
<path d="M9.40039 37.9688H22.6426V40.8984H9.40039V37.9688Z" fill="#155263"/>
<path d="M49.0097 60C38.4629 60 29.9082 51.4453 29.9082 40.8984C29.9082 30.3516 38.4629 21.9141 49.0097 21.9141C59.5566 21.9141 67.9941 30.4687 67.9941 41.0156C67.9941 51.5625 59.4394 60 49.0097 60ZM49.0097 24.8437C40.1035 24.8437 32.9551 32.1094 32.9551 40.8984C32.9551 49.6875 40.1035 57.0703 49.0097 57.0703C57.916 57.0703 65.0644 49.8047 65.0644 41.0156C65.0644 32.2266 57.7988 24.8437 49.0097 24.8437Z" fill="#155263"/>
<path d="M9.40039 29.2969H15.2598V32.2266H9.40039V29.2969Z" fill="#155263"/>
<path d="M21.1191 29.2969H26.9785V32.2266H21.1191V29.2969Z" fill="#155263"/>
<path d="M47.4863 50.3906L36.8223 39.7266L38.9316 37.6172L47.4863 46.1719L58.9707 34.6875L61.0801 36.7969L47.4863 50.3906Z" fill="#155263"/>
</svg>
