<svg width="52" height="60" viewBox="0 0 52 60" fill="none" xmlns="http://www.w3.org/2000/svg">
<path d="M23.2976 35.9699C22.7069 35.9699 22.1161 35.7449 21.6661 35.2938C20.7649 34.3926 20.7649 32.9319 21.6661 32.0307L36.621 17.0758C37.521 16.1746 38.9841 16.1746 39.8841 17.0758C40.7853 17.9769 40.7853 19.4377 39.8841 20.3388L24.9292 35.2938C24.4792 35.7449 23.8884 35.9699 23.2976 35.9699Z" fill="#155263"/>
<path d="M23.2978 35.97C22.707 35.97 22.1174 35.745 21.6662 35.2939L14.127 27.7558C13.2259 26.8547 13.2259 25.3939 14.127 24.4928C15.027 23.5916 16.489 23.5916 17.3901 24.4928L24.9293 32.0308C25.8305 32.932 25.8305 34.3927 24.9293 35.2939C24.4793 35.745 23.8885 35.97 23.2978 35.97Z" fill="#155263"/>
<path d="M26.0564 60.0002C25.8164 60.0002 25.5729 59.9621 25.3329 59.8836C10.5822 55.0179 0.671875 41.3126 0.671875 25.7784C0.671875 24.5045 1.70572 23.4707 2.97956 23.4707C4.2534 23.4707 5.28724 24.5045 5.28724 25.7784C5.28724 39.3153 13.9237 51.2598 26.7787 55.5002C27.9891 55.8994 28.6468 57.2044 28.2475 58.4148C27.9279 59.3852 27.0256 60.0002 26.0564 60.0002Z" fill="#155263"/>
<path d="M2.97956 28.0861C1.70572 28.0861 0.671875 27.0523 0.671875 25.7784V9.4527C0.671875 8.17886 1.70572 7.14502 2.97956 7.14502C4.2534 7.14502 5.28724 8.17886 5.28724 9.4527V25.7784C5.28724 27.0534 4.2534 28.0861 2.97956 28.0861Z" fill="#155263"/>
<path d="M2.97758 11.7602C1.84451 11.7602 0.855666 10.9248 0.694128 9.76978C0.518744 8.50748 1.39913 7.3421 2.66258 7.16672C10.4579 6.08326 17.9821 3.75365 25.0275 0.242509C26.1687 -0.325182 27.5544 0.137509 28.1221 1.27866C28.691 2.41981 28.226 3.80442 27.086 4.37326C19.5917 8.1071 11.5887 10.5844 3.29719 11.7382C3.18989 11.7532 3.08258 11.7602 2.97758 11.7602Z" fill="#155263"/>
<path d="M26.0579 60.0002C25.0898 60.0002 24.1864 59.3852 23.8667 58.4148C23.4675 57.2044 24.1252 55.8994 25.3356 55.5002C38.1905 51.261 46.8271 39.3164 46.8271 25.7784C46.8271 24.5045 47.8609 23.4707 49.1347 23.4707C50.4086 23.4707 51.4424 24.5045 51.4424 25.7784C51.4424 41.3114 41.5321 55.0179 26.7802 59.8836C26.5402 59.9633 26.2979 60.0002 26.0579 60.0002Z" fill="#155263"/>
<path d="M49.1339 28.0861C47.86 28.0861 46.8262 27.0523 46.8262 25.7784V9.4527C46.8262 8.17886 47.86 7.14502 49.1339 7.14502C50.4077 7.14502 51.4415 8.17886 51.4415 9.4527V25.7784C51.4415 27.0534 50.4077 28.0861 49.1339 28.0861Z" fill="#155263"/>
<path d="M49.1365 11.7602C49.0304 11.7602 48.9231 11.7532 48.8158 11.7382C40.5243 10.5844 32.5212 8.1071 25.027 4.37326C23.887 3.80442 23.422 2.41981 23.9909 1.27866C24.5585 0.137509 25.9443 -0.325182 27.0855 0.242509C34.1308 3.7525 41.655 6.08326 49.4504 7.16672C50.7127 7.3421 51.5942 8.50863 51.4188 9.76978C51.2596 10.9248 50.2708 11.7602 49.1365 11.7602Z" fill="#155263"/>
</svg>
