<svg width="66" height="60" viewBox="0 0 66 60" fill="none" xmlns="http://www.w3.org/2000/svg">
<path d="M57.3043 33.0288V30.0194C57.3043 29.4924 56.8771 29.0654 56.3503 29.0654C55.8235 29.0654 55.3963 29.4924 55.3963 30.0194V32.2427C53.9993 31.7833 52.5081 31.5337 50.9594 31.5337C50.8484 31.5337 50.7364 31.5361 50.6244 31.5388V18.1647C50.6244 17.6378 50.1973 17.2107 49.6704 17.2107H49.2929L53.0103 13.2586L56.7277 17.2107H56.3502C55.8233 17.2107 55.3961 17.6378 55.3961 18.1647V26.2964C55.3961 26.8233 55.8232 27.2504 56.3502 27.2504C56.8771 27.2504 57.3042 26.8233 57.3042 26.2964V19.1187H58.9347C59.7455 19.1457 60.2045 18.0832 59.6296 17.5112L53.7052 11.2128C53.3473 10.8159 52.6732 10.8159 52.3155 11.2128L46.3911 17.5112C45.816 18.0834 46.2753 19.1457 47.086 19.1187H48.7165V26.2759C47.4881 24.2061 45.7374 22.4864 43.6523 21.2934V9.70303H45.2828C46.0937 9.72995 46.5527 8.66739 45.9778 8.09549L40.0534 1.79723C39.6955 1.40027 39.0214 1.40027 38.6637 1.79723L32.7393 8.09549C32.1641 8.66752 32.6235 9.73007 33.4342 9.70303H35.0647V19.5747C33.2497 19.7984 31.5371 20.3729 30.0006 21.2328V16.4254H31.6311C32.442 16.4523 32.901 15.3898 32.3261 14.8178L26.4017 8.5195C26.0438 8.12253 25.3697 8.12253 25.012 8.5195L19.0876 14.8178C18.5125 15.3899 18.9718 16.4522 19.7825 16.4254H21.413V29.5069C20.9599 29.4565 20.503 29.4298 20.0431 29.4298C18.7565 29.4298 17.5156 29.629 16.3488 29.9967V8.20378H17.9793C18.7901 8.23069 19.2492 7.16827 18.6742 6.59624L12.7496 0.297724C12.3918 -0.0992414 11.7176 -0.0992414 11.3599 0.297724L5.43534 6.59611C4.86014 7.16827 5.31956 8.23057 6.13025 8.20365H7.76077V16.0286C7.76077 16.5555 8.18795 16.9826 8.71478 16.9826C9.24161 16.9826 9.66879 16.5555 9.66879 16.0286V7.24977C9.66879 6.72281 9.24174 6.29575 8.71478 6.29575H8.33724L12.0546 2.34361L15.7721 6.29575H15.3945C14.8677 6.29575 14.4405 6.72281 14.4405 7.24977V30.78C12.4926 31.7794 10.8445 33.2827 9.66854 35.1168V19.8446C9.66854 19.3177 9.24149 18.8906 8.71453 18.8906C8.18769 18.8906 7.76051 19.3177 7.76051 19.8446V40.8587C7.75747 40.902 7.75366 40.9453 7.75099 40.9887C3.39033 41.9422 0.195312 45.8444 0.195312 50.3821C0.195312 55.6853 4.50989 59.9999 9.81313 59.9999H39.1495C39.6763 59.9999 40.1035 59.5728 40.1035 59.0459C40.1035 58.5189 39.6765 58.0918 39.1495 58.0918H9.81313C5.5619 58.0918 2.10321 54.6332 2.10321 50.3819C2.10321 46.5232 4.98518 43.2377 8.80682 42.7397C9.28338 42.6776 9.63934 42.2706 9.63756 41.7901C9.63743 41.773 9.63705 41.756 9.63629 41.7354C9.64086 36.001 14.3075 31.3375 20.0428 31.3375C21.3075 31.3375 22.5469 31.5639 23.7261 32.0104C24.2652 32.2299 24.9185 31.8566 25.004 31.281C25.9977 25.5419 30.9517 21.3764 36.7836 21.3764C43.098 21.3764 48.3403 26.3096 48.7184 32.6073C48.8147 33.7939 50.1509 33.4358 50.9597 33.4418C57.7559 33.4418 63.2848 38.9708 63.2848 45.7669C63.2848 52.5629 57.7559 58.092 50.9597 58.092H42.9653C42.4385 58.092 42.0113 58.519 42.0113 59.046C42.0113 59.573 42.4385 60 42.9653 60H50.9594C58.8076 60 65.1926 53.615 65.1926 45.7669C65.1926 40.1973 61.9765 35.3655 57.3043 33.0288ZM39.3585 3.84312L43.0759 7.79513H42.6984C42.1716 7.79513 41.7444 8.22219 41.7444 8.74915V20.3867C40.2569 19.8149 38.6484 19.4935 36.9726 19.4709V8.74902C36.9726 8.22206 36.5454 7.79501 36.0186 7.79501H35.641L39.3585 3.84312ZM23.3533 29.8819C23.3425 29.8788 23.3314 29.8763 23.3206 29.8734V15.4713C23.3206 14.9443 22.8935 14.5173 22.3666 14.5173H21.9892L25.7066 10.5653L29.424 14.5173H29.0466C28.5198 14.5173 28.0926 14.9443 28.0926 15.4713V22.5202C25.8105 24.3533 24.1123 26.9046 23.3533 29.8819Z" fill="#155263"/>
<path d="M36.1438 40.7894C36.6707 40.7894 37.0978 40.3623 37.0978 39.8354C37.0978 39.3084 36.6707 38.8813 36.1438 38.8813H31.6767C31.1498 38.8813 30.7227 39.3084 30.7227 39.8354V50.4374C30.7227 50.9644 31.1498 51.3914 31.6767 51.3914H36.1438C36.6707 51.3914 37.0978 50.9644 37.0978 50.4374C37.0978 49.9104 36.6707 49.4834 36.1438 49.4834H32.6306V46.0903H35.8144C36.3412 46.0903 36.7684 45.6633 36.7684 45.1363C36.7684 44.6094 36.3414 44.1823 35.8144 44.1823H32.6306V40.7892H36.1438V40.7894Z" fill="#155263"/>
<path d="M24.8368 49.5324C23.6669 49.5324 22.5373 49.0566 21.8152 48.2598C21.4614 47.8694 20.8582 47.8399 20.4677 48.1934C20.0773 48.5472 20.0476 49.1505 20.4013 49.541C21.4791 50.7303 23.1371 51.4405 24.8367 51.4405C26.8722 51.4405 28.6455 50.1055 28.9616 48.3352C29.3262 46.2931 27.7205 44.9251 26.096 44.3261C24.7192 43.8181 23.4419 43.2636 23.1195 43.1221C22.7776 42.8715 22.6117 42.4714 22.6739 42.0385C22.7521 41.4935 23.1708 41.0561 23.794 40.8685C25.5105 40.3511 27.0617 41.595 27.0923 41.62C27.4956 41.9561 28.0949 41.903 28.433 41.5008C28.772 41.0975 28.7199 40.4957 28.3166 40.1567C28.2219 40.0773 25.9704 38.2205 23.2435 39.0416C21.9109 39.4431 20.969 40.4875 20.7852 41.7674C20.6142 42.9592 21.1302 44.1051 22.132 44.7582C22.1741 44.7857 22.2184 44.8099 22.2644 44.8303C22.3258 44.8576 23.788 45.5085 25.4355 46.1162C26.6184 46.5525 27.219 47.2391 27.0832 48.0001C26.9508 48.7427 26.1184 49.5324 24.8368 49.5324Z" fill="#155263"/>
<path d="M50.6447 45.1362C50.6447 41.6603 47.8168 38.8325 44.341 38.8325C40.865 38.8325 38.0371 41.6604 38.0371 45.1362C38.0371 48.6122 40.865 51.44 44.341 51.44C47.8168 51.4401 50.6447 48.6122 50.6447 45.1362ZM39.945 45.1362C39.945 42.7123 41.917 40.7404 44.3408 40.7404C46.7646 40.7404 48.7366 42.7123 48.7366 45.1362C48.7366 47.5602 46.7646 49.5321 44.3408 49.5321C41.917 49.5322 39.945 47.5602 39.945 45.1362Z" fill="#155263"/>
</svg>
