<svg width="248" height="168" viewBox="0 0 248 168" fill="none" xmlns="http://www.w3.org/2000/svg">
<g opacity="0.5">
<path d="M244.072 161.036C245.728 161.036 247.072 162.379 247.072 164.036C247.072 165.692 245.728 167.036 244.072 167.036C242.415 167.036 241.072 165.692 241.072 164.036C241.072 162.379 242.415 161.036 244.072 161.036ZM217.286 161.036C218.943 161.036 220.286 162.379 220.286 164.036C220.286 165.692 218.943 167.036 217.286 167.036C215.629 167.036 214.286 165.692 214.286 164.036C214.286 162.379 215.629 161.036 217.286 161.036ZM190.5 161.036C192.157 161.036 193.5 162.379 193.5 164.036C193.5 165.692 192.157 167.036 190.5 167.036C188.843 167.036 187.5 165.692 187.5 164.036C187.5 162.379 188.843 161.036 190.5 161.036ZM163.714 161.036C165.371 161.036 166.714 162.379 166.714 164.036C166.714 165.692 165.371 167.036 163.714 167.036C162.058 167.036 160.714 165.692 160.714 164.036C160.714 162.379 162.058 161.036 163.714 161.036ZM136.929 161.036C138.586 161.036 139.929 162.379 139.929 164.036C139.929 165.692 138.586 167.036 136.929 167.036C135.272 167.036 133.929 165.692 133.929 164.036C133.929 162.379 135.272 161.036 136.929 161.036ZM110.143 161.036C111.8 161.036 113.143 162.379 113.143 164.036C113.143 165.692 111.8 167.036 110.143 167.036C108.486 167.036 107.143 165.692 107.143 164.036C107.143 162.379 108.486 161.036 110.143 161.036ZM83.3573 161.036C85.0141 161.036 86.3573 162.379 86.3573 164.036C86.3573 165.692 85.0141 167.036 83.3573 167.036C81.7004 167.036 80.3573 165.692 80.3573 164.036C80.3573 162.379 81.7004 161.036 83.3573 161.036ZM56.5715 161.036C58.2284 161.036 59.5715 162.379 59.5715 164.036C59.5715 165.692 58.2284 167.036 56.5715 167.036C54.9147 167.036 53.5715 165.692 53.5715 164.036C53.5715 162.379 54.9147 161.036 56.5715 161.036ZM29.7858 161.036C31.4427 161.036 32.7858 162.379 32.7858 164.036C32.7858 165.692 31.4427 167.036 29.7858 167.036C28.129 167.036 26.7858 165.692 26.7858 164.036C26.7858 162.379 28.129 161.036 29.7858 161.036ZM3.00011 161.036C4.65697 161.036 6.00011 162.379 6.00011 164.036C6.00011 165.692 4.65697 167.036 3.00011 167.036C1.34325 167.036 0.00010695 165.692 0.000107121 164.036C0.000107292 162.379 1.34325 161.036 3.00011 161.036Z" fill="#6FCF97"/>
<path d="M244.072 134.036C245.728 134.036 247.072 135.379 247.072 137.036C247.072 138.692 245.728 140.036 244.072 140.036C242.415 140.036 241.072 138.692 241.072 137.036C241.072 135.379 242.415 134.036 244.072 134.036ZM217.286 134.036C218.943 134.036 220.286 135.379 220.286 137.036C220.286 138.692 218.943 140.036 217.286 140.036C215.629 140.036 214.286 138.692 214.286 137.036C214.286 135.379 215.629 134.036 217.286 134.036ZM190.5 134.036C192.157 134.036 193.5 135.379 193.5 137.036C193.5 138.692 192.157 140.036 190.5 140.036C188.843 140.036 187.5 138.692 187.5 137.036C187.5 135.379 188.843 134.036 190.5 134.036ZM163.714 134.036C165.371 134.036 166.714 135.379 166.714 137.036C166.714 138.692 165.371 140.036 163.714 140.036C162.058 140.036 160.714 138.692 160.714 137.036C160.714 135.379 162.058 134.036 163.714 134.036ZM136.929 134.036C138.586 134.036 139.929 135.379 139.929 137.036C139.929 138.692 138.586 140.036 136.929 140.036C135.272 140.036 133.929 138.692 133.929 137.036C133.929 135.379 135.272 134.036 136.929 134.036ZM110.143 134.036C111.8 134.036 113.143 135.379 113.143 137.036C113.143 138.692 111.8 140.036 110.143 140.036C108.486 140.036 107.143 138.692 107.143 137.036C107.143 135.379 108.486 134.036 110.143 134.036ZM83.3573 134.036C85.0141 134.036 86.3573 135.379 86.3573 137.036C86.3573 138.692 85.0141 140.036 83.3573 140.036C81.7004 140.036 80.3573 138.692 80.3573 137.036C80.3573 135.379 81.7004 134.036 83.3573 134.036ZM56.5715 134.036C58.2284 134.036 59.5715 135.379 59.5715 137.036C59.5715 138.692 58.2284 140.036 56.5715 140.036C54.9147 140.036 53.5715 138.692 53.5715 137.036C53.5715 135.379 54.9147 134.036 56.5715 134.036ZM29.7858 134.036C31.4427 134.036 32.7858 135.379 32.7858 137.036C32.7858 138.692 31.4427 140.036 29.7858 140.036C28.129 140.036 26.7858 138.692 26.7858 137.036C26.7858 135.379 28.129 134.036 29.7858 134.036ZM3.00011 134.036C4.65697 134.036 6.00011 135.379 6.00011 137.036C6.00011 138.692 4.65697 140.036 3.00011 140.036C1.34325 140.036 0.00010695 138.692 0.000107121 137.036C0.000107292 135.379 1.34325 134.036 3.00011 134.036Z" fill="#6FCF97"/>
<path d="M244.072 107.036C245.728 107.036 247.072 108.379 247.072 110.036C247.072 111.692 245.728 113.036 244.072 113.036C242.415 113.036 241.072 111.692 241.072 110.036C241.072 108.379 242.415 107.036 244.072 107.036ZM217.286 107.036C218.943 107.036 220.286 108.379 220.286 110.036C220.286 111.692 218.943 113.036 217.286 113.036C215.629 113.036 214.286 111.692 214.286 110.036C214.286 108.379 215.629 107.036 217.286 107.036ZM190.5 107.036C192.157 107.036 193.5 108.379 193.5 110.036C193.5 111.692 192.157 113.036 190.5 113.036C188.843 113.036 187.5 111.692 187.5 110.036C187.5 108.379 188.843 107.036 190.5 107.036ZM163.714 107.036C165.371 107.036 166.714 108.379 166.714 110.036C166.714 111.692 165.371 113.036 163.714 113.036C162.058 113.036 160.714 111.692 160.714 110.036C160.714 108.379 162.058 107.036 163.714 107.036ZM136.929 107.036C138.586 107.036 139.929 108.379 139.929 110.036C139.929 111.692 138.586 113.036 136.929 113.036C135.272 113.036 133.929 111.692 133.929 110.036C133.929 108.379 135.272 107.036 136.929 107.036ZM110.143 107.036C111.8 107.036 113.143 108.379 113.143 110.036C113.143 111.692 111.8 113.036 110.143 113.036C108.486 113.036 107.143 111.692 107.143 110.036C107.143 108.379 108.486 107.036 110.143 107.036ZM83.3573 107.036C85.0141 107.036 86.3573 108.379 86.3573 110.036C86.3573 111.692 85.0141 113.036 83.3573 113.036C81.7004 113.036 80.3573 111.692 80.3573 110.036C80.3573 108.379 81.7004 107.036 83.3573 107.036ZM56.5715 107.036C58.2284 107.036 59.5715 108.379 59.5715 110.036C59.5715 111.692 58.2284 113.036 56.5715 113.036C54.9147 113.036 53.5715 111.692 53.5715 110.036C53.5715 108.379 54.9147 107.036 56.5715 107.036ZM29.7858 107.036C31.4427 107.036 32.7858 108.379 32.7858 110.036C32.7858 111.692 31.4427 113.036 29.7858 113.036C28.129 113.036 26.7858 111.692 26.7858 110.036C26.7858 108.379 28.129 107.036 29.7858 107.036ZM3.00011 107.036C4.65697 107.036 6.00011 108.379 6.00011 110.036C6.00011 111.692 4.65697 113.036 3.00011 113.036C1.34325 113.036 0.00010695 111.692 0.000107121 110.036C0.000107292 108.379 1.34325 107.036 3.00011 107.036Z" fill="#6FCF97"/>
<path d="M244.072 80.0356C245.728 80.0356 247.072 81.3788 247.072 83.0356C247.072 84.6925 245.728 86.0356 244.072 86.0356C242.415 86.0356 241.072 84.6925 241.072 83.0356C241.072 81.3788 242.415 80.0356 244.072 80.0356ZM217.286 80.0356C218.943 80.0356 220.286 81.3788 220.286 83.0356C220.286 84.6925 218.943 86.0356 217.286 86.0356C215.629 86.0356 214.286 84.6925 214.286 83.0356C214.286 81.3788 215.629 80.0356 217.286 80.0356ZM190.5 80.0356C192.157 80.0356 193.5 81.3788 193.5 83.0356C193.5 84.6925 192.157 86.0356 190.5 86.0356C188.843 86.0356 187.5 84.6925 187.5 83.0356C187.5 81.3788 188.843 80.0356 190.5 80.0356ZM163.714 80.0356C165.371 80.0356 166.714 81.3788 166.714 83.0356C166.714 84.6925 165.371 86.0356 163.714 86.0356C162.058 86.0356 160.714 84.6925 160.714 83.0356C160.714 81.3788 162.058 80.0356 163.714 80.0356ZM136.929 80.0356C138.586 80.0356 139.929 81.3788 139.929 83.0356C139.929 84.6925 138.586 86.0356 136.929 86.0356C135.272 86.0356 133.929 84.6925 133.929 83.0356C133.929 81.3788 135.272 80.0356 136.929 80.0356ZM110.143 80.0356C111.8 80.0356 113.143 81.3788 113.143 83.0356C113.143 84.6925 111.8 86.0356 110.143 86.0356C108.486 86.0356 107.143 84.6925 107.143 83.0356C107.143 81.3788 108.486 80.0356 110.143 80.0356ZM83.3573 80.0356C85.0141 80.0356 86.3573 81.3788 86.3573 83.0356C86.3573 84.6925 85.0141 86.0356 83.3573 86.0356C81.7004 86.0356 80.3573 84.6925 80.3573 83.0356C80.3573 81.3788 81.7004 80.0356 83.3573 80.0356ZM56.5715 80.0356C58.2284 80.0356 59.5715 81.3788 59.5715 83.0356C59.5715 84.6925 58.2284 86.0356 56.5715 86.0356C54.9147 86.0356 53.5715 84.6925 53.5715 83.0356C53.5715 81.3788 54.9147 80.0356 56.5715 80.0356ZM29.7858 80.0356C31.4427 80.0356 32.7858 81.3788 32.7858 83.0356C32.7858 84.6925 31.4427 86.0356 29.7858 86.0356C28.129 86.0356 26.7858 84.6925 26.7858 83.0356C26.7858 81.3788 28.129 80.0356 29.7858 80.0356ZM3.00011 80.0356C4.65697 80.0356 6.00011 81.3788 6.00011 83.0356C6.00011 84.6925 4.65697 86.0356 3.00011 86.0356C1.34325 86.0356 0.00010695 84.6925 0.000107121 83.0356C0.000107292 81.3788 1.34325 80.0356 3.00011 80.0356Z" fill="#6FCF97"/>
<path d="M244.072 54.0356C245.728 54.0356 247.072 55.3788 247.072 57.0356C247.072 58.6925 245.728 60.0356 244.072 60.0356C242.415 60.0356 241.072 58.6925 241.072 57.0356C241.072 55.3788 242.415 54.0356 244.072 54.0356ZM217.286 54.0356C218.943 54.0356 220.286 55.3788 220.286 57.0356C220.286 58.6925 218.943 60.0356 217.286 60.0356C215.629 60.0356 214.286 58.6925 214.286 57.0356C214.286 55.3788 215.629 54.0356 217.286 54.0356ZM190.5 54.0356C192.157 54.0356 193.5 55.3788 193.5 57.0356C193.5 58.6925 192.157 60.0356 190.5 60.0356C188.843 60.0356 187.5 58.6925 187.5 57.0356C187.5 55.3788 188.843 54.0356 190.5 54.0356ZM163.714 54.0356C165.371 54.0356 166.714 55.3788 166.714 57.0356C166.714 58.6925 165.371 60.0356 163.714 60.0356C162.058 60.0356 160.714 58.6925 160.714 57.0356C160.714 55.3788 162.058 54.0356 163.714 54.0356ZM136.929 54.0356C138.586 54.0356 139.929 55.3788 139.929 57.0356C139.929 58.6925 138.586 60.0356 136.929 60.0356C135.272 60.0356 133.929 58.6925 133.929 57.0356C133.929 55.3788 135.272 54.0356 136.929 54.0356ZM110.143 54.0356C111.8 54.0356 113.143 55.3788 113.143 57.0356C113.143 58.6925 111.8 60.0356 110.143 60.0356C108.486 60.0356 107.143 58.6925 107.143 57.0356C107.143 55.3788 108.486 54.0356 110.143 54.0356ZM83.3573 54.0356C85.0141 54.0356 86.3573 55.3788 86.3573 57.0356C86.3573 58.6925 85.0141 60.0356 83.3573 60.0356C81.7004 60.0356 80.3573 58.6925 80.3573 57.0356C80.3573 55.3788 81.7004 54.0356 83.3573 54.0356ZM56.5715 54.0356C58.2284 54.0356 59.5715 55.3788 59.5715 57.0356C59.5715 58.6925 58.2284 60.0356 56.5715 60.0356C54.9147 60.0356 53.5715 58.6925 53.5715 57.0356C53.5715 55.3788 54.9147 54.0356 56.5715 54.0356ZM29.7858 54.0356C31.4427 54.0356 32.7858 55.3788 32.7858 57.0356C32.7858 58.6925 31.4427 60.0356 29.7858 60.0356C28.129 60.0356 26.7858 58.6925 26.7858 57.0356C26.7858 55.3788 28.129 54.0356 29.7858 54.0356ZM3.00011 54.0356C4.65697 54.0356 6.00011 55.3788 6.00011 57.0356C6.00011 58.6925 4.65697 60.0356 3.00011 60.0356C1.34325 60.0356 0.00010695 58.6925 0.000107121 57.0356C0.000107292 55.3788 1.34325 54.0356 3.00011 54.0356Z" fill="#6FCF97"/>
<path d="M244.072 27.0356C245.728 27.0356 247.072 28.3788 247.072 30.0356C247.072 31.6925 245.728 33.0356 244.072 33.0356C242.415 33.0356 241.072 31.6925 241.072 30.0356C241.072 28.3788 242.415 27.0356 244.072 27.0356ZM217.286 27.0356C218.943 27.0356 220.286 28.3788 220.286 30.0356C220.286 31.6925 218.943 33.0356 217.286 33.0356C215.629 33.0356 214.286 31.6925 214.286 30.0356C214.286 28.3788 215.629 27.0356 217.286 27.0356ZM190.5 27.0356C192.157 27.0356 193.5 28.3788 193.5 30.0356C193.5 31.6925 192.157 33.0356 190.5 33.0356C188.843 33.0356 187.5 31.6925 187.5 30.0356C187.5 28.3788 188.843 27.0356 190.5 27.0356ZM163.714 27.0356C165.371 27.0356 166.714 28.3788 166.714 30.0356C166.714 31.6925 165.371 33.0356 163.714 33.0356C162.058 33.0356 160.714 31.6925 160.714 30.0356C160.714 28.3788 162.058 27.0356 163.714 27.0356ZM136.929 27.0356C138.586 27.0356 139.929 28.3788 139.929 30.0356C139.929 31.6925 138.586 33.0356 136.929 33.0356C135.272 33.0356 133.929 31.6925 133.929 30.0356C133.929 28.3788 135.272 27.0356 136.929 27.0356ZM110.143 27.0356C111.8 27.0356 113.143 28.3788 113.143 30.0356C113.143 31.6925 111.8 33.0356 110.143 33.0356C108.486 33.0356 107.143 31.6925 107.143 30.0356C107.143 28.3788 108.486 27.0356 110.143 27.0356ZM83.3573 27.0356C85.0141 27.0356 86.3573 28.3788 86.3573 30.0356C86.3573 31.6925 85.0141 33.0356 83.3573 33.0356C81.7004 33.0356 80.3573 31.6925 80.3573 30.0356C80.3573 28.3788 81.7004 27.0356 83.3573 27.0356ZM56.5715 27.0356C58.2284 27.0356 59.5715 28.3788 59.5715 30.0356C59.5715 31.6925 58.2284 33.0356 56.5715 33.0356C54.9147 33.0356 53.5715 31.6925 53.5715 30.0356C53.5715 28.3788 54.9147 27.0356 56.5715 27.0356ZM29.7858 27.0356C31.4427 27.0356 32.7858 28.3788 32.7858 30.0356C32.7858 31.6925 31.4427 33.0356 29.7858 33.0356C28.129 33.0356 26.7858 31.6925 26.7858 30.0356C26.7858 28.3788 28.129 27.0356 29.7858 27.0356ZM3.00011 27.0356C4.65697 27.0356 6.00011 28.3788 6.00011 30.0356C6.00011 31.6925 4.65697 33.0356 3.00011 33.0356C1.34325 33.0356 0.00010695 31.6925 0.000107121 30.0356C0.000107292 28.3788 1.34325 27.0356 3.00011 27.0356Z" fill="#6FCF97"/>
<path d="M244.072 0.0356443C245.728 0.0356444 247.072 1.37879 247.072 3.03564C247.072 4.6925 245.728 6.03564 244.072 6.03564C242.415 6.03564 241.072 4.6925 241.072 3.03564C241.072 1.37879 242.415 0.0356441 244.072 0.0356443ZM217.286 0.0356419C218.943 0.0356421 220.286 1.37879 220.286 3.03564C220.286 4.6925 218.943 6.03564 217.286 6.03564C215.629 6.03564 214.286 4.6925 214.286 3.03564C214.286 1.37879 215.629 0.0356418 217.286 0.0356419ZM190.5 0.0356396C192.157 0.0356397 193.5 1.37879 193.5 3.03564C193.5 4.69249 192.157 6.03564 190.5 6.03564C188.843 6.03564 187.5 4.69249 187.5 3.03564C187.5 1.37879 188.843 0.0356394 190.5 0.0356396ZM163.714 0.0356372C165.371 0.0356374 166.714 1.37878 166.714 3.03564C166.714 4.69249 165.371 6.03564 163.714 6.03564C162.058 6.03564 160.714 4.69249 160.714 3.03564C160.714 1.37878 162.058 0.0356371 163.714 0.0356372ZM136.929 0.0356349C138.586 0.035635 139.929 1.37878 139.929 3.03564C139.929 4.69249 138.586 6.03564 136.929 6.03563C135.272 6.03563 133.929 4.69249 133.929 3.03563C133.929 1.37878 135.272 0.0356348 136.929 0.0356349ZM110.143 0.0356326C111.8 0.0356327 113.143 1.37878 113.143 3.03563C113.143 4.69249 111.8 6.03563 110.143 6.03563C108.486 6.03563 107.143 4.69249 107.143 3.03563C107.143 1.37878 108.486 0.0356324 110.143 0.0356326ZM83.3573 0.0356302C85.0141 0.0356304 86.3573 1.37878 86.3573 3.03563C86.3573 4.69248 85.0141 6.03563 83.3573 6.03563C81.7004 6.03563 80.3573 4.69248 80.3573 3.03563C80.3573 1.37878 81.7004 0.0356301 83.3573 0.0356302ZM56.5715 0.0356279C58.2284 0.035628 59.5715 1.37877 59.5715 3.03563C59.5715 4.69248 58.2284 6.03563 56.5715 6.03563C54.9147 6.03563 53.5715 4.69248 53.5715 3.03563C53.5715 1.37877 54.9147 0.0356277 56.5715 0.0356279ZM29.7858 0.0356255C31.4427 0.0356257 32.7858 1.37877 32.7858 3.03563C32.7858 4.69248 31.4427 6.03563 29.7858 6.03563C28.129 6.03563 26.7858 4.69248 26.7858 3.03563C26.7858 1.37877 28.129 0.0356254 29.7858 0.0356255ZM3.00011 0.0356232C4.65697 0.0356233 6.00011 1.37877 6.00011 3.03562C6.00011 4.69248 4.65697 6.03562 3.00011 6.03562C1.34325 6.03562 0.00010695 4.69248 0.000107121 3.03562C0.000107292 1.37877 1.34325 0.035623 3.00011 0.0356232Z" fill="#6FCF97"/>
</g>
</svg>
