<svg width="70" height="61" viewBox="0 0 70 61" fill="none" xmlns="http://www.w3.org/2000/svg">
<path d="M60.5134 42.3863H8.60782C8.29543 42.3863 8.04199 42.1329 8.04199 41.8205V10.9341C8.04199 9.35338 9.32836 8.06738 10.9094 8.06738H14.689C15.0013 8.06738 15.2548 8.32083 15.2548 8.63321C15.2548 8.94559 15.0013 9.19903 14.689 9.19903H10.9094C9.95239 9.19903 9.17364 9.97741 9.17364 10.9341V41.2547H59.9475V10.9341C59.9475 9.97741 59.1688 9.19903 58.2118 9.19903H54.4322C54.1198 9.19903 53.8664 8.94559 53.8664 8.63321C53.8664 8.32083 54.1198 8.06738 54.4322 8.06738H58.2118C59.7928 8.06738 61.0792 9.35338 61.0792 10.9341V41.8205C61.0792 42.1329 60.8257 42.3863 60.5134 42.3863Z" fill="#155263"/>
<path d="M57.4944 39.3694C57.182 39.3694 56.9286 39.116 56.9286 38.8036V12.2176H55.4418C55.1294 12.2176 54.876 11.9641 54.876 11.6518C54.876 11.3394 55.1294 11.0859 55.4418 11.0859H57.4944C57.8068 11.0859 58.0602 11.3394 58.0602 11.6518V38.8036C58.0602 39.116 57.8068 39.3694 57.4944 39.3694Z" fill="#155263"/>
<path d="M11.6254 39.3694C11.313 39.3694 11.0596 39.116 11.0596 38.8036V11.6518C11.0596 11.3394 11.313 11.0859 11.6254 11.0859H13.678C13.9904 11.0859 14.2438 11.3394 14.2438 11.6518C14.2438 11.9641 13.9904 12.2176 13.678 12.2176H12.1912V38.8036C12.1912 39.116 11.9378 39.3694 11.6254 39.3694Z" fill="#155263"/>
<path d="M66.1381 60.3087H2.98239C1.9421 60.3087 1.00127 59.7761 0.466391 58.8835C-0.0692263 57.9905 -0.0957494 56.9097 0.394927 55.9914L8.10944 41.554C8.20743 41.3698 8.39972 41.2549 8.60822 41.2549H60.5123C60.7208 41.2549 60.9131 41.3698 61.0111 41.554L68.7256 55.9914C69.2163 56.9097 69.1897 57.9905 68.6541 58.8835C68.1192 59.7761 67.1784 60.3087 66.1381 60.3087ZM8.94713 42.3865L1.39249 56.5248C1.09116 57.0888 1.1081 57.7529 1.43669 58.3014C1.76528 58.85 2.34289 59.1771 2.98239 59.1771H66.1381C66.7776 59.1771 67.3552 58.85 67.6838 58.3014C68.0124 57.7529 68.0294 57.0888 67.728 56.5248L60.1734 42.3865H8.94713Z" fill="#155263"/>
<path d="M51.0744 57.2947H49.0756C48.7632 57.2947 48.5098 57.0413 48.5098 56.7289C48.5098 56.4165 48.7632 56.1631 49.0756 56.1631H51.0744C51.3868 56.1631 51.6402 56.4165 51.6402 56.7289C51.6402 57.0413 51.3868 57.2947 51.0744 57.2947Z" fill="#155263"/>
<path d="M60.9795 57.2947H54.8461C54.5337 57.2947 54.2803 57.0413 54.2803 56.7289C54.2803 56.4165 54.5337 56.1631 54.8461 56.1631H60.9795C61.2919 56.1631 61.5454 56.4165 61.5454 56.7289C61.5454 57.0413 61.2919 57.2947 60.9795 57.2947Z" fill="#155263"/>
<path d="M41.3589 60.3085H27.7629C27.5861 60.3085 27.4196 60.226 27.3128 60.0856C27.206 59.9449 27.1706 59.7626 27.2177 59.5924L28.4717 55.0411C28.7163 54.1511 29.5326 53.5293 30.4558 53.5293H38.6661C39.5893 53.5293 40.4056 54.1511 40.6502 55.0411L41.9041 59.5924C41.9513 59.7626 41.9159 59.9449 41.8091 60.0856C41.7023 60.226 41.5357 60.3085 41.3589 60.3085ZM28.5056 59.1769H40.6163L39.5598 55.3417C39.4493 54.9409 39.0816 54.6609 38.6661 54.6609H30.4558C30.0402 54.6609 29.6726 54.9409 29.5621 55.3417L28.5056 59.1769Z" fill="#155263"/>
<path d="M15.7382 47.0456H14.4923C14.0783 47.0456 13.7209 46.8724 13.511 46.5707C13.3069 46.2764 13.2678 45.8962 13.4049 45.5267L13.8079 44.4397C14.0355 43.826 14.7207 43.3633 15.4007 43.3633H16.5898C16.9943 43.3633 17.3487 43.5302 17.5616 43.8208C17.7635 44.0975 17.8151 44.4574 17.7031 44.8084L17.3561 45.8959C17.1461 46.5516 16.4506 47.0456 15.7382 47.0456ZM15.4007 44.4949C15.176 44.4949 14.9255 44.6802 14.8688 44.8335L14.4658 45.9205L15.7382 45.9139C15.9732 45.9139 16.2251 45.7157 16.2775 45.5514L16.6149 44.4957C16.6075 44.4953 16.5994 44.4949 16.5898 44.4949H15.4007Z" fill="#155263"/>
<path d="M22.2196 47.0456H20.9737C20.5663 47.0456 20.2024 46.8776 19.9754 46.5847C19.7603 46.307 19.6896 45.9415 19.7817 45.5827L20.0594 44.4964C20.2252 43.8499 20.8824 43.3633 21.5882 43.3633H22.778C23.1752 43.3633 23.534 43.5243 23.7631 43.8046C23.9753 44.0647 24.057 44.4091 23.9871 44.7498L23.766 45.8369C23.6275 46.5147 22.9482 47.0456 22.2196 47.0456ZM21.5882 44.4949C21.3885 44.4949 21.1881 44.6493 21.1557 44.7771L20.878 45.8638C20.875 45.8966 20.9074 45.9139 20.9737 45.9139H22.2196C22.4274 45.9139 22.6285 45.7481 22.6572 45.6107L22.8782 44.5233C22.8797 44.5141 22.8466 44.4949 22.778 44.4949H21.5882Z" fill="#155263"/>
<path d="M28.7017 47.0456H27.4559C27.0573 47.0456 26.6889 46.8842 26.4443 46.6031C26.2137 46.3375 26.115 45.9972 26.1651 45.6443L26.3183 44.5576C26.4119 43.8878 27.0529 43.3633 27.7771 43.3633H28.9669C29.3545 43.3633 29.7169 43.5169 29.9616 43.7851C30.1885 44.0326 30.2968 44.3531 30.2666 44.6872L30.1701 45.7739C30.1052 46.4875 29.4606 47.0456 28.7017 47.0456ZM27.7771 44.4949C27.5922 44.4949 27.4507 44.6275 27.4389 44.7152L27.2849 45.8027C27.31 45.8738 27.3527 45.9139 27.4559 45.9139H28.7017C28.8815 45.9139 29.0325 45.7842 29.0428 45.6726L29.1393 44.5863C29.1025 44.5226 29.0487 44.4949 28.9669 44.4949H27.7771Z" fill="#155263"/>
<path d="M35.1835 47.0456H33.9384C33.5509 47.0456 33.1796 46.8923 32.9188 46.6249C32.6749 46.3755 32.546 46.0506 32.5541 45.7098L32.5828 44.6213C32.5997 43.9284 33.2208 43.3633 33.9664 43.3633H35.1555C35.9011 43.3633 36.5222 43.9284 36.5392 44.6228L36.5679 45.7087C36.576 46.0506 36.4471 46.3755 36.2032 46.6249C35.9424 46.8923 35.5711 47.0456 35.1835 47.0456ZM33.9664 44.4949C33.8147 44.4949 33.7159 44.587 33.7145 44.65L33.6857 45.7389C33.685 45.7721 33.699 45.8045 33.7285 45.8347C33.7778 45.8852 33.8544 45.9139 33.9384 45.9139H35.1835C35.2675 45.9139 35.3441 45.8852 35.3935 45.8347C35.423 45.8045 35.437 45.7721 35.4362 45.7378L35.4075 44.6515C35.406 44.587 35.3073 44.4949 35.1555 44.4949H33.9664Z" fill="#155263"/>
<path d="M41.6643 47.0456H40.4185C39.6596 47.0456 39.0149 46.4875 38.9501 45.775L38.8536 44.6865C38.8234 44.3531 38.9317 44.0326 39.1586 43.7851C39.4032 43.5169 39.7657 43.3633 40.1532 43.3633H41.3431C42.0673 43.3633 42.7083 43.8878 42.8026 44.5576L42.9551 45.645C43.0052 45.9972 42.9065 46.3375 42.6759 46.6031C42.4313 46.8842 42.0629 47.0456 41.6643 47.0456ZM40.1532 44.4949C40.0714 44.4949 40.0177 44.5226 39.9934 44.5483L40.0773 45.6737C40.0877 45.7842 40.2387 45.9139 40.4185 45.9139H41.6643C41.7674 45.9139 41.8102 45.8738 41.8212 45.8612L41.682 44.7152C41.6695 44.6275 41.528 44.4949 41.3431 44.4949H40.1532Z" fill="#155263"/>
<path d="M48.1465 47.0456H46.9007C46.172 47.0456 45.4927 46.5147 45.355 45.8369L45.1325 44.7495C45.0632 44.4091 45.145 44.0647 45.3572 43.8046C45.5863 43.5243 45.9451 43.3633 46.3422 43.3633H47.5321C48.2379 43.3633 48.8951 43.8499 49.0608 44.4957L49.3386 45.5838C49.4307 45.9415 49.3599 46.307 49.1448 46.5847C48.9179 46.8776 48.5539 47.0456 48.1465 47.0456ZM46.3422 44.4949C46.2737 44.4949 46.2405 44.5141 46.2339 44.5207L46.4638 45.6107C46.4918 45.7481 46.6929 45.9139 46.9007 45.9139H48.1465C48.2128 45.9139 48.2452 45.8966 48.2511 45.8907L47.9645 44.7764C47.9321 44.6493 47.7317 44.4949 47.5321 44.4949H46.3422Z" fill="#155263"/>
<path d="M54.6292 47.0456H53.3833C52.6709 47.0456 51.9754 46.5516 51.7654 45.8962L51.4184 44.8084C51.3064 44.4574 51.358 44.0975 51.5599 43.8208C51.7728 43.5302 52.1272 43.3633 52.5316 43.3633H53.7207C54.4008 43.3633 55.0859 43.826 55.3136 44.4393L55.7166 45.5271C55.8536 45.8962 55.8146 46.2764 55.6105 46.5707C55.4005 46.8724 55.0432 47.0456 54.6292 47.0456ZM52.5316 44.4949C52.4867 44.4949 52.4616 44.5034 52.4557 44.5067L52.844 45.5518C52.8963 45.7157 53.1483 45.9139 53.3833 45.9139H54.6292C54.6726 45.9139 54.6969 45.9062 54.7028 45.9032L54.2527 44.8331C54.196 44.6802 53.9455 44.4949 53.7207 44.4949H52.5316Z" fill="#155263"/>
<path d="M13.9804 52.3046H12.6181C12.1989 52.3046 11.8335 52.1256 11.6162 51.8136C11.3907 51.4891 11.3509 51.0614 11.5071 50.64L11.9875 49.3455C12.2431 48.6566 12.9791 48.1372 13.6997 48.1372H14.9949C15.4053 48.1372 15.767 48.31 15.9873 48.6109C16.2091 48.9148 16.2636 49.3167 16.1369 49.7146L15.7235 51.0087C15.4907 51.7355 14.7252 52.3046 13.9804 52.3046ZM12.5474 51.1664C12.5548 51.1664 12.5776 51.173 12.6181 51.173H13.9804C14.2382 51.173 14.5617 50.9258 14.6457 50.6643L15.0582 49.3705C15.0745 49.3201 15.0737 49.2884 15.0715 49.277C15.0641 49.2777 15.0465 49.2689 14.9949 49.2689H13.6997C13.4543 49.2689 13.1383 49.4976 13.0484 49.7393L12.568 51.0337C12.5415 51.1056 12.543 51.1509 12.5459 51.1667C12.5467 51.1667 12.5474 51.1664 12.5474 51.1664Z" fill="#155263"/>
<path d="M21.0683 52.3046H19.7068C19.2927 52.3046 18.9207 52.1304 18.6849 51.8265C18.4455 51.5185 18.3689 51.1063 18.4735 50.6963L18.805 49.4022C18.9892 48.6809 19.6913 48.1372 20.4384 48.1372H21.7336C22.1366 48.1372 22.5035 48.3041 22.7415 48.5951C22.9765 48.8824 23.0656 49.2692 22.9875 49.6553L22.7223 50.9501C22.5676 51.7093 21.8412 52.3046 21.0683 52.3046ZM20.4384 49.2689C20.2166 49.2689 19.9558 49.47 19.9013 49.6829L19.5698 50.977C19.5528 51.0441 19.5558 51.1034 19.5786 51.1325C19.5985 51.1583 19.6449 51.173 19.7068 51.173H21.0683C21.3055 51.173 21.5656 50.959 21.6135 50.7236L21.8787 49.4291C21.8891 49.3775 21.8839 49.3344 21.8655 49.3112C21.8434 49.2847 21.7948 49.2689 21.7336 49.2689H20.4384Z" fill="#155263"/>
<path d="M28.1537 52.3046H26.7921C26.3869 52.3046 26.009 52.1367 25.7541 51.8442C25.5006 51.5524 25.3872 51.1564 25.4424 50.7582L25.6259 49.4634C25.7297 48.72 26.4105 48.1372 27.1745 48.1372H28.4697C28.8631 48.1372 29.2345 48.2971 29.4901 48.5759C29.7421 48.8515 29.8629 49.2125 29.829 49.5923L29.7134 50.8871C29.6426 51.6821 28.9574 52.3046 28.1537 52.3046ZM27.1745 49.2689C26.9763 49.2689 26.7722 49.4368 26.7465 49.6214L26.563 50.9159C26.5527 50.991 26.5682 51.0555 26.608 51.1015C26.6492 51.1483 26.7126 51.173 26.7921 51.173H28.1537C28.3658 51.173 28.5677 50.9925 28.5861 50.7862L28.7018 49.4921C28.707 49.4309 28.6915 49.3797 28.6554 49.34C28.6134 49.2943 28.5471 49.2689 28.4697 49.2689H27.1745Z" fill="#155263"/>
<path d="M35.241 52.3046H33.8794C33.4787 52.3046 33.1059 52.1481 32.8288 51.8641C32.5555 51.5834 32.4111 51.2131 32.4214 50.8216L32.4546 49.5282C32.4752 48.7609 33.1294 48.1372 33.9126 48.1372H35.2078C35.991 48.1372 36.6452 48.7609 36.6658 49.5275L36.699 50.8223C36.7093 51.2131 36.5649 51.5834 36.2916 51.8641C36.0145 52.1481 35.6418 52.3046 35.241 52.3046ZM33.9126 49.2689C33.7365 49.2689 33.5906 49.3985 33.5862 49.5577L33.5531 50.851C33.5509 50.9354 33.5818 51.0146 33.64 51.0746C33.7019 51.138 33.7866 51.173 33.8794 51.173H35.241C35.3338 51.173 35.4185 51.138 35.4804 51.0746C35.5386 51.0146 35.5695 50.9354 35.5673 50.8518L35.5342 49.5569C35.5298 49.3985 35.3839 49.2689 35.2078 49.2689H33.9126Z" fill="#155263"/>
<path d="M42.3276 52.3046H40.9661C40.1623 52.3046 39.4772 51.6821 39.4064 50.8871L39.2908 49.593C39.2569 49.2125 39.3777 48.8515 39.6297 48.5759C39.8853 48.2971 40.2566 48.1372 40.6501 48.1372H41.9453C42.7093 48.1372 43.39 48.72 43.4947 49.4637L43.6766 50.7575C43.7326 51.1564 43.6192 51.5524 43.3657 51.8442C43.1108 52.1367 42.7329 52.3046 42.3276 52.3046ZM40.6501 49.2689C40.5727 49.2689 40.5064 49.2943 40.4644 49.34C40.4283 49.3797 40.4128 49.4309 40.418 49.4928L40.5337 50.7862C40.5521 50.9925 40.7539 51.173 40.9661 51.173H42.3276C42.4072 51.173 42.4706 51.1483 42.5118 51.1015C42.5516 51.0555 42.5671 50.991 42.556 50.9151L42.3741 49.6218C42.3475 49.4368 42.1435 49.2689 41.9453 49.2689H40.6501Z" fill="#155263"/>
<path d="M49.4145 52.3046H48.053C47.2801 52.3046 46.5537 51.7093 46.3982 50.9498L46.1345 49.656C46.0557 49.2692 46.1448 48.8824 46.3798 48.5951C46.6178 48.3041 46.9847 48.1372 47.3877 48.1372H48.6829C49.43 48.1372 50.1321 48.6809 50.3163 49.4022L50.6478 50.6963C50.7524 51.1063 50.6758 51.5185 50.4364 51.8265C50.2006 52.1304 49.8285 52.3046 49.4145 52.3046ZM47.3877 49.2689C47.3265 49.2689 47.2779 49.2847 47.2558 49.3112C47.2374 49.3344 47.2322 49.3775 47.2433 49.4298L47.5071 50.7232C47.5557 50.959 47.8158 51.173 48.053 51.173H49.4145C49.4764 51.173 49.5228 51.1583 49.5427 51.1325C49.5655 51.1034 49.5685 51.0441 49.5515 50.977L49.22 49.6829C49.1655 49.47 48.9047 49.2689 48.6829 49.2689H47.3877Z" fill="#155263"/>
<path d="M56.5028 52.3046H55.1405C54.3957 52.3046 53.6302 51.7355 53.3981 51.0091L52.9841 49.7146C52.8573 49.3167 52.9119 48.9148 53.1336 48.6109C53.3539 48.31 53.7156 48.1372 54.126 48.1372H55.4212C56.1418 48.1372 56.8778 48.6566 57.1334 49.3458L57.6138 50.6396C57.77 51.0614 57.7302 51.4891 57.5048 51.8136C57.2874 52.1256 56.922 52.3046 56.5028 52.3046ZM54.0435 49.2836C54.0479 49.2836 54.045 49.3164 54.0627 49.3705L54.476 50.6646C54.5592 50.9258 54.8827 51.173 55.1405 51.173H56.5028C56.561 51.173 56.5823 51.1597 56.5823 51.1597C56.5779 51.1597 56.5823 51.1126 56.5529 51.0334L56.0725 49.7396C55.9826 49.4976 55.6666 49.2689 55.4212 49.2689H54.126C54.0656 49.2689 54.0435 49.2836 54.0428 49.2836C54.0435 49.2836 54.0435 49.2836 54.0435 49.2836Z" fill="#155263"/>
<path d="M48.6683 35.6499H20.4449C19.4797 35.6499 18.6943 34.726 18.6943 33.5903V16.3139C18.6943 16.0015 18.9478 15.748 19.2602 15.748C19.5725 15.748 19.826 16.0015 19.826 16.3139V33.5903C19.826 34.0847 20.1155 34.5182 20.4449 34.5182H48.6683C48.9991 34.5182 49.2791 34.0931 49.2791 33.5903V16.3212C49.2791 16.0089 49.5325 15.7554 49.8449 15.7554C50.1573 15.7554 50.4107 16.0089 50.4107 16.3212V33.5903C50.4107 34.7452 49.6452 35.6499 48.6683 35.6499Z" fill="#155263"/>
<path d="M20.4774 17.0457C18.4477 17.0457 16.6345 15.9111 15.746 14.0851C15.217 12.9973 15.1979 11.7179 15.6929 10.5756L19.6714 1.40267C19.9595 0.738119 20.6144 0.308594 21.3387 0.308594H27.5369C27.7079 0.308594 27.87 0.385953 27.9775 0.519304C28.0851 0.652288 28.1263 0.827266 28.0902 0.994508L25.7363 11.8491C25.7024 14.7202 23.3566 17.0457 20.4774 17.0457ZM21.3387 1.44024C21.0653 1.44024 20.8185 1.60233 20.7102 1.85282L16.7318 11.0257C16.3671 11.8649 16.3789 12.7995 16.7642 13.59C17.4611 15.0237 18.8845 15.9141 20.4774 15.9141C22.7532 15.9141 24.6047 14.0626 24.6047 11.7868C24.6047 11.7466 24.6091 11.7061 24.6172 11.6667L26.8356 1.44024H21.3387Z" fill="#155263"/>
<path d="M29.8624 17.0457C26.9626 17.0457 24.6035 14.6866 24.6035 11.7868C24.6035 11.7466 24.6079 11.7061 24.616 11.6667L26.9825 0.754328C27.0392 0.494255 27.2698 0.308594 27.5358 0.308594H34.5555C34.8679 0.308594 35.1214 0.562036 35.1214 0.874418V11.7868C35.1214 14.6866 32.7623 17.0457 29.8624 17.0457ZM25.7359 11.8454C25.7668 14.0943 27.6065 15.9141 29.8624 15.9141C32.1383 15.9141 33.9897 14.0626 33.9897 11.7868V1.44024H27.9918L25.7359 11.8454Z" fill="#155263"/>
<path d="M39.2484 17.0457C36.3493 17.0457 33.9902 14.6866 33.9902 11.7868V0.874418C33.9902 0.562036 34.2437 0.308594 34.5561 0.308594H41.5751C41.841 0.308594 42.0716 0.494255 42.1284 0.754328L44.4948 11.6667C44.5029 11.7061 44.5073 11.7466 44.5073 11.7868C44.5073 14.6866 42.1483 17.0457 39.2484 17.0457ZM35.1219 1.44024V11.7868C35.1219 14.0626 36.9733 15.9141 39.2484 15.9141C41.5044 15.9141 43.344 14.0943 43.375 11.8457L41.119 1.44024H35.1219Z" fill="#155263"/>
<path d="M48.6334 17.0457C45.7542 17.0457 43.4084 14.7202 43.3745 11.8491L41.0206 0.994508C40.9845 0.827266 41.0257 0.652288 41.1333 0.519304C41.2409 0.385953 41.403 0.308594 41.5739 0.308594H47.7722C48.4964 0.308594 49.1514 0.738119 49.4394 1.40267L53.4231 10.5863C53.8813 11.6439 53.9034 12.8234 53.4842 13.8221C52.6612 15.7804 50.7575 17.0457 48.6334 17.0457ZM42.2753 1.44024L44.4936 11.6667C44.5017 11.7061 44.5062 11.7466 44.5062 11.7868C44.5062 14.0626 46.3576 15.9141 48.6334 15.9141C50.3007 15.9141 51.7948 14.9209 52.441 13.3837C52.7416 12.668 52.7209 11.8126 52.3842 11.0364L48.4006 1.85282C48.2923 1.60233 48.0455 1.44024 47.7722 1.44024H42.2753Z" fill="#155263"/>
<path d="M45.165 35.648H35.224C34.9116 35.648 34.6582 35.3945 34.6582 35.0822V22.2623C34.6582 21.3005 35.4406 20.5181 36.4028 20.5181H43.9869C44.9484 20.5181 45.7308 21.3005 45.7308 22.2623V35.0822C45.7308 35.3945 45.4774 35.648 45.165 35.648ZM35.7899 34.5163H44.5992V22.2623C44.5992 21.9245 44.3244 21.6497 43.9869 21.6497H36.4028C36.0647 21.6497 35.7899 21.9245 35.7899 22.2623V34.5163Z" fill="#155263"/>
<path d="M29.547 27.6579H25.1228C24.1613 27.6579 23.3789 26.8755 23.3789 25.9137V22.2623C23.3789 21.3005 24.1613 20.5181 25.1228 20.5181H29.547C30.5084 20.5181 31.2909 21.3005 31.2909 22.2623V25.9137C31.2909 26.8755 30.5084 27.6579 29.547 27.6579ZM25.1228 21.6497C24.7854 21.6497 24.5106 21.9245 24.5106 22.2623V25.9137C24.5106 26.2515 24.7854 26.5263 25.1228 26.5263H29.547C29.8844 26.5263 30.1592 26.2515 30.1592 25.9137V22.2623C30.1592 21.9245 29.8844 21.6497 29.547 21.6497H25.1228Z" fill="#155263"/>
</svg>
