<svg width="64" height="61" viewBox="0 0 64 61" fill="none" xmlns="http://www.w3.org/2000/svg">
<path d="M59.2419 0.308594H4.24186C3.13719 0.309895 2.07814 0.749299 1.29702 1.53042C0.515901 2.31154 0.0764965 3.37059 0.0751953 4.47526V56.1419C0.0764965 57.2466 0.515901 58.3056 1.29702 59.0868C2.07814 59.8679 3.13719 60.3073 4.24186 60.3086H59.2419C60.3465 60.3073 61.4056 59.8679 62.1867 59.0868C62.9678 58.3056 63.4072 57.2466 63.4085 56.1419V4.47526C63.4072 3.37059 62.9678 2.31154 62.1867 1.53042C61.4056 0.749299 60.3465 0.309895 59.2419 0.308594ZM4.24186 1.97526H59.2419C59.9047 1.97599 60.5401 2.23961 61.0088 2.7083C61.4775 3.17698 61.7411 3.81244 61.7419 4.47526V10.3086H1.74186V4.47526C1.74259 3.81244 2.00622 3.17698 2.4749 2.7083C2.94358 2.23961 3.57904 1.97599 4.24186 1.97526ZM59.2419 58.6419H4.24186C3.57904 58.6412 2.94358 58.3776 2.4749 57.9089C2.00622 57.4402 1.74259 56.8047 1.74186 56.1419V11.9753H61.7419V56.1419C61.7411 56.8047 61.4775 57.4402 61.0088 57.9089C60.5401 58.3776 59.9047 58.6412 59.2419 58.6419Z" fill="#155263"/>
<path d="M7.5752 8.64209C8.06965 8.64209 8.553 8.49547 8.96412 8.22077C9.37524 7.94606 9.69568 7.55561 9.88489 7.0988C10.0741 6.64198 10.1236 6.13932 10.0272 5.65437C9.9307 5.16941 9.69259 4.72396 9.34296 4.37432C8.99333 4.02469 8.54787 3.78659 8.06292 3.69013C7.57797 3.59366 7.0753 3.64317 6.61849 3.83239C6.16167 4.02161 5.77122 4.34204 5.49652 4.75317C5.22182 5.16429 5.0752 5.64764 5.0752 6.14209C5.07592 6.80491 5.33955 7.44037 5.80823 7.90905C6.27692 8.37774 6.91238 8.64136 7.5752 8.64209ZM7.5752 5.30876C7.74001 5.30876 7.90113 5.35763 8.03817 5.4492C8.17521 5.54077 8.28202 5.67092 8.34509 5.82319C8.40817 5.97546 8.42467 6.14302 8.39252 6.30467C8.36036 6.46632 8.28099 6.6148 8.16445 6.73135C8.04791 6.84789 7.89942 6.92726 7.73777 6.95941C7.57612 6.99157 7.40856 6.97506 7.25629 6.91199C7.10402 6.84892 6.97387 6.74211 6.8823 6.60507C6.79074 6.46803 6.74186 6.30691 6.74186 6.14209C6.74206 5.92114 6.82992 5.70929 6.98616 5.55306C7.1424 5.39682 7.35424 5.30896 7.5752 5.30876Z" fill="#155263"/>
<path d="M14.2422 8.64209C14.7366 8.64209 15.22 8.49547 15.6311 8.22077C16.0422 7.94606 16.3627 7.55561 16.5519 7.0988C16.7411 6.64198 16.7906 6.13932 16.6942 5.65437C16.5977 5.16941 16.3596 4.72396 16.01 4.37432C15.6603 4.02469 15.2149 3.78659 14.7299 3.69013C14.245 3.59366 13.7423 3.64317 13.2855 3.83239C12.8287 4.02161 12.4382 4.34204 12.1635 4.75317C11.8888 5.16429 11.7422 5.64764 11.7422 6.14209C11.7429 6.80491 12.0065 7.44037 12.4752 7.90905C12.9439 8.37774 13.5794 8.64136 14.2422 8.64209ZM14.2422 5.30876C14.407 5.30876 14.5681 5.35763 14.7052 5.4492C14.8422 5.54077 14.949 5.67092 15.0121 5.82319C15.0752 5.97546 15.0917 6.14302 15.0595 6.30467C15.0274 6.46632 14.948 6.6148 14.8314 6.73135C14.7149 6.84789 14.5664 6.92726 14.4048 6.95941C14.2431 6.99157 14.0756 6.97506 13.9233 6.91199C13.771 6.84892 13.6409 6.74211 13.5493 6.60507C13.4577 6.46803 13.4089 6.30691 13.4089 6.14209C13.4091 5.92114 13.4969 5.70929 13.6532 5.55306C13.8094 5.39682 14.0212 5.30896 14.2422 5.30876Z" fill="#155263"/>
<path d="M20.9082 8.64209C21.4027 8.64209 21.886 8.49547 22.2971 8.22077C22.7083 7.94606 23.0287 7.55561 23.2179 7.0988C23.4071 6.64198 23.4566 6.13932 23.3602 5.65437C23.2637 5.16941 23.0256 4.72396 22.676 4.37432C22.3263 4.02469 21.8809 3.78659 21.3959 3.69013C20.911 3.59366 20.4083 3.64317 19.9515 3.83239C19.4947 4.02161 19.1042 4.34204 18.8295 4.75317C18.5548 5.16429 18.4082 5.64764 18.4082 6.14209C18.4089 6.80491 18.6726 7.44037 19.1412 7.90905C19.6099 8.37774 20.2454 8.64136 20.9082 8.64209ZM20.9082 5.30876C21.073 5.30876 21.2341 5.35763 21.3712 5.4492C21.5082 5.54077 21.615 5.67092 21.6781 5.82319C21.7412 5.97546 21.7577 6.14302 21.7255 6.30467C21.6934 6.46632 21.614 6.6148 21.4975 6.73135C21.3809 6.84789 21.2324 6.92726 21.0708 6.95941C20.9091 6.99157 20.7416 6.97506 20.5893 6.91199C20.437 6.84892 20.3069 6.74211 20.2153 6.60507C20.1237 6.46803 20.0749 6.30691 20.0749 6.14209C20.0751 5.92114 20.1629 5.70929 20.3192 5.55306C20.4754 5.39682 20.6872 5.30896 20.9082 5.30876Z" fill="#155263"/>
<path d="M40.9085 6.97526H57.5752C57.7962 6.97526 58.0082 6.88746 58.1644 6.73118C58.3207 6.5749 58.4085 6.36294 58.4085 6.14193C58.4085 5.92091 58.3207 5.70895 58.1644 5.55267C58.0082 5.39639 57.7962 5.30859 57.5752 5.30859H40.9085C40.6875 5.30859 40.4756 5.39639 40.3193 5.55267C40.163 5.70895 40.0752 5.92091 40.0752 6.14193C40.0752 6.36294 40.163 6.5749 40.3193 6.73118C40.4756 6.88746 40.6875 6.97526 40.9085 6.97526Z" fill="#155263"/>
<path d="M48.4082 25.3088H27.5749C27.3539 25.3088 27.1419 25.3966 26.9856 25.5528C26.8293 25.7091 26.7415 25.9211 26.7415 26.1421C26.7415 26.3631 26.8293 26.5751 26.9856 26.7313C27.1419 26.8876 27.3539 26.9754 27.5749 26.9754H47.2941L43.6182 39.4754H29.0448L24.2122 21.7561C24.1641 21.5797 24.0593 21.4241 23.914 21.3131C23.7687 21.2022 23.591 21.1421 23.4082 21.1421H16.7415C16.5205 21.1421 16.3086 21.2299 16.1523 21.3862C15.996 21.5424 15.9082 21.7544 15.9082 21.9754C15.9082 22.1964 15.996 22.4084 16.1523 22.5647C16.3086 22.721 16.5205 22.8088 16.7415 22.8088H22.7718L27.3171 39.4754H22.5749C21.9118 39.4754 21.2759 39.7388 20.8071 40.2077C20.3383 40.6765 20.0749 41.3124 20.0749 41.9754C20.0749 42.6385 20.3383 43.2743 20.8071 43.7432C21.2759 44.212 21.9118 44.4754 22.5749 44.4754H26.3718C26.0716 44.9798 25.9116 45.5552 25.9082 46.1421C25.9082 47.0261 26.2594 47.874 26.8845 48.4991C27.5096 49.1242 28.3575 49.4754 29.2415 49.4754C30.1256 49.4754 30.9734 49.1242 31.5986 48.4991C32.2237 47.874 32.5749 47.0261 32.5749 46.1421C32.5715 45.5552 32.4115 44.9798 32.1113 44.4754H38.0385C37.7383 44.9798 37.5782 45.5552 37.5749 46.1421C37.5749 47.0261 37.9261 47.874 38.5512 48.4991C39.1763 49.1242 40.0241 49.4754 40.9082 49.4754C41.7923 49.4754 42.6401 49.1242 43.2652 48.4991C43.8903 47.874 44.2415 47.0261 44.2415 46.1421C44.2382 45.5552 44.0781 44.9798 43.778 44.4754H47.5749C47.7959 44.4754 48.0078 44.3876 48.1641 44.2313C48.3204 44.0751 48.4082 43.8631 48.4082 43.6421C48.4082 43.4211 48.3204 43.2091 48.1641 43.0528C48.0078 42.8966 47.7959 42.8088 47.5749 42.8088H22.5749C22.3539 42.8088 22.1419 42.721 21.9856 42.5647C21.8293 42.4084 21.7415 42.1964 21.7415 41.9754C21.7415 41.7544 21.8293 41.5424 21.9856 41.3862C22.1419 41.2299 22.3539 41.1421 22.5749 41.1421H44.2415C44.4215 41.142 44.5965 41.0837 44.7406 40.9759C44.8846 40.8681 44.9899 40.7165 45.0407 40.5439L49.2074 26.3773C49.244 26.253 49.2512 26.1219 49.2283 25.9944C49.2054 25.8669 49.1531 25.7465 49.0755 25.6428C48.9979 25.539 48.8972 25.4548 48.7814 25.3968C48.6655 25.3389 48.5377 25.3087 48.4082 25.3088ZM30.9082 46.1421C30.9082 46.4717 30.8105 46.794 30.6273 47.068C30.4442 47.3421 30.1839 47.5557 29.8793 47.6819C29.5748 47.808 29.2397 47.841 28.9164 47.7767C28.5931 47.7124 28.2961 47.5537 28.063 47.3206C27.8299 47.0875 27.6712 46.7905 27.6069 46.4672C27.5426 46.1439 27.5756 45.8088 27.7017 45.5043C27.8279 45.1997 28.0415 44.9394 28.3156 44.7563C28.5897 44.5732 28.9119 44.4754 29.2415 44.4754C29.6834 44.4759 30.107 44.6517 30.4195 44.9641C30.7319 45.2766 30.9077 45.7002 30.9082 46.1421ZM42.5749 46.1421C42.5749 46.4717 42.4771 46.794 42.294 47.068C42.1109 47.3421 41.8506 47.5557 41.546 47.6819C41.2415 47.808 40.9064 47.841 40.5831 47.7767C40.2597 47.7124 39.9628 47.5537 39.7297 47.3206C39.4966 47.0875 39.3379 46.7905 39.2736 46.4672C39.2093 46.1439 39.2423 45.8088 39.3684 45.5043C39.4945 45.1997 39.7082 44.9394 39.9823 44.7563C40.2563 44.5732 40.5786 44.4754 40.9082 44.4754C41.3501 44.4759 41.7737 44.6517 42.0862 44.9641C42.3986 45.2766 42.5744 45.7002 42.5749 46.1421Z" fill="#155263"/>
<path d="M19.2422 26.9754C19.2422 26.7544 19.1544 26.5424 18.9981 26.3862C18.8418 26.2299 18.6299 26.1421 18.4089 26.1421H10.0755C9.85451 26.1421 9.64254 26.2299 9.48626 26.3862C9.32998 26.5424 9.24219 26.7544 9.24219 26.9754C9.24219 27.1964 9.32998 27.4084 9.48626 27.5647C9.64254 27.721 9.85451 27.8088 10.0755 27.8088H18.4089C18.6299 27.8088 18.8418 27.721 18.9981 27.5647C19.1544 27.4084 19.2422 27.1964 19.2422 26.9754Z" fill="#155263"/>
<path d="M21.7419 31.1419C21.7419 30.9209 21.6541 30.709 21.4978 30.5527C21.3415 30.3964 21.1295 30.3086 20.9085 30.3086H13.4085C13.1875 30.3086 12.9756 30.3964 12.8193 30.5527C12.663 30.709 12.5752 30.9209 12.5752 31.1419C12.5752 31.3629 12.663 31.5749 12.8193 31.7312C12.9756 31.8875 13.1875 31.9753 13.4085 31.9753H20.9085C21.1295 31.9753 21.3415 31.8875 21.4978 31.7312C21.6541 31.5749 21.7419 31.3629 21.7419 31.1419Z" fill="#155263"/>
<path d="M24.2415 35.3084C24.2415 35.0874 24.1537 34.8755 23.9975 34.7192C23.8412 34.5629 23.6292 34.4751 23.4082 34.4751H16.7415C16.5205 34.4751 16.3086 34.5629 16.1523 34.7192C15.996 34.8755 15.9082 35.0874 15.9082 35.3084C15.9082 35.5294 15.996 35.7414 16.1523 35.8977C16.3086 36.054 16.5205 36.1418 16.7415 36.1418H23.4082C23.6292 36.1418 23.8412 36.054 23.9975 35.8977C24.1537 35.7414 24.2415 35.5294 24.2415 35.3084Z" fill="#155263"/>
</svg>
