<svg width="68" height="61" viewBox="0 0 68 61" fill="none" xmlns="http://www.w3.org/2000/svg">
<path d="M37.6133 42.0855C37.4767 42.4343 37.1053 42.5377 36.6925 42.5304C36.2578 42.5228 35.891 42.3627 35.7656 42.075L33.9734 36.3781L32.0068 41.9433C31.8707 42.2703 31.4546 42.4387 31.02 42.4312C30.6071 42.4239 30.2612 42.3082 30.1161 41.9102L26.9018 32.9824C26.8606 32.8499 26.8194 32.7174 26.8214 32.6077C26.8309 32.0588 27.6857 31.6565 28.2943 31.6672C28.5987 31.6725 28.8788 31.8092 28.9826 32.0965L31.2762 38.9661L33.2291 32.9394C33.3668 32.5246 33.6725 32.4422 34.0421 32.4485C34.4116 32.4549 34.7144 32.5481 34.8375 32.9675L36.5569 39.1024L39.1108 32.2737C39.2023 32.0118 39.4657 31.8627 39.7918 31.8684C40.3569 31.8783 41.241 32.289 41.2307 32.8818C41.2288 32.9916 41.1826 33.1444 41.1377 33.2314L37.6133 42.0855Z" fill="#155263"/>
<path d="M41.5884 7.21151C41.5884 6.6654 41.1457 6.22266 40.5996 6.22266H7.57186C7.02575 6.22266 6.58301 6.6654 6.58301 7.21151C6.58301 7.75762 7.02575 8.20036 7.57186 8.20036H40.5996C41.1458 8.20036 41.5884 7.75762 41.5884 7.21151Z" fill="#155263"/>
<path d="M61.5362 7.21537C61.5362 5.34605 60.0154 3.8252 58.146 3.8252C56.2767 3.8252 54.7559 5.34605 54.7559 7.21537C54.7559 9.08469 56.2767 10.6055 58.146 10.6055C60.0154 10.6055 61.5362 9.08469 61.5362 7.21537ZM56.7336 7.21537C56.7336 6.43655 57.3672 5.8029 58.146 5.8029C58.9248 5.8029 59.5585 6.43655 59.5585 7.21537C59.5585 7.99419 58.9248 8.62784 58.146 8.62784C57.3672 8.62784 56.7336 7.99419 56.7336 7.21537Z" fill="#155263"/>
<path d="M51.9063 7.21537C51.9063 5.34605 50.3855 3.8252 48.5162 3.8252C46.6468 3.8252 45.126 5.34605 45.126 7.21537C45.126 9.08469 46.6468 10.6055 48.5162 10.6055C50.3855 10.6055 51.9063 9.08469 51.9063 7.21537ZM47.1037 7.21537C47.1037 6.43655 47.7373 5.8029 48.5162 5.8029C49.295 5.8029 49.9286 6.43655 49.9286 7.21537C49.9286 7.99419 49.295 8.62784 48.5162 8.62784C47.7373 8.62784 47.1037 7.99419 47.1037 7.21537Z" fill="#155263"/>
<path d="M34.1611 24.1167C27.2762 24.1167 21.6748 29.7181 21.6748 36.603C21.6748 43.4879 27.2762 49.0893 34.1611 49.0893C41.046 49.0893 46.6474 43.4879 46.6474 36.603C46.6474 29.7181 41.046 24.1167 34.1611 24.1167ZM34.1611 47.1116C28.3667 47.1116 23.6525 42.3974 23.6525 36.603C23.6525 30.8086 28.3667 26.0944 34.1611 26.0944C39.9555 26.0944 44.6697 30.8086 44.6697 36.603C44.6697 42.3974 39.9555 47.1116 34.1611 47.1116Z" fill="#155263"/>
<path d="M50.2395 40.5923C50.2592 40.5128 50.3272 40.4573 50.4049 40.4573H51.4272C52.6112 40.4573 53.5744 39.494 53.5744 38.3101V34.8958C53.5744 33.7118 52.6112 32.7485 51.4272 32.7485H50.4049C50.3272 32.7485 50.2592 32.693 50.2395 32.6135C49.8427 31.0092 49.2074 29.4765 48.3515 28.0578C48.3086 27.9867 48.3171 27.8985 48.372 27.8435L49.0957 27.1198C49.5014 26.7143 49.7248 26.175 49.7248 25.6015C49.7248 25.028 49.5014 24.4888 49.0959 24.0832L46.6814 21.6686C45.8441 20.8315 44.482 20.8315 43.6448 21.6686L42.9211 22.3923C42.866 22.4473 42.7779 22.4558 42.7069 22.4129C41.2884 21.557 39.7556 20.9217 38.1512 20.5249C38.0716 20.5052 38.0161 20.4372 38.0161 20.3595V19.3372C38.0161 18.1532 37.0529 17.1899 35.8689 17.1899H32.4546C31.2706 17.1899 30.3073 18.1532 30.3073 19.3372V20.3595C30.3073 20.4372 30.2518 20.5052 30.1723 20.5249C28.5679 20.9219 27.035 21.5571 25.6166 22.4129C25.5454 22.4558 25.4573 22.4472 25.4024 22.3923L24.6787 21.6686C23.8416 20.8314 22.4793 20.8314 21.6421 21.6686L19.2277 24.083C18.8222 24.4886 18.5988 25.0278 18.5988 25.6014C18.5988 26.175 18.8222 26.7141 19.2277 27.1197L19.9514 27.8434C20.0064 27.8984 20.0148 27.9866 19.972 28.0577C19.1161 29.4762 18.4808 31.0091 18.084 32.6134C18.0643 32.6929 17.9963 32.7484 17.9186 32.7484H16.8963C15.7123 32.7484 14.749 33.7116 14.749 34.8956V38.3099C14.749 39.4939 15.7123 40.4572 16.8963 40.4572H17.9186C17.9963 40.4572 18.0643 40.5127 18.084 40.5922C18.4809 42.1966 19.1162 43.7295 19.972 45.1479C20.0148 45.219 20.0064 45.3072 19.9514 45.3621L19.2277 46.0859C18.8222 46.4914 18.5988 47.0307 18.5988 47.6042C18.5988 48.1777 18.8222 48.7169 19.2277 49.1226L21.6422 51.5371C22.4795 52.3742 23.8417 52.3742 24.6788 51.5371L25.4025 50.8134C25.4576 50.7584 25.5457 50.7498 25.6168 50.7928C27.0352 51.6487 28.568 52.284 30.1725 52.6808C30.252 52.7005 30.3075 52.7685 30.3075 52.8462V53.8685C30.3075 55.0525 31.2707 56.0158 32.4547 56.0158H35.869C37.053 56.0158 38.0163 55.0525 38.0163 53.8685V52.8462C38.0163 52.7685 38.0718 52.7005 38.1513 52.6808C39.7557 52.2838 41.2886 51.6486 42.707 50.7928C42.7782 50.7498 42.8663 50.7584 42.9212 50.8134L43.6451 51.5372C44.4823 52.3743 45.8444 52.3743 46.6816 51.5372L49.096 49.1228C49.5016 48.7173 49.7249 48.178 49.7249 47.6045C49.7249 47.0309 49.5016 46.4918 49.096 46.0861L48.3723 45.3624C48.3173 45.3074 48.3089 45.2192 48.3517 45.1482C49.2074 43.7295 49.8427 42.1968 50.2395 40.5923ZM48.3197 40.1174C47.9706 41.5291 47.4115 42.8779 46.6582 44.1262C46.1444 44.9777 46.274 46.0611 46.9737 46.7607L47.6974 47.4844C47.7384 47.5255 47.747 47.5723 47.747 47.6042C47.747 47.6361 47.7384 47.683 47.6974 47.7241L45.283 50.1384C45.2168 50.2046 45.1092 50.2045 45.0432 50.1384L44.3195 49.4147C43.6198 48.715 42.5365 48.5853 41.685 49.0992C40.4367 49.8525 39.0879 50.4115 37.6762 50.7607C36.7119 50.9993 36.0383 51.8568 36.0383 52.846V53.8684C36.0383 53.9619 35.9622 54.0379 35.8688 54.0379H32.4545C32.361 54.0379 32.2849 53.9619 32.2849 53.8684V52.846C32.2849 51.8568 31.6114 50.9993 30.647 50.7607C29.2353 50.4116 27.8865 49.8526 26.6382 49.0992C25.7837 48.5837 24.7009 48.7176 24.0037 49.4147L23.28 50.1384C23.214 50.2045 23.1064 50.2045 23.0403 50.1384L20.626 47.7241C20.585 47.6829 20.5764 47.6361 20.5764 47.6042C20.5764 47.5723 20.585 47.5254 20.626 47.4844L21.3497 46.7607C22.0492 46.0611 22.179 44.9777 21.6652 44.1262C20.9119 42.8779 20.3529 41.5291 20.0036 40.1174C19.7651 39.1531 18.9076 38.4795 17.9184 38.4795H16.896C16.8025 38.4795 16.7265 38.4034 16.7265 38.3099V34.8956C16.7265 34.8022 16.8025 34.7261 16.896 34.7261H17.9184C18.9076 34.7261 19.7651 34.0526 20.0036 33.0881C20.3528 31.6766 20.9118 30.3278 21.6652 29.0793C22.179 28.2279 22.0494 27.1445 21.3497 26.4449L20.6258 25.7211C20.5848 25.6801 20.5763 25.6333 20.5763 25.6012C20.5763 25.5692 20.5848 25.5224 20.6258 25.4814L23.0402 23.067C23.1064 23.0008 23.214 23.001 23.28 23.067L24.0037 23.7907C24.7033 24.4903 25.7866 24.62 26.6382 24.1062C27.8865 23.353 29.2353 22.794 30.647 22.4447C31.6113 22.2062 32.2849 21.3486 32.2849 20.3594V19.3371C32.2849 19.2436 32.361 19.1675 32.4545 19.1675H35.8688C35.9622 19.1675 36.0383 19.2436 36.0383 19.3371V20.3594C36.0383 21.3486 36.7118 22.2062 37.6762 22.4447C39.0879 22.7938 40.4367 23.3528 41.685 24.1062C42.5365 24.6199 43.6199 24.4903 44.3195 23.7907L45.0432 23.067C45.1094 23.0008 45.2169 23.001 45.283 23.067L47.6974 25.4814C47.7384 25.5225 47.747 25.5693 47.747 25.6012C47.747 25.6333 47.7384 25.6801 47.6974 25.7211L46.9737 26.4448C46.2741 27.1444 46.1444 28.2277 46.6582 29.0792C47.4115 30.3278 47.9706 31.6766 48.3197 33.088C48.5582 34.0523 49.4157 34.7259 50.405 34.7259H51.4273C51.5208 34.7259 51.5969 34.802 51.5969 34.8955V38.3098C51.5969 38.4033 51.5208 38.4794 51.4273 38.4794H50.405C49.4157 38.4795 48.5582 39.1531 48.3197 40.1174Z" fill="#155263"/>
<path d="M64.1399 0.308594H4.18205C2.10111 0.308594 0.408203 2.00151 0.408203 4.08244V56.5347C0.408203 58.6157 2.10111 60.3086 4.18205 60.3086H64.1399C66.2208 60.3086 67.9137 58.6157 67.9137 56.5347V43.5022C67.9137 42.9561 67.471 42.5134 66.9249 42.5134C66.3788 42.5134 65.936 42.9561 65.936 43.5022V56.5347C65.936 57.5252 65.1303 58.3309 64.1399 58.3309H4.18205C3.19162 58.3309 2.3859 57.5252 2.3859 56.5347V14.1135H4.9846C5.53071 14.1135 5.97345 13.6707 5.97345 13.1246C5.97345 12.5785 5.53071 12.1358 4.9846 12.1358H2.3859V4.08244C2.3859 3.09201 3.19162 2.28629 4.18205 2.28629H64.1399C65.1303 2.28629 65.936 3.09201 65.936 4.08244V12.1358H9.60741C9.0613 12.1358 8.61856 12.5785 8.61856 13.1246C8.61856 13.6707 9.0613 14.1135 9.60741 14.1135H65.936V38.8794C65.936 39.4255 66.3788 39.8683 66.9249 39.8683C67.471 39.8683 67.9137 39.4255 67.9137 38.8794V4.08244C67.9137 2.00151 66.2208 0.308594 64.1399 0.308594Z" fill="#155263"/>
</svg>
