<svg width="61" height="61" viewBox="0 0 61 61" fill="none" xmlns="http://www.w3.org/2000/svg">
<g clip-path="url(#clip0_3904_66380)">
<path d="M60.324 29.9151L50.7638 7.03313L41.5393 10.8873C41.655 9.79933 41.655 8.25998 41.0647 7.14887C39.7453 4.68359 36.6666 3.74609 34.2013 5.06554C31.736 6.38498 30.7985 9.46369 32.118 11.929C32.5809 12.797 33.2754 13.503 34.1318 13.9776L24.2707 18.0864C24.0508 17.3919 23.7152 16.7322 23.2869 16.1419C23.4143 16.0725 23.5184 15.9915 23.6226 15.8873C23.8656 15.6442 24.0161 15.3202 24.0161 14.9729L23.9698 11.1535H24.7569C24.942 11.1535 25.1156 11.0725 25.243 10.9452C25.3818 10.8179 25.4513 10.6327 25.4513 10.4475L25.3124 0.308594L23.9235 0.331742L24.0508 9.76461L5.49759 9.9035L5.37028 0.308594L3.98139 0.331742L4.1087 10.6211C4.12028 11.003 4.4212 11.2924 4.80315 11.304H5.61333C5.61333 11.3387 5.65963 15.1234 5.65963 15.1234C5.6712 15.5401 5.87954 15.922 6.21518 16.1651L5.70592 16.9753C5.50917 17.2878 5.24296 18.0632 5.24296 18.0632H5.23139L3.20592 25.6211L3.73833 27.2646L2.98602 27.6003C2.29157 27.9128 1.73602 28.4799 1.46981 29.1975C1.20361 29.9151 1.22676 30.7021 1.53926 31.3966L11.8286 54.3827L21.4698 50.0655C21.817 49.9151 22.0601 49.591 22.0948 49.2091C22.1295 48.8271 21.9559 48.4567 21.6434 48.2484C20.405 47.3804 19.5485 46.4429 19.2939 45.679C18.6457 43.7577 19.6758 41.6628 21.6087 41.0146C23.53 40.3665 25.6249 41.3966 26.2731 43.3294C26.5856 44.2438 26.5161 45.2507 26.0879 46.1188C25.9027 46.4891 25.9721 46.929 26.2615 47.2183C26.5393 47.5192 26.9791 47.6118 27.3494 47.4382L35.3587 43.8503C35.7406 43.6882 36.0647 43.4104 36.2962 43.0632L37.5115 42.5655C37.6504 43.7114 38.0786 44.7993 38.7615 45.7368C38.6342 45.8063 38.53 45.8989 38.4258 46.003C38.1712 46.2461 38.0323 46.5817 38.0323 46.929L38.0902 50.7368H37.3031C37.118 50.7368 36.9444 50.8179 36.817 50.9452C36.6781 51.0725 36.6087 51.2577 36.6203 51.4429L36.7476 60.1813H38.1365L38.0092 52.1373L56.5624 51.9868L56.6897 60.1929H58.0786L57.9513 51.2924C57.9397 50.9104 57.6388 50.6095 57.2569 50.5979H56.4467C56.4467 50.5748 56.4582 50.5401 56.4582 50.5169L56.4004 46.7901C56.4004 46.3734 56.192 45.9799 55.8448 45.7484C56.111 45.3202 56.3193 44.9961 56.3541 44.9266C56.5508 44.6257 56.7013 44.2901 56.7939 43.9313L56.817 43.8503H56.8286L58.8541 36.2808L58.1133 33.9429L58.7846 33.6651C60.243 33.0632 60.9374 31.4081 60.3356 29.9498C60.3356 29.9382 60.324 29.9266 60.324 29.9151ZM11.8402 23.6419L11.7244 23.8387C10.9374 25.2276 9.51379 25.841 9.50222 25.841L8.99296 26.0493C8.99296 26.0493 9.79157 30.8757 10.0115 32.2762C10.1388 33.1095 9.98833 33.966 9.57166 34.6952C9.27074 35.1234 8.78463 35.378 8.26379 35.378C7.905 35.3665 7.75454 35.1813 7.69667 35.0771L5.43972 28.0285L5.01148 26.6975L4.65268 25.5864L6.6087 18.3063C6.66657 18.0979 6.75916 17.9012 6.87491 17.716C6.87491 17.716 7.2337 17.1373 7.63879 16.5123L21.7129 16.3966C22.3147 17.0331 22.7545 17.8086 22.9976 18.6535L11.8402 23.6419ZM22.3726 15.0192H22.3494V14.9961L7.33787 15.1118C7.2337 15.1234 7.14111 15.0887 7.06009 15.0308V14.8919L7.01379 11.3966C7.09481 11.3503 7.18741 11.3155 7.28 11.3155L22.3147 11.1998C22.4189 11.1882 22.5115 11.2229 22.5925 11.2808L22.6504 14.9382C22.5694 14.9845 22.4652 15.0192 22.3726 15.0192ZM34.7916 42.5771L27.6967 45.76C28.3795 43.0401 26.736 40.2854 24.0161 39.6026C21.2962 38.9197 18.5416 40.5632 17.8587 43.2831C17.6156 44.2206 17.6619 45.216 17.9629 46.1304C18.3564 47.2762 19.4096 48.2947 20.3703 49.0354L12.5115 52.554L2.78926 30.8294C2.62722 30.4706 2.61565 30.0655 2.76611 29.6952C2.905 29.3248 3.18278 29.0354 3.54157 28.8734L4.155 28.5956L6.42352 35.6674C6.77074 36.3271 7.44204 36.7554 8.19435 36.7669C8.19435 36.7669 9.99991 36.8016 10.7406 35.4243V35.4012C11.3194 34.3827 11.5393 33.2021 11.3541 32.0447C11.1805 30.9336 10.7059 28.0285 10.5092 26.8595C11.4351 26.3503 12.2221 25.6095 12.8008 24.7299L24.5485 19.4637C24.5485 19.4637 24.8726 19.2785 25.1272 19.3364C25.2777 19.3942 25.4166 19.5679 25.486 19.7183L29.1203 28.0285C29.2707 28.4104 29.6527 28.6419 30.0578 28.6188C30.4629 28.5956 30.8101 28.3179 30.9374 27.9359C31.2499 26.8827 32.0138 26.0378 33.0323 25.6211C34.8379 24.8109 36.9675 25.6095 37.7777 27.4151C38.53 29.0817 37.9166 31.0378 36.3425 31.9753C35.3356 32.5424 33.5763 32.4035 32.8703 32.3225C32.4999 32.2762 32.1295 32.4382 31.8981 32.7392C31.8981 32.7507 31.5624 33.1327 31.7823 33.7924L35.2198 41.4544C35.3471 41.7438 35.3008 42.091 35.1041 42.3341C35.0346 42.4382 34.9189 42.5308 34.7916 42.5771ZM55.0115 46.9868L55.0694 50.4822C54.9883 50.5401 54.8957 50.5748 54.7916 50.5632L39.7568 50.679C39.6527 50.6905 39.5601 50.6558 39.4791 50.5979L39.4212 46.9984L55.0115 46.9868ZM55.4513 43.5725C55.3934 43.7808 55.3008 43.9776 55.1851 44.1628V44.1859C55.1851 44.1859 54.8379 44.753 54.4328 45.378L54.2939 45.5979H40.4629L40.3471 45.4822C39.4559 44.5331 38.9235 43.2947 38.8541 41.9868L48.8772 37.8086C48.6573 38.2021 48.449 38.6188 48.2522 39.0354L49.5138 39.6257C49.7684 39.0817 50.0462 38.5493 50.3356 38.0401C50.6249 37.5308 51.0184 37.091 51.4698 36.7206C51.8055 36.4429 52.1643 36.2229 52.5578 36.0378L53.067 35.8294L52.986 35.2854C52.9744 35.2739 52.9397 35.0192 52.8703 34.6373C52.6619 33.3873 52.2221 30.679 52.0485 29.6141C51.9212 28.7808 52.0717 27.9243 52.4883 27.1952C52.7893 26.7669 53.2754 26.5007 53.7962 26.5007C54.155 26.5123 54.3055 26.6975 54.3633 26.8132L56.4004 33.1558L56.8286 34.4868L57.4073 36.304L55.4513 43.5725ZM59.0508 31.5817C58.9004 31.9405 58.611 32.2299 58.2522 32.3804L57.6851 32.6234L55.6249 26.2114C55.2777 25.5516 54.6064 25.135 53.8656 25.1118C52.0832 25.1581 51.3078 26.466 51.3078 26.466C50.7291 27.4845 50.5092 28.6651 50.6943 29.8225C50.868 30.9452 51.3425 33.8387 51.5393 35.0077C51.2731 35.1581 51.0184 35.3317 50.7754 35.5169L36.655 41.4197C36.6203 41.2345 33.4027 33.9891 33.4027 33.9891C34.5485 34.0702 35.868 34.0123 36.8518 33.4915L37.2916 33.2253C37.824 32.8665 38.2869 32.4151 38.6457 31.8827L38.7962 31.6512C39.0624 31.2114 39.2592 30.7368 39.3865 30.2391C39.3981 30.216 39.3981 30.1929 39.3981 30.1697H39.4096C39.5369 29.7183 39.5948 29.2554 39.5948 28.7808C39.5948 28.2716 39.5138 27.7507 39.3633 27.2646C38.53 24.591 35.6828 23.1095 33.0092 23.9429C31.7244 24.3479 30.6481 25.2507 30.0231 26.4544L29.2013 24.6141C28.9351 23.9544 27.1643 20.0655 26.7707 19.1628C26.6781 18.9891 26.574 18.8155 26.4467 18.6651L35.6018 14.8919C35.9837 14.7299 36.2152 14.3479 36.192 13.9429C36.1805 13.5378 35.9027 13.1905 35.5207 13.0748C33.5763 12.4845 32.4768 10.4359 33.067 8.47989C33.1249 8.2947 33.1943 8.12109 33.2754 7.94748C33.7268 6.99841 34.5601 6.28082 35.5786 6.00304C37.2453 5.5285 39.0161 6.26924 39.8379 7.79702C40.3819 8.81554 40.1967 10.5632 40.0925 11.2692C40.0462 11.6512 40.1967 12.0216 40.4976 12.253C40.7985 12.4845 41.192 12.5424 41.5393 12.3919L50.0115 8.85026L59.0393 30.4475C59.2013 30.8063 59.2013 31.2229 59.0508 31.5817Z" fill="#155263"/>
<path d="M16.8269 54.6956L15.5928 55.3325L17.1958 58.4385L18.4299 57.8016L16.8269 54.6956Z" fill="#155263"/>
<path d="M7.1772 54.7514L5.57422 57.8574L6.80839 58.4944L8.41136 55.3884L7.1772 54.7514Z" fill="#155263"/>
<path d="M11.3227 56.741L11.2373 60.2354L12.6258 60.2693L12.7112 56.775L11.3227 56.741Z" fill="#155263"/>
<path d="M46.1912 2.26882L44.957 2.90576L46.56 6.01175L47.7942 5.3748L46.1912 2.26882Z" fill="#155263"/>
<path d="M56.5815 2.3154L54.9785 5.42139L56.2127 6.05833L57.8157 2.95235L56.5815 2.3154Z" fill="#155263"/>
<path d="M50.6831 0.458802L50.5977 3.95312L51.9861 3.98706L52.0715 0.492735L50.6831 0.458802Z" fill="#155263"/>
</g>
<defs>
<clipPath id="clip0_3904_66380">
<rect width="60" height="60" fill="white" transform="translate(0.914062 0.308594)"/>
</clipPath>
</defs>
</svg>
