<svg width="75" height="61" viewBox="0 0 75 61" fill="none" xmlns="http://www.w3.org/2000/svg">
<path d="M72.6751 2.16113C71.4554 0.929827 69.7638 0.273901 68.0261 0.36596C66.2885 0.45802 64.6775 1.28656 63.5957 2.63293L48.7626 20.5846C45.8972 19.9632 43.3656 21.2405 41.5934 24.29C40.949 25.3947 40.5117 26.6836 40.2931 28.122C39.9364 30.412 39.2229 32.3913 38.0952 34.1634C37.9111 34.4626 37.888 34.8309 38.0491 35.1416C38.2102 35.4523 38.5325 35.6479 38.8777 35.6594C39.3725 35.6824 39.8673 35.6824 40.3391 35.6824C46.0699 35.6824 50.0745 34.3245 52.2379 31.6548C53.918 29.5719 54.01 27.282 53.8949 26.0392L72.0998 11.2405C73.4577 10.1703 74.2977 8.55929 74.4128 6.83316C74.5394 5.09554 73.8949 3.39243 72.6751 2.16113ZM53.17 18.3291L56.3691 21.5282L53.0779 24.198L50.4772 21.5858L53.17 18.3291ZM50.7074 30.4465C48.9812 32.5639 45.4945 33.6916 40.5808 33.7261C41.3863 32.1151 41.9272 30.366 42.2264 28.4097C42.4105 27.2129 42.7672 26.1542 43.285 25.2681C44.4128 23.3349 45.7937 22.3683 47.4047 22.3683C47.796 22.3683 48.2102 22.4258 48.636 22.5409L51.9272 25.855C52.0422 26.557 52.2033 28.6283 50.7074 30.4465ZM70.903 9.71003L70.8915 9.72154L57.888 20.2969L54.4128 16.8217L65.1147 3.87574C65.8512 2.95514 66.9444 2.39128 68.1297 2.32223C69.315 2.25319 70.4542 2.70198 71.2827 3.54202C72.1113 4.38207 72.5486 5.53282 72.4795 6.70658C72.4105 7.88034 71.8351 8.97356 70.903 9.71003Z" fill="#155263"/>
<path d="M32.5596 46.4419C33.1761 46.4419 33.6758 45.9422 33.6758 45.3257C33.6758 44.7092 33.1761 44.2095 32.5596 44.2095C31.9431 44.2095 31.4434 44.7092 31.4434 45.3257C31.4434 45.9422 31.9431 46.4419 32.5596 46.4419Z" fill="#155263"/>
<path d="M21.0293 7.2589C21.0293 6.71805 20.592 6.28076 20.0511 6.28076H7.48497C6.94412 6.28076 6.50684 6.71805 6.50684 7.2589V17.1208C6.50684 17.6617 6.94412 18.0989 7.48497 18.0989H20.0511C20.592 18.0989 21.0293 17.6617 21.0293 17.1208V7.2589ZM19.073 16.1312H8.46311V8.22553H19.073V16.1312Z" fill="#155263"/>
<path d="M21.0293 21.9542C21.0293 21.4134 20.592 20.9761 20.0511 20.9761H7.48497C6.94412 20.9761 6.50684 21.4134 6.50684 21.9542C6.50684 22.4951 6.94412 22.9323 7.48497 22.9323H20.0511C20.592 22.9323 21.0293 22.4951 21.0293 21.9542Z" fill="#155263"/>
<path d="M7.48497 25.3721C6.94412 25.3721 6.50684 25.8094 6.50684 26.3502C6.50684 26.8911 6.94412 27.3283 7.48497 27.3283H16.3112C16.8521 27.3283 17.2893 26.8911 17.2893 26.3502C17.2893 25.8094 16.8521 25.3721 16.3112 25.3721H7.48497Z" fill="#155263"/>
<path d="M38.0146 21.9542C38.0146 21.4134 37.5773 20.9761 37.0365 20.9761H24.4703C23.9295 20.9761 23.4922 21.4134 23.4922 21.9542C23.4922 22.4951 23.9295 22.9323 24.4703 22.9323H37.0365C37.5773 22.9323 38.0146 22.4951 38.0146 21.9542Z" fill="#155263"/>
<path d="M24.4703 25.3721C23.9295 25.3721 23.4922 25.8094 23.4922 26.3502C23.4922 26.8911 23.9295 27.3283 24.4703 27.3283H33.2966C33.8374 27.3283 34.2747 26.8911 34.2747 26.3502C34.2747 25.8094 33.8374 25.3721 33.2966 25.3721H24.4703Z" fill="#155263"/>
<path d="M38.0146 7.2589C38.0146 6.71805 37.5773 6.28076 37.0365 6.28076H24.4703C23.9295 6.28076 23.4922 6.71805 23.4922 7.2589V17.1208C23.4922 17.6617 23.9295 18.0989 24.4703 18.0989H37.0365C37.5773 18.0989 38.0146 17.6617 38.0146 17.1208V7.2589ZM36.0584 16.1312H25.4485V8.22553H36.0584V16.1312Z" fill="#155263"/>
<path d="M64.2052 22.9668C64.2052 22.426 63.7679 21.9887 63.2271 21.9887C62.6862 21.9887 62.2489 22.426 62.2489 22.9668V40.3086H2.87033V6.13138C2.87033 4.00249 4.59646 2.26487 6.72534 2.26487H58.3824C58.7737 2.26487 59.1764 2.33391 59.6252 2.49501C60.1316 2.66763 60.6954 2.39145 60.868 1.88512C61.0407 1.37879 60.7645 0.814923 60.2581 0.642311C59.6022 0.423669 58.9923 0.308594 58.3824 0.308594H6.72534C3.52626 0.308594 0.914062 2.92079 0.914062 6.13138V41.2867V44.4973C0.914062 47.7079 3.52626 50.3201 6.72534 50.3201H24.8036L23.3076 53.8874H19.0153C17.2432 53.8874 15.8047 55.3259 15.8047 57.098C15.8047 58.8702 17.2432 60.3086 19.0153 60.3086H46.1155C47.8876 60.3086 49.326 58.8702 49.326 57.098C49.326 55.3259 47.8876 53.8874 46.1155 53.8874H41.8232L40.3272 50.3201H58.3939C61.593 50.3201 64.2052 47.7194 64.2052 44.5203V41.2867V22.9668ZM47.3698 57.1095C47.3698 57.8 46.8059 58.3638 46.1155 58.3638H19.0153C18.3249 58.3638 17.761 57.8 17.761 57.1095C17.761 56.4191 18.3249 55.8552 19.0153 55.8552H46.1155C46.8059 55.8552 47.3698 56.4191 47.3698 57.1095ZM39.6943 53.8989H25.425L26.921 50.3316H38.1983L39.6943 53.8989ZM62.2489 44.5318C62.2489 46.6492 60.5228 48.3753 58.3939 48.3753H6.72534C4.59646 48.3753 2.87033 46.6377 2.87033 44.5088V42.2764H62.2489V44.5318Z" fill="#155263"/>
</svg>
