<svg width="61" height="61" viewBox="0 0 61 61" fill="none" xmlns="http://www.w3.org/2000/svg">
<path d="M7.01574 60.2495C3.41539 60.2495 0.486328 57.3205 0.486328 53.7201V45.3084C0.486328 44.8544 0.85574 44.4848 1.30986 44.4848C1.76398 44.4848 2.13339 44.8544 2.13339 45.3084V53.7201C2.13339 56.4122 4.32362 58.6025 7.01574 58.6025H53.8393C56.5314 58.6025 58.7216 56.4122 58.7216 53.7201V14.3672H50.3122C49.8582 14.3672 49.4887 13.9978 49.4887 13.5437C49.4887 13.0895 49.8582 12.7201 50.3122 12.7201H58.7216V6.8966C58.7216 4.20448 56.5314 2.01425 53.8393 2.01425H7.01574C4.32362 2.01425 2.13339 4.20448 2.13339 6.8966V12.7201H43.2534C43.7074 12.7201 44.0769 13.0895 44.0769 13.5437C44.0769 13.9978 43.7074 14.3672 43.2534 14.3672H2.13339V38.2495C2.13339 38.7035 1.76398 39.0731 1.30986 39.0731C0.85574 39.0731 0.486328 38.7035 0.486328 38.2495V6.8966C0.486328 3.29625 3.41539 0.367188 7.01574 0.367188H53.8393C57.4396 0.367188 60.3687 3.29625 60.3687 6.8966V53.7201C60.3687 57.3205 57.4396 60.2495 53.8393 60.2495H7.01574Z" fill="#155263"/>
<path d="M53.8395 0.426241C57.4074 0.426241 60.3101 3.32895 60.3101 6.89683V53.7204C60.3101 57.2882 57.4074 60.1909 53.8395 60.1909H7.01597C3.44809 60.1909 0.545381 57.2882 0.545381 53.7204V45.3086C0.545381 44.8869 0.88844 44.5439 1.31009 44.5439C1.73173 44.5439 2.07479 44.8869 2.07479 45.3086V53.7204C2.07479 56.4449 4.29138 58.6615 7.01597 58.6615H53.8395C56.5641 58.6615 58.7807 56.4449 58.7807 53.7204V14.4262V14.3086H58.663H50.3124C49.8908 14.3086 49.5477 13.9655 49.5477 13.5439C49.5477 13.1222 49.8908 12.7792 50.3124 12.7792H58.663H58.7807V12.6615V6.89683C58.7807 4.17224 56.5641 1.95565 53.8395 1.95565H7.01597C4.29138 1.95565 2.07479 4.17224 2.07479 6.89683V12.6615V12.7792H2.19244H43.2536C43.6753 12.7792 44.0183 13.1222 44.0183 13.5439C44.0183 13.9655 43.6753 14.3086 43.2536 14.3086H2.19244H2.07479V14.4262V38.2498C2.07479 38.6714 1.73173 39.0145 1.31009 39.0145C0.88844 39.0145 0.545381 38.6714 0.545381 38.2498V6.89683C0.545381 3.32895 3.44809 0.426241 7.01597 0.426241H53.8395ZM53.8395 0.308594H7.01597C3.38315 0.308594 0.427734 3.26401 0.427734 6.89683V38.2498C0.427734 38.7372 0.822676 39.1321 1.31009 39.1321C1.7975 39.1321 2.19244 38.7372 2.19244 38.2498V14.4262H43.2536C43.741 14.4262 44.136 14.0313 44.136 13.5439C44.136 13.0565 43.741 12.6615 43.2536 12.6615H2.19244V6.89683C2.19244 4.23718 4.35632 2.0733 7.01597 2.0733H53.8395C56.4991 2.0733 58.663 4.23718 58.663 6.89683V12.6615H50.3124C49.825 12.6615 49.4301 13.0565 49.4301 13.5439C49.4301 14.0313 49.825 14.4262 50.3124 14.4262H58.663V53.7204C58.663 56.38 56.4991 58.5439 53.8395 58.5439H7.01597C4.35632 58.5439 2.19244 56.38 2.19244 53.7204V45.3086C2.19244 44.8212 1.7975 44.4262 1.31009 44.4262C0.822676 44.4262 0.427734 44.8212 0.427734 45.3086V53.7204C0.427734 57.3532 3.38315 60.3086 7.01597 60.3086H53.8395C57.4723 60.3086 60.4277 57.3532 60.4277 53.7204V6.89683C60.4277 3.26401 57.4723 0.308594 53.8395 0.308594Z" fill="#155263"/>
<path d="M8.36851 9.95528C6.94133 9.95528 5.78027 8.79422 5.78027 7.36704C5.78027 5.93987 6.94133 4.77881 8.36851 4.77881C9.79569 4.77881 10.9567 5.93987 10.9567 7.36704C10.9567 8.79422 9.79569 9.95528 8.36851 9.95528ZM8.36851 6.42587C7.84957 6.42587 7.42733 6.8481 7.42733 7.36704C7.42733 7.88599 7.84957 8.30822 8.36851 8.30822C8.88745 8.30822 9.30969 7.88599 9.30969 7.36704C9.30969 6.8481 8.88745 6.42587 8.36851 6.42587Z" fill="#155263"/>
<path d="M8.36874 4.83786C9.76344 4.83786 10.8981 5.97257 10.8981 7.36727C10.8981 8.76198 9.76344 9.89669 8.36874 9.89669C6.97403 9.89669 5.83933 8.76198 5.83933 7.36727C5.83933 5.97257 6.97403 4.83786 8.36874 4.83786ZM8.36874 8.36727C8.92015 8.36727 9.36874 7.91869 9.36874 7.36727C9.36874 6.81586 8.92015 6.36727 8.36874 6.36727C7.81733 6.36727 7.36874 6.81586 7.36874 7.36727C7.36874 7.91869 7.81733 8.36727 8.36874 8.36727ZM8.36874 4.72021C6.90921 4.72021 5.72168 5.90774 5.72168 7.36727C5.72168 8.8268 6.90921 10.0143 8.36874 10.0143C9.82827 10.0143 11.0158 8.8268 11.0158 7.36727C11.0158 5.90774 9.82827 4.72021 8.36874 4.72021ZM8.36874 8.24963C7.88215 8.24963 7.48639 7.85386 7.48639 7.36727C7.48639 6.88069 7.88215 6.48492 8.36874 6.48492C8.85533 6.48492 9.25109 6.88069 9.25109 7.36727C9.25109 7.85386 8.85533 8.24963 8.36874 8.24963Z" fill="#155263"/>
<path d="M15.4271 9.95528C13.9999 9.95528 12.8389 8.79422 12.8389 7.36704C12.8389 5.93987 13.9999 4.77881 15.4271 4.77881C16.8543 4.77881 18.0153 5.93987 18.0153 7.36704C18.0153 8.79422 16.8543 9.95528 15.4271 9.95528ZM15.4271 6.42587C14.9082 6.42587 14.4859 6.8481 14.4859 7.36704C14.4859 7.88599 14.9082 8.30822 15.4271 8.30822C15.946 8.30822 16.3683 7.88599 16.3683 7.36704C16.3683 6.8481 15.946 6.42587 15.4271 6.42587Z" fill="#155263"/>
<path d="M15.4273 4.83786C16.822 4.83786 17.9567 5.97257 17.9567 7.36727C17.9567 8.76198 16.822 9.89669 15.4273 9.89669C14.0326 9.89669 12.8979 8.76198 12.8979 7.36727C12.8979 5.97257 14.0326 4.83786 15.4273 4.83786ZM15.4273 8.36727C15.9787 8.36727 16.4273 7.91869 16.4273 7.36727C16.4273 6.81586 15.9787 6.36727 15.4273 6.36727C14.8759 6.36727 14.4273 6.81586 14.4273 7.36727C14.4273 7.91869 14.8759 8.36727 15.4273 8.36727ZM15.4273 4.72021C13.9678 4.72021 12.7803 5.90774 12.7803 7.36727C12.7803 8.8268 13.9678 10.0143 15.4273 10.0143C16.8869 10.0143 18.0744 8.8268 18.0744 7.36727C18.0744 5.90774 16.8869 4.72021 15.4273 4.72021ZM15.4273 8.24963C14.9407 8.24963 14.545 7.85386 14.545 7.36727C14.545 6.88069 14.9407 6.48492 15.4273 6.48492C15.9139 6.48492 16.3097 6.88069 16.3097 7.36727C16.3097 7.85386 15.9139 8.24963 15.4273 8.24963Z" fill="#155263"/>
<path d="M22.4867 9.95528C21.0595 9.95528 19.8984 8.79422 19.8984 7.36704C19.8984 5.93987 21.0595 4.77881 22.4867 4.77881C23.9138 4.77881 25.0749 5.93987 25.0749 7.36704C25.0749 8.79422 23.9138 9.95528 22.4867 9.95528ZM22.4867 6.42587C21.9677 6.42587 21.5455 6.8481 21.5455 7.36704C21.5455 7.88599 21.9677 8.30822 22.4867 8.30822C23.0056 8.30822 23.4278 7.88599 23.4278 7.36704C23.4278 6.8481 23.0056 6.42587 22.4867 6.42587Z" fill="#155263"/>
<path d="M22.4869 4.83786C23.8816 4.83786 25.0163 5.97257 25.0163 7.36727C25.0163 8.76198 23.8816 9.89669 22.4869 9.89669C21.0922 9.89669 19.9575 8.76198 19.9575 7.36727C19.9575 5.97257 21.0922 4.83786 22.4869 4.83786ZM22.4869 8.36727C23.0383 8.36727 23.4869 7.91869 23.4869 7.36727C23.4869 6.81586 23.0383 6.36727 22.4869 6.36727C21.9355 6.36727 21.4869 6.81586 21.4869 7.36727C21.4869 7.91869 21.9355 8.36727 22.4869 8.36727ZM22.4869 4.72021C21.0274 4.72021 19.8398 5.90774 19.8398 7.36727C19.8398 8.8268 21.0274 10.0143 22.4869 10.0143C23.9464 10.0143 25.134 8.8268 25.134 7.36727C25.134 5.90774 23.9464 4.72021 22.4869 4.72021ZM22.4869 8.24963C22.0003 8.24963 21.6045 7.85386 21.6045 7.36727C21.6045 6.88069 22.0003 6.48492 22.4869 6.48492C22.9735 6.48492 23.3693 6.88069 23.3693 7.36727C23.3693 7.85386 22.9735 8.24963 22.4869 8.24963Z" fill="#155263"/>
<path d="M31.3099 9.95528C29.8827 9.95528 28.7217 8.79422 28.7217 7.36704C28.7217 5.93987 29.8827 4.77881 31.3099 4.77881H52.4864C53.9136 4.77881 55.0746 5.93987 55.0746 7.36704C55.0746 8.79422 53.9136 9.95528 52.4864 9.95528H31.3099ZM31.3099 6.42587C30.791 6.42587 30.3687 6.8481 30.3687 7.36704C30.3687 7.88599 30.791 8.30822 31.3099 8.30822H52.4864C53.0053 8.30822 53.4276 7.88599 53.4276 7.36704C53.4276 6.8481 53.0053 6.42587 52.4864 6.42587H31.3099Z" fill="#155263"/>
<path d="M52.4866 4.83786C53.8813 4.83786 55.016 5.97257 55.016 7.36727C55.016 8.76198 53.8813 9.89669 52.4866 9.89669H31.3101C29.9154 9.89669 28.7807 8.76198 28.7807 7.36727C28.7807 5.97257 29.9154 4.83786 31.3101 4.83786H52.4866ZM31.3101 8.36727H52.4866C53.038 8.36727 53.4866 7.91869 53.4866 7.36727C53.4866 6.81586 53.038 6.36727 52.4866 6.36727H31.3101C30.7587 6.36727 30.3101 6.81586 30.3101 7.36727C30.3101 7.91869 30.7587 8.36727 31.3101 8.36727ZM52.4866 4.72021H31.3101C29.8506 4.72021 28.6631 5.90774 28.6631 7.36727C28.6631 8.8268 29.8506 10.0143 31.3101 10.0143H52.4866C53.9461 10.0143 55.1337 8.8268 55.1337 7.36727C55.1337 5.90774 53.9461 4.72021 52.4866 4.72021ZM31.3101 8.24963C30.8236 8.24963 30.4278 7.85386 30.4278 7.36727C30.4278 6.88069 30.8236 6.48492 31.3101 6.48492H52.4866C52.9732 6.48492 53.369 6.88069 53.369 7.36727C53.369 7.85386 52.9732 8.24963 52.4866 8.24963H31.3101Z" fill="#155263"/>
<path d="M17.192 55.8376C11.8726 55.8376 7.54492 51.5099 7.54492 46.1905C7.54492 40.8711 11.8726 36.5435 17.192 36.5435C22.5114 36.5435 26.839 40.8711 26.839 46.1905C26.839 51.5099 22.5114 55.8376 17.192 55.8376ZM17.192 38.1905C12.7808 38.1905 9.19198 41.7793 9.19198 46.1905C9.19198 50.6017 12.7808 54.1905 17.192 54.1905C21.6032 54.1905 25.192 50.6017 25.192 46.1905C25.192 41.7793 21.6032 38.1905 17.192 38.1905Z" fill="#155263"/>
<path d="M17.1922 36.6025C22.4792 36.6025 26.7804 40.9038 26.7804 46.1907C26.7804 51.4777 22.4792 55.779 17.1922 55.779C11.9053 55.779 7.60398 51.4777 7.60398 46.1907C7.60398 40.9038 11.9053 36.6025 17.1922 36.6025ZM17.1922 54.2496C21.6359 54.2496 25.251 50.6344 25.251 46.1907C25.251 41.7471 21.6359 38.1319 17.1922 38.1319C12.7486 38.1319 9.13339 41.7471 9.13339 46.1907C9.13339 50.6344 12.7486 54.2496 17.1922 54.2496ZM17.1922 36.4849C11.8404 36.4849 7.48633 40.839 7.48633 46.1907C7.48633 51.5425 11.8404 55.8966 17.1922 55.8966C22.544 55.8966 26.8981 51.5425 26.8981 46.1907C26.8981 40.839 22.544 36.4849 17.1922 36.4849ZM17.1922 54.1319C12.8134 54.1319 9.25103 50.5696 9.25103 46.1907C9.25103 41.8119 12.8134 38.2496 17.1922 38.2496C21.571 38.2496 25.1334 41.8119 25.1334 46.1907C25.1334 50.5696 21.571 54.1319 17.1922 54.1319Z" fill="#155263"/>
<path d="M16.31 48.7794C16.09 48.7794 15.8833 48.6936 15.7277 48.5382L13.0806 45.8912C12.7596 45.5701 12.7596 45.0475 13.0806 44.7265C13.2362 44.5711 13.4431 44.4854 13.663 44.4854C13.8829 44.4854 14.0898 44.5711 14.2453 44.7265L16.31 46.7913L20.1395 42.9618C20.295 42.8063 20.5019 42.7207 20.7218 42.7207C20.9417 42.7207 21.1486 42.8063 21.3042 42.9618C21.6252 43.2828 21.6252 43.8054 21.3042 44.1265L16.8924 48.5382C16.7368 48.6936 16.53 48.7794 16.31 48.7794Z" fill="#155263"/>
<path d="M20.7215 42.7793C20.9258 42.7793 21.1179 42.8588 21.2622 43.0032C21.5604 43.3014 21.5604 43.7866 21.2622 44.0847L16.8505 48.4964C16.706 48.6409 16.5139 48.7204 16.3097 48.7204C16.1054 48.7204 15.9133 48.6409 15.7688 48.4966L13.1218 45.8495C12.8237 45.5513 12.8237 45.0661 13.1218 44.768C13.2662 44.6236 13.4584 44.5441 13.6626 44.5441C13.8668 44.5441 14.059 44.6236 14.2034 44.768L16.2265 46.7912L16.3097 46.8743L16.3928 46.7912L20.1806 43.0033C20.3252 42.8588 20.5173 42.7793 20.7215 42.7793ZM20.7215 42.6616C20.4958 42.6616 20.2699 42.7477 20.0975 42.92L16.3098 46.708L14.2867 44.6848C14.1144 44.5126 13.8886 44.4264 13.6627 44.4264C13.4368 44.4264 13.2111 44.5126 13.0387 44.6848C12.6941 45.0295 12.6941 45.5881 13.0387 45.9327L15.6858 48.5797C15.8581 48.752 16.0839 48.8381 16.3098 48.8381C16.5357 48.8381 16.7613 48.752 16.9338 48.5797L21.3455 44.168C21.6901 43.8233 21.6901 43.2647 21.3455 42.9201C21.1732 42.7477 20.9473 42.6616 20.7215 42.6616Z" fill="#155263"/>
<path d="M8.36845 25.8377C7.91433 25.8377 7.54492 25.4683 7.54492 25.0142V17.9554C7.54492 17.5012 7.91433 17.1318 8.36845 17.1318H26.0155C26.4696 17.1318 26.839 17.5012 26.839 17.9554V25.0142C26.839 25.4683 26.4696 25.8377 26.0155 25.8377H8.36845ZM9.19198 24.1907H25.192V18.7789H9.19198V24.1907Z" fill="#155263"/>
<path d="M26.0157 17.1909C26.4374 17.1909 26.7804 17.5339 26.7804 17.9556V25.0144C26.7804 25.4361 26.4374 25.7791 26.0157 25.7791H8.36868C7.94703 25.7791 7.60398 25.4361 7.60398 25.0144V17.9556C7.60398 17.5339 7.94703 17.1909 8.36868 17.1909H26.0157ZM9.13339 24.2497H9.25103H25.1334H25.251V24.1321V18.8379V18.7203H25.1334H9.25103H9.13339V18.8379V24.1321V24.2497ZM26.0157 17.0732H8.36868C7.88127 17.0732 7.48633 17.4682 7.48633 17.9556V25.0144C7.48633 25.5018 7.88127 25.8968 8.36868 25.8968H26.0157C26.5032 25.8968 26.8981 25.5018 26.8981 25.0144V17.9556C26.8981 17.4682 26.5032 17.0732 26.0157 17.0732ZM9.25103 24.1321V18.8379H25.1334V24.1321H9.25103Z" fill="#155263"/>
<path d="M13.6624 29.3673C13.2083 29.3673 12.8389 28.9979 12.8389 28.5437C12.8389 28.0896 13.2083 27.7202 13.6624 27.7202H26.0153C26.4695 27.7202 26.8389 28.0896 26.8389 28.5437C26.8389 28.9979 26.4695 29.3673 26.0153 29.3673H13.6624Z" fill="#155263"/>
<path d="M26.0156 27.7793C26.4372 27.7793 26.7803 28.1223 26.7803 28.544C26.7803 28.9656 26.4372 29.3087 26.0156 29.3087H13.6626C13.241 29.3087 12.8979 28.9656 12.8979 28.544C12.8979 28.1223 13.241 27.7793 13.6626 27.7793H26.0156ZM26.0156 27.6616H13.6626C13.1752 27.6616 12.7803 28.0566 12.7803 28.544C12.7803 29.0314 13.1752 29.4263 13.6626 29.4263H26.0156C26.503 29.4263 26.8979 29.0314 26.8979 28.544C26.8979 28.0566 26.503 27.6616 26.0156 27.6616Z" fill="#155263"/>
<path d="M13.6624 32.8966C13.2083 32.8966 12.8389 32.527 12.8389 32.073C12.8389 31.619 13.2083 31.2495 13.6624 31.2495H26.0153C26.4695 31.2495 26.8389 31.619 26.8389 32.073C26.8389 32.527 26.4695 32.8966 26.0153 32.8966H13.6624Z" fill="#155263"/>
<path d="M26.0156 31.3086C26.4372 31.3086 26.7803 31.6516 26.7803 32.0733C26.7803 32.4949 26.4372 32.838 26.0156 32.838H13.6626C13.241 32.838 12.8979 32.4949 12.8979 32.0733C12.8979 31.6516 13.241 31.3086 13.6626 31.3086H26.0156ZM26.0156 31.1909H13.6626C13.1752 31.1909 12.7803 31.5859 12.7803 32.0733C12.7803 32.5607 13.1752 32.9556 13.6626 32.9556H26.0156C26.503 32.9556 26.8979 32.5607 26.8979 32.0733C26.8979 31.5859 26.503 31.1909 26.0156 31.1909Z" fill="#155263"/>
<path d="M8.36845 29.3673C7.91433 29.3673 7.54492 28.9979 7.54492 28.5437C7.54492 28.0896 7.91433 27.7202 8.36845 27.7202H9.2508C9.70492 27.7202 10.0743 28.0896 10.0743 28.5437C10.0743 28.9979 9.70492 29.3673 9.2508 29.3673H8.36845Z" fill="#155263"/>
<path d="M9.25103 27.7793C9.67268 27.7793 10.0157 28.1223 10.0157 28.544C10.0157 28.9656 9.67268 29.3087 9.25103 29.3087H8.36868C7.94703 29.3087 7.60398 28.9656 7.60398 28.544C7.60398 28.1223 7.94703 27.7793 8.36868 27.7793H9.25103ZM9.25103 27.6616H8.36868C7.88127 27.6616 7.48633 28.0566 7.48633 28.544C7.48633 29.0314 7.88127 29.4263 8.36868 29.4263H9.25103C9.73845 29.4263 10.1334 29.0314 10.1334 28.544C10.1334 28.0566 9.73845 27.6616 9.25103 27.6616Z" fill="#155263"/>
<path d="M8.36845 32.8966C7.91433 32.8966 7.54492 32.527 7.54492 32.073C7.54492 31.619 7.91433 31.2495 8.36845 31.2495H9.2508C9.70492 31.2495 10.0743 31.619 10.0743 32.073C10.0743 32.527 9.70492 32.8966 9.2508 32.8966H8.36845Z" fill="#155263"/>
<path d="M9.25103 31.3086C9.67268 31.3086 10.0157 31.6516 10.0157 32.0733C10.0157 32.4949 9.67268 32.838 9.25103 32.838H8.36868C7.94703 32.838 7.60398 32.4949 7.60398 32.0733C7.60398 31.6516 7.94703 31.3086 8.36868 31.3086H9.25103ZM9.25103 31.1909H8.36868C7.88127 31.1909 7.48633 31.5859 7.48633 32.0733C7.48633 32.5607 7.88127 32.9556 8.36868 32.9556H9.25103C9.73845 32.9556 10.1334 32.5607 10.1334 32.0733C10.1334 31.5859 9.73845 31.1909 9.25103 31.1909Z" fill="#155263"/>
<path d="M43.6627 55.8376C38.3433 55.8376 34.0156 51.5099 34.0156 46.1905C34.0156 40.8711 38.3433 36.5435 43.6627 36.5435C48.9821 36.5435 53.3097 40.8711 53.3097 46.1905C53.3097 51.5099 48.9821 55.8376 43.6627 55.8376ZM43.6627 38.1905C39.2515 38.1905 35.6627 41.7793 35.6627 46.1905C35.6627 50.6017 39.2515 54.1905 43.6627 54.1905C48.0739 54.1905 51.6627 50.6017 51.6627 46.1905C51.6627 41.7793 48.0739 38.1905 43.6627 38.1905Z" fill="#155263"/>
<path d="M43.6629 36.6025C48.9499 36.6025 53.2511 40.9038 53.2511 46.1907C53.2511 51.4777 48.9499 55.779 43.6629 55.779C38.376 55.779 34.0747 51.4777 34.0747 46.1907C34.0747 40.9038 38.376 36.6025 43.6629 36.6025ZM43.6629 54.2496C48.1066 54.2496 51.7217 50.6344 51.7217 46.1907C51.7217 41.7471 48.1066 38.1319 43.6629 38.1319C39.2193 38.1319 35.6041 41.7471 35.6041 46.1907C35.6041 50.6344 39.2193 54.2496 43.6629 54.2496ZM43.6629 36.4849C38.3111 36.4849 33.957 40.839 33.957 46.1907C33.957 51.5425 38.3111 55.8966 43.6629 55.8966C49.0147 55.8966 53.3688 51.5425 53.3688 46.1907C53.3688 40.839 49.0147 36.4849 43.6629 36.4849ZM43.6629 54.1319C39.2841 54.1319 35.7217 50.5696 35.7217 46.1907C35.7217 41.8119 39.2841 38.2496 43.6629 38.2496C48.0417 38.2496 51.6041 41.8119 51.6041 46.1907C51.6041 50.5696 48.0417 54.1319 43.6629 54.1319Z" fill="#155263"/>
<path d="M34.8392 25.8377C34.3852 25.8377 34.0156 25.4683 34.0156 25.0142V17.9554C34.0156 17.5012 34.3852 17.1318 34.8392 17.1318H52.4862C52.9402 17.1318 53.3097 17.5012 53.3097 17.9554V25.0142C53.3097 25.4683 52.9402 25.8377 52.4862 25.8377H34.8392ZM35.6627 24.1907H51.6627V18.7789H35.6627V24.1907Z" fill="#155263"/>
<path d="M52.4864 17.1909C52.9081 17.1909 53.2511 17.5339 53.2511 17.9556V25.0144C53.2511 25.4361 52.9081 25.7791 52.4864 25.7791H34.8394C34.4177 25.7791 34.0747 25.4361 34.0747 25.0144V17.9556C34.0747 17.5339 34.4177 17.1909 34.8394 17.1909H52.4864ZM35.6041 24.2497H35.7217H51.6041H51.7217V24.1321V18.8379V18.7203H51.6041H35.7217H35.6041V18.8379V24.1321V24.2497ZM52.4864 17.0732H34.8394C34.352 17.0732 33.957 17.4682 33.957 17.9556V25.0144C33.957 25.5018 34.352 25.8968 34.8394 25.8968H52.4864C52.9739 25.8968 53.3688 25.5018 53.3688 25.0144V17.9556C53.3688 17.4682 52.9739 17.0732 52.4864 17.0732ZM35.7217 24.1321V18.8379H51.6041V24.1321H35.7217Z" fill="#155263"/>
<path d="M40.1331 29.3673C39.6791 29.3673 39.3096 28.9979 39.3096 28.5437C39.3096 28.0896 39.6791 27.7202 40.1331 27.7202H52.486C52.94 27.7202 53.3096 28.0896 53.3096 28.5437C53.3096 28.9979 52.94 29.3673 52.486 29.3673H40.1331Z" fill="#155263"/>
<path d="M52.4863 27.7793C52.9079 27.7793 53.251 28.1223 53.251 28.544C53.251 28.9656 52.9079 29.3087 52.4863 29.3087H40.1333C39.7117 29.3087 39.3686 28.9656 39.3686 28.544C39.3686 28.1223 39.7117 27.7793 40.1333 27.7793H52.4863ZM52.4863 27.6616H40.1333C39.6459 27.6616 39.251 28.0566 39.251 28.544C39.251 29.0314 39.6459 29.4263 40.1333 29.4263H52.4863C52.9737 29.4263 53.3686 29.0314 53.3686 28.544C53.3686 28.0566 52.9737 27.6616 52.4863 27.6616Z" fill="#155263"/>
<path d="M40.1331 32.8966C39.6791 32.8966 39.3096 32.527 39.3096 32.073C39.3096 31.619 39.6791 31.2495 40.1331 31.2495H52.486C52.94 31.2495 53.3096 31.619 53.3096 32.073C53.3096 32.527 52.94 32.8966 52.486 32.8966H40.1331Z" fill="#155263"/>
<path d="M52.4863 31.3086C52.9079 31.3086 53.251 31.6516 53.251 32.0733C53.251 32.4949 52.9079 32.838 52.4863 32.838H40.1333C39.7117 32.838 39.3686 32.4949 39.3686 32.0733C39.3686 31.6516 39.7117 31.3086 40.1333 31.3086H52.4863ZM52.4863 31.1909H40.1333C39.6459 31.1909 39.251 31.5859 39.251 32.0733C39.251 32.5607 39.6459 32.9556 40.1333 32.9556H52.4863C52.9737 32.9556 53.3686 32.5607 53.3686 32.0733C53.3686 31.5859 52.9737 31.1909 52.4863 31.1909Z" fill="#155263"/>
<path d="M34.8392 29.3673C34.3852 29.3673 34.0156 28.9979 34.0156 28.5437C34.0156 28.0896 34.3852 27.7202 34.8392 27.7202H35.7215C36.1755 27.7202 36.545 28.0896 36.545 28.5437C36.545 28.9979 36.1755 29.3673 35.7215 29.3673H34.8392Z" fill="#155263"/>
<path d="M35.7217 27.7793C36.1434 27.7793 36.4864 28.1223 36.4864 28.544C36.4864 28.9656 36.1434 29.3087 35.7217 29.3087H34.8394C34.4177 29.3087 34.0747 28.9656 34.0747 28.544C34.0747 28.1223 34.4177 27.7793 34.8394 27.7793H35.7217ZM35.7217 27.6616H34.8394C34.352 27.6616 33.957 28.0566 33.957 28.544C33.957 29.0314 34.352 29.4263 34.8394 29.4263H35.7217C36.2091 29.4263 36.6041 29.0314 36.6041 28.544C36.6041 28.0566 36.2091 27.6616 35.7217 27.6616Z" fill="#155263"/>
<path d="M34.8392 32.8966C34.3852 32.8966 34.0156 32.527 34.0156 32.073C34.0156 31.619 34.3852 31.2495 34.8392 31.2495H35.7215C36.1755 31.2495 36.545 31.619 36.545 32.073C36.545 32.527 36.1755 32.8966 35.7215 32.8966H34.8392Z" fill="#155263"/>
<path d="M35.7217 31.3086C36.1434 31.3086 36.4864 31.6516 36.4864 32.0733C36.4864 32.4949 36.1434 32.838 35.7217 32.838H34.8394C34.4177 32.838 34.0747 32.4949 34.0747 32.0733C34.0747 31.6516 34.4177 31.3086 34.8394 31.3086H35.7217ZM35.7217 31.1909H34.8394C34.352 31.1909 33.957 31.5859 33.957 32.0733C33.957 32.5607 34.352 32.9556 34.8394 32.9556H35.7217C36.2091 32.9556 36.6041 32.5607 36.6041 32.0733C36.6041 31.5859 36.2091 31.1909 35.7217 31.1909Z" fill="#155263"/>
<path d="M46.783 50.1342C46.5631 50.1342 46.3562 50.0484 46.2007 49.893L43.6634 47.3557L41.1262 49.8929C40.9707 50.0483 40.7638 50.134 40.544 50.134C40.3241 50.134 40.117 50.0483 39.9615 49.8929C39.6404 49.5718 39.6404 49.0492 39.9615 48.7282L42.4987 46.191L39.9615 43.6538C39.6404 43.3328 39.6404 42.8102 39.9615 42.4891C40.117 42.3337 40.3239 42.248 40.5439 42.248C40.7639 42.248 40.9707 42.3337 41.1262 42.4891L43.6634 45.0263L46.2006 42.4891C46.3561 42.3337 46.5629 42.248 46.7829 42.248C47.0029 42.248 47.2097 42.3337 47.3653 42.4891C47.6863 42.8102 47.6863 43.3328 47.3653 43.6538L44.8281 46.191L47.3653 48.7282C47.6863 49.0492 47.6863 49.5718 47.3653 49.8929C47.2099 50.0484 47.0029 50.1342 46.783 50.1342Z" fill="#155263"/>
<path d="M46.7829 42.3066C46.9871 42.3066 47.1792 42.3861 47.3236 42.5305C47.6217 42.8287 47.6217 43.3139 47.3236 43.612L44.8279 46.1077L44.7448 46.1908L44.8279 46.274L47.3236 48.7697C47.6217 49.0679 47.6217 49.5531 47.3236 49.8512C47.1791 49.9957 46.987 50.0752 46.7828 50.0752C46.5785 50.0752 46.3864 49.9957 46.2419 49.8513L43.7464 47.3556L43.6632 47.2724L43.58 47.3556L41.0844 49.8512C40.9399 49.9957 40.7478 50.0752 40.5436 50.0752C40.3393 50.0752 40.1472 49.9957 40.0028 49.8513C39.7046 49.5531 39.7046 49.0679 40.0028 48.7698L42.4984 46.2741L42.5816 46.191L42.4984 46.1078L40.0028 43.6121C39.7046 43.3139 39.7046 42.8287 40.0028 42.5306C40.1472 42.3863 40.3393 42.3067 40.5436 42.3067C40.7478 42.3067 40.9399 42.3863 41.0844 42.5306L43.58 45.0263L43.6632 45.1094L43.7464 45.0263L46.242 42.5306C46.3865 42.3861 46.5785 42.3066 46.7829 42.3066ZM46.7829 42.189C46.5571 42.189 46.3312 42.2751 46.1589 42.4473L43.6632 44.943L41.1676 42.4473C40.9952 42.2751 40.7695 42.189 40.5436 42.189C40.3177 42.189 40.0919 42.2751 39.9196 42.4473C39.575 42.792 39.575 43.3506 39.9196 43.6952L42.4153 46.1908L39.9197 48.6865C39.5751 49.0312 39.5751 49.5898 39.9197 49.9344C40.092 50.1066 40.3178 50.1927 40.5437 50.1927C40.7696 50.1927 40.9952 50.1066 41.1677 49.9344L43.6633 47.4387L46.159 49.9344C46.3313 50.1066 46.5571 50.1927 46.783 50.1927C47.0089 50.1927 47.2345 50.1066 47.407 49.9344C47.7516 49.5897 47.7516 49.0311 47.407 48.6865L44.9111 46.1908L47.4068 43.6952C47.7513 43.3505 47.7513 42.7919 47.4068 42.4473C47.2344 42.2751 47.0086 42.189 46.7829 42.189Z" fill="#155263"/>
<path d="M46.7825 14.3673C47.2373 14.3673 47.606 13.9986 47.606 13.5437C47.606 13.0889 47.2373 12.7202 46.7825 12.7202C46.3277 12.7202 45.959 13.0889 45.959 13.5437C45.959 13.9986 46.3277 14.3673 46.7825 14.3673Z" fill="#155263"/>
<path d="M46.7827 12.7793C47.2044 12.7793 47.5474 13.1223 47.5474 13.544C47.5474 13.9656 47.2044 14.3087 46.7827 14.3087C46.3611 14.3087 46.018 13.9656 46.018 13.544C46.018 13.1223 46.361 12.7793 46.7827 12.7793ZM46.7827 12.6616C46.2954 12.6616 45.9004 13.0567 45.9004 13.544C45.9004 14.0313 46.2954 14.4263 46.7827 14.4263C47.27 14.4263 47.6651 14.0313 47.6651 13.544C47.6651 13.0567 47.27 12.6616 46.7827 12.6616Z" fill="#155263"/>
<path d="M1.30986 42.6026C1.76468 42.6026 2.13339 42.2339 2.13339 41.7791C2.13339 41.3243 1.76468 40.9556 1.30986 40.9556C0.855035 40.9556 0.486328 41.3243 0.486328 41.7791C0.486328 42.2339 0.855035 42.6026 1.30986 42.6026Z" fill="#155263"/>
<path d="M1.31009 41.0146C1.73173 41.0146 2.07479 41.3577 2.07479 41.7793C2.07479 42.201 1.73173 42.544 1.31009 42.544C0.88844 42.544 0.545381 42.201 0.545381 41.7793C0.545381 41.3577 0.88844 41.0146 1.31009 41.0146ZM1.31009 40.897C0.822793 40.897 0.427734 41.292 0.427734 41.7793C0.427734 42.2666 0.822793 42.6617 1.31009 42.6617C1.79738 42.6617 2.19244 42.2666 2.19244 41.7793C2.19244 41.292 1.79738 40.897 1.31009 40.897Z" fill="#155263"/>
</svg>
