<svg width="61" height="60" viewBox="0 0 61 60" fill="none" xmlns="http://www.w3.org/2000/svg">
<path d="M46.1055 16H53.1055C53.3707 16 53.625 15.8946 53.8126 15.7071C54.0001 15.5196 54.1055 15.2652 54.1055 15C54.1055 14.7348 54.0001 14.4804 53.8126 14.2929C53.625 14.1054 53.3707 14 53.1055 14H46.1055C45.8403 14 45.5859 14.1054 45.3984 14.2929C45.2108 14.4804 45.1055 14.7348 45.1055 15C45.1055 15.2652 45.2108 15.5196 45.3984 15.7071C45.5859 15.8946 45.8403 16 46.1055 16Z" fill="#155263"/>
<path d="M41.1055 20H53.1055C53.3707 20 53.625 19.8946 53.8126 19.7071C54.0001 19.5196 54.1055 19.2652 54.1055 19C54.1055 18.7348 54.0001 18.4804 53.8126 18.2929C53.625 18.1054 53.3707 18 53.1055 18H41.1055C40.8403 18 40.5859 18.1054 40.3984 18.2929C40.2108 18.4804 40.1055 18.7348 40.1055 19C40.1055 19.2652 40.2108 19.5196 40.3984 19.7071C40.5859 19.8946 40.8403 20 41.1055 20Z" fill="#155263"/>
<path d="M41.1055 24H53.1055C53.3707 24 53.625 23.8946 53.8126 23.7071C54.0001 23.5196 54.1055 23.2652 54.1055 23C54.1055 22.7348 54.0001 22.4804 53.8126 22.2929C53.625 22.1054 53.3707 22 53.1055 22H41.1055C40.8403 22 40.5859 22.1054 40.3984 22.2929C40.2108 22.4804 40.1055 22.7348 40.1055 23C40.1055 23.2652 40.2108 23.5196 40.3984 23.7071C40.5859 23.8946 40.8403 24 41.1055 24Z" fill="#155263"/>
<path d="M41.1055 28H53.1055C53.3707 28 53.625 27.8946 53.8126 27.7071C54.0001 27.5196 54.1055 27.2652 54.1055 27C54.1055 26.7348 54.0001 26.4804 53.8126 26.2929C53.625 26.1054 53.3707 26 53.1055 26H41.1055C40.8403 26 40.5859 26.1054 40.3984 26.2929C40.2108 26.4804 40.1055 26.7348 40.1055 27C40.1055 27.2652 40.2108 27.5196 40.3984 27.7071C40.5859 27.8946 40.8403 28 41.1055 28Z" fill="#155263"/>
<path d="M41.1055 32H53.1055C53.3707 32 53.625 31.8946 53.8126 31.7071C54.0001 31.5196 54.1055 31.2652 54.1055 31C54.1055 30.7348 54.0001 30.4804 53.8126 30.2929C53.625 30.1054 53.3707 30 53.1055 30H41.1055C40.8403 30 40.5859 30.1054 40.3984 30.2929C40.2108 30.4804 40.1055 30.7348 40.1055 31C40.1055 31.2652 40.2108 31.5196 40.3984 31.7071C40.5859 31.8946 40.8403 32 41.1055 32Z" fill="#155263"/>
<path d="M41.1055 36H48.1055C48.3707 36 48.625 35.8946 48.8126 35.7071C49.0001 35.5196 49.1055 35.2652 49.1055 35C49.1055 34.7348 49.0001 34.4804 48.8126 34.2929C48.625 34.1054 48.3707 34 48.1055 34H41.1055C40.8403 34 40.5859 34.1054 40.3984 34.2929C40.2108 34.4804 40.1055 34.7348 40.1055 35C40.1055 35.2652 40.2108 35.5196 40.3984 35.7071C40.5859 35.8946 40.8403 36 41.1055 36Z" fill="#155263"/>
<path d="M57.1055 0H3.10547C2.31055 0.00237409 1.54887 0.319207 0.986771 0.881302C0.424676 1.4434 0.107843 2.20508 0.105469 3V57C0.107843 57.7949 0.424676 58.5566 0.986771 59.1187C1.54887 59.6808 2.31055 59.9976 3.10547 60H57.1055C57.9004 59.9976 58.6621 59.6808 59.2242 59.1187C59.7863 58.5566 60.1031 57.7949 60.1055 57V3C60.1031 2.20508 59.7863 1.4434 59.2242 0.881302C58.6621 0.319207 57.9004 0.00237409 57.1055 0ZM58.1055 57C58.1055 57.2652 58.0001 57.5196 57.8126 57.7071C57.625 57.8946 57.3707 58 57.1055 58H3.10547C2.84025 58 2.5859 57.8946 2.39836 57.7071C2.21083 57.5196 2.10547 57.2652 2.10547 57V10H58.1055V57ZM58.1055 8H2.10547V3C2.10547 2.73478 2.21083 2.48043 2.39836 2.29289C2.5859 2.10536 2.84025 2 3.10547 2H57.1055C57.3707 2 57.625 2.10536 57.8126 2.29289C58.0001 2.48043 58.1055 2.73478 58.1055 3V8Z" fill="#155263"/>
<path d="M6.10547 4H5.10547C4.84025 4 4.5859 4.10536 4.39836 4.29289C4.21083 4.48043 4.10547 4.73478 4.10547 5C4.10547 5.26522 4.21083 5.51957 4.39836 5.70711C4.5859 5.89464 4.84025 6 5.10547 6H6.10547C6.37069 6 6.62504 5.89464 6.81258 5.70711C7.00011 5.51957 7.10547 5.26522 7.10547 5C7.10547 4.73478 7.00011 4.48043 6.81258 4.29289C6.62504 4.10536 6.37069 4 6.10547 4Z" fill="#155263"/>
<path d="M11.1055 4H10.1055C9.84025 4 9.5859 4.10536 9.39836 4.29289C9.21083 4.48043 9.10547 4.73478 9.10547 5C9.10547 5.26522 9.21083 5.51957 9.39836 5.70711C9.5859 5.89464 9.84025 6 10.1055 6H11.1055C11.3707 6 11.625 5.89464 11.8126 5.70711C12.0001 5.51957 12.1055 5.26522 12.1055 5C12.1055 4.73478 12.0001 4.48043 11.8126 4.29289C11.625 4.10536 11.3707 4 11.1055 4Z" fill="#155263"/>
<path d="M16.1055 4H15.1055C14.8403 4 14.5859 4.10536 14.3984 4.29289C14.2108 4.48043 14.1055 4.73478 14.1055 5C14.1055 5.26522 14.2108 5.51957 14.3984 5.70711C14.5859 5.89464 14.8403 6 15.1055 6H16.1055C16.3707 6 16.625 5.89464 16.8126 5.70711C17.0001 5.51957 17.1055 5.26522 17.1055 5C17.1055 4.73478 17.0001 4.48043 16.8126 4.29289C16.625 4.10536 16.3707 4 16.1055 4Z" fill="#155263"/>
<path d="M55.1055 4H54.1055C53.8403 4 53.5859 4.10536 53.3984 4.29289C53.2108 4.48043 53.1055 4.73478 53.1055 5C53.1055 5.26522 53.2108 5.51957 53.3984 5.70711C53.5859 5.89464 53.8403 6 54.1055 6H55.1055C55.3707 6 55.625 5.89464 55.8126 5.70711C56.0001 5.51957 56.1055 5.26522 56.1055 5C56.1055 4.73478 56.0001 4.48043 55.8126 4.29289C55.625 4.10536 55.3707 4 55.1055 4Z" fill="#155263"/>
<path d="M41.1055 16H42.1055C42.3707 16 42.625 15.8946 42.8126 15.7071C43.0001 15.5196 43.1055 15.2652 43.1055 15C43.1055 14.7348 43.0001 14.4804 42.8126 14.2929C42.625 14.1054 42.3707 14 42.1055 14H41.1055C40.8403 14 40.5859 14.1054 40.3984 14.2929C40.2108 14.4804 40.1055 14.7348 40.1055 15C40.1055 15.2652 40.2108 15.5196 40.3984 15.7071C40.5859 15.8946 40.8403 16 41.1055 16Z" fill="#155263"/>
<path d="M53.1055 34H52.1055C51.8403 34 51.5859 34.1054 51.3984 34.2929C51.2108 34.4804 51.1055 34.7348 51.1055 35C51.1055 35.2652 51.2108 35.5196 51.3984 35.7071C51.5859 35.8946 51.8403 36 52.1055 36H53.1055C53.3707 36 53.625 35.8946 53.8126 35.7071C54.0001 35.5196 54.1055 35.2652 54.1055 35C54.1055 34.7348 54.0001 34.4804 53.8126 34.2929C53.625 34.1054 53.3707 34 53.1055 34Z" fill="#155263"/>
<path d="M50.1055 4H26.1055C25.8403 4 25.5859 4.10536 25.3984 4.29289C25.2108 4.48043 25.1055 4.73478 25.1055 5C25.1055 5.26522 25.2108 5.51957 25.3984 5.70711C25.5859 5.89464 25.8403 6 26.1055 6H50.1055C50.3707 6 50.625 5.89464 50.8126 5.70711C51.0001 5.51957 51.1055 5.26522 51.1055 5C51.1055 4.73478 51.0001 4.48043 50.8126 4.29289C50.625 4.10536 50.3707 4 50.1055 4Z" fill="#155263"/>
<path d="M7.10547 36H36.1055C36.3707 36 36.625 35.8946 36.8126 35.7071C37.0001 35.5196 37.1055 35.2652 37.1055 35V15C37.1055 14.7348 37.0001 14.4804 36.8126 14.2929C36.625 14.1054 36.3707 14 36.1055 14H7.10547C6.84025 14 6.5859 14.1054 6.39836 14.2929C6.21083 14.4804 6.10547 14.7348 6.10547 15V35C6.10547 35.2652 6.21083 35.5196 6.39836 35.7071C6.5859 35.8946 6.84025 36 7.10547 36ZM20.3235 30.138L20.3355 30.119L26.1055 20.887L34.3055 34H17.9055L20.3235 30.138ZM15.5515 34H8.97347L15.1055 24.8L18.3055 29.6L15.5515 34ZM35.1055 16V31.514L26.9535 18.47C26.8576 18.3336 26.7303 18.2223 26.5824 18.1455C26.4344 18.0686 26.2702 18.0285 26.1035 18.0285C25.9368 18.0285 25.7725 18.0686 25.6246 18.1455C25.4766 18.2223 25.3493 18.3336 25.2535 18.47L19.4635 27.736L15.9335 22.445C15.8367 22.3157 15.7111 22.2106 15.5667 22.1383C15.4223 22.066 15.263 22.0283 15.1015 22.0283C14.9399 22.0283 14.7806 22.066 14.6362 22.1383C14.4918 22.2106 14.3662 22.3157 14.2695 22.445L8.10547 31.7V16H35.1055Z" fill="#155263"/>
<path d="M36.1055 54H24.1055C23.8403 54 23.5859 53.8946 23.3984 53.7071C23.2108 53.5196 23.1055 53.2652 23.1055 53V41C23.1055 40.7348 23.2108 40.4804 23.3984 40.2929C23.5859 40.1054 23.8403 40 24.1055 40H36.1055C36.3707 40 36.625 40.1054 36.8126 40.2929C37.0001 40.4804 37.1055 40.7348 37.1055 41V53C37.1055 53.2652 37.0001 53.5196 36.8126 53.7071C36.625 53.8946 36.3707 54 36.1055 54ZM25.1055 52H35.1055V42H25.1055V52Z" fill="#155263"/>
<path d="M53.1055 54H41.1055C40.8403 54 40.5859 53.8946 40.3984 53.7071C40.2108 53.5196 40.1055 53.2652 40.1055 53V41C40.1055 40.7348 40.2108 40.4804 40.3984 40.2929C40.5859 40.1054 40.8403 40 41.1055 40H53.1055C53.3707 40 53.625 40.1054 53.8126 40.2929C54.0001 40.4804 54.1055 40.7348 54.1055 41V53C54.1055 53.2652 54.0001 53.5196 53.8126 53.7071C53.625 53.8946 53.3707 54 53.1055 54ZM42.1055 52H52.1055V42H42.1055V52Z" fill="#155263"/>
<path d="M19.1055 54H7.10547C6.84025 54 6.5859 53.8946 6.39836 53.7071C6.21083 53.5196 6.10547 53.2652 6.10547 53V41C6.10547 40.7348 6.21083 40.4804 6.39836 40.2929C6.5859 40.1054 6.84025 40 7.10547 40H19.1055C19.3707 40 19.625 40.1054 19.8126 40.2929C20.0001 40.4804 20.1055 40.7348 20.1055 41V53C20.1055 53.2652 20.0001 53.5196 19.8126 53.7071C19.625 53.8946 19.3707 54 19.1055 54ZM8.10547 52H18.1055V42H8.10547V52Z" fill="#155263"/>
</svg>
