<svg width="61" height="60" viewBox="0 0 61 60" fill="none" xmlns="http://www.w3.org/2000/svg">
<path d="M59.8107 58.2386H54.116V23.4246C54.116 22.9383 53.7217 22.5439 53.2353 22.5439H43.842C43.3556 22.5439 42.9614 22.9383 42.9614 23.4246V58.2386H36.2687V33.7573C36.2687 33.2709 35.8745 32.8766 35.388 32.8766H25.9947C25.5083 32.8766 25.1141 33.2709 25.1141 33.7573V58.2386H18.4214V38.4539C18.4214 37.9676 18.0272 37.5732 17.5407 37.5732H8.14745C7.66101 37.5732 7.26679 37.9676 7.26679 38.4539V58.2385H1.57207C1.08562 58.2385 0.691406 58.6329 0.691406 59.1192C0.691406 59.6055 1.08562 59.9998 1.57207 59.9998H59.8107C60.2971 59.9998 60.6913 59.6055 60.6913 59.1192C60.6912 58.6329 60.2971 58.2386 59.8107 58.2386ZM16.6601 58.2386H9.028V39.3346H16.6601V58.2386ZM34.5075 58.2386H26.8754V34.6379H34.5075V58.2386ZM52.3548 58.2386H44.7227V24.3053H52.3548V58.2386Z" fill="#155263"/>
<path d="M57.8778 0.690869C57.2842 0.166924 56.4943 -0.0771773 55.7091 0.0214944L48.1945 0.960869C46.7027 1.14731 45.6121 2.54759 45.7988 4.0409C45.9874 5.54993 47.368 6.62536 48.879 6.43668L49.4921 6.36016C40.2689 17.0542 29.304 22.581 21.5558 25.3586C11.8947 28.8221 4.37518 29.1183 4.30194 29.1208C2.78284 29.1682 1.58425 30.4429 1.63018 31.9622C1.67565 33.4627 2.88655 34.6379 4.38713 34.6379C4.41502 34.6379 4.44303 34.6376 4.47174 34.6367C4.80608 34.6266 12.7773 34.3451 23.279 30.6031C29.1827 28.4993 34.7378 25.7066 39.7899 22.3027C40.1933 22.031 40.2999 21.4835 40.028 21.0803C39.7564 20.6768 39.2091 20.5703 38.8057 20.8421C33.8758 24.1639 28.453 26.8897 22.6878 28.944C12.4441 32.5941 4.74116 32.8664 4.41901 32.8762L4.38713 32.8766C3.84479 32.8766 3.40698 32.4516 3.39057 31.9089C3.37393 31.3593 3.80753 30.8983 4.35737 30.881C4.43424 30.8786 12.1684 30.5947 22.1502 27.0164C30.5125 24.0187 42.5282 17.8976 52.2821 5.76122C52.7677 5.157 52.2543 4.23954 51.4866 4.33575L48.661 4.68895C48.1712 4.74954 47.6954 4.42856 47.571 3.9502C47.4215 3.37458 47.8237 2.78208 48.4132 2.70825L55.928 1.76888C56.5148 1.6947 57.0496 2.16895 57.0496 2.75923V10.2739C57.0496 10.8242 56.602 11.272 56.0515 11.272C55.5011 11.272 55.0535 10.8243 55.0535 10.2739V7.99575C55.0535 7.63586 54.8207 7.2993 54.4842 7.17215C54.1365 7.04078 53.7256 7.15106 53.4905 7.43887C50.2014 11.4691 46.4564 15.1159 42.3591 18.2781C41.9742 18.5753 41.9028 19.1283 42.2 19.5134C42.4972 19.8985 43.0504 19.9696 43.4353 19.6725C47.0042 16.918 50.3124 13.8054 53.2951 10.3982C53.3602 11.8622 54.5717 13.0334 56.0517 13.0334C57.5731 13.0334 58.811 11.7955 58.811 10.2741V2.75946C58.8108 1.96845 58.4708 1.21434 57.8778 0.690869Z" fill="#155263"/>
</svg>
