<svg width="66" height="60" viewBox="0 0 66 60" fill="none" xmlns="http://www.w3.org/2000/svg">
<path d="M58.1012 33.0288V30.0194C58.1012 29.4924 57.674 29.0654 57.1472 29.0654C56.6203 29.0654 56.1931 29.4924 56.1931 30.0194V32.2427C54.7962 31.7833 53.305 31.5337 51.7563 31.5337C51.6452 31.5337 51.5333 31.5361 51.4213 31.5388V18.1647C51.4213 17.6378 50.9941 17.2107 50.4673 17.2107H50.0898L53.8072 13.2586L57.5246 17.2107H57.147C56.6202 17.2107 56.193 17.6378 56.193 18.1647V26.2964C56.193 26.8233 56.6201 27.2504 57.147 27.2504C57.674 27.2504 58.101 26.8233 58.101 26.2964V19.1187H59.7316C60.5424 19.1457 61.0014 18.0832 60.4265 17.5112L54.5021 11.2128C54.1442 10.8159 53.4701 10.8159 53.1124 11.2128L47.188 17.5112C46.6129 18.0834 47.0722 19.1457 47.8829 19.1187H49.5134V26.2759C48.2849 24.2061 46.5343 22.4864 44.4492 21.2934V9.70303H46.0797C46.8905 9.72995 47.3496 8.66739 46.7746 8.09549L40.8502 1.79723C40.4924 1.40027 39.8183 1.40027 39.4605 1.79723L33.5361 8.09549C32.9609 8.66752 33.4204 9.73007 34.2311 9.70303H35.8616V19.5747C34.0466 19.7984 32.3339 20.3729 30.7975 21.2328V16.4254H32.428C33.2388 16.4523 33.6979 15.3898 33.1229 14.8178L27.1985 8.5195C26.8407 8.12253 26.1666 8.12253 25.8088 8.5195L19.8844 14.8178C19.3094 15.3899 19.7687 16.4522 20.5793 16.4254H22.2099V29.5069C21.7568 29.4565 21.2999 29.4298 20.84 29.4298C19.5533 29.4298 18.3124 29.629 17.1457 29.9967V8.20378H18.7762C19.587 8.23069 20.046 7.16827 19.4711 6.59624L13.5464 0.297724C13.1887 -0.0992414 12.5145 -0.0992414 12.1567 0.297724L6.23221 6.59611C5.65701 7.16827 6.11643 8.23057 6.92712 8.20365H8.55764V16.0286C8.55764 16.5555 8.98482 16.9826 9.51165 16.9826C10.0385 16.9826 10.4657 16.5555 10.4657 16.0286V7.24977C10.4657 6.72281 10.0386 6.29575 9.51165 6.29575H9.13411L12.8515 2.34361L16.5689 6.29575H16.1914C15.6646 6.29575 15.2374 6.72281 15.2374 7.24977V30.78C13.2895 31.7794 11.6413 33.2827 10.4654 35.1168V19.8446C10.4654 19.3177 10.0384 18.8906 9.5114 18.8906C8.98457 18.8906 8.55739 19.3177 8.55739 19.8446V40.8587C8.55434 40.902 8.55053 40.9453 8.54787 40.9887C4.18721 41.9422 0.992188 45.8444 0.992188 50.3821C0.992188 55.6853 5.30676 59.9999 10.61 59.9999H39.9464C40.4732 59.9999 40.9004 59.5728 40.9004 59.0459C40.9004 58.5189 40.4733 58.0918 39.9464 58.0918H10.61C6.35878 58.0918 2.90009 54.6332 2.90009 50.3819C2.90009 46.5232 5.78205 43.2377 9.60369 42.7397C10.0803 42.6776 10.4362 42.2706 10.4344 41.7901C10.4343 41.773 10.4339 41.756 10.4332 41.7354C10.4377 36.001 15.1043 31.3375 20.8397 31.3375C22.1044 31.3375 23.3438 31.5639 24.523 32.0104C25.0621 32.2299 25.7154 31.8566 25.8008 31.281C26.7946 25.5419 31.7486 21.3764 37.5804 21.3764C43.8948 21.3764 49.1371 26.3096 49.5153 32.6073C49.6115 33.7939 50.9478 33.4358 51.7566 33.4418C58.5527 33.4418 64.0817 38.9708 64.0817 45.7669C64.0817 52.5629 58.5527 58.092 51.7566 58.092H43.7622C43.2353 58.092 42.8082 58.519 42.8082 59.046C42.8082 59.573 43.2353 60 43.7622 60H51.7563C59.6045 60 65.9895 53.615 65.9895 45.7669C65.9895 40.1973 62.7734 35.3655 58.1012 33.0288ZM40.1553 3.84312L43.8727 7.79513H43.4953C42.9685 7.79513 42.5413 8.22219 42.5413 8.74915V20.3867C41.0537 19.8149 39.4453 19.4935 37.7695 19.4709V8.74902C37.7695 8.22206 37.3423 7.79501 36.8155 7.79501H36.4379L40.1553 3.84312ZM24.1501 29.8819C24.1393 29.8788 24.1283 29.8763 24.1175 29.8734V15.4713C24.1175 14.9443 23.6903 14.5173 23.1635 14.5173H22.7861L26.5035 10.5653L30.2209 14.5173H29.8435C29.3167 14.5173 28.8895 14.9443 28.8895 15.4713V22.5202C26.6073 24.3533 24.9092 26.9046 24.1501 29.8819V29.8819Z" fill="#155263"/>
<path d="M36.9407 40.7894C37.4675 40.7894 37.8947 40.3623 37.8947 39.8354C37.8947 39.3084 37.4675 38.8813 36.9407 38.8813H32.4735C31.9467 38.8813 31.5195 39.3084 31.5195 39.8354V50.4374C31.5195 50.9644 31.9467 51.3914 32.4735 51.3914H36.9407C37.4675 51.3914 37.8947 50.9644 37.8947 50.4374C37.8947 49.9104 37.4675 49.4834 36.9407 49.4834H33.4274V46.0903H36.6113C37.1381 46.0903 37.5653 45.6633 37.5653 45.1363C37.5653 44.6094 37.1382 44.1823 36.6113 44.1823H33.4274V40.7892H36.9407V40.7894Z" fill="#155263"/>
<path d="M25.6318 49.5324C24.4618 49.5324 23.3322 49.0566 22.6101 48.2598C22.2563 47.8694 21.6531 47.8399 21.2626 48.1934C20.8722 48.5472 20.8425 49.1505 21.1962 49.541C22.274 50.7303 23.9321 51.4405 25.6316 51.4405C27.6671 51.4405 29.4404 50.1055 29.7565 48.3352C30.1211 46.2931 28.5154 44.9251 26.891 44.3261C25.5141 43.8181 24.2369 43.2636 23.9144 43.1221C23.5725 42.8715 23.4066 42.4714 23.4688 42.0385C23.547 41.4935 23.9657 41.0561 24.5889 40.8685C26.3055 40.3511 27.8566 41.595 27.8872 41.62C28.2906 41.9561 28.8899 41.903 29.2279 41.5008C29.5669 41.0975 29.5148 40.4957 29.1115 40.1567C29.0168 40.0773 26.7653 38.2205 24.0384 39.0416C22.7059 39.4431 21.7639 40.4875 21.5801 41.7674C21.4091 42.9592 21.9251 44.1051 22.9269 44.7582C22.969 44.7857 23.0133 44.8099 23.0593 44.8303C23.1207 44.8576 24.5829 45.5085 26.2304 46.1162C27.4133 46.5525 28.0139 47.2391 27.8781 48.0001C27.7457 48.7427 26.9133 49.5324 25.6318 49.5324V49.5324Z" fill="#155263"/>
<path d="M51.4435 45.1362C51.4435 41.6603 48.6156 38.8325 45.1398 38.8325C41.6638 38.8325 38.8359 41.6604 38.8359 45.1362C38.8359 48.6122 41.6638 51.44 45.1398 51.44C48.6156 51.4401 51.4435 48.6122 51.4435 45.1362ZM40.7438 45.1362C40.7438 42.7123 42.7158 40.7404 45.1397 40.7404C47.5635 40.7404 49.5355 42.7123 49.5355 45.1362C49.5355 47.5602 47.5635 49.5321 45.1397 49.5321C42.7158 49.5322 40.7438 47.5602 40.7438 45.1362Z" fill="#155263"/>
</svg>
