<svg width="61" height="60" viewBox="0 0 61 60" fill="none" xmlns="http://www.w3.org/2000/svg">
<path d="M49.7266 60H4.63281C4.07031 60 3.69531 59.625 3.69531 59.0625V34.2188C3.69531 33.6562 4.07031 33.2812 4.63281 33.2812C5.19531 33.2812 5.57031 33.6562 5.57031 34.2188V58.125H48.7891V39.5625C48.7891 39 49.1641 38.625 49.7266 38.625C50.2891 38.625 50.6641 39 50.6641 39.5625V59.0625C50.6641 59.625 50.2891 60 49.7266 60Z" fill="#155263"/>
<path d="M21.9763 27.0938H11.7576C11.4763 27.0938 11.1013 26.9062 11.0076 26.625C10.9138 26.3438 10.8201 26.0625 10.9138 25.6875L16.1638 14.1563C16.3513 13.7813 16.6326 13.5938 17.0076 13.5938H23.7576C24.0388 13.5938 24.3201 13.6875 24.5076 13.875C24.6951 14.0625 24.7888 14.3438 24.6951 14.625L22.9138 26.1562C22.8201 26.7188 22.4451 27.0938 21.9763 27.0938ZM13.2576 25.2188H21.1326L22.6326 15.5625H17.5701L13.2576 25.2188Z" fill="#155263"/>
<path d="M36.6016 27.0937H32.2891C31.8203 27.0937 31.4453 26.7188 31.3516 26.25L30.8828 22.9688L29.5703 14.8125C29.5703 14.5312 29.5703 14.25 29.7578 14.0625C29.9453 13.875 30.2266 13.6875 30.5078 13.6875H32.2891C32.8516 13.6875 33.2266 14.0625 33.2266 14.625C33.2266 15.1875 32.8516 15.5625 32.2891 15.5625H31.6328L33.1328 25.2187H36.6016C37.1641 25.2187 37.5391 25.5937 37.5391 26.1562C37.5391 26.7187 37.1641 27.0937 36.6016 27.0937Z" fill="#155263"/>
<path d="M11.7585 27.0937H1.44595C1.07095 27.0937 0.789703 26.9062 0.602203 26.5312C0.414703 26.1562 0.508453 25.875 0.695953 25.5937L8.6647 15.1875C9.2272 14.25 10.3522 13.6875 11.6647 13.6875H17.0085C17.2897 13.6875 17.6647 13.875 17.7585 14.1562C17.8522 14.4375 17.946 14.7188 17.8522 15.0938L12.6022 26.625C12.4147 26.9062 12.1335 27.0937 11.7585 27.0937ZM3.32095 25.2187H11.1022L15.5085 15.5625H11.6647C11.2897 15.5625 10.5397 15.6562 10.1647 16.2187L3.32095 25.2187Z" fill="#155263"/>
<path d="M32.2907 27.0938H21.9782C21.6969 27.0938 21.4157 27 21.2282 26.8125C21.0407 26.625 20.9469 26.3437 21.0407 26.0625L22.8219 14.5313C22.9157 14.0625 23.2907 13.7812 23.7594 13.7812H30.5094C30.9782 13.7812 31.3532 14.1563 31.4469 14.5313L33.2282 26.0625C33.2282 26.3437 33.2282 26.625 33.0407 26.8125C32.8532 27 32.5719 27.0938 32.2907 27.0938ZM23.1032 25.2188H31.2594L29.7594 15.5625H24.6032L23.1032 25.2188Z" fill="#155263"/>
<path d="M16.9141 35.4375C13.6328 35.4375 10.8203 32.625 10.8203 29.3438V26.1563C10.8203 25.5938 11.1953 25.2188 11.7578 25.2188H22.0703C22.6328 25.2188 23.0078 25.5938 23.0078 26.1563V29.3438C23.0078 32.625 20.1953 35.4375 16.9141 35.4375ZM12.6953 27.0938V29.3438C12.6953 31.5938 14.6641 33.5625 16.9141 33.5625C19.1641 33.5625 21.1328 31.5938 21.1328 29.3438V27.0938H12.6953Z" fill="#155263"/>
<path d="M37.4453 35.4375C34.1641 35.4375 31.3516 32.625 31.3516 29.3438V26.1563C31.3516 25.5938 31.7266 25.2188 32.2891 25.2188H36.6016C37.1641 25.2188 37.5391 25.5938 37.5391 26.1563C37.5391 26.7188 37.1641 27.0938 36.6016 27.0938H33.2266V29.3438C33.2266 31.5938 35.1953 33.5625 37.4453 33.5625C38.2891 33.5625 39.1328 33.2813 39.8828 32.7188C40.2578 32.4375 40.9141 32.4375 41.1953 32.9062C41.4766 33.2812 41.4766 33.9375 41.0078 34.2188C39.9766 34.9688 38.7578 35.4375 37.4453 35.4375Z" fill="#155263"/>
<path d="M6.60156 35.4375C3.32031 35.4375 0.507812 32.625 0.507812 29.3438V26.1563C0.507812 25.5938 0.882812 25.2188 1.44531 25.2188H11.7578C12.3203 25.2188 12.6953 25.5938 12.6953 26.1563V29.3438C12.6953 32.625 9.88281 35.4375 6.60156 35.4375ZM2.38281 27.0938V29.3438C2.38281 31.5938 4.35156 33.5625 6.60156 33.5625C8.85156 33.5625 10.8203 31.5938 10.8203 29.3438V27.0938H2.38281Z" fill="#155263"/>
<path d="M27.1328 35.4375C23.8516 35.4375 21.0391 32.625 21.0391 29.3438V26.1563C21.0391 25.5938 21.4141 25.2188 21.9766 25.2188H32.2891C32.8516 25.2188 33.2266 25.5938 33.2266 26.1563V29.3438C33.2266 32.625 30.4141 35.4375 27.1328 35.4375ZM22.9141 27.0938V29.3438C22.9141 31.5938 24.8828 33.5625 27.1328 33.5625C29.3828 33.5625 31.3516 31.5938 31.3516 29.3438V27.0938H22.9141Z" fill="#155263"/>
<path d="M42.4141 60H29.2891C28.7266 60 28.3516 59.625 28.3516 59.0625V43.125C28.3516 41.3437 29.6641 40.0312 31.4453 40.0312H40.1641C41.9453 40.0312 43.3516 41.4375 43.3516 43.125V59.0625C43.3516 59.625 42.9766 60 42.4141 60ZM30.2266 58.125H41.4766V43.125C41.4766 42.5625 41.0078 41.9063 40.1641 41.9063H31.4453C30.6953 41.9063 30.2266 42.375 30.2266 43.125V58.125Z" fill="#155263"/>
<path d="M39.3203 50.0625H32.3828C31.8203 50.0625 31.4453 49.6875 31.4453 49.125V44.7188C31.4453 44.1562 31.8203 43.7812 32.3828 43.7812H39.3203C39.8828 43.7812 40.2578 44.1562 40.2578 44.7188V49.125C40.2578 49.6875 39.8828 50.0625 39.3203 50.0625ZM33.3203 48.1875H38.3828V45.6563H33.3203V48.1875Z" fill="#155263"/>
<path d="M52.4453 60H1.82031C1.25781 60 0.882812 59.625 0.882812 59.0625C0.882812 58.5 1.25781 58.125 1.82031 58.125H52.4453C53.0078 58.125 53.3828 58.5 53.3828 59.0625C53.3828 59.625 53.0078 60 52.4453 60Z" fill="#155263"/>
<path d="M47.6641 37.0312C46.4453 37.0312 45.3203 36.375 44.7578 35.3438C40.2578 27.5625 34.9141 17.3438 34.9141 12.75C34.9141 5.71875 40.6328 0 47.6641 0C54.6016 0 60.5078 5.8125 60.5078 12.75C60.5078 17.3438 55.1641 27.5625 50.6641 35.3438C50.0078 36.375 48.8828 37.0312 47.6641 37.0312ZM47.6641 1.875C41.6641 1.875 36.7891 6.75 36.7891 12.75C36.7891 16.0312 40.1641 23.7188 46.4453 34.4062C46.7266 34.875 47.1953 35.1562 47.7578 35.1562C48.3203 35.1562 48.7891 34.875 49.0703 34.4062C55.2578 23.7188 58.6328 16.0312 58.6328 12.75C58.6328 6.84375 53.5703 1.875 47.6641 1.875Z" fill="#155263"/>
<path d="M47.7578 21C43.1641 21 39.5078 17.3438 39.5078 12.75C39.5078 8.15625 43.1641 4.5 47.7578 4.5C52.3516 4.5 56.0078 8.15625 56.0078 12.75C56.0078 17.3438 52.3516 21 47.7578 21ZM47.7578 6.375C44.1953 6.375 41.3828 9.28125 41.3828 12.75C41.3828 16.2188 44.2891 19.125 47.7578 19.125C51.2266 19.125 54.1328 16.2188 54.1328 12.75C54.1328 9.28125 51.2266 6.375 47.7578 6.375Z" fill="#155263"/>
<path d="M21.8828 53.0625H11.7578C10.1641 53.0625 8.94531 51.8437 8.94531 50.25V43.3125C8.94531 41.7188 10.1641 40.5 11.7578 40.5H21.8828C23.4766 40.5 24.6953 41.7188 24.6953 43.3125V50.25C24.6953 51.8437 23.4766 53.0625 21.8828 53.0625ZM11.7578 42.375C11.1953 42.375 10.8203 42.75 10.8203 43.3125V50.25C10.8203 50.8125 11.1953 51.1875 11.7578 51.1875H21.8828C22.4453 51.1875 22.8203 50.8125 22.8203 50.25V43.3125C22.8203 42.75 22.4453 42.375 21.8828 42.375H11.7578Z" fill="#155263"/>
<path d="M32.2891 55.125C31.7266 55.125 31.3516 54.75 31.3516 54.1875V52.9688C31.3516 52.4062 31.7266 52.0312 32.2891 52.0312C32.8516 52.0312 33.2266 52.4062 33.2266 52.9688V54.1875C33.2266 54.75 32.8516 55.125 32.2891 55.125Z" fill="#155263"/>
</svg>
