<svg width="60" height="60" viewBox="0 0 60 60" fill="none" xmlns="http://www.w3.org/2000/svg">
<path d="M34.9301 52.131H32.9629V42.4917C32.9629 42.2308 32.8593 41.9806 32.6748 41.7962C32.4904 41.6117 32.2402 41.5081 31.9793 41.5081C31.7184 41.5081 31.4683 41.6117 31.2838 41.7962C31.0993 41.9806 30.9957 42.2308 30.9957 42.4917V52.131H5.42194V32.4589H13.6055C13.8664 32.4589 14.1166 32.3553 14.3011 32.1708C14.4855 31.9864 14.5892 31.7362 14.5892 31.4753C14.5892 31.2144 14.4855 30.9643 14.3011 30.7798C14.1166 30.5953 13.8664 30.4917 13.6055 30.4917H4.43833C4.17746 30.4917 3.92728 30.5953 3.74282 30.7798C3.55836 30.9643 3.45473 31.2144 3.45473 31.4753V52.131H1.48751C1.22664 52.131 0.97646 52.2347 0.791998 52.4191C0.607536 52.6036 0.503906 52.8538 0.503906 53.1146V55.0819C0.503906 56.3862 1.02205 57.6371 1.94436 58.5594C2.86667 59.4817 4.1176 59.9999 5.42194 59.9999H30.9957C32.3001 59.9999 33.551 59.4817 34.4733 58.5594C35.3956 57.6371 35.9137 56.3862 35.9137 55.0819V53.1146C35.9137 52.8538 35.8101 52.6036 35.6257 52.4191C35.4412 52.2347 35.191 52.131 34.9301 52.131ZM33.9465 55.0819C33.9465 55.8645 33.6356 56.615 33.0823 57.1684C32.5289 57.7218 31.7783 58.0327 30.9957 58.0327H29.0285V57.0491C29.0285 56.7882 28.9249 56.538 28.7404 56.3536C28.5559 56.1691 28.3058 56.0655 28.0449 56.0655C27.784 56.0655 27.5338 56.1691 27.3494 56.3536C27.1649 56.538 27.0613 56.7882 27.0613 57.0491V58.0327H9.35637V57.0491C9.35637 56.7882 9.25274 56.538 9.06827 56.3536C8.88381 56.1691 8.63363 56.0655 8.37276 56.0655C8.11189 56.0655 7.86171 56.1691 7.67724 56.3536C7.49278 56.538 7.38915 56.7882 7.38915 57.0491V58.0327H5.42194C4.63933 58.0327 3.88878 57.7218 3.33539 57.1684C2.78201 56.615 2.47112 55.8645 2.47112 55.0819V54.0983H33.9465V55.0819Z" fill="#155263"/>
<path d="M51.6524 6.88518H53.6196C53.8805 6.88518 54.1307 6.78155 54.3151 6.59709C54.4996 6.41263 54.6032 6.16244 54.6032 5.90158C54.6032 5.64071 54.4996 5.39052 54.3151 5.20606C54.1307 5.0216 53.8805 4.91797 53.6196 4.91797H51.6524C50.8698 4.91797 50.1193 5.22886 49.5659 5.78224C49.0125 6.33563 48.7016 7.08618 48.7016 7.86879V8.85239H47.718C47.4571 8.85239 47.2069 8.95602 47.0225 9.14049C46.838 9.32495 46.7344 9.57513 46.7344 9.836C46.7344 10.0969 46.838 10.3471 47.0225 10.5315C47.2069 10.716 47.4571 10.8196 47.718 10.8196H48.7016V13.7704C48.7016 14.0313 48.8052 14.2815 48.9897 14.4659C49.1741 14.6504 49.4243 14.754 49.6852 14.754C49.9461 14.754 50.1962 14.6504 50.3807 14.4659C50.5652 14.2815 50.6688 14.0313 50.6688 13.7704V10.8196H51.6524C51.9133 10.8196 52.1635 10.716 52.3479 10.5315C52.5324 10.3471 52.636 10.0969 52.636 9.836C52.636 9.57513 52.5324 9.32495 52.3479 9.14049C52.1635 8.95602 51.9133 8.85239 51.6524 8.85239H50.6688V7.86879C50.6688 7.60792 50.7724 7.35774 50.9569 7.17327C51.1414 6.98881 51.3915 6.88518 51.6524 6.88518Z" fill="#155263"/>
<path d="M56.5705 0.983398H44.7672C43.9846 0.983398 43.2341 1.29429 42.6807 1.84767C42.1273 2.40106 41.8164 3.15161 41.8164 3.93422V5.90143C41.8164 6.1623 41.92 6.41248 42.1045 6.59695C42.289 6.78141 42.5391 6.88504 42.8 6.88504C43.0609 6.88504 43.3111 6.78141 43.4955 6.59695C43.68 6.41248 43.7836 6.1623 43.7836 5.90143V3.93422C43.7836 3.67335 43.8872 3.42317 44.0717 3.2387C44.2562 3.05424 44.5064 2.95061 44.7672 2.95061H56.5705C56.8314 2.95061 57.0816 3.05424 57.266 3.2387C57.4505 3.42317 57.5541 3.67335 57.5541 3.93422V15.7375C57.5541 15.9984 57.4505 16.2486 57.266 16.433C57.0816 16.6175 56.8314 16.7211 56.5705 16.7211H44.7672C44.5064 16.7211 44.2562 16.6175 44.0717 16.433C43.8872 16.2486 43.7836 15.9984 43.7836 15.7375V9.83586C43.7836 9.57499 43.68 9.32481 43.4955 9.14034C43.3111 8.95588 43.0609 8.85225 42.8 8.85225C42.5391 8.85225 42.289 8.95588 42.1045 9.14034C41.92 9.32481 41.8164 9.57499 41.8164 9.83586V15.7375C41.8164 16.5201 42.1273 17.2707 42.6807 17.824C43.2341 18.3774 43.9846 18.6883 44.7672 18.6883H56.5705C57.3531 18.6883 58.1037 18.3774 58.657 17.824C59.2104 17.2707 59.5213 16.5201 59.5213 15.7375V3.93422C59.5213 3.15161 59.2104 2.40106 58.657 1.84767C58.1037 1.29429 57.3531 0.983398 56.5705 0.983398Z" fill="#155263"/>
<path d="M46.7344 40.328C46.7344 41.1061 46.9651 41.8668 47.3974 42.5138C47.8298 43.1608 48.4442 43.6651 49.1632 43.9629C49.8821 44.2607 50.6732 44.3386 51.4364 44.1868C52.1996 44.035 52.9006 43.6603 53.4509 43.11C54.0011 42.5598 54.3758 41.8588 54.5276 41.0955C54.6794 40.3323 54.6015 39.5413 54.3037 38.8223C54.0059 38.1034 53.5017 37.4889 52.8547 37.0566C52.2076 36.6243 51.447 36.3936 50.6688 36.3936C49.6253 36.3936 48.6246 36.8081 47.8867 37.5459C47.1489 38.2838 46.7344 39.2845 46.7344 40.328ZM52.636 40.328C52.636 40.7171 52.5206 41.0974 52.3045 41.4209C52.0883 41.7444 51.7811 41.9966 51.4216 42.1454C51.0622 42.2943 50.6666 42.3333 50.285 42.2574C49.9034 42.1815 49.5529 41.9941 49.2778 41.719C49.0027 41.4439 48.8153 41.0934 48.7394 40.7118C48.6635 40.3302 48.7024 39.9346 48.8513 39.5752C49.0002 39.2157 49.2524 38.9085 49.5759 38.6923C49.8994 38.4761 50.2797 38.3608 50.6688 38.3608C51.1905 38.3608 51.6909 38.568 52.0598 38.9369C52.4288 39.3059 52.636 39.8062 52.636 40.328Z" fill="#155263"/>
<path d="M56.5705 31.4756H44.7672C43.9846 31.4756 43.2341 31.7865 42.6807 32.3399C42.1273 32.8932 41.8164 33.6438 41.8164 34.4264V46.2297C41.8164 47.0123 42.1273 47.7628 42.6807 48.3162C43.2341 48.8696 43.9846 49.1805 44.7672 49.1805H56.5705C57.3531 49.1805 58.1037 48.8696 58.657 48.3162C59.2104 47.7628 59.5213 47.0123 59.5213 46.2297V44.2625C59.5213 44.0016 59.4177 43.7514 59.2332 43.567C59.0488 43.3825 58.7986 43.2789 58.5377 43.2789C58.2768 43.2789 58.0267 43.3825 57.8422 43.567C57.6577 43.7514 57.5541 44.0016 57.5541 44.2625V46.2297C57.5541 46.4906 57.4505 46.7407 57.266 46.9252C57.0816 47.1097 56.8314 47.2133 56.5705 47.2133H44.7672C44.5064 47.2133 44.2562 47.1097 44.0717 46.9252C43.8872 46.7407 43.7836 46.4906 43.7836 46.2297V34.4264C43.7836 34.1655 43.8872 33.9154 44.0717 33.7309C44.2562 33.5464 44.5064 33.4428 44.7672 33.4428H56.5705C56.8314 33.4428 57.0816 33.5464 57.266 33.7309C57.4505 33.9154 57.5541 34.1655 57.5541 34.4264V40.328C57.5541 40.5889 57.6577 40.8391 57.8422 41.0236C58.0267 41.208 58.2768 41.3117 58.5377 41.3117C58.7986 41.3117 59.0488 41.208 59.2332 41.0236C59.4177 40.8391 59.5213 40.5889 59.5213 40.328V34.4264C59.5213 33.6438 59.2104 32.8932 58.657 32.3399C58.1037 31.7865 57.3531 31.4756 56.5705 31.4756Z" fill="#155263"/>
<path d="M22.6068 12.6392C22.7634 12.7362 22.944 12.7874 23.1281 12.7868C23.2821 12.7859 23.4337 12.7488 23.5708 12.6786L29.4724 9.72776C29.6335 9.64522 29.7687 9.51981 29.8631 9.36535C29.9576 9.2109 30.0075 9.03338 30.0075 8.85235C30.0075 8.67132 29.9576 8.4938 29.8631 8.33934C29.7687 8.18489 29.6335 8.05948 29.4724 7.97694L23.5708 5.02612C23.421 4.95067 23.2545 4.91474 23.087 4.92176C22.9194 4.92878 22.7565 4.9785 22.6136 5.06621C22.4707 5.15392 22.3526 5.27671 22.2705 5.42291C22.1884 5.5691 22.145 5.73386 22.1445 5.90153V11.8032C22.1442 11.9703 22.1865 12.1348 22.2674 12.2811C22.3482 12.4274 22.4651 12.5506 22.6068 12.6392ZM24.1117 7.49497L26.8265 8.85235L24.1117 10.2097V7.49497Z" fill="#155263"/>
<path d="M25.0946 17.7049C26.8455 17.7049 28.557 17.1857 30.0128 16.213C31.4686 15.2403 32.6032 13.8577 33.2733 12.2402C33.9433 10.6226 34.1186 8.84264 33.777 7.12543C33.4354 5.40823 32.5923 3.83087 31.3543 2.59283C30.1162 1.35479 28.5389 0.511676 26.8217 0.170102C25.1045 -0.171473 23.3245 0.00383559 21.707 0.673857C20.0894 1.34388 18.7068 2.47852 17.7341 3.9343C16.7614 5.39008 16.2422 7.10161 16.2422 8.85246C16.2422 11.2003 17.1749 13.4519 18.835 15.1121C20.4952 16.7723 22.7468 17.7049 25.0946 17.7049ZM25.0946 1.96722C26.4564 1.96722 27.7876 2.37103 28.9199 3.12759C30.0522 3.88415 30.9347 4.95948 31.4558 6.21759C31.9769 7.47571 32.1133 8.8601 31.8476 10.1957C31.5819 11.5313 30.9262 12.7581 29.9633 13.7211C29.0003 14.684 27.7735 15.3397 26.4379 15.6054C25.1023 15.8711 23.7179 15.7347 22.4598 15.2136C21.2017 14.6925 20.1263 13.81 19.3698 12.6777C18.6132 11.5454 18.2094 10.2142 18.2094 8.85246C18.2094 7.02638 18.9348 5.27509 20.226 3.98386C21.5173 2.69262 23.2686 1.96722 25.0946 1.96722Z" fill="#155263"/>
<path d="M34.9289 21.6394C35.0816 21.6394 35.2322 21.6039 35.3688 21.5356C35.5054 21.4673 35.6242 21.3682 35.7158 21.246L38.6666 17.3116C38.8231 17.1029 38.8904 16.8405 38.8535 16.5823C38.8166 16.3241 38.6786 16.091 38.4699 15.9345C38.2612 15.778 37.9989 15.7108 37.7406 15.7477C37.4824 15.7846 37.2494 15.9225 37.0929 16.1312L34.142 20.0657C33.9855 20.2744 33.9183 20.5367 33.9552 20.7949C33.9921 21.0532 34.1301 21.2862 34.3388 21.4427C34.509 21.5704 34.7161 21.6394 34.9289 21.6394Z" fill="#155263"/>
<path d="M37.0952 25.1804C37.1868 25.3025 37.3056 25.4017 37.4422 25.47C37.5787 25.5382 37.7293 25.5738 37.882 25.5738C38.0949 25.5738 38.302 25.5048 38.4722 25.3771L42.4066 22.4263C42.6153 22.2697 42.7533 22.0367 42.7902 21.7785C42.8271 21.5202 42.7599 21.2579 42.6034 21.0492C42.4468 20.8405 42.2138 20.7025 41.9556 20.6657C41.6973 20.6288 41.435 20.696 41.2263 20.8525L37.2919 23.8033C37.0832 23.9598 36.9452 24.1928 36.9083 24.4511C36.8714 24.7093 36.9386 24.9717 37.0952 25.1804Z" fill="#155263"/>
<path d="M46.7346 27.3442C46.7112 27.2138 46.6617 27.0895 46.5891 26.9787C46.5165 26.8679 46.4223 26.7729 46.312 26.6994C46.2018 26.6259 46.0779 26.5754 45.9477 26.551C45.8174 26.5266 45.6836 26.5288 45.5543 26.5573L40.6362 27.5409C40.5071 27.5539 40.3817 27.5921 40.2673 27.6535C40.1529 27.7148 40.0517 27.7981 39.9695 27.8986C39.8035 28.1015 39.7249 28.362 39.751 28.6229C39.7771 28.8838 39.9057 29.1236 40.1086 29.2896C40.3116 29.4556 40.5721 29.5342 40.833 29.5082H41.0297L45.9477 28.5245C46.0781 28.5012 46.2025 28.4517 46.3133 28.3791C46.4241 28.3065 46.5191 28.2122 46.5926 28.102C46.6661 27.9918 46.7165 27.8678 46.7409 27.7376C46.7653 27.6074 46.7632 27.4736 46.7346 27.3442Z" fill="#155263"/>
<path d="M1.48751 27.5409H13.2908C13.5517 27.5409 13.8018 27.4372 13.9863 27.2528C14.1708 27.0683 14.2744 26.8181 14.2744 26.5572V10.8195C14.2744 10.5587 14.1708 10.3085 13.9863 10.124C13.8018 9.93957 13.5517 9.83594 13.2908 9.83594H1.48751C1.22664 9.83594 0.97646 9.93957 0.791998 10.124C0.607536 10.3085 0.503906 10.5587 0.503906 10.8195V26.5572C0.503906 26.8181 0.607536 27.0683 0.791998 27.2528C0.97646 27.4372 1.22664 27.5409 1.48751 27.5409ZM2.47112 11.8032H12.3072V25.5736H2.47112V11.8032Z" fill="#155263"/>
<path d="M9.35707 13.7705H7.38986C7.12899 13.7705 6.8788 13.8741 6.69434 14.0586C6.50988 14.2431 6.40625 14.4932 6.40625 14.7541C6.40625 15.015 6.50988 15.2652 6.69434 15.4496C6.8788 15.6341 7.12899 15.7377 7.38986 15.7377H9.35707C9.61794 15.7377 9.86812 15.6341 10.0526 15.4496C10.237 15.2652 10.3407 15.015 10.3407 14.7541C10.3407 14.4932 10.237 14.2431 10.0526 14.0586C9.86812 13.8741 9.61794 13.7705 9.35707 13.7705Z" fill="#155263"/>
<path d="M9.35553 17.7051H5.42111C5.16024 17.7051 4.91005 17.8087 4.72559 17.9932C4.54113 18.1776 4.4375 18.4278 4.4375 18.6887C4.4375 18.9496 4.54113 19.1997 4.72559 19.3842C4.91005 19.5687 5.16024 19.6723 5.42111 19.6723H9.35553C9.6164 19.6723 9.86659 19.5687 10.051 19.3842C10.2355 19.1997 10.3391 18.9496 10.3391 18.6887C10.3391 18.4278 10.2355 18.1776 10.051 17.9932C9.86659 17.8087 9.6164 17.7051 9.35553 17.7051Z" fill="#155263"/>
<path d="M9.35553 21.6392H5.42111C5.16024 21.6392 4.91005 21.7428 4.72559 21.9273C4.54113 22.1117 4.4375 22.3619 4.4375 22.6228C4.4375 22.8836 4.54113 23.1338 4.72559 23.3183C4.91005 23.5027 5.16024 23.6064 5.42111 23.6064H9.35553C9.6164 23.6064 9.86659 23.5027 10.051 23.3183C10.2355 23.1338 10.3391 22.8836 10.3391 22.6228C10.3391 22.3619 10.2355 22.1117 10.051 21.9273C9.86659 21.7428 9.6164 21.6392 9.35553 21.6392Z" fill="#155263"/>
<path d="M34.0639 27.246C33.9993 27.1336 33.9132 27.0351 33.8105 26.956C33.7079 26.8768 33.5906 26.8187 33.4655 26.7849C33.3404 26.7511 33.2098 26.7423 33.0813 26.759C32.9527 26.7757 32.8287 26.8175 32.7163 26.8821C32.604 26.9466 32.5054 27.0327 32.4263 27.1354C32.3472 27.2381 32.2891 27.3553 32.2553 27.4805C32.2215 27.6056 32.2127 27.7361 32.2293 27.8647C32.246 27.9932 32.2878 28.1172 32.3524 28.2296L36.6901 35.7345L20.9524 41.6362C20.9524 41.6362 20.9524 41.6362 20.8836 41.6362H20.8049L18.2475 43.1116L16.5459 44.0952C16.3218 44.2247 16.0745 44.3087 15.8179 44.3425C15.5614 44.3762 15.3007 44.359 15.0508 44.2919C14.5487 44.1563 14.1208 43.8274 13.8606 43.3771L11.8934 39.9739C11.662 39.5286 11.6094 39.0117 11.7466 38.529C11.8837 38.0463 12.2001 37.6342 12.6311 37.3771L16.0344 35.4099L18.4934 39.6689C18.5801 39.819 18.7048 39.9436 18.8551 40.0299C19.0054 40.1163 19.1758 40.1614 19.3491 40.1607C19.5221 40.1614 19.6922 40.1165 19.8423 40.0304C19.9924 39.9444 20.1171 39.8203 20.2039 39.6706C20.2907 39.521 20.3365 39.3511 20.3366 39.1781C20.3368 39.0051 20.2914 38.8352 20.2049 38.6853L17.6672 34.2985L30.0114 24.1181L30.4147 24.8165C30.4793 24.9289 30.5654 25.0274 30.668 25.1065C30.7707 25.1856 30.888 25.2437 31.0131 25.2775C31.1382 25.3113 31.2688 25.3201 31.3973 25.3035C31.5259 25.2868 31.6499 25.245 31.7622 25.1804C31.8746 25.1158 31.9732 25.0298 32.0523 24.9271C32.1314 24.8244 32.1895 24.7072 32.2233 24.582C32.2571 24.4569 32.2659 24.3263 32.2492 24.1978C32.2326 24.0693 32.1908 23.9453 32.1262 23.8329L31.1426 22.1312C31.0705 22.008 30.9724 21.9019 30.8552 21.8204C30.738 21.7389 30.6045 21.6838 30.4639 21.6591C30.3225 21.6325 30.177 21.6372 30.0377 21.6728C29.8983 21.7085 29.7685 21.7744 29.6573 21.8657L15.8868 33.2165L11.6967 35.6362C10.9447 36.0741 10.3592 36.7491 10.0317 37.5553C9.70422 38.3615 9.65328 39.2536 9.88683 40.0919L8.90323 40.6526C8.39643 40.9436 7.98746 41.3786 7.72818 41.9023C7.4689 42.4261 7.37098 43.015 7.44684 43.5945C7.5227 44.174 7.76892 44.7178 8.15428 45.1572C8.53964 45.5966 9.04679 45.9116 9.61143 46.0624C9.86174 46.1287 10.1197 46.1618 10.3786 46.1607C10.8961 46.1586 11.4042 46.0231 11.854 45.7673L12.8377 45.2066C13.3102 45.6948 13.9044 46.0479 14.559 46.2296C14.8951 46.3236 15.2427 46.37 15.5918 46.3673C16.2831 46.3689 16.9623 46.1855 17.559 45.8362L18.4147 45.3444L20.3819 48.7575C20.7729 49.4334 21.4158 49.9268 22.1699 50.1296C22.9239 50.3324 23.7276 50.2281 24.4049 49.8394C24.7409 49.6458 25.0354 49.3879 25.2717 49.0804C25.5079 48.7729 25.6812 48.4218 25.7817 48.0473C25.8822 47.6728 25.9079 47.2821 25.8573 46.8976C25.8067 46.5132 25.6808 46.1424 25.4868 45.8066L23.6967 42.6886L38.4508 37.1509C38.5846 37.1006 38.7058 37.0218 38.806 36.9198C38.9063 36.8179 38.9831 36.6954 39.0311 36.5607C39.079 36.4277 39.0976 36.2859 39.0857 36.145C39.0738 36.0042 39.0317 35.8675 38.9622 35.7444L34.0639 27.246ZM10.8311 44.0558C10.7191 44.1206 10.5954 44.1626 10.4671 44.1795C10.3388 44.1964 10.2085 44.1878 10.0836 44.1542C9.83155 44.0887 9.61579 43.926 9.48356 43.7017C9.4188 43.5897 9.37678 43.466 9.3599 43.3378C9.34303 43.2095 9.35162 43.0791 9.3852 42.9542C9.41878 42.8286 9.47692 42.7109 9.55627 42.6079C9.63562 42.5049 9.7346 42.4187 9.84749 42.3542L10.7032 41.8624L11.6868 43.564L10.8311 44.0558ZM23.7754 46.8099C23.8401 46.9219 23.8821 47.0456 23.899 47.1739C23.9159 47.3022 23.9073 47.4325 23.8737 47.5575C23.8036 47.8075 23.6374 48.0197 23.4114 48.1476C23.1868 48.2767 22.9202 48.3119 22.6698 48.2456C22.4193 48.1793 22.2051 48.0168 22.0737 47.7935L20.1065 44.3804L21.7393 43.446H21.818L23.7754 46.8099Z" fill="#155263"/>
</svg>
