<svg width="60" height="60" viewBox="0 0 60 60" fill="none" xmlns="http://www.w3.org/2000/svg">
<path d="M0.75 60H59.25C59.6642 60 60 59.6642 60 59.25V0.75C60 0.335815 59.6642 0 59.25 0H0.75C0.335815 0 0 0.335815 0 0.75V59.25C0 59.6642 0.335815 60 0.75 60ZM1.5 58.5V14.25H58.5V58.5H1.5ZM58.5 1.5V12.75H1.5V1.5H58.5Z" fill="#155263"/>
<path d="M49.1338 10.1183C49.2803 10.2648 49.4722 10.338 49.6641 10.338C49.856 10.338 50.0479 10.2648 50.1943 10.1183L52.2398 8.07281L54.2853 10.1183C54.4318 10.2648 54.6237 10.338 54.8156 10.338C55.0074 10.338 55.1993 10.2648 55.3458 10.1183C55.6388 9.82532 55.6388 9.35071 55.3458 9.05774L53.3004 7.01227L55.3458 4.9668C55.6388 4.67383 55.6388 4.19922 55.3458 3.90625C55.0529 3.61328 54.5782 3.61328 54.2853 3.90625L52.2398 5.95172L50.1943 3.90625C49.9014 3.61328 49.4268 3.61328 49.1338 3.90625C48.8408 4.19922 48.8408 4.67383 49.1338 4.9668L51.1793 7.01227L49.1338 9.05774C48.8408 9.35071 48.8408 9.82532 49.1338 10.1183Z" fill="#155263"/>
<path d="M30.0609 21.541C22.0189 21.541 15.4766 28.0834 15.4766 36.125C15.4766 44.167 22.0189 50.7094 30.0609 50.7094C38.1025 50.7094 44.6449 44.167 44.6449 36.125C44.6449 28.0834 38.1025 21.541 30.0609 21.541ZM30.0609 49.2094C22.8462 49.2094 16.9766 43.3397 16.9766 36.125C16.9766 28.9106 22.8462 23.041 30.0609 23.041C37.2753 23.041 43.1449 28.9106 43.1449 36.125C43.1449 43.3397 37.2753 49.2094 30.0609 49.2094Z" fill="#155263"/>
<path d="M30.1385 35.3749H29.9906C28.3976 35.3749 27.1016 34.0822 27.1016 32.4928C27.1016 30.9038 28.3976 29.6111 29.9906 29.6111C31.5833 29.6111 32.8793 30.9038 32.8793 32.4928C32.8793 32.907 33.2151 33.2428 33.6293 33.2428C34.0435 33.2428 34.3793 32.907 34.3793 32.4928C34.3793 30.358 32.8416 28.5776 30.8146 28.1912V27.2813C30.8146 26.8671 30.4788 26.5312 30.0646 26.5312C29.6504 26.5312 29.3146 26.8671 29.3146 27.2813V28.1686C27.215 28.4948 25.6016 30.3066 25.6016 32.4928C25.6016 34.9091 27.5703 36.8749 29.9906 36.8749H30.1385C31.7312 36.8749 33.0272 38.1676 33.0272 39.757C33.0272 41.3463 31.7312 42.639 30.1385 42.639C28.5455 42.639 27.2495 41.3463 27.2495 39.757C27.2495 39.3428 26.9137 39.007 26.4995 39.007C26.0853 39.007 25.7495 39.3428 25.7495 39.757C25.7495 41.8918 27.2872 43.6726 29.3146 44.059V44.9689C29.3146 45.3831 29.6504 45.7189 30.0646 45.7189C30.4788 45.7189 30.8146 45.3831 30.8146 44.9689V44.0815C32.9139 43.7552 34.5272 41.9431 34.5272 39.757C34.5272 37.3407 32.5585 35.3749 30.1385 35.3749Z" fill="#155263"/>
</svg>
