<svg width="110" height="25" viewBox="0 0 110 25" fill="none" xmlns="http://www.w3.org/2000/svg">
<path opacity="0.5" d="M109.996 13.0985C109.996 12.8224 109.772 12.5985 109.496 12.5985L104.996 12.5985C104.72 12.5985 104.496 12.8224 104.496 13.0985C104.496 13.3747 104.72 13.5985 104.996 13.5985L108.996 13.5985L108.996 17.5985C108.996 17.8747 109.22 18.0985 109.496 18.0985C109.772 18.0985 109.996 17.8747 109.996 17.5985L109.996 13.0985ZM2.73479 11.6725C2.93772 11.4852 2.9504 11.1689 2.76311 10.9659C2.57583 10.763 2.2595 10.7503 2.05658 10.9376L2.73479 11.6725ZM5.93813 7.66344C5.71873 7.83113 5.67682 8.14492 5.84451 8.36432C6.0122 8.58371 6.32599 8.62563 6.54539 8.45794L5.93813 7.66344ZM10.6578 5.66482C10.8951 5.52373 10.9732 5.21692 10.8321 4.97954C10.691 4.74217 10.3842 4.66411 10.1468 4.80521L10.6578 5.66482ZM14.6908 2.51379C14.4358 2.61964 14.3148 2.91221 14.4207 3.16726C14.5266 3.42231 14.8191 3.54325 15.0742 3.4374L14.6908 2.51379ZM19.7758 1.92344C20.0449 1.86146 20.2128 1.59308 20.1508 1.32398C20.0888 1.05488 19.8204 0.886976 19.5514 0.948952L19.7758 1.92344ZM24.6314 0.247124C24.3556 0.260398 24.1427 0.494758 24.156 0.770581C24.1693 1.0464 24.4036 1.25924 24.6794 1.24597L24.6314 0.247124ZM29.621 1.43155C29.8952 1.46454 30.1442 1.26903 30.1772 0.994869C30.2102 0.720704 30.0147 0.471705 29.7405 0.438714L29.621 1.43155ZM34.7501 1.41786C34.4833 1.34657 34.2093 1.50505 34.138 1.77184C34.0667 2.03862 34.2252 2.31268 34.492 2.38396L34.7501 1.41786ZM39.2292 3.94499C39.4867 4.04486 39.7763 3.91712 39.8762 3.65967C39.9761 3.40222 39.8483 3.11255 39.5909 3.01268L39.2292 3.94499ZM44.2441 5.04318C43.9952 4.92354 43.6965 5.0283 43.5768 5.27718C43.4572 5.52606 43.562 5.8248 43.8108 5.94445L44.2441 5.04318ZM48.2695 8.24279C48.5119 8.3751 48.8157 8.28588 48.948 8.0435C49.0803 7.80112 48.9911 7.49737 48.7487 7.36505L48.2695 8.24279ZM53.1499 9.86081C52.9114 9.72158 52.6052 9.80203 52.466 10.0405C52.3267 10.279 52.4072 10.5852 52.6457 10.7244L53.1499 9.86081ZM56.9824 13.2897C57.2197 13.4308 57.5266 13.3529 57.6677 13.1155C57.8089 12.8782 57.7309 12.5714 57.4936 12.4302L56.9824 13.2897ZM61.8338 14.9859C61.5947 14.8476 61.2889 14.9293 61.1506 15.1684C61.0124 15.4074 61.0941 15.7132 61.3331 15.8515L61.8338 14.9859ZM65.7492 18.3179C65.9928 18.448 66.2957 18.356 66.4258 18.1124C66.5559 17.8688 66.4639 17.5659 66.2203 17.4358L65.7492 18.3179ZM70.7082 19.6775C70.4574 19.5621 70.1604 19.6718 70.045 19.9227C69.9295 20.1735 70.0392 20.4705 70.2901 20.5859L70.7082 19.6775ZM74.9873 22.5136C75.2475 22.6062 75.5334 22.4703 75.626 22.2102C75.7186 21.95 75.5828 21.6641 75.3227 21.5715L74.9873 22.5136ZM80.1063 22.9591C79.8366 22.8998 79.5699 23.0705 79.5107 23.3402C79.4514 23.6099 79.622 23.8766 79.8917 23.9358L80.1063 22.9591ZM84.9575 24.6377C85.2332 24.6525 85.4687 24.4409 85.4835 24.1652C85.4982 23.8894 85.2867 23.6539 85.0109 23.6392L84.9575 24.6377ZM89.9369 23.4445C89.6632 23.4817 89.4716 23.7336 89.5088 24.0073C89.546 24.2809 89.798 24.4725 90.0716 24.4353L89.9369 23.4445ZM95.0716 23.2558C95.3332 23.1673 95.4735 22.8835 95.385 22.622C95.2965 22.3604 95.0127 22.2201 94.7511 22.3086L95.0716 23.2558ZM99.2697 20.3286C99.0267 20.4598 98.936 20.7631 99.0671 21.0061C99.1982 21.2491 99.5015 21.3398 99.7445 21.2087L99.2697 20.3286ZM104.038 18.4818C104.26 18.3187 104.309 18.0059 104.146 17.783C103.983 17.5602 103.67 17.5118 103.447 17.6749L104.038 18.4818ZM107.291 14.5156C107.087 14.7017 107.072 15.0179 107.258 15.2219C107.444 15.4259 107.761 15.4404 107.965 15.2543L107.291 14.5156ZM0.883826 13.4521C1.50419 12.8317 2.12115 12.2388 2.73479 11.6725L2.05658 10.9376C1.4328 11.5133 0.806214 12.1155 0.176721 12.745L0.883826 13.4521ZM6.54539 8.45794C7.9329 7.39743 9.30336 6.46987 10.6578 5.66482L10.1468 4.80521C8.75706 5.63127 7.35454 6.58083 5.93813 7.66344L6.54539 8.45794ZM15.0742 3.4374C16.6612 2.77875 18.2277 2.27999 19.7758 1.92344L19.5514 0.948952C17.9479 1.31825 16.3283 1.83421 14.6908 2.51379L15.0742 3.4374ZM24.6794 1.24597C26.3424 1.16593 27.9887 1.23513 29.621 1.43155L29.7405 0.438714C28.0564 0.236059 26.354 0.164219 24.6314 0.247124L24.6794 1.24597ZM34.492 2.38396C36.0809 2.80853 37.6591 3.33593 39.2292 3.94499L39.5909 3.01268C37.9918 2.39238 36.3789 1.85306 34.7501 1.41786L34.492 2.38396ZM43.8108 5.94445C45.3026 6.66158 46.788 7.43401 48.2695 8.24279L48.7487 7.36505C47.2557 6.55003 45.7547 5.76937 44.2441 5.04318L43.8108 5.94445ZM52.6457 10.7244C54.0933 11.5696 55.5374 12.4303 56.9824 13.2897L57.4936 12.4302C56.05 11.5717 54.6018 10.7085 53.1499 9.86081L52.6457 10.7244ZM61.3331 15.8515C62.8025 16.7013 64.274 17.5301 65.7492 18.3179L66.2203 17.4358C64.7581 16.655 63.2969 15.8321 61.8338 14.9859L61.3331 15.8515ZM70.2901 20.5859C71.8476 21.3028 73.4127 21.9531 74.9873 22.5136L75.3227 21.5715C73.7807 21.0226 72.2435 20.3842 70.7082 19.6775L70.2901 20.5859ZM79.8917 23.9358C81.5658 24.3035 83.2536 24.5465 84.9575 24.6377L85.0109 23.6392C83.3667 23.5511 81.7329 23.3164 80.1063 22.9591L79.8917 23.9358ZM90.0716 24.4353C91.7237 24.2107 93.3897 23.8249 95.0716 23.2558L94.7511 22.3086C93.1297 22.8572 91.5259 23.2284 89.9369 23.4445L90.0716 24.4353ZM99.7445 21.2087C101.164 20.4429 102.595 19.5379 104.038 18.4818L103.447 17.6749C102.039 18.7057 100.647 19.5858 99.2697 20.3286L99.7445 21.2087ZM107.965 15.2543C108.59 14.6834 109.219 14.083 109.849 13.4521L109.142 12.745C108.522 13.3655 107.905 13.9553 107.291 14.5156L107.965 15.2543Z" fill="#4F4F4F"/>
</svg>
