<svg width="1899" height="245" viewBox="0 0 1899 245" fill="none" xmlns="http://www.w3.org/2000/svg">
<path d="M102.283 175.667L60.1396 179.657L110.478 174.198L102.283 175.667Z" stroke="#4F4F4F"/>
<path d="M110.478 174.198L71.2609 176.087L119.843 170.943L110.478 174.198Z" stroke="#4F4F4F"/>
<path d="M71.2608 176.087L110.478 174.198L60.1396 179.657L71.2608 176.087Z" stroke="#4F4F4F"/>
<path d="M146.036 164.749L110.478 174.198L152.621 162.44L146.036 164.749Z" stroke="#4F4F4F"/>
<path d="M119.843 170.943L152.621 162.44L110.478 174.198L119.843 170.943Z" stroke="#4F4F4F"/>
<path d="M110.478 174.198L146.036 164.749L102.283 175.667L110.478 174.198Z" stroke="#4F4F4F"/>
<path d="M152.621 162.44L119.843 170.943L164.181 162.335L152.621 162.44Z" stroke="#4F4F4F"/>
<path d="M152.621 162.44L183.497 148.583L146.036 164.75L152.621 162.44Z" stroke="#4F4F4F"/>
<path d="M183.497 148.582L152.621 162.44L192.13 148.372L183.497 148.582Z" stroke="#4F4F4F"/>
<path d="M192.13 148.372L164.181 162.335L208.666 153.097L192.13 148.372Z" stroke="#4F4F4F"/>
<path d="M164.181 162.335L192.13 148.372L152.621 162.44L164.181 162.335Z" stroke="#4F4F4F"/>
<path d="M220.811 132.521L192.13 148.373L234.566 135.985L220.811 132.521Z" stroke="#4F4F4F"/>
<path d="M208.666 153.097L234.566 135.985L192.13 148.373L208.666 153.097Z" stroke="#4F4F4F"/>
<path d="M192.131 148.373L220.812 132.521L183.497 148.583L192.131 148.373Z" stroke="#4F4F4F"/>
<path d="M234.566 135.985L264.857 121.603L220.811 132.521L234.566 135.985Z" stroke="#4F4F4F"/>
<path d="M71.2609 176.087L27.2152 170.418L82.6747 172.308L71.2609 176.087Z" stroke="#4F4F4F"/>
<path d="M82.6745 172.308L39.6532 167.164L96.2834 172.728L82.6745 172.308Z" stroke="#4F4F4F"/>
<path d="M39.6534 167.164L82.6747 172.308L27.2152 170.418L39.6534 167.164Z" stroke="#4F4F4F"/>
<path d="M119.843 170.943L82.6747 172.308L133.013 170.838L119.843 170.943Z" stroke="#4F4F4F"/>
<path d="M96.2836 172.728L133.013 170.838L82.6747 172.308L96.2836 172.728Z" stroke="#4F4F4F"/>
<path d="M82.6747 172.308L119.843 170.943L71.2609 176.087L82.6747 172.308Z" stroke="#4F4F4F"/>
<path d="M234.567 135.985L208.666 153.097L257.687 145.958L234.567 135.985Z" stroke="#4F4F4F"/>
<path d="M232.664 164.12L257.687 145.958L208.666 153.097L232.664 164.12Z" stroke="#4F4F4F"/>
<path d="M133.012 170.838L96.2833 172.728L150.572 176.507L133.012 170.838Z" stroke="#4F4F4F"/>
<path d="M133.013 170.838L164.181 162.335L119.843 170.943L133.013 170.838Z" stroke="#4F4F4F"/>
<path d="M164.181 162.335L133.013 170.838L181.887 167.584L164.181 162.335Z" stroke="#4F4F4F"/>
<path d="M181.887 167.584L150.572 176.507L205.154 179.027L181.887 167.584Z" stroke="#4F4F4F"/>
<path d="M232.664 164.12L205.154 179.027L262.369 180.601L232.664 164.12Z" stroke="#4F4F4F"/>
<path d="M150.572 176.507L181.887 167.584L133.013 170.838L150.572 176.507Z" stroke="#4F4F4F"/>
<path d="M208.666 153.097L181.887 167.584L232.664 164.119L208.666 153.097Z" stroke="#4F4F4F"/>
<path d="M205.154 179.027L232.664 164.12L181.887 167.584L205.154 179.027Z" stroke="#4F4F4F"/>
<path d="M181.887 167.584L208.666 153.097L164.181 162.335L181.887 167.584Z" stroke="#4F4F4F"/>
<path d="M264.857 121.603L234.566 135.985L285.197 129.161L264.857 121.603Z" stroke="#4F4F4F"/>
<path d="M285.197 129.161L257.687 145.958L338.901 142.599L285.197 129.161Z" stroke="#4F4F4F"/>
<path d="M257.687 145.958L285.197 129.161L234.566 135.985L257.687 145.958Z" stroke="#4F4F4F"/>
<path d="M354.265 118.349L285.197 129.161L391.58 123.807L354.265 118.349Z" stroke="#4F4F4F"/>
<path d="M338.901 142.599L391.58 123.807L285.197 129.161L338.901 142.599Z" stroke="#4F4F4F"/>
<path d="M285.197 129.161L354.265 118.349L264.857 121.603L285.197 129.161Z" stroke="#4F4F4F"/>
<path d="M391.58 123.807L338.901 142.599L419.383 135.46L391.58 123.807Z" stroke="#4F4F4F"/>
<path d="M391.58 123.808L442.796 108.901L354.265 118.349L391.58 123.808Z" stroke="#4F4F4F"/>
<path d="M442.796 108.901L391.58 123.808L455.819 112.47L442.796 108.901Z" stroke="#4F4F4F"/>
<path d="M455.819 112.47L419.383 135.46L469.72 125.067L455.819 112.47Z" stroke="#4F4F4F"/>
<path d="M419.383 135.46L455.819 112.47L391.58 123.807L419.383 135.46Z" stroke="#4F4F4F"/>
<path d="M489.768 94.5182L455.819 112.47L493.865 98.9273L489.768 94.5182Z" stroke="#4F4F4F"/>
<path d="M469.721 125.067L493.865 98.9274L455.819 112.47L469.721 125.067Z" stroke="#4F4F4F"/>
<path d="M455.819 112.47L489.768 94.5182L442.796 108.9L455.819 112.47Z" stroke="#4F4F4F"/>
<path d="M493.865 98.9274L516.986 79.9261L489.768 94.5183L493.865 98.9274Z" stroke="#4F4F4F"/>
<path d="M257.687 145.958L232.664 164.12L288.709 162.125L257.687 145.958Z" stroke="#4F4F4F"/>
<path d="M288.709 162.125L262.369 180.601L337.145 181.126L288.709 162.125Z" stroke="#4F4F4F"/>
<path d="M262.369 180.601L288.709 162.125L232.664 164.119L262.369 180.601Z" stroke="#4F4F4F"/>
<path d="M338.901 142.599L288.709 162.125L379.581 159.291L338.901 142.599Z" stroke="#4F4F4F"/>
<path d="M337.145 181.126L379.581 159.29L288.709 162.125L337.145 181.126Z" stroke="#4F4F4F"/>
<path d="M288.709 162.125L338.901 142.599L257.687 145.958L288.709 162.125Z" stroke="#4F4F4F"/>
<path d="M493.865 98.9274L469.721 125.067L506.157 114.569L493.865 98.9274Z" stroke="#4F4F4F"/>
<path d="M486.402 145.538L506.157 114.569L469.721 125.067L486.402 145.538Z" stroke="#4F4F4F"/>
<path d="M379.581 159.29L337.145 181.126L408.847 178.712L379.581 159.29Z" stroke="#4F4F4F"/>
<path d="M379.581 159.291L419.383 135.46L338.901 142.599L379.581 159.291Z" stroke="#4F4F4F"/>
<path d="M419.383 135.46L379.581 159.291L441.918 152.992L419.383 135.46Z" stroke="#4F4F4F"/>
<path d="M441.918 152.992L408.847 178.712L461.965 174.932L441.918 152.992Z" stroke="#4F4F4F"/>
<path d="M408.847 178.712L441.918 152.992L379.581 159.29L408.847 178.712Z" stroke="#4F4F4F"/>
<path d="M469.72 125.067L441.917 152.992L486.402 145.538L469.72 125.067Z" stroke="#4F4F4F"/>
<path d="M461.965 174.933L486.402 145.538L441.917 152.992L461.965 174.933Z" stroke="#4F4F4F"/>
<path d="M441.918 152.992L469.72 125.067L419.383 135.46L441.918 152.992Z" stroke="#4F4F4F"/>
<path d="M39.6533 167.164L-8.05066 158.451L53.2621 169.158L39.6533 167.164Z" stroke="#4F4F4F"/>
<path d="M53.2619 169.159L4.82629 163.7L68.0413 177.767L53.2619 169.159Z" stroke="#4F4F4F"/>
<path d="M4.82647 163.7L53.2621 169.158L-8.05066 158.451L4.82647 163.7Z" stroke="#4F4F4F"/>
<path d="M96.2836 172.728L53.2622 169.159L112.819 179.342L96.2836 172.728Z" stroke="#4F4F4F"/>
<path d="M68.0416 177.767L112.819 179.342L53.2622 169.159L68.0416 177.767Z" stroke="#4F4F4F"/>
<path d="M53.262 169.159L96.2834 172.728L39.6532 167.164L53.262 169.159Z" stroke="#4F4F4F"/>
<path d="M112.819 179.342L68.0413 177.767L131.256 191.834L112.819 179.342Z" stroke="#4F4F4F"/>
<path d="M112.819 179.342L150.572 176.507L96.2833 172.728L112.819 179.342Z" stroke="#4F4F4F"/>
<path d="M150.572 176.507L112.819 179.342L171.937 188.265L150.572 176.507Z" stroke="#4F4F4F"/>
<path d="M171.937 188.265L131.257 191.834L194.764 203.907L171.937 188.265Z" stroke="#4F4F4F"/>
<path d="M131.257 191.834L171.937 188.265L112.819 179.342L131.257 191.834Z" stroke="#4F4F4F"/>
<path d="M205.153 179.027L171.936 188.265L232.078 195.194L205.153 179.027Z" stroke="#4F4F4F"/>
<path d="M194.764 203.907L232.078 195.194L171.936 188.265L194.764 203.907Z" stroke="#4F4F4F"/>
<path d="M171.937 188.265L205.154 179.027L150.572 176.507L171.937 188.265Z" stroke="#4F4F4F"/>
<path d="M232.079 195.194L262.369 180.601L205.154 179.027L232.079 195.194Z" stroke="#4F4F4F"/>
<path d="M4.82651 163.7L-46.3894 162.65L17.85 176.297L4.82651 163.7Z" stroke="#4F4F4F"/>
<path d="M17.8498 176.297L-33.9514 181.231L32.3366 194.249L17.8498 176.297Z" stroke="#4F4F4F"/>
<path d="M-33.9513 181.231L17.85 176.297L-46.3894 162.65L-33.9513 181.231Z" stroke="#4F4F4F"/>
<path d="M68.0416 177.767L17.85 176.297L83.1137 191.939L68.0416 177.767Z" stroke="#4F4F4F"/>
<path d="M32.3368 194.249L83.1137 191.939L17.85 176.297L32.3368 194.249Z" stroke="#4F4F4F"/>
<path d="M17.8498 176.297L68.0413 177.767L4.82629 163.7L17.8498 176.297Z" stroke="#4F4F4F"/>
<path d="M232.079 195.193L194.764 203.907L259.004 211.99L232.079 195.193Z" stroke="#4F4F4F"/>
<path d="M215.104 218.079L259.004 211.99L194.764 203.907L215.104 218.079Z" stroke="#4F4F4F"/>
<path d="M83.1139 191.939L32.3369 194.249L99.2103 207.161L83.1139 191.939Z" stroke="#4F4F4F"/>
<path d="M83.1134 191.939L131.256 191.834L68.0413 177.767L83.1134 191.939Z" stroke="#4F4F4F"/>
<path d="M131.256 191.834L83.1135 191.939L149.109 206.741L131.256 191.834Z" stroke="#4F4F4F"/>
<path d="M149.109 206.741L99.21 207.161L166.522 218.289L149.109 206.741Z" stroke="#4F4F4F"/>
<path d="M215.104 218.079L166.522 218.289L233.835 225.742L215.104 218.079Z" stroke="#4F4F4F"/>
<path d="M99.21 207.161L149.109 206.741L83.1135 191.939L99.21 207.161Z" stroke="#4F4F4F"/>
<path d="M194.764 203.907L149.109 206.741L215.104 218.079L194.764 203.907Z" stroke="#4F4F4F"/>
<path d="M166.522 218.289L215.104 218.079L149.109 206.741L166.522 218.289Z" stroke="#4F4F4F"/>
<path d="M149.109 206.741L194.764 203.906L131.257 191.834L149.109 206.741Z" stroke="#4F4F4F"/>
<path d="M262.369 180.601L232.079 195.194L294.709 199.183L262.369 180.601Z" stroke="#4F4F4F"/>
<path d="M294.708 199.182L259.004 211.99L326.901 214.405L294.708 199.182Z" stroke="#4F4F4F"/>
<path d="M259.004 211.99L294.709 199.182L232.079 195.193L259.004 211.99Z" stroke="#4F4F4F"/>
<path d="M337.145 181.126L294.708 199.183L370.215 199.708L337.145 181.126Z" stroke="#4F4F4F"/>
<path d="M326.901 214.405L370.215 199.707L294.708 199.182L326.901 214.405Z" stroke="#4F4F4F"/>
<path d="M294.709 199.183L337.145 181.126L262.369 180.601L294.709 199.183Z" stroke="#4F4F4F"/>
<path d="M370.215 199.707L326.901 214.405L390.263 215.664L370.215 199.707Z" stroke="#4F4F4F"/>
<path d="M370.216 199.708L408.847 178.712L337.145 181.126L370.216 199.708Z" stroke="#4F4F4F"/>
<path d="M408.847 178.712L370.215 199.708L430.357 199.078L408.847 178.712Z" stroke="#4F4F4F"/>
<path d="M430.358 199.078L390.263 215.664L446.6 217.134L430.358 199.078Z" stroke="#4F4F4F"/>
<path d="M390.263 215.664L430.357 199.078L370.215 199.707L390.263 215.664Z" stroke="#4F4F4F"/>
<path d="M461.965 174.932L430.358 199.078L481.427 198.238L461.965 174.932Z" stroke="#4F4F4F"/>
<path d="M446.6 217.134L481.427 198.238L430.358 199.077L446.6 217.134Z" stroke="#4F4F4F"/>
<path d="M430.358 199.078L461.965 174.932L408.847 178.712L430.358 199.078Z" stroke="#4F4F4F"/>
<path d="M486.403 145.538L461.965 174.933L507.035 171.048L486.403 145.538Z" stroke="#4F4F4F"/>
<path d="M481.427 198.238L507.035 171.048L461.965 174.932L481.427 198.238Z" stroke="#4F4F4F"/>
<path d="M259.004 211.99L215.104 218.079L280.953 223.118L259.004 211.99Z" stroke="#4F4F4F"/>
<path d="M280.953 223.118L233.835 225.743L299.976 227.632L280.953 223.118Z" stroke="#4F4F4F"/>
<path d="M233.835 225.742L280.953 223.118L215.104 218.079L233.835 225.742Z" stroke="#4F4F4F"/>
<path d="M326.901 214.405L280.953 223.118L344.022 223.853L326.901 214.405Z" stroke="#4F4F4F"/>
<path d="M299.976 227.632L344.022 223.853L280.953 223.118L299.976 227.632Z" stroke="#4F4F4F"/>
<path d="M280.953 223.118L326.901 214.405L259.004 211.99L280.953 223.118Z" stroke="#4F4F4F"/>
<path d="M481.427 198.238L446.6 217.134L500.597 218.604L481.427 198.238Z" stroke="#4F4F4F"/>
<path d="M461.234 228.682L500.597 218.604L446.6 217.134L461.234 228.682Z" stroke="#4F4F4F"/>
<path d="M344.022 223.853L299.977 227.632L362.606 229.942L344.022 223.853Z" stroke="#4F4F4F"/>
<path d="M344.022 223.853L390.263 215.664L326.901 214.405L344.022 223.853Z" stroke="#4F4F4F"/>
<path d="M390.263 215.664L344.022 223.853L403.286 225.952L390.263 215.664Z" stroke="#4F4F4F"/>
<path d="M403.286 225.953L362.606 229.942L423.041 234.036L403.286 225.953Z" stroke="#4F4F4F"/>
<path d="M461.234 228.682L423.041 234.035L483.183 238.34L461.234 228.682Z" stroke="#4F4F4F"/>
<path d="M362.606 229.942L403.286 225.952L344.022 223.853L362.606 229.942Z" stroke="#4F4F4F"/>
<path d="M446.6 217.134L403.286 225.952L461.233 228.682L446.6 217.134Z" stroke="#4F4F4F"/>
<path d="M423.041 234.036L461.233 228.682L403.286 225.953L423.041 234.036Z" stroke="#4F4F4F"/>
<path d="M403.286 225.952L446.6 217.134L390.263 215.664L403.286 225.952Z" stroke="#4F4F4F"/>
<path d="M516.985 79.9261L493.865 98.9274L524.448 87.1697L516.985 79.9261Z" stroke="#4F4F4F"/>
<path d="M524.449 87.1698L506.157 114.569L544.642 106.906L524.449 87.1698Z" stroke="#4F4F4F"/>
<path d="M506.157 114.569L524.448 87.1698L493.865 98.9275L506.157 114.569Z" stroke="#4F4F4F"/>
<path d="M546.398 69.5331L524.449 87.1696L566.885 80.7659L546.398 69.5331Z" stroke="#4F4F4F"/>
<path d="M544.642 106.906L566.885 80.7657L524.449 87.1695L544.642 106.906Z" stroke="#4F4F4F"/>
<path d="M524.449 87.1696L546.398 69.5331L516.986 79.926L524.449 87.1696Z" stroke="#4F4F4F"/>
<path d="M566.885 80.7657L544.642 106.906L599.956 108.165L566.885 80.7657Z" stroke="#4F4F4F"/>
<path d="M566.885 80.7659L598.053 70.6879L546.398 69.5331L566.885 80.7659Z" stroke="#4F4F4F"/>
<path d="M598.053 70.6879L566.885 80.7659L628.49 97.5626L598.053 70.6879Z" stroke="#4F4F4F"/>
<path d="M628.49 97.5624L599.955 108.165L664.78 137.769L628.49 97.5624Z" stroke="#4F4F4F"/>
<path d="M599.955 108.165L628.49 97.5624L566.885 80.7657L599.955 108.165Z" stroke="#4F4F4F"/>
<path d="M662.146 105.121L628.49 97.5624L694.193 141.129L662.146 105.121Z" stroke="#4F4F4F"/>
<path d="M664.78 137.769L694.193 141.129L628.49 97.5624L664.78 137.769Z" stroke="#4F4F4F"/>
<path d="M628.49 97.5626L662.146 105.121L598.053 70.6879L628.49 97.5626Z" stroke="#4F4F4F"/>
<path d="M694.193 141.129L726.678 156.036L662.146 105.121L694.193 141.129Z" stroke="#4F4F4F"/>
<path d="M506.157 114.569L486.402 145.538L526.643 139.029L506.157 114.569Z" stroke="#4F4F4F"/>
<path d="M526.643 139.029L507.035 171.048L554.007 168.423L526.643 139.029Z" stroke="#4F4F4F"/>
<path d="M507.035 171.048L526.643 139.029L486.402 145.538L507.035 171.048Z" stroke="#4F4F4F"/>
<path d="M544.643 106.906L526.644 139.03L575.372 135.67L544.643 106.906Z" stroke="#4F4F4F"/>
<path d="M554.008 168.424L575.372 135.67L526.644 139.03L554.008 168.424Z" stroke="#4F4F4F"/>
<path d="M526.644 139.03L544.642 106.906L506.157 114.569L526.644 139.03Z" stroke="#4F4F4F"/>
<path d="M694.193 141.129L664.78 137.769L729.751 181.231L694.193 141.129Z" stroke="#4F4F4F"/>
<path d="M703.119 181.021L729.751 181.231L664.78 137.769L703.119 181.021Z" stroke="#4F4F4F"/>
<path d="M575.372 135.67L554.008 168.424L612.54 169.684L575.372 135.67Z" stroke="#4F4F4F"/>
<path d="M575.372 135.67L599.956 108.166L544.642 106.906L575.372 135.67Z" stroke="#4F4F4F"/>
<path d="M599.956 108.165L575.372 135.67L638.002 147.743L599.956 108.165Z" stroke="#4F4F4F"/>
<path d="M638.001 147.743L612.54 169.683L676.779 189.314L638.001 147.743Z" stroke="#4F4F4F"/>
<path d="M703.119 181.021L676.779 189.314L741.311 220.283L703.119 181.021Z" stroke="#4F4F4F"/>
<path d="M612.54 169.684L638.002 147.743L575.372 135.67L612.54 169.684Z" stroke="#4F4F4F"/>
<path d="M664.78 137.769L638.001 147.742L703.119 181.021L664.78 137.769Z" stroke="#4F4F4F"/>
<path d="M676.779 189.314L703.119 181.021L638.001 147.743L676.779 189.314Z" stroke="#4F4F4F"/>
<path d="M638.001 147.743L664.78 137.77L599.955 108.165L638.001 147.743Z" stroke="#4F4F4F"/>
<path d="M726.678 156.036L694.193 141.129L756.969 188.265L726.678 156.036Z" stroke="#4F4F4F"/>
<path d="M756.969 188.265L729.751 181.231L798.381 220.074L756.969 188.265Z" stroke="#4F4F4F"/>
<path d="M729.751 181.231L756.969 188.265L694.193 141.129L729.751 181.231Z" stroke="#4F4F4F"/>
<path d="M794.283 200.443L756.969 188.265L843.011 226.477L794.283 200.443Z" stroke="#4F4F4F"/>
<path d="M798.38 220.074L843.011 226.477L756.969 188.265L798.38 220.074Z" stroke="#4F4F4F"/>
<path d="M756.969 188.265L794.283 200.442L726.678 156.036L756.969 188.265Z" stroke="#4F4F4F"/>
<path d="M843.011 226.477L798.38 220.074L893.349 248.523L843.011 226.477Z" stroke="#4F4F4F"/>
<path d="M843.011 226.477L893.349 234.561L794.283 200.442L843.011 226.477Z" stroke="#4F4F4F"/>
<path d="M893.35 234.561L843.012 226.477L936.225 248.838L893.35 234.561Z" stroke="#4F4F4F"/>
<path d="M893.35 248.523L936.225 248.838L843.012 226.477L893.35 248.523Z" stroke="#4F4F4F"/>
<path d="M936.225 248.838L977.783 243.799L893.35 234.56L936.225 248.838Z" stroke="#4F4F4F"/>
<path d="M729.751 181.231L703.119 181.021L766.48 218.184L729.751 181.231Z" stroke="#4F4F4F"/>
<path d="M766.48 218.184L741.311 220.284L808.623 248.733L766.48 218.184Z" stroke="#4F4F4F"/>
<path d="M741.311 220.283L766.48 218.184L703.119 181.021L741.311 220.283Z" stroke="#4F4F4F"/>
<path d="M798.38 220.074L766.48 218.184L848.279 247.578L798.38 220.074Z" stroke="#4F4F4F"/>
<path d="M808.623 248.733L848.279 247.578L766.48 218.184L808.623 248.733Z" stroke="#4F4F4F"/>
<path d="M766.48 218.184L798.381 220.074L729.751 181.231L766.48 218.184Z" stroke="#4F4F4F"/>
<path d="M848.279 247.578L893.349 248.523L798.38 220.074L848.279 247.578Z" stroke="#4F4F4F"/>
<path d="M507.035 171.048L481.427 198.238L530.887 197.608L507.035 171.048Z" stroke="#4F4F4F"/>
<path d="M530.887 197.608L500.596 218.604L556.788 219.968L530.887 197.608Z" stroke="#4F4F4F"/>
<path d="M500.597 218.604L530.887 197.608L481.427 198.238L500.597 218.604Z" stroke="#4F4F4F"/>
<path d="M554.007 168.424L530.887 197.608L586.2 197.923L554.007 168.424Z" stroke="#4F4F4F"/>
<path d="M556.788 219.968L586.2 197.923L530.887 197.608L556.788 219.968Z" stroke="#4F4F4F"/>
<path d="M530.887 197.608L554.007 168.424L507.035 171.048L530.887 197.608Z" stroke="#4F4F4F"/>
<path d="M586.2 197.923L556.788 219.968L618.978 221.228L586.2 197.923Z" stroke="#4F4F4F"/>
<path d="M586.2 197.923L612.54 169.683L554.008 168.424L586.2 197.923Z" stroke="#4F4F4F"/>
<path d="M612.54 169.683L586.2 197.923L649.562 204.432L612.54 169.683Z" stroke="#4F4F4F"/>
<path d="M649.562 204.432L618.978 221.228L683.51 233.406L649.562 204.432Z" stroke="#4F4F4F"/>
<path d="M618.978 221.228L649.562 204.431L586.2 197.923L618.978 221.228Z" stroke="#4F4F4F"/>
<path d="M676.779 189.315L649.562 204.432L713.947 225.953L676.779 189.315Z" stroke="#4F4F4F"/>
<path d="M683.511 233.406L713.947 225.952L649.562 204.432L683.511 233.406Z" stroke="#4F4F4F"/>
<path d="M649.562 204.432L676.779 189.315L612.54 169.683L649.562 204.432Z" stroke="#4F4F4F"/>
<path d="M713.947 225.953L741.311 220.284L676.779 189.315L713.947 225.953Z" stroke="#4F4F4F"/>
<path d="M500.597 218.604L461.233 228.682L520.059 231.096L500.597 218.604Z" stroke="#4F4F4F"/>
<path d="M520.059 231.097L483.183 238.34L545.228 241.175L520.059 231.097Z" stroke="#4F4F4F"/>
<path d="M483.183 238.34L520.059 231.096L461.233 228.682L483.183 238.34Z" stroke="#4F4F4F"/>
<path d="M556.788 219.969L520.059 231.096L582.249 232.146L556.788 219.969Z" stroke="#4F4F4F"/>
<path d="M545.228 241.175L582.249 232.146L520.059 231.097L545.228 241.175Z" stroke="#4F4F4F"/>
<path d="M520.058 231.096L556.788 219.969L500.596 218.604L520.058 231.096Z" stroke="#4F4F4F"/>
<path d="M713.947 225.953L683.51 233.406L748.043 254.192L713.947 225.953Z" stroke="#4F4F4F"/>
<path d="M713.216 253.457L748.043 254.192L683.51 233.406L713.216 253.457Z" stroke="#4F4F4F"/>
<path d="M582.25 232.146L545.228 241.175L610.784 242.539L582.25 232.146Z" stroke="#4F4F4F"/>
<path d="M582.249 232.146L618.978 221.228L556.788 219.969L582.249 232.146Z" stroke="#4F4F4F"/>
<path d="M618.979 221.228L582.25 232.146L647.66 237.605L618.979 221.228Z" stroke="#4F4F4F"/>
<path d="M647.66 237.605L610.784 242.539L677.657 252.512L647.66 237.605Z" stroke="#4F4F4F"/>
<path d="M610.784 242.539L647.66 237.605L582.25 232.146L610.784 242.539Z" stroke="#4F4F4F"/>
<path d="M683.511 233.406L647.659 237.605L713.216 253.457L683.511 233.406Z" stroke="#4F4F4F"/>
<path d="M677.657 252.512L713.216 253.457L647.659 237.605L677.657 252.512Z" stroke="#4F4F4F"/>
<path d="M647.659 237.605L683.51 233.406L618.978 221.228L647.659 237.605Z" stroke="#4F4F4F"/>
<path d="M741.311 220.284L713.948 225.952L777.602 251.777L741.311 220.284Z" stroke="#4F4F4F"/>
<path d="M748.043 254.192L777.602 251.777L713.948 225.953L748.043 254.192Z" stroke="#4F4F4F"/>
<path d="M777.601 251.777L808.623 248.733L741.311 220.284L777.601 251.777Z" stroke="#4F4F4F"/>
<path d="M32.3368 194.248L-20.4888 202.647L47.5552 211.885L32.3368 194.248Z" stroke="#4F4F4F"/>
<path d="M-6.14833 222.278L47.5552 211.885L-20.4888 202.647L-6.14833 222.278Z" stroke="#4F4F4F"/>
<path d="M-20.4889 202.647L32.3366 194.249L-33.9514 181.231L-20.4889 202.647Z" stroke="#4F4F4F"/>
<path d="M47.5551 211.885L-6.14844 222.278L63.5052 226.057L47.5551 211.885Z" stroke="#4F4F4F"/>
<path d="M47.5553 211.885L99.2103 207.161L32.3369 194.248L47.5553 211.885Z" stroke="#4F4F4F"/>
<path d="M99.2102 207.161L47.5552 211.885L116.038 219.968L99.2102 207.161Z" stroke="#4F4F4F"/>
<path d="M116.038 219.969L63.5054 226.057L133.452 228.577L116.038 219.969Z" stroke="#4F4F4F"/>
<path d="M63.5053 226.057L116.038 219.969L47.5552 211.885L63.5053 226.057Z" stroke="#4F4F4F"/>
<path d="M166.522 218.289L116.038 219.969L184.667 226.162L166.522 218.289Z" stroke="#4F4F4F"/>
<path d="M133.451 228.577L184.667 226.162L116.038 219.969L133.451 228.577Z" stroke="#4F4F4F"/>
<path d="M116.038 219.968L166.522 218.289L99.21 207.161L116.038 219.968Z" stroke="#4F4F4F"/>
<path d="M184.667 226.162L233.835 225.742L166.522 218.289L184.667 226.162Z" stroke="#4F4F4F"/>
<path d="M-6.14839 222.278L-62.0469 237.815L8.92375 237.185L-6.14839 222.278Z" stroke="#4F4F4F"/>
<path d="M-47.9991 252.617L8.92375 237.185L-62.0469 237.815L-47.9991 252.617Z" stroke="#4F4F4F"/>
<path d="M184.668 226.162L133.452 228.577L203.398 229.942L184.668 226.162Z" stroke="#4F4F4F"/>
<path d="M151.597 232.986L203.398 229.942L133.452 228.577L151.597 232.986Z" stroke="#4F4F4F"/>
<path d="M8.92373 237.185L-47.9991 252.617L24.5811 246.738L8.92373 237.185Z" stroke="#4F4F4F"/>
<path d="M8.9237 237.185L63.5052 226.057L-6.14844 222.278L8.9237 237.185Z" stroke="#4F4F4F"/>
<path d="M63.5052 226.057L8.92371 237.185L80.187 235.296L63.5052 226.057Z" stroke="#4F4F4F"/>
<path d="M80.1871 235.295L24.5812 246.738L97.4541 240.229L80.1871 235.295Z" stroke="#4F4F4F"/>
<path d="M151.597 232.986L97.4542 240.229L170.181 235.085L151.597 232.986Z" stroke="#4F4F4F"/>
<path d="M24.5811 246.738L80.187 235.295L8.92371 237.185L24.5811 246.738Z" stroke="#4F4F4F"/>
<path d="M133.452 228.577L80.187 235.296L151.597 232.986L133.452 228.577Z" stroke="#4F4F4F"/>
<path d="M97.4541 240.229L151.597 232.986L80.187 235.295L97.4541 240.229Z" stroke="#4F4F4F"/>
<path d="M80.1872 235.296L133.452 228.577L63.5054 226.057L80.1872 235.296Z" stroke="#4F4F4F"/>
<path d="M233.835 225.743L184.667 226.162L253.004 229.522L233.835 225.743Z" stroke="#4F4F4F"/>
<path d="M253.004 229.522L203.398 229.942L272.759 230.992L253.004 229.522Z" stroke="#4F4F4F"/>
<path d="M203.398 229.942L253.004 229.522L184.667 226.162L203.398 229.942Z" stroke="#4F4F4F"/>
<path d="M299.976 227.632L253.004 229.522L319.292 231.306L299.976 227.632Z" stroke="#4F4F4F"/>
<path d="M272.759 230.992L319.292 231.307L253.004 229.522L272.759 230.992Z" stroke="#4F4F4F"/>
<path d="M253.004 229.522L299.976 227.632L233.835 225.743L253.004 229.522Z" stroke="#4F4F4F"/>
<path d="M319.292 231.307L272.759 230.992L339.925 236.975L319.292 231.307Z" stroke="#4F4F4F"/>
<path d="M319.292 231.306L362.606 229.942L299.977 227.632L319.292 231.306Z" stroke="#4F4F4F"/>
<path d="M362.606 229.942L319.292 231.307L382.946 236.765L362.606 229.942Z" stroke="#4F4F4F"/>
<path d="M382.946 236.766L339.925 236.975L405.774 246.424L382.946 236.766Z" stroke="#4F4F4F"/>
<path d="M339.925 236.975L382.946 236.765L319.292 231.307L339.925 236.975Z" stroke="#4F4F4F"/>
<path d="M423.041 234.036L382.946 236.765L445.576 243.799L423.041 234.036Z" stroke="#4F4F4F"/>
<path d="M405.774 246.424L445.576 243.799L382.946 236.766L405.774 246.424Z" stroke="#4F4F4F"/>
<path d="M382.946 236.765L423.041 234.036L362.606 229.942L382.946 236.765Z" stroke="#4F4F4F"/>
<path d="M445.576 243.799L483.183 238.34L423.041 234.036L445.576 243.799Z" stroke="#4F4F4F"/>
<path d="M203.398 229.942L151.597 232.986L222.714 231.202L203.398 229.942Z" stroke="#4F4F4F"/>
<path d="M222.714 231.202L170.181 235.086L243.054 234.981L222.714 231.202Z" stroke="#4F4F4F"/>
<path d="M170.181 235.086L222.714 231.202L151.597 232.986L170.181 235.086Z" stroke="#4F4F4F"/>
<path d="M272.759 230.992L222.714 231.202L293.245 235.506L272.759 230.992Z" stroke="#4F4F4F"/>
<path d="M243.054 234.981L293.245 235.506L222.714 231.202L243.054 234.981Z" stroke="#4F4F4F"/>
<path d="M222.713 231.202L272.759 230.992L203.398 229.942L222.713 231.202Z" stroke="#4F4F4F"/>
<path d="M445.576 243.799L405.774 246.423L471.331 256.291L445.576 243.799Z" stroke="#4F4F4F"/>
<path d="M293.245 235.505L243.053 234.98L315.195 244.953L293.245 235.505Z" stroke="#4F4F4F"/>
<path d="M293.245 235.506L339.925 236.975L272.759 230.992L293.245 235.506Z" stroke="#4F4F4F"/>
<path d="M339.925 236.975L293.245 235.505L362.314 246.318L339.925 236.975Z" stroke="#4F4F4F"/>
<path d="M362.314 246.318L315.195 244.953L386.751 259.966L362.314 246.318Z" stroke="#4F4F4F"/>
<path d="M315.195 244.953L362.314 246.318L293.245 235.505L315.195 244.953Z" stroke="#4F4F4F"/>
<path d="M362.314 246.318L405.774 246.423L339.925 236.975L362.314 246.318Z" stroke="#4F4F4F"/>
<path d="M97.4542 240.229L40.9703 251.672L115.453 243.274L97.4542 240.229Z" stroke="#4F4F4F"/>
<path d="M58.0911 256.501L115.453 243.274L40.9703 251.672L58.0911 256.501Z" stroke="#4F4F4F"/>
<path d="M40.9703 251.672L97.4541 240.229L24.5812 246.738L40.9703 251.672Z" stroke="#4F4F4F"/>
<path d="M115.453 243.274L170.181 235.085L97.4542 240.229L115.453 243.274Z" stroke="#4F4F4F"/>
<path d="M115.453 243.274L58.0909 256.501L134.037 249.783L115.453 243.274Z" stroke="#4F4F4F"/>
<path d="M170.181 235.085L115.453 243.274L189.643 238.865L170.181 235.085Z" stroke="#4F4F4F"/>
<path d="M189.643 238.865L134.037 249.783L210.129 249.993L189.643 238.865Z" stroke="#4F4F4F"/>
<path d="M134.037 249.783L189.643 238.865L115.453 243.274L134.037 249.783Z" stroke="#4F4F4F"/>
<path d="M243.054 234.98L189.643 238.865L264.125 244.743L243.054 234.98Z" stroke="#4F4F4F"/>
<path d="M210.129 249.993L264.125 244.744L189.643 238.865L210.129 249.993Z" stroke="#4F4F4F"/>
<path d="M189.643 238.865L243.054 234.98L170.181 235.085L189.643 238.865Z" stroke="#4F4F4F"/>
<path d="M264.125 244.744L210.129 249.992L286.075 260.91L264.125 244.744Z" stroke="#4F4F4F"/>
<path d="M264.125 244.743L315.195 244.953L243.053 234.98L264.125 244.743Z" stroke="#4F4F4F"/>
<path d="M315.195 244.954L264.125 244.744L338.315 259.336L315.195 244.954Z" stroke="#4F4F4F"/>
<path d="M286.075 260.91L338.315 259.336L264.125 244.744L286.075 260.91Z" stroke="#4F4F4F"/>
<path d="M338.315 259.336L386.751 259.966L315.195 244.953L338.315 259.336Z" stroke="#4F4F4F"/>
<path d="M483.183 238.34L445.576 243.799L508.937 249.888L483.183 238.34Z" stroke="#4F4F4F"/>
<path d="M471.33 256.291L508.937 249.888L445.576 243.799L471.33 256.291Z" stroke="#4F4F4F"/>
<path d="M545.227 241.174L508.937 249.887L574.494 252.512L545.227 241.174Z" stroke="#4F4F4F"/>
<path d="M508.937 249.888L545.228 241.175L483.183 238.34L508.937 249.888Z" stroke="#4F4F4F"/>
<path d="M574.494 252.512L610.784 242.539L545.228 241.174L574.494 252.512Z" stroke="#4F4F4F"/>
<path d="M610.784 242.539L574.494 252.512L642.684 256.186L610.784 242.539Z" stroke="#4F4F4F"/>
<path d="M642.684 256.186L677.657 252.512L610.784 242.539L642.684 256.186Z" stroke="#4F4F4F"/>
<path d="M977.783 243.799L936.225 248.838L1016.41 248.208L977.783 243.799Z" stroke="#4F4F4F"/>
<path d="M1056.51 241.594L1016.41 248.208L1081.24 242.224L1056.51 241.594Z" stroke="#4F4F4F"/>
<path d="M1045.68 251.882L1081.24 242.224L1016.41 248.208L1045.68 251.882Z" stroke="#4F4F4F"/>
<path d="M1016.41 248.208L1056.51 241.594L977.783 243.799L1016.41 248.208Z" stroke="#4F4F4F"/>
<path d="M1081.24 242.224L1045.68 251.882L1101.14 243.169L1081.24 242.224Z" stroke="#4F4F4F"/>
<path d="M1081.24 242.224L1115.33 234.875L1056.51 241.594L1081.24 242.224Z" stroke="#4F4F4F"/>
<path d="M1115.33 234.875L1081.24 242.224L1132.75 231.726L1115.33 234.875Z" stroke="#4F4F4F"/>
<path d="M1132.75 231.726L1101.14 243.169L1150.31 230.991L1132.75 231.726Z" stroke="#4F4F4F"/>
<path d="M1101.14 243.169L1132.75 231.726L1081.24 242.224L1101.14 243.169Z" stroke="#4F4F4F"/>
<path d="M1162.45 222.173L1132.75 231.726L1179.87 216.294L1162.45 222.173Z" stroke="#4F4F4F"/>
<path d="M1150.31 230.991L1179.87 216.294L1132.75 231.726L1150.31 230.991Z" stroke="#4F4F4F"/>
<path d="M1132.75 231.726L1162.45 222.173L1115.33 234.876L1132.75 231.726Z" stroke="#4F4F4F"/>
<path d="M1179.87 216.294L1206.06 201.597L1162.45 222.173L1179.87 216.294Z" stroke="#4F4F4F"/>
<path d="M1179.87 216.294L1150.31 230.991L1202.99 216.189L1179.87 216.294Z" stroke="#4F4F4F"/>
<path d="M1171.52 234.036L1202.99 216.189L1150.31 230.991L1171.52 234.036Z" stroke="#4F4F4F"/>
<path d="M1068.36 255.241L1101.14 243.169L1045.68 251.882L1068.36 255.241Z" stroke="#4F4F4F"/>
<path d="M1101.14 243.169L1068.36 255.241L1119.14 245.163L1101.14 243.169Z" stroke="#4F4F4F"/>
<path d="M1119.14 245.163L1087.24 258.286L1138.75 248.943L1119.14 245.163Z" stroke="#4F4F4F"/>
<path d="M1171.53 234.036L1138.75 248.943L1200.5 242.014L1171.53 234.036Z" stroke="#4F4F4F"/>
<path d="M1087.24 258.286L1119.14 245.163L1068.36 255.241L1087.24 258.286Z" stroke="#4F4F4F"/>
<path d="M1150.31 230.991L1119.14 245.163L1171.53 234.035L1150.31 230.991Z" stroke="#4F4F4F"/>
<path d="M1138.75 248.943L1171.53 234.036L1119.14 245.163L1138.75 248.943Z" stroke="#4F4F4F"/>
<path d="M1119.14 245.163L1150.31 230.991L1101.14 243.169L1119.14 245.163Z" stroke="#4F4F4F"/>
<path d="M1206.06 201.597L1179.87 216.294L1231.23 195.403L1206.06 201.597Z" stroke="#4F4F4F"/>
<path d="M1231.23 195.403L1202.99 216.189L1265.18 200.862L1231.23 195.403Z" stroke="#4F4F4F"/>
<path d="M1202.99 216.189L1231.23 195.403L1179.87 216.294L1202.99 216.189Z" stroke="#4F4F4F"/>
<path d="M1253.32 174.513L1231.23 195.403L1259.32 185.115L1276.88 197.503L1253.32 174.513Z" stroke="#4F4F4F"/>
<path d="M1265.18 200.862L1274.4 195.298L1276.88 197.503L1259.32 185.115L1231.23 195.403L1265.18 200.862Z" stroke="#4F4F4F"/>
<path d="M1231.23 195.403L1253.32 174.513L1206.06 201.597L1231.23 195.403Z" stroke="#4F4F4F"/>
<path d="M1276.88 197.503L1274.4 195.298L1265.18 200.862L1303.08 225.322L1276.88 197.503Z" stroke="#4F4F4F"/>
<path d="M1276.88 197.503L1277.91 218.499L1253.32 174.513L1276.88 197.503Z" stroke="#4F4F4F"/>
<path d="M1277.91 218.499L1276.88 197.503L1302.93 229.312L1315.22 231.201L1277.91 218.499Z" stroke="#4F4F4F"/>
<path d="M1315.22 231.201L1303.08 225.322L1320.78 230.886L1366.73 208.946L1315.22 231.201Z" stroke="#4F4F4F"/>
<path d="M1303.08 225.322L1315.22 231.201L1276.88 197.503L1303.08 225.322Z" stroke="#4F4F4F"/>
<path d="M1338.49 216.609L1315.22 231.201L1398.19 176.927L1338.49 216.609Z" stroke="#4F4F4F"/>
<path d="M1366.73 208.946L1398.19 176.927L1315.22 231.201L1366.73 208.946Z" stroke="#4F4F4F"/>
<path d="M1315.22 231.201L1338.49 216.609L1310.1 232.776L1290.93 232.671L1277.91 218.499L1315.22 231.201Z" stroke="#4F4F4F"/>
<path d="M1398.19 176.927L1434.92 137.349L1338.49 216.609L1398.19 176.927Z" stroke="#4F4F4F"/>
<path d="M1202.99 216.189L1171.53 234.036L1235.91 223.853L1202.99 216.189Z" stroke="#4F4F4F"/>
<path d="M1235.91 223.853L1200.5 242.014L1276.74 239.495L1235.91 223.853Z" stroke="#4F4F4F"/>
<path d="M1200.5 242.014L1235.91 223.853L1171.53 234.036L1200.5 242.014Z" stroke="#4F4F4F"/>
<path d="M1265.18 200.862L1235.91 223.853L1293.13 224.483L1265.18 200.862Z" stroke="#4F4F4F"/>
<path d="M1276.74 239.495L1293.13 224.483L1235.91 223.853L1276.74 239.495Z" stroke="#4F4F4F"/>
<path d="M1235.91 223.853L1265.18 200.862L1202.99 216.189L1235.91 223.853Z" stroke="#4F4F4F"/>
<path d="M1398.19 176.927L1366.73 208.945L1453.07 144.068L1398.19 176.927Z" stroke="#4F4F4F"/>
<path d="M1415.75 180.706L1453.07 144.068L1366.73 208.945L1415.75 180.706Z" stroke="#4F4F4F"/>
<path d="M1293.13 224.483L1276.74 239.495L1323.12 240.545L1293.13 224.483Z" stroke="#4F4F4F"/>
<path d="M1293.13 224.483L1298.54 223.118L1303.08 225.322L1265.18 200.862L1293.13 224.483Z" stroke="#4F4F4F"/>
<path d="M1303.08 225.322L1298.54 223.118L1293.13 224.482L1339.22 230.571L1303.08 225.322Z" stroke="#4F4F4F"/>
<path d="M1339.22 230.571L1323.12 240.544L1385.17 208.211L1339.22 230.571Z" stroke="#4F4F4F"/>
<path d="M1323.12 240.545L1339.22 230.572L1293.13 224.483L1323.12 240.545Z" stroke="#4F4F4F"/>
<path d="M1366.73 208.945L1339.22 230.571L1415.75 180.706L1366.73 208.945Z" stroke="#4F4F4F"/>
<path d="M1385.17 208.211L1415.75 180.706L1339.22 230.571L1385.17 208.211Z" stroke="#4F4F4F"/>
<path d="M1339.22 230.571L1366.73 208.946L1316.1 230.571L1303.08 225.322L1339.22 230.571Z" stroke="#4F4F4F"/>
<path d="M1163.77 254.926L1200.5 242.014L1138.75 248.943L1163.77 254.926Z" stroke="#4F4F4F"/>
<path d="M1200.5 242.014L1163.77 254.926L1241.32 256.081L1200.5 242.014Z" stroke="#4F4F4F"/>
<path d="M1276.74 239.495L1241.32 256.081L1308.78 255.556L1276.74 239.495Z" stroke="#4F4F4F"/>
<path d="M1241.32 256.081L1276.74 239.495L1200.5 242.014L1241.32 256.081Z" stroke="#4F4F4F"/>
<path d="M1308.78 255.556L1323.12 240.544L1276.74 239.495L1308.78 255.556Z" stroke="#4F4F4F"/>
<path d="M1323.12 240.544L1308.78 255.556L1360.29 233.511L1323.12 240.544Z" stroke="#4F4F4F"/>
<path d="M1360.29 233.511L1344.34 254.927L1405.8 208.106L1360.29 233.511Z" stroke="#4F4F4F"/>
<path d="M1344.34 254.926L1360.29 233.511L1308.78 255.556L1344.34 254.926Z" stroke="#4F4F4F"/>
<path d="M1385.17 208.211L1360.29 233.511L1429.51 189.209L1385.17 208.211Z" stroke="#4F4F4F"/>
<path d="M1405.8 208.106L1429.51 189.209L1360.29 233.511L1405.8 208.106Z" stroke="#4F4F4F"/>
<path d="M1360.29 233.511L1385.17 208.211L1323.12 240.544L1360.29 233.511Z" stroke="#4F4F4F"/>
<path d="M1415.75 180.706L1385.17 208.211L1457.16 169.054L1415.75 180.706Z" stroke="#4F4F4F"/>
<path d="M1429.51 189.21L1457.16 169.054L1385.17 208.211L1429.51 189.21Z" stroke="#4F4F4F"/>
<path d="M1429.51 189.209L1405.8 208.106L1467.55 187.635L1429.51 189.209Z" stroke="#4F4F4F"/>
<path d="M1453.36 191.099L1459.36 187.11L1467.55 187.635L1405.8 208.106L1453.36 191.099Z" stroke="#4F4F4F"/>
<path d="M1344.34 254.926L1326.34 276.447L1385.46 235.295L1344.34 254.926Z" stroke="#4F4F4F"/>
<path d="M1385.46 235.296L1365.27 265.845L1429.8 219.654L1385.46 235.296Z" stroke="#4F4F4F"/>
<path d="M1453.36 191.099L1429.8 219.653L1491.26 206.531L1453.36 191.099Z" stroke="#4F4F4F"/>
<path d="M1365.27 265.844L1385.46 235.295L1326.34 276.447L1365.27 265.844Z" stroke="#4F4F4F"/>
<path d="M1405.8 208.106L1385.46 235.295L1453.36 191.099L1405.8 208.106Z" stroke="#4F4F4F"/>
<path d="M1429.8 219.653L1453.36 191.099L1385.46 235.295L1429.8 219.653Z" stroke="#4F4F4F"/>
<path d="M1385.46 235.295L1405.8 208.106L1344.34 254.927L1385.46 235.295Z" stroke="#4F4F4F"/>
<path d="M1434.92 137.35L1398.19 176.927L1497.41 96.3029L1434.92 137.35Z" stroke="#4F4F4F"/>
<path d="M1497.4 96.303L1453.07 144.069L1541.3 85.4901L1497.4 96.303Z" stroke="#4F4F4F"/>
<path d="M1453.07 144.068L1497.41 96.3029L1398.19 176.927L1453.07 144.068Z" stroke="#4F4F4F"/>
<path d="M1541.3 47.5923L1497.4 96.3027L1587.69 33.2101L1541.3 47.5923Z" stroke="#4F4F4F"/>
<path d="M1541.3 85.4898L1587.69 33.2101L1497.4 96.3027L1541.3 85.4898Z" stroke="#4F4F4F"/>
<path d="M1497.4 96.3028L1541.3 47.5924L1434.92 137.35L1497.4 96.3028Z" stroke="#4F4F4F"/>
<path d="M1587.69 33.2101L1541.3 85.4898L1612.86 57.8802L1587.69 33.2101Z" stroke="#4F4F4F"/>
<path d="M1587.69 33.2102L1618.57 1.50647L1541.3 47.5924L1587.69 33.2102Z" stroke="#4F4F4F"/>
<path d="M1618.57 1.50647L1587.69 33.2102L1651.93 20.5077L1618.57 1.50647Z" stroke="#4F4F4F"/>
<path d="M1651.93 20.5077L1612.86 57.8803L1677.98 60.2949L1651.93 20.5077Z" stroke="#4F4F4F"/>
<path d="M1612.86 57.8803L1651.93 20.5077L1587.69 33.2102L1612.86 57.8803Z" stroke="#4F4F4F"/>
<path d="M1679.73 2.66125L1651.93 20.5077L1713.68 31.8455L1679.73 2.66125Z" stroke="#4F4F4F"/>
<path d="M1677.98 60.2949L1713.68 31.8455L1651.93 20.5077L1677.98 60.2949Z" stroke="#4F4F4F"/>
<path d="M1651.93 20.5077L1679.73 2.66124L1618.57 1.50647L1651.93 20.5077Z" stroke="#4F4F4F"/>
<path d="M1713.68 31.8455L1737.68 23.6571L1679.73 2.66125L1713.68 31.8455Z" stroke="#4F4F4F"/>
<path d="M1453.07 144.069L1415.75 180.706L1494.92 134.725L1453.07 144.069Z" stroke="#4F4F4F"/>
<path d="M1494.92 134.725L1457.16 169.054L1522.57 153.307L1494.92 134.725Z" stroke="#4F4F4F"/>
<path d="M1457.16 169.054L1494.92 134.725L1415.75 180.706L1457.16 169.054Z" stroke="#4F4F4F"/>
<path d="M1541.3 85.4901L1494.92 134.725L1567.5 108.061L1541.3 85.4901Z" stroke="#4F4F4F"/>
<path d="M1522.57 153.307L1567.5 108.06L1494.92 134.725L1522.57 153.307Z" stroke="#4F4F4F"/>
<path d="M1494.92 134.725L1541.3 85.4901L1453.07 144.069L1494.92 134.725Z" stroke="#4F4F4F"/>
<path d="M1713.68 31.8453L1677.98 60.2947L1745.29 70.0578L1713.68 31.8453Z" stroke="#4F4F4F"/>
<path d="M1705.49 104.176L1745.29 70.0579L1677.98 60.2948L1705.49 104.176Z" stroke="#4F4F4F"/>
<path d="M1567.5 108.06L1522.57 153.307L1584.47 154.251L1567.5 108.06Z" stroke="#4F4F4F"/>
<path d="M1567.5 108.06L1612.86 57.8802L1541.3 85.4898L1567.5 108.06Z" stroke="#4F4F4F"/>
<path d="M1612.86 57.8802L1567.5 108.06L1633.05 104.281L1612.86 57.8802Z" stroke="#4F4F4F"/>
<path d="M1633.05 104.281L1584.47 154.251L1658.81 150.052L1633.05 104.281Z" stroke="#4F4F4F"/>
<path d="M1705.49 104.176L1658.81 150.052L1740.46 140.604L1705.49 104.176Z" stroke="#4F4F4F"/>
<path d="M1584.47 154.251L1633.05 104.281L1567.5 108.06L1584.47 154.251Z" stroke="#4F4F4F"/>
<path d="M1677.98 60.2948L1633.05 104.281L1705.49 104.176L1677.98 60.2948Z" stroke="#4F4F4F"/>
<path d="M1658.81 150.052L1705.49 104.176L1633.05 104.281L1658.81 150.052Z" stroke="#4F4F4F"/>
<path d="M1633.05 104.281L1677.98 60.2948L1612.86 57.8802L1633.05 104.281Z" stroke="#4F4F4F"/>
<path d="M1737.68 23.6571L1713.68 31.8455L1774.85 52.9463L1737.68 23.6571Z" stroke="#4F4F4F"/>
<path d="M1774.85 52.9464L1745.29 70.058L1812.6 82.9705L1774.85 52.9464Z" stroke="#4F4F4F"/>
<path d="M1745.29 70.0578L1774.85 52.9462L1713.68 31.8453L1745.29 70.0578Z" stroke="#4F4F4F"/>
<path d="M1794.02 53.1564L1774.85 52.9464L1834.99 75.8319L1794.02 53.1564Z" stroke="#4F4F4F"/>
<path d="M1812.6 82.9705L1834.99 75.8319L1774.85 52.9464L1812.6 82.9705Z" stroke="#4F4F4F"/>
<path d="M1774.85 52.9463L1794.02 53.1563L1737.68 23.6571L1774.85 52.9463Z" stroke="#4F4F4F"/>
<path d="M1834.99 75.8319L1812.6 82.9705L1877.57 95.0431L1834.99 75.8319Z" stroke="#4F4F4F"/>
<path d="M1834.99 75.8317L1849.77 79.5059L1794.02 53.1561L1834.99 75.8317Z" stroke="#4F4F4F"/>
<path d="M1849.77 79.5062L1834.99 75.8319L1893.38 92.8386L1849.77 79.5062Z" stroke="#4F4F4F"/>
<path d="M1893.38 92.8385L1877.57 95.0431L1938.3 102.182L1893.38 92.8385Z" stroke="#4F4F4F"/>
<path d="M1877.57 95.0431L1893.38 92.8386L1834.99 75.8319L1877.57 95.0431Z" stroke="#4F4F4F"/>
<path d="M1893.38 92.8386L1906.25 91.2639L1849.77 79.5062L1893.38 92.8386Z" stroke="#4F4F4F"/>
<path d="M1745.29 70.058L1705.49 104.176L1780.7 104.911L1745.29 70.058Z" stroke="#4F4F4F"/>
<path d="M1780.7 104.911L1740.46 140.604L1823.87 129.056L1780.7 104.911Z" stroke="#4F4F4F"/>
<path d="M1740.46 140.604L1780.7 104.911L1705.49 104.176L1740.46 140.604Z" stroke="#4F4F4F"/>
<path d="M1812.6 82.9703L1780.7 104.911L1854.89 105.961L1812.6 82.9703Z" stroke="#4F4F4F"/>
<path d="M1823.87 129.056L1854.89 105.961L1780.7 104.911L1823.87 129.056Z" stroke="#4F4F4F"/>
<path d="M1780.7 104.911L1812.6 82.9704L1745.29 70.058L1780.7 104.911Z" stroke="#4F4F4F"/>
<path d="M1854.89 105.961L1823.87 129.057L1903.33 118.769L1854.89 105.961Z" stroke="#4F4F4F"/>
<path d="M1854.89 105.961L1877.57 95.043L1812.6 82.9703L1854.89 105.961Z" stroke="#4F4F4F"/>
<path d="M1877.57 95.0431L1854.89 105.961L1924.11 107.116L1877.57 95.0431Z" stroke="#4F4F4F"/>
<path d="M1903.33 118.769L1924.11 107.116L1854.89 105.961L1903.33 118.769Z" stroke="#4F4F4F"/>
<path d="M1924.11 107.116L1938.3 102.182L1877.57 95.0431L1924.11 107.116Z" stroke="#4F4F4F"/>
<path d="M1457.16 169.054L1429.51 189.21L1488.33 180.181L1457.16 169.054Z" stroke="#4F4F4F"/>
<path d="M1488.33 180.181L1467.55 187.635L1514.53 207.896L1488.33 180.181Z" stroke="#4F4F4F"/>
<path d="M1467.55 187.635L1488.33 180.181L1429.51 189.209L1467.55 187.635Z" stroke="#4F4F4F"/>
<path d="M1522.57 153.307L1488.33 180.181L1542.91 192.464L1522.57 153.307Z" stroke="#4F4F4F"/>
<path d="M1514.53 207.896L1542.91 192.464L1488.33 180.181L1514.53 207.896Z" stroke="#4F4F4F"/>
<path d="M1488.33 180.181L1522.57 153.307L1457.16 169.053L1488.33 180.181Z" stroke="#4F4F4F"/>
<path d="M1542.91 192.464L1514.53 207.896L1570.28 231.516L1542.91 192.464Z" stroke="#4F4F4F"/>
<path d="M1542.91 192.464L1584.47 154.251L1522.57 153.307L1542.91 192.464Z" stroke="#4F4F4F"/>
<path d="M1584.47 154.251L1542.91 192.464L1610.81 197.608L1584.47 154.251Z" stroke="#4F4F4F"/>
<path d="M1610.81 197.608L1570.28 231.516L1651.35 224.902L1610.81 197.608Z" stroke="#4F4F4F"/>
<path d="M1570.28 231.516L1610.81 197.608L1542.91 192.464L1570.28 231.516Z" stroke="#4F4F4F"/>
<path d="M1658.81 150.052L1610.81 197.608L1695.1 184.17L1658.81 150.052Z" stroke="#4F4F4F"/>
<path d="M1651.34 224.903L1695.1 184.171L1610.81 197.608L1651.34 224.903Z" stroke="#4F4F4F"/>
<path d="M1610.81 197.608L1658.81 150.052L1584.47 154.251L1610.81 197.608Z" stroke="#4F4F4F"/>
<path d="M1695.1 184.17L1740.46 140.604L1658.81 150.052L1695.1 184.17Z" stroke="#4F4F4F"/>
<path d="M1467.55 187.635L1459.36 187.11L1453.36 191.099L1501.94 201.912L1467.55 187.635Z" stroke="#4F4F4F"/>
<path d="M1501.94 201.912L1498.58 201.597L1491.26 206.531L1538.38 231.621L1501.94 201.912Z" stroke="#4F4F4F"/>
<path d="M1491.26 206.531L1498.58 201.597L1501.94 201.912L1453.36 191.099L1491.26 206.531Z" stroke="#4F4F4F"/>
<path d="M1514.53 207.896L1508.53 207.266L1501.94 201.912L1548.18 234.875L1514.53 207.896Z" stroke="#4F4F4F"/>
<path d="M1538.38 231.621L1548.18 234.875L1501.94 201.912L1538.38 231.621Z" stroke="#4F4F4F"/>
<path d="M1501.94 201.912L1508.53 207.266L1514.53 207.896L1467.55 187.635L1501.94 201.912Z" stroke="#4F4F4F"/>
<path d="M1695.1 184.171L1651.35 224.903L1745 200.233L1695.1 184.171Z" stroke="#4F4F4F"/>
<path d="M1708.56 229.312L1745 200.232L1651.35 224.902L1708.56 229.312Z" stroke="#4F4F4F"/>
<path d="M1548.18 234.875L1538.38 231.621L1596.18 256.711L1548.18 234.875Z" stroke="#4F4F4F"/>
<path d="M1548.18 234.876L1556.67 236.765L1570.28 231.516L1514.53 207.896L1548.18 234.876Z" stroke="#4F4F4F"/>
<path d="M1570.28 231.516L1556.67 236.765L1548.18 234.875L1618.27 246.633L1570.28 231.516Z" stroke="#4F4F4F"/>
<path d="M1708.56 229.312L1678.85 250.623L1773.09 225.323L1708.56 229.312Z" stroke="#4F4F4F"/>
<path d="M1596.18 256.711L1618.27 246.633L1548.18 234.875L1596.18 256.711Z" stroke="#4F4F4F"/>
<path d="M1651.34 224.903L1618.27 246.633L1708.56 229.312L1651.34 224.903Z" stroke="#4F4F4F"/>
<path d="M1678.86 250.622L1708.56 229.311L1618.27 246.633L1678.86 250.622Z" stroke="#4F4F4F"/>
<path d="M1618.27 246.633L1651.35 224.903L1570.28 231.516L1618.27 246.633Z" stroke="#4F4F4F"/>
<path d="M1740.46 140.604L1695.1 184.17L1785.82 162.65L1740.46 140.604Z" stroke="#4F4F4F"/>
<path d="M1785.82 162.65L1745 200.232L1842.16 168.319L1785.82 162.65Z" stroke="#4F4F4F"/>
<path d="M1745 200.232L1785.82 162.65L1695.1 184.171L1745 200.232Z" stroke="#4F4F4F"/>
<path d="M1823.87 129.057L1785.82 162.65L1875.38 139.974L1823.87 129.057Z" stroke="#4F4F4F"/>
<path d="M1842.16 168.318L1875.38 139.974L1785.82 162.65L1842.16 168.318Z" stroke="#4F4F4F"/>
<path d="M1785.82 162.65L1823.87 129.057L1740.46 140.604L1785.82 162.65Z" stroke="#4F4F4F"/>
<path d="M1875.38 139.974L1842.16 168.318L1933.76 139.869L1875.38 139.974Z" stroke="#4F4F4F"/>
<path d="M1875.38 139.974L1903.33 118.768L1823.87 129.056L1875.38 139.974Z" stroke="#4F4F4F"/>
<path d="M1903.33 118.768L1875.38 139.974L1956.59 123.177L1903.33 118.768Z" stroke="#4F4F4F"/>
<path d="M1933.76 139.869L1956.59 123.178L1875.38 139.974L1933.76 139.869Z" stroke="#4F4F4F"/>
<path d="M1745 200.232L1708.56 229.312L1807.63 196.663L1745 200.232Z" stroke="#4F4F4F"/>
<path d="M1807.63 196.663L1773.09 225.322L1870.84 192.149L1807.63 196.663Z" stroke="#4F4F4F"/>
<path d="M1773.09 225.322L1807.63 196.663L1708.56 229.312L1773.09 225.322Z" stroke="#4F4F4F"/>
<path d="M1842.16 168.319L1807.63 196.663L1905.81 161.81L1842.16 168.319Z" stroke="#4F4F4F"/>
<path d="M1870.84 192.149L1905.81 161.81L1807.63 196.663L1870.84 192.149Z" stroke="#4F4F4F"/>
<path d="M1807.63 196.663L1842.16 168.319L1745 200.232L1807.63 196.663Z" stroke="#4F4F4F"/>
<path d="M1905.82 161.81L1870.84 192.149L1963.62 162.86L1905.82 161.81Z" stroke="#4F4F4F"/>
<path d="M1905.82 161.81L1933.76 139.869L1842.16 168.318L1905.82 161.81Z" stroke="#4F4F4F"/>
<path d="M1429.8 219.654L1406.68 259.651L1475.45 228.472L1429.8 219.654Z" stroke="#4F4F4F"/>
<path d="M1452.63 264.27L1475.45 228.472L1406.68 259.65L1452.63 264.27Z" stroke="#4F4F4F"/>
<path d="M1406.68 259.651L1429.8 219.654L1365.27 265.845L1406.68 259.651Z" stroke="#4F4F4F"/>
<path d="M1475.45 228.472L1491.26 206.531L1429.8 219.654L1475.45 228.472Z" stroke="#4F4F4F"/>
<path d="M1475.46 228.472L1452.63 264.27L1518.62 255.031L1475.46 228.472Z" stroke="#4F4F4F"/>
<path d="M1491.26 206.531L1475.46 228.472L1530.48 237.5L1491.26 206.531Z" stroke="#4F4F4F"/>
<path d="M1530.48 237.5L1518.62 255.031L1575.55 270.358L1530.48 237.5Z" stroke="#4F4F4F"/>
<path d="M1518.62 255.031L1530.48 237.5L1475.46 228.472L1518.62 255.031Z" stroke="#4F4F4F"/>
<path d="M1538.38 231.621L1530.48 237.5L1583.74 262.695L1538.38 231.621Z" stroke="#4F4F4F"/>
<path d="M1575.55 270.358L1583.74 262.695L1530.48 237.5L1575.55 270.358Z" stroke="#4F4F4F"/>
<path d="M1530.48 237.5L1538.38 231.621L1491.26 206.531L1530.48 237.5Z" stroke="#4F4F4F"/>
<path d="M1583.74 262.695L1596.18 256.711L1538.38 231.621L1583.74 262.695Z" stroke="#4F4F4F"/>
<path d="M1742.51 254.612L1773.09 225.323L1678.85 250.623L1742.51 254.612Z" stroke="#4F4F4F"/>
<path d="M1773.09 225.323L1742.51 254.612L1835.72 226.582L1773.09 225.323Z" stroke="#4F4F4F"/>
<path d="M1835.72 226.582L1804.99 259.756L1893.96 233.301L1835.72 226.582Z" stroke="#4F4F4F"/>
<path d="M1804.99 259.756L1835.72 226.582L1742.51 254.612L1804.99 259.756Z" stroke="#4F4F4F"/>
<path d="M1870.84 192.149L1835.72 226.582L1928.35 196.978L1870.84 192.149Z" stroke="#4F4F4F"/>
<path d="M1893.96 233.301L1928.35 196.978L1835.72 226.582L1893.96 233.301Z" stroke="#4F4F4F"/>
<path d="M1835.72 226.582L1870.84 192.149L1773.09 225.322L1835.72 226.582Z" stroke="#4F4F4F"/>
<path d="M1928.35 196.978L1893.96 233.301L1979.71 209.995L1928.35 196.978Z" stroke="#4F4F4F"/>
<path d="M1928.35 196.978L1963.62 162.86L1870.84 192.149L1928.35 196.978Z" stroke="#4F4F4F"/>
<path d="M1893.96 233.301L1864.55 266.37L1947.81 244.429L1893.96 233.301Z" stroke="#4F4F4F"/>
<path d="M1921.47 273.823L1947.81 244.429L1864.55 266.369L1921.47 273.823Z" stroke="#4F4F4F"/>
<path d="M1864.55 266.37L1893.96 233.301L1804.99 259.756L1864.55 266.37Z" stroke="#4F4F4F"/>
<path d="M1947.81 244.429L1979.71 209.995L1893.96 233.301L1947.81 244.429Z" stroke="#4F4F4F"/>
</svg>
