<svg width="79" height="79" viewBox="0 0 79 79" fill="none" xmlns="http://www.w3.org/2000/svg">
<path d="M28.3422 51.8978L28.3383 52.8978H28.3422V51.8978ZM22.9814 50.3644L22.4184 51.1909L22.4205 51.1924L22.9814 50.3644ZM19.5403 45.9575L18.6164 46.3402L18.6178 46.3435L19.5403 45.9575ZM18.3571 39.015L19.3571 39.018V39.015H18.3571ZM19.5524 32.1208L18.6316 31.7307L18.6302 31.734L19.5524 32.1208ZM22.9934 27.7863L23.5471 28.6191L23.5481 28.6184L22.9934 27.7863ZM33.6788 27.7863L33.122 28.617L33.1241 28.6184L33.6788 27.7863ZM37.1319 32.1329L36.2112 32.5231L36.2118 32.5245L37.1319 32.1329ZM38.3272 39.015L37.3272 39.012V39.015H38.3272ZM37.1199 45.9695L36.1973 45.5836L36.196 45.5869L37.1199 45.9695ZM33.6909 50.3765L34.2538 51.203V51.203L33.6909 50.3765ZM31.7349 45.4262L32.595 45.9364L31.7349 45.4262ZM32.9906 39.015H31.9906L31.9906 39.0178L32.9906 39.015ZM32.411 34.3303L31.4541 34.6205L31.4558 34.6262L32.411 34.3303ZM30.7931 31.5171L30.1213 32.2579L30.1256 32.2617L30.7931 31.5171ZM24.9615 32.6883L24.104 32.1738L24.9615 32.6883ZM23.6816 39.015L22.6816 39.0121V39.015H23.6816ZM24.2491 43.7721L23.2906 44.0572L23.2928 44.0645L24.2491 43.7721ZM25.8791 46.6215L25.2068 47.3619L25.2115 47.3661L25.8791 46.6215ZM28.346 50.8978C26.4376 50.8904 24.8515 50.4234 23.5422 49.5365L22.4205 51.1924C24.1056 52.3338 26.0933 52.8891 28.3383 52.8978L28.346 50.8978ZM23.5443 49.5379C22.2391 48.649 21.2051 47.3455 20.4628 45.5715L18.6178 46.3435C19.4854 48.417 20.7454 50.0515 22.4184 51.1909L23.5443 49.5379ZM20.4642 45.5748C19.7306 43.8039 19.3493 41.6279 19.3571 39.018L17.3571 39.012C17.3487 41.8112 17.7562 44.2635 18.6164 46.3402L20.4642 45.5748ZM19.3571 39.015C19.3571 36.4123 19.7423 34.2533 20.4745 32.5077L18.6302 31.734C17.7688 33.7876 17.3571 36.2247 17.3571 39.015H19.3571ZM20.4731 32.511C21.2137 30.7632 22.245 29.4848 23.5471 28.6191L22.4398 26.9536C20.7637 28.068 19.5009 29.6792 18.6316 31.7307L20.4731 32.511ZM23.5481 28.6184C24.8574 27.7455 26.4405 27.2892 28.3422 27.2892V25.2892C26.1065 25.2892 24.1237 25.8309 22.4387 26.9543L23.5481 28.6184ZM28.3422 27.2892C30.2439 27.2892 31.8219 27.7455 33.122 28.617L34.2356 26.9556C32.5575 25.8309 30.5777 25.2892 28.3422 25.2892V27.2892ZM33.1241 28.6184C34.4358 29.4928 35.471 30.7762 36.2112 32.5231L38.0527 31.7428C37.183 29.6903 35.9161 28.076 34.2335 26.9543L33.1241 28.6184ZM36.2118 32.5245C36.9498 34.2589 37.335 36.4108 37.3272 39.012L39.3272 39.018C39.3356 36.2262 38.9239 33.79 38.0521 31.7413L36.2118 32.5245ZM37.3272 39.015C37.3272 41.6331 36.9382 43.8128 36.1973 45.5836L38.0424 46.3555C38.9113 44.2787 39.3272 41.8221 39.3272 39.015H37.3272ZM36.196 45.5869C35.4617 47.3594 34.4322 48.6617 33.128 49.55L34.2538 51.203C35.9278 50.0629 37.1842 48.4272 38.0437 46.3522L36.196 45.5869ZM33.128 49.55C31.8291 50.4346 30.2496 50.8978 28.3422 50.8978V52.8978C30.5881 52.8978 32.5744 52.3468 34.2538 51.203L33.128 49.55ZM28.3422 48.5633C30.1773 48.5633 31.6058 47.6039 32.595 45.9364L30.8749 44.916C30.1737 46.098 29.3403 46.5633 28.3422 46.5633V48.5633ZM32.595 45.9364C33.5768 44.2813 33.9988 41.9281 33.9906 39.0122L31.9906 39.0178C31.9985 41.8008 31.5833 43.7217 30.8749 44.916L32.595 45.9364ZM33.9906 39.015C33.9906 37.079 33.7922 35.4097 33.3663 34.0345L31.4558 34.6262C31.8027 35.7462 31.9906 37.2001 31.9906 39.015H33.9906ZM33.368 34.0402C32.9562 32.6822 32.34 31.561 31.4607 30.7726L30.1256 32.2617C30.6468 32.729 31.1092 33.4832 31.4541 34.6205L33.368 34.0402ZM31.465 30.7764C30.5872 29.9803 29.5302 29.5754 28.3422 29.5754V31.5754C29.0377 31.5754 29.6146 31.7983 30.1213 32.2579L31.465 30.7764ZM28.3422 29.5754C26.5183 29.5754 25.0943 30.5232 24.104 32.1738L25.819 33.2028C26.5189 32.0362 27.3487 31.5754 28.3422 31.5754V29.5754ZM24.104 32.1738C23.1215 33.8112 22.6899 36.1353 22.6816 39.0121L24.6816 39.0179C24.6895 36.2764 25.1111 34.3826 25.819 33.2028L24.104 32.1738ZM22.6816 39.015C22.6816 40.9733 22.8757 42.6625 23.2906 44.0572L25.2076 43.487C24.8659 42.3381 24.6816 40.856 24.6816 39.015H22.6816ZM23.2928 44.0645C23.7119 45.4352 24.3305 46.5661 25.2068 47.3619L26.5513 45.8812C26.0271 45.4052 25.5591 44.6365 25.2054 43.4797L23.2928 44.0645ZM25.2115 47.3661C26.0955 48.1587 27.1544 48.5633 28.3422 48.5633V46.5633C27.6464 46.5633 27.0632 46.3401 26.5466 45.877L25.2115 47.3661ZM46.3775 50.7629L45.9684 51.6754L45.9747 51.6782L46.3775 50.7629ZM43.0572 48.1791L42.2494 48.7687L42.2543 48.7753L43.0572 48.1791ZM41.8136 44.3637V43.3637C41.5454 43.3637 41.2886 43.4714 41.1006 43.6626C40.9126 43.8537 40.8092 44.1124 40.8137 44.3805L41.8136 44.3637ZM47.0778 44.3637L48.0764 44.3105C48.048 43.7796 47.6094 43.3637 47.0778 43.3637V44.3637ZM47.6694 45.9575L46.8845 46.5771C46.8885 46.5822 46.8926 46.5872 46.8967 46.5922L47.6694 45.9575ZM49.1424 47.0079L48.7647 47.9338V47.9338L49.1424 47.0079ZM53.32 46.9596L52.9017 46.0513L53.32 46.9596ZM54.7567 45.7884L55.5785 46.3583L55.5785 46.3583L54.7567 45.7884ZM54.7205 42.3112L53.9025 42.8863C53.9059 42.8912 53.9094 42.8961 53.9129 42.9009L54.7205 42.3112ZM53.1509 41.1038L52.757 42.0229L52.7609 42.0246L53.1509 41.1038ZM48.43 40.6691H47.43C47.43 41.2214 47.8778 41.6691 48.43 41.6691V40.6691ZM48.43 36.8296V35.8296C47.8778 35.8296 47.43 36.2773 47.43 36.8296H48.43ZM52.8249 36.4191L52.4166 35.5063L52.412 35.5083L52.8249 36.4191ZM54.2496 35.2842L55.0689 35.8577L55.0733 35.8513L54.2496 35.2842ZM54.31 31.9397L53.4564 32.4606C53.4598 32.4663 53.4634 32.4719 53.467 32.4775L54.31 31.9397ZM53.0785 30.8289L52.6258 31.7206L52.6313 31.7234L53.0785 30.8289ZM49.2994 30.8168L49.6903 31.7374L49.7008 31.7327L49.2994 30.8168ZM47.8867 31.8914L48.6834 32.4958V32.4958L47.8867 31.8914ZM47.3192 33.5335V34.5335C47.8566 34.5335 48.2979 34.1088 48.3185 33.5719L47.3192 33.5335ZM42.3086 33.5335L41.3087 33.5165C41.3042 33.7846 41.4075 34.0433 41.5955 34.2346C41.7835 34.4258 42.0404 34.5335 42.3086 34.5335V33.5335ZM43.5281 29.7664L44.3373 30.3539V30.3539L43.5281 29.7664ZM46.7156 27.2188L47.1318 28.1281L47.1343 28.127L46.7156 27.2188ZM55.7468 27.2188L56.1827 26.3188L55.7468 27.2188ZM58.729 29.7302L57.8989 30.2878L57.9039 30.2951L58.729 29.7302ZM59.7915 33.2558L58.7915 33.2496L58.7916 33.2616L59.7915 33.2558ZM58.4996 36.721L57.7707 36.0364L57.7675 36.0398L58.4996 36.721ZM55.131 38.4838L54.9537 37.4996C54.4775 37.5854 54.131 37.9999 54.131 38.4838H55.131ZM55.131 38.6769H54.131C54.131 39.18 54.5048 39.6048 55.0038 39.6688L55.131 38.6769ZM59.2844 40.5725L58.5492 41.2504L58.5547 41.2563L59.2844 40.5725ZM60.7092 44.412L59.7091 44.4068L59.7092 44.4177L60.7092 44.412ZM59.4897 48.167L58.6897 47.567L58.6869 47.5708L59.4897 48.167ZM56.1211 50.7508L55.7197 49.8349L56.1211 50.7508ZM51.195 50.6926C49.5071 50.6926 48.042 50.4027 46.7802 49.8476L45.9747 51.6782C47.5302 52.3626 49.2768 52.6926 51.195 52.6926V50.6926ZM46.7865 49.8504C45.5222 49.2836 44.5586 48.5236 43.86 47.5829L42.2543 48.7753C43.1817 50.0239 44.4317 50.9865 45.9684 51.6754L46.7865 49.8504ZM43.8649 47.5895C43.1885 46.6628 42.8343 45.5937 42.8134 44.347L40.8137 44.3805C40.8411 46.0154 41.316 47.4898 42.2495 48.7686L43.8649 47.5895ZM41.8136 45.3637H47.0778V43.3637H41.8136V45.3637ZM46.0792 44.417C46.122 45.2195 46.3897 45.9503 46.8845 46.5771L48.4543 45.3378C48.2247 45.047 48.0979 44.7153 48.0764 44.3105L46.0792 44.417ZM46.8967 46.5922C47.3857 47.1875 48.0198 47.63 48.7647 47.9338L49.5201 46.082C49.0415 45.8868 48.6936 45.6289 48.4421 45.3227L46.8967 46.5922ZM48.7647 47.9338C49.5137 48.2393 50.333 48.3822 51.207 48.3822V46.3822C50.5517 46.3822 49.9946 46.2755 49.5201 46.082L48.7647 47.9338ZM51.207 48.3822C52.1222 48.3822 52.9735 48.2201 53.7383 47.8679L52.9017 46.0513C52.4429 46.2626 51.8856 46.3822 51.207 46.3822V48.3822ZM53.7383 47.8679C54.4941 47.5198 55.1197 47.0198 55.5785 46.3583L53.935 45.2185C53.7016 45.5552 53.3693 45.836 52.9017 46.0513L53.7383 47.8679ZM55.5785 46.3583C56.0493 45.6794 56.2759 44.9018 56.2759 44.0619H54.2759C54.2759 44.5259 54.1564 44.8994 53.935 45.2185L55.5785 46.3583ZM56.2759 44.0619C56.2759 43.2014 56.0301 42.4089 55.5282 41.7215L53.9129 42.9009C54.1515 43.2277 54.2759 43.6023 54.2759 44.0619H56.2759ZM55.5386 41.736C55.0507 41.0422 54.3659 40.5324 53.5409 40.183L52.7609 42.0246C53.3043 42.2547 53.6659 42.5498 53.9025 42.8863L55.5386 41.736ZM53.5448 40.1846C52.7156 39.8292 51.7702 39.6691 50.7361 39.6691V41.6691C51.5695 41.6691 52.234 41.7988 52.757 42.0229L53.5448 40.1846ZM50.7361 39.6691H48.43V41.6691H50.7361V39.6691ZM49.43 40.6691V36.8296H47.43V40.6691H49.43ZM48.43 37.8296H50.7361V35.8296H48.43V37.8296ZM50.7361 37.8296C51.6407 37.8296 52.4821 37.6725 53.2378 37.3299L52.412 35.5083C51.9603 35.7131 51.4093 35.8296 50.7361 35.8296V37.8296ZM53.2333 37.3319C53.9871 36.9947 54.6135 36.5082 55.0689 35.8576L53.4304 34.7107C53.2097 35.0261 52.8862 35.2962 52.4166 35.5063L53.2333 37.3319ZM55.0733 35.8513C55.537 35.1778 55.7567 34.4043 55.7567 33.5697H53.7567C53.7567 34.039 53.6384 34.4085 53.426 34.7171L55.0733 35.8513ZM55.7567 33.5697C55.7567 32.7828 55.5653 32.0481 55.1531 31.4019L53.467 32.4775C53.6504 32.7651 53.7567 33.117 53.7567 33.5697H55.7567ZM55.1637 31.4189C54.7695 30.7728 54.2129 30.2781 53.5257 29.9345L52.6313 31.7234C53.0065 31.911 53.271 32.1568 53.4564 32.4606L55.1637 31.4189ZM53.5312 29.9373C52.843 29.5879 52.0706 29.4305 51.2433 29.4305V31.4305C51.8164 31.4305 52.2675 31.5387 52.6258 31.7206L53.5312 29.9373ZM51.2433 29.4305C50.4112 29.4305 49.6247 29.5824 48.8979 29.901L49.7008 31.7327C50.1492 31.5362 50.6587 31.4305 51.2433 31.4305V29.4305ZM48.9085 29.8964C48.1751 30.2078 47.5589 30.669 47.09 31.287L48.6834 32.4958C48.9229 32.1801 49.2484 31.9249 49.6902 31.7373L48.9085 29.8964ZM47.09 31.287C46.6028 31.9293 46.3514 32.6778 46.32 33.495L48.3185 33.5719C48.3354 33.1334 48.4623 32.7872 48.6834 32.4958L47.09 31.287ZM47.3192 32.5335H42.3086V34.5335H47.3192V32.5335ZM43.3085 33.5504C43.3293 32.3176 43.6766 31.264 44.3373 30.3539L42.7188 29.179C41.8018 30.4421 41.3361 31.8999 41.3087 33.5165L43.3085 33.5504ZM44.3373 30.3539C45.0156 29.4194 45.937 28.6751 47.1318 28.1281L46.2993 26.3096C44.8218 26.986 43.6181 27.9401 42.7188 29.179L44.3373 30.3539ZM47.1343 28.127C48.3298 27.5757 49.7011 27.2892 51.2674 27.2892V25.2892C49.453 25.2892 47.7898 25.6224 46.2968 26.3107L47.1343 28.127ZM51.2674 27.2892C52.8527 27.2892 54.1915 27.5767 55.3109 28.1189L56.1827 26.3188C54.7425 25.6214 53.095 25.2892 51.2674 25.2892V27.2892ZM55.3109 28.1189C56.4508 28.6709 57.3008 29.3974 57.899 30.2878L59.5591 29.1726C58.7406 27.9541 57.6024 27.0064 56.1827 26.3188L55.3109 28.1189ZM57.9039 30.2951C58.5018 31.1684 58.7984 32.1432 58.7916 33.2496L60.7915 33.2619C60.8008 31.7604 60.3891 30.3848 59.5542 29.1653L57.9039 30.2951ZM58.7916 33.2616C58.7983 34.415 58.4479 35.3153 57.7707 36.0364L59.2286 37.4055C60.29 36.2753 60.8009 34.8655 60.7915 33.25L58.7916 33.2616ZM57.7675 36.0398C57.0701 36.7894 56.1505 37.2839 54.9537 37.4996L55.3084 39.4679C56.8805 39.1846 58.2066 38.5039 59.2318 37.4022L57.7675 36.0398ZM54.131 38.4838V38.6769H56.131V38.4838H54.131ZM55.0038 39.6688C56.6626 39.8817 57.8025 40.4403 58.5492 41.2503L60.0197 39.8947C58.8668 38.6441 57.2377 37.9391 55.2583 37.6851L55.0038 39.6688ZM58.5547 41.2563C59.32 42.073 59.716 43.098 59.7092 44.4068L61.7091 44.4173C61.7184 42.6513 61.1646 41.1166 60.0142 39.8888L58.5547 41.2563ZM59.7092 44.4177C59.716 45.6149 59.3756 46.6524 58.6897 47.567L60.2897 48.767C61.2458 47.4922 61.7184 46.0263 61.7091 44.4063L59.7092 44.4177ZM58.6869 47.5708C57.9921 48.5063 57.0169 49.2664 55.7197 49.8349L56.5225 51.6667C58.0908 50.9795 59.3614 50.017 60.2925 48.7632L58.6869 47.5708ZM55.7197 49.8349C54.4346 50.398 52.9331 50.6926 51.195 50.6926V52.6926C53.1595 52.6926 54.9421 52.3592 56.5225 51.6667L55.7197 49.8349Z" fill="#155263"/>
<rect x="1.05273" y="0.854492" width="77" height="77" rx="38.5" stroke="#B3C1C6"/>
</svg>
