<svg width="79" height="79" viewBox="0 0 79 79" fill="none" xmlns="http://www.w3.org/2000/svg">
<path d="M28.8138 51.8978L28.81 52.8978H28.8138V51.8978ZM23.453 50.3644L22.8901 51.1909L22.8922 51.1924L23.453 50.3644ZM20.012 45.9575L19.0881 46.3402L19.0895 46.3435L20.012 45.9575ZM18.8287 39.015L19.8287 39.018V39.015H18.8287ZM20.0241 32.1208L19.1033 31.7307L19.1019 31.734L20.0241 32.1208ZM23.4651 27.7863L24.0188 28.6191L24.0198 28.6184L23.4651 27.7863ZM34.1505 27.7863L33.5937 28.617L33.5958 28.6184L34.1505 27.7863ZM37.6036 32.1329L36.6829 32.5231L36.6835 32.5245L37.6036 32.1329ZM38.7989 39.015L37.7989 39.012V39.015H38.7989ZM37.5915 45.9695L36.669 45.5836L36.6677 45.5869L37.5915 45.9695ZM34.1626 50.3765L34.7255 51.203V51.203L34.1626 50.3765ZM32.2066 45.4262L33.0666 45.9364L32.2066 45.4262ZM33.4623 39.015H32.4623L32.4623 39.0178L33.4623 39.015ZM32.8827 34.3303L31.9257 34.6205L31.9275 34.6262L32.8827 34.3303ZM31.2648 31.5171L30.593 32.2579L30.5973 32.2617L31.2648 31.5171ZM25.4332 32.6883L24.5757 32.1738L25.4332 32.6883ZM24.1533 39.015L23.1533 39.0121V39.015H24.1533ZM24.7208 43.7721L23.7623 44.0572L23.7645 44.0645L24.7208 43.7721ZM26.3508 46.6215L25.6785 47.3619L25.6832 47.3661L26.3508 46.6215ZM28.8177 50.8978C26.9093 50.8904 25.3231 50.4234 24.0139 49.5365L22.8922 51.1924C24.5772 52.3338 26.565 52.8891 28.81 52.8978L28.8177 50.8978ZM24.016 49.5379C22.7108 48.649 21.6767 47.3455 20.9345 45.5715L19.0895 46.3435C19.9571 48.417 21.2171 50.0515 22.8901 51.1909L24.016 49.5379ZM20.9359 45.5748C20.2023 43.8039 19.821 41.6279 19.8287 39.018L17.8288 39.012C17.8204 41.8112 18.2279 44.2635 19.0881 46.3402L20.9359 45.5748ZM19.8287 39.015C19.8287 36.4123 20.2139 34.2533 20.9462 32.5077L19.1019 31.734C18.2404 33.7876 17.8287 36.2247 17.8287 39.015H19.8287ZM20.9448 32.511C21.6854 30.7632 22.7167 29.4848 24.0188 28.6191L22.9114 26.9536C21.2353 28.068 19.9726 29.6792 19.1033 31.7307L20.9448 32.511ZM24.0198 28.6184C25.3291 27.7455 26.9122 27.2892 28.8138 27.2892V25.2892C26.5781 25.2892 24.5954 25.8309 22.9104 26.9543L24.0198 28.6184ZM28.8138 27.2892C30.7156 27.2892 32.2936 27.7455 33.5937 28.617L34.7073 26.9556C33.0292 25.8309 31.0494 25.2892 28.8138 25.2892V27.2892ZM33.5958 28.6184C34.9075 29.4928 35.9427 30.7762 36.6829 32.5231L38.5244 31.7428C37.6547 29.6903 36.3878 28.076 34.7052 26.9543L33.5958 28.6184ZM36.6835 32.5245C37.4215 34.2589 37.8067 36.4108 37.7989 39.012L39.7989 39.018C39.8072 36.2262 39.3955 33.79 38.5238 31.7413L36.6835 32.5245ZM37.7989 39.015C37.7989 41.6331 37.4099 43.8128 36.669 45.5836L38.514 46.3555C39.383 44.2787 39.7989 41.8221 39.7989 39.015H37.7989ZM36.6677 45.5869C35.9334 47.3594 34.9039 48.6617 33.5996 49.55L34.7255 51.203C36.3995 50.0629 37.6559 48.4272 38.5154 46.3522L36.6677 45.5869ZM33.5996 49.55C32.3008 50.4346 30.7213 50.8978 28.8138 50.8978V52.8978C31.0598 52.8978 33.0461 52.3468 34.7255 51.203L33.5996 49.55ZM28.8138 48.5633C30.649 48.5633 32.0775 47.6039 33.0666 45.9364L31.3465 44.916C30.6454 46.098 29.812 46.5633 28.8138 46.5633V48.5633ZM33.0666 45.9364C34.0485 44.2813 34.4705 41.9281 34.4623 39.0122L32.4623 39.0178C32.4701 41.8008 32.055 43.7217 31.3465 44.916L33.0666 45.9364ZM34.4623 39.015C34.4623 37.079 34.2638 35.4097 33.838 34.0345L31.9275 34.6262C32.2743 35.7462 32.4623 37.2001 32.4623 39.015H34.4623ZM33.8397 34.0402C33.4279 32.6822 32.8117 31.561 31.9324 30.7726L30.5973 32.2617C31.1185 32.729 31.5809 33.4832 31.9258 34.6205L33.8397 34.0402ZM31.9366 30.7764C31.0589 29.9803 30.0018 29.5754 28.8138 29.5754V31.5754C29.5094 31.5754 30.0863 31.7983 30.593 32.2579L31.9366 30.7764ZM28.8138 29.5754C26.99 29.5754 25.566 30.5232 24.5757 32.1738L26.2906 33.2028C26.9906 32.0362 27.8204 31.5754 28.8138 31.5754V29.5754ZM24.5757 32.1738C23.5932 33.8112 23.1616 36.1353 23.1533 39.0121L25.1533 39.0179C25.1612 36.2764 25.5827 34.3826 26.2906 33.2028L24.5757 32.1738ZM23.1533 39.015C23.1533 40.9733 23.3474 42.6625 23.7623 44.0572L25.6793 43.487C25.3375 42.3381 25.1533 40.856 25.1533 39.015H23.1533ZM23.7645 44.0645C24.1836 45.4352 24.8022 46.5661 25.6785 47.3619L27.023 45.8812C26.4987 45.4052 26.0307 44.6365 25.6771 43.4797L23.7645 44.0645ZM25.6832 47.3661C26.5672 48.1587 27.626 48.5633 28.8138 48.5633V46.5633C28.1181 46.5633 27.5349 46.3401 27.0183 45.877L25.6832 47.3661ZM42.5267 51.3545H41.5267C41.5267 51.9068 41.9744 52.3545 42.5267 52.3545V51.3545ZM42.5267 47.5874L41.8473 46.8537C41.6429 47.0429 41.5267 47.3089 41.5267 47.5874H42.5267ZM51.3286 39.4376L52.008 40.1714C52.0134 40.1664 52.0187 40.1613 52.024 40.1562L51.3286 39.4376ZM53.2121 37.4816L52.4647 36.8172L52.4595 36.8231L53.2121 37.4816ZM54.3833 35.7792L55.2854 36.2107L55.2878 36.2056L54.3833 35.7792ZM54.2867 32.0846L53.4372 32.6123L53.4409 32.6181L54.2867 32.0846ZM52.9344 30.8651L52.4821 31.7571L52.4922 31.7621L52.9344 30.8651ZM47.7064 32.2053L48.5881 32.6772L47.7064 32.2053ZM47.2476 34.2458V35.2458C47.7999 35.2458 48.2476 34.7981 48.2476 34.2458H47.2476ZM42.2852 34.2458H41.2852C41.2852 34.7981 41.733 35.2458 42.2852 35.2458V34.2458ZM43.384 30.032L44.2358 30.5558L43.384 30.032ZM46.4628 27.2671L46.02 26.3705V26.3705L46.4628 27.2671ZM55.651 27.2309L55.2193 28.133L55.226 28.1361L55.651 27.2309ZM58.7298 29.8147L57.8969 30.368V30.368L58.7298 29.8147ZM59.2732 36.3708L58.3469 35.9938L58.3441 36.0009L59.2732 36.3708ZM57.3293 39.4014L58.0925 40.0476L58.0948 40.0448L57.3293 39.4014ZM53.3811 43.3737L52.7081 42.634C52.699 42.6423 52.69 42.6508 52.6812 42.6594L53.3811 43.3737ZM49.771 46.9113L49.0711 46.1971C48.8792 46.3852 48.771 46.6426 48.771 46.9113H49.771ZM49.771 47.0803H48.771C48.771 47.6326 49.2188 48.0803 49.771 48.0803V47.0803ZM60.1546 47.0803H61.1546C61.1546 46.5281 60.7068 46.0803 60.1546 46.0803V47.0803ZM60.1546 51.3545V52.3545C60.7068 52.3545 61.1546 51.9068 61.1546 51.3545H60.1546ZM43.5267 51.3545V47.5874H41.5267V51.3545H43.5267ZM43.2061 48.3212L52.008 40.1714L50.6492 38.7038L41.8473 46.8537L43.2061 48.3212ZM52.024 40.1562C52.786 39.4187 53.4343 38.7463 53.9647 38.1401L52.4595 36.8231C51.9757 37.3761 51.3683 38.0076 50.6331 38.719L52.024 40.1562ZM53.9595 38.146C54.5215 37.5137 54.9705 36.8691 55.2854 36.2107L53.4811 35.3478C53.2648 35.8001 52.9329 36.2905 52.4647 36.8173L53.9595 38.146ZM55.2878 36.2056C55.6192 35.5026 55.7817 34.7484 55.7817 33.9561H53.7817C53.7817 34.4677 53.6785 34.9289 53.4787 35.3528L55.2878 36.2056ZM55.7817 33.9561C55.7817 33.0756 55.5794 32.2597 55.1325 31.5511L53.4409 32.6181C53.6539 32.9559 53.7817 33.3876 53.7817 33.9561H55.7817ZM55.1361 31.5569C54.7056 30.8638 54.1123 30.3309 53.3765 29.9682L52.4922 31.7621C52.8995 31.9628 53.2077 32.2429 53.4372 32.6123L55.1361 31.5569ZM53.3866 29.9732C52.6576 29.6036 51.8514 29.4305 50.9905 29.4305V31.4305C51.5785 31.4305 52.0682 31.5471 52.4822 31.757L53.3866 29.9732ZM50.9905 29.4305C50.0973 29.4305 49.2675 29.6119 48.5333 30.0104L49.4875 31.7681C49.8802 31.555 50.3705 31.4305 50.9905 31.4305V29.4305ZM48.5333 30.0104C47.7961 30.4106 47.2217 30.9917 46.8247 31.7335L48.5881 32.6772C48.8028 32.276 49.0978 31.9797 49.4875 31.7681L48.5333 30.0104ZM46.8247 31.7335C46.4261 32.4784 46.2476 33.3277 46.2476 34.2458H48.2476C48.2476 33.5863 48.375 33.0753 48.5881 32.6772L46.8247 31.7335ZM47.2476 33.2458H42.2852V35.2458H47.2476V33.2458ZM43.2852 34.2458C43.2852 32.7833 43.6146 31.5662 44.2358 30.5558L42.5321 29.5083C41.6884 30.8805 41.2852 32.4725 41.2852 34.2458H43.2852ZM44.2358 30.5558C44.8644 29.5335 45.7449 28.737 46.9056 28.1637L46.02 26.3705C44.5405 27.1012 43.3685 28.1481 42.5321 29.5083L44.2358 30.5558ZM46.9056 28.1637C48.0664 27.5904 49.4318 27.2892 51.0267 27.2892V25.2892C49.1766 25.2892 47.4993 25.6399 46.02 26.3705L46.9056 28.1637ZM51.0267 27.2892C52.6801 27.2892 54.0682 27.5821 55.2194 28.133L56.0827 26.3289C54.6098 25.6241 52.915 25.2892 51.0267 25.2892V27.2892ZM55.226 28.1361C56.3978 28.6863 57.2757 29.4329 57.8969 30.368L59.5628 29.2614C58.719 27.991 57.5444 27.0151 56.076 26.3257L55.226 28.1361ZM57.8969 30.368C58.5121 31.2942 58.8286 32.3623 58.8286 33.6059H60.8286C60.8286 32.0001 60.4126 30.5408 59.5628 29.2614L57.8969 30.368ZM58.8286 33.6059C58.8286 34.4037 58.6711 35.1977 58.347 35.9938L60.1994 36.7479C60.6158 35.7249 60.8286 34.6755 60.8286 33.6059H58.8286ZM58.3441 36.0009C58.0356 36.7756 57.4586 37.6934 56.5638 38.7579L58.0948 40.0448C59.0674 38.8877 59.7863 37.7852 60.2022 36.7408L58.3441 36.0009ZM56.5661 38.7552C55.6717 39.8115 54.3907 41.1029 52.7081 42.634L54.0541 44.1133C55.7683 42.5535 57.1194 41.1967 58.0925 40.0476L56.5661 38.7552ZM52.6812 42.6594L49.0711 46.1971L50.4709 47.6255L54.081 44.0879L52.6812 42.6594ZM48.771 46.9113V47.0803H50.771V46.9113H48.771ZM49.771 48.0803H60.1546V46.0803H49.771V48.0803ZM59.1546 47.0803V51.3545H61.1546V47.0803H59.1546ZM60.1546 50.3545H42.5267V52.3545H60.1546V50.3545Z" fill="#155263"/>
<rect x="1.02637" y="0.854492" width="77" height="77" rx="38.5" stroke="#B3C1C6"/>
</svg>
