<svg width="79" height="79" viewBox="0 0 79 79" fill="none" xmlns="http://www.w3.org/2000/svg">
<path d="M28.0536 51.8978L28.0497 52.8978H28.0536V51.8978ZM22.6928 50.3644L22.1299 51.1909L22.1319 51.1924L22.6928 50.3644ZM19.2517 45.9575L18.3278 46.3402L18.3292 46.3435L19.2517 45.9575ZM18.0685 39.015L19.0685 39.018V39.015H18.0685ZM19.2638 32.1208L18.343 31.7307L18.3417 31.734L19.2638 32.1208ZM22.7049 27.7863L23.2585 28.6191L23.2596 28.6184L22.7049 27.7863ZM33.3902 27.7863L32.8335 28.617L32.8355 28.6184L33.3902 27.7863ZM36.8434 32.1329L35.9226 32.5231L35.9232 32.5245L36.8434 32.1329ZM38.0387 39.015L37.0387 39.012V39.015H38.0387ZM36.8313 45.9695L35.9088 45.5836L35.9074 45.5869L36.8313 45.9695ZM33.4023 50.3765L33.9652 51.203V51.203L33.4023 50.3765ZM31.4463 45.4262L32.3064 45.9364L31.4463 45.4262ZM32.702 39.015H31.702L31.702 39.0178L32.702 39.015ZM32.1225 34.3303L31.1655 34.6205L31.1672 34.6262L32.1225 34.3303ZM30.5046 31.5171L29.8327 32.2579L29.837 32.2617L30.5046 31.5171ZM24.6729 32.6883L23.8154 32.1738L24.6729 32.6883ZM23.3931 39.015L22.3931 39.0121V39.015H23.3931ZM23.9605 43.7721L23.002 44.0572L23.0042 44.0645L23.9605 43.7721ZM25.5905 46.6215L24.9182 47.3619L24.923 47.3661L25.5905 46.6215ZM28.0575 50.8978C26.149 50.8904 24.5629 50.4234 23.2536 49.5365L22.1319 51.1924C23.817 52.3338 25.8047 52.8891 28.0497 52.8978L28.0575 50.8978ZM23.2557 49.5379C21.9505 48.649 20.9165 47.3455 20.1742 45.5715L18.3292 46.3435C19.1968 48.417 20.4568 50.0515 22.1299 51.1909L23.2557 49.5379ZM20.1756 45.5748C19.442 43.8039 19.0607 41.6279 19.0685 39.018L17.0685 39.012C17.0602 41.8112 17.4677 44.2635 18.3279 46.3402L20.1756 45.5748ZM19.0685 39.015C19.0685 36.4123 19.4537 34.2533 20.186 32.5077L18.3417 31.734C17.4802 33.7876 17.0685 36.2247 17.0685 39.015H19.0685ZM20.1846 32.511C20.9251 30.7632 21.9564 29.4848 23.2585 28.6191L22.1512 26.9536C20.4751 28.068 19.2123 29.6792 18.3431 31.7307L20.1846 32.511ZM23.2596 28.6184C24.5689 27.7455 26.152 27.2892 28.0536 27.2892V25.2892C25.8179 25.2892 23.8352 25.8309 22.1502 26.9543L23.2596 28.6184ZM28.0536 27.2892C29.9553 27.2892 31.5333 27.7455 32.8335 28.617L33.947 26.9556C32.2689 25.8309 30.2891 25.2892 28.0536 25.2892V27.2892ZM32.8355 28.6184C34.1472 29.4928 35.1824 30.7762 35.9226 32.5231L37.7641 31.7428C36.8944 29.6903 35.6275 28.076 33.9449 26.9543L32.8355 28.6184ZM35.9232 32.5245C36.6613 34.2589 37.0464 36.4108 37.0387 39.012L39.0387 39.018C39.047 36.2262 38.6353 33.79 37.7635 31.7413L35.9232 32.5245ZM37.0387 39.015C37.0387 41.6331 36.6497 43.8128 35.9088 45.5836L37.7538 46.3555C38.6227 44.2787 39.0387 41.8221 39.0387 39.015H37.0387ZM35.9074 45.5869C35.1732 47.3594 34.1436 48.6617 32.8394 49.55L33.9652 51.203C35.6392 50.0629 36.8956 48.4272 37.7552 46.3522L35.9074 45.5869ZM32.8394 49.55C31.5405 50.4346 29.961 50.8978 28.0536 50.8978V52.8978C30.2995 52.8978 32.2858 52.3468 33.9652 51.203L32.8394 49.55ZM28.0536 48.5633C29.8888 48.5633 31.3172 47.6039 32.3064 45.9364L30.5863 44.916C29.8851 46.098 29.0517 46.5633 28.0536 46.5633V48.5633ZM32.3064 45.9364C33.2882 44.2813 33.7102 41.9281 33.702 39.0122L31.702 39.0178C31.7099 41.8008 31.2948 43.7217 30.5863 44.916L32.3064 45.9364ZM33.702 39.015C33.702 37.079 33.5036 35.4097 33.0777 34.0345L31.1672 34.6262C31.5141 35.7462 31.702 37.2001 31.702 39.015H33.702ZM33.0794 34.0402C32.6677 32.6822 32.0515 31.561 31.1721 30.7726L29.837 32.2617C30.3582 32.729 30.8206 33.4832 31.1655 34.6205L33.0794 34.0402ZM31.1764 30.7764C30.2986 29.9803 29.2416 29.5754 28.0536 29.5754V31.5754C28.7491 31.5754 29.3261 31.7983 29.8328 32.2579L31.1764 30.7764ZM28.0536 29.5754C26.2298 29.5754 24.8058 30.5232 23.8154 32.1738L25.5304 33.2028C26.2304 32.0362 27.0602 31.5754 28.0536 31.5754V29.5754ZM23.8154 32.1738C22.833 33.8112 22.4013 36.1353 22.3931 39.0121L24.3931 39.0179C24.4009 36.2764 24.8225 34.3826 25.5304 33.2028L23.8154 32.1738ZM22.3931 39.015C22.3931 40.9733 22.5872 42.6625 23.002 44.0572L24.919 43.487C24.5773 42.3381 24.3931 40.856 24.3931 39.015H22.3931ZM23.0042 44.0645C23.4233 45.4352 24.042 46.5661 24.9183 47.3619L26.2628 45.8812C25.7385 45.4052 25.2705 44.6365 24.9168 43.4797L23.0042 44.0645ZM24.923 47.3661C25.807 48.1587 26.8658 48.5633 28.0536 48.5633V46.5633C27.3578 46.5633 26.7746 46.3401 26.2581 45.877L24.923 47.3661ZM41.3922 47.0079H40.3922C40.3922 47.5602 40.8399 48.0079 41.3922 48.0079V47.0079ZM41.3922 42.8907L40.5479 42.3548C40.4462 42.515 40.3922 42.7009 40.3922 42.8907H41.3922ZM51.7153 26.6272V25.6272C51.373 25.6272 51.0545 25.8023 50.8711 26.0913L51.7153 26.6272ZM55.265 26.6272H56.265C56.265 26.0749 55.8173 25.6272 55.265 25.6272V26.6272ZM55.265 32.3261V33.3261C55.8173 33.3261 56.265 32.8784 56.265 32.3261H55.265ZM53.1642 32.3261V31.3261C52.8212 31.3261 52.5021 31.5019 52.3188 31.7919L53.1642 32.3261ZM46.6564 42.6251L45.811 42.0909C45.71 42.2508 45.6564 42.436 45.6564 42.6251H46.6564ZM46.6564 42.8183H45.6564C45.6564 43.3706 46.1041 43.8183 46.6564 43.8183V42.8183ZM61.3261 42.8183H62.3261C62.3261 42.266 61.8784 41.8183 61.3261 41.8183V42.8183ZM61.3261 47.0079V48.0079C61.8784 48.0079 62.3261 47.5602 62.3261 47.0079H61.3261ZM53.2608 51.3545H52.2608C52.2608 51.9068 52.7085 52.3545 53.2608 52.3545V51.3545ZM53.2608 45.7522L52.2622 45.6993C52.2613 45.7169 52.2608 45.7346 52.2608 45.7522H53.2608ZM53.3574 43.9291L54.356 43.982C54.3569 43.9644 54.3574 43.9467 54.3574 43.9291H53.3574ZM53.3574 26.6272V25.6272C52.8051 25.6272 52.3574 26.0749 52.3574 26.6272H53.3574ZM58.2594 26.6272H59.2594C59.2594 26.0749 58.8117 25.6272 58.2594 25.6272V26.6272ZM58.2594 51.3545V52.3545C58.8117 52.3545 59.2594 51.9068 59.2594 51.3545H58.2594ZM42.3922 47.0079V42.8907H40.3922V47.0079H42.3922ZM42.2365 43.4266L52.5596 27.1631L50.8711 26.0913L40.5479 42.3548L42.2365 43.4266ZM51.7153 27.6272H55.265V25.6272H51.7153V27.6272ZM54.265 26.6272V32.3261H56.265V26.6272H54.265ZM55.265 31.3261H53.1642V33.3261H55.265V31.3261ZM52.3188 31.7919L45.811 42.0909L47.5018 43.1593L54.0096 32.8603L52.3188 31.7919ZM45.6564 42.6251V42.8183H47.6564V42.6251H45.6564ZM46.6564 43.8183H61.3261V41.8183H46.6564V43.8183ZM60.3261 42.8183V47.0079H62.3261V42.8183H60.3261ZM61.3261 46.0079H41.3922V48.0079H61.3261V46.0079ZM54.2608 51.3545V45.7522H52.2608V51.3545H54.2608ZM54.2594 45.8051L54.356 43.982L52.3588 43.8762L52.2622 45.6993L54.2594 45.8051ZM54.3574 43.9291V26.6272H52.3574V43.9291H54.3574ZM53.3574 27.6272H58.2594V25.6272H53.3574V27.6272ZM57.2594 26.6272V51.3545H59.2594V26.6272H57.2594ZM58.2594 50.3545H53.2608V52.3545H58.2594V50.3545Z" fill="#155263"/>
<rect x="1.07959" y="0.854492" width="77" height="77" rx="38.5" stroke="#B3C1C6"/>
</svg>
