<svg width="79" height="79" viewBox="0 0 79 79" fill="none" xmlns="http://www.w3.org/2000/svg">
<path d="M28.6444 51.8978L28.6405 52.8978H28.6444V51.8978ZM23.2836 50.3644L22.7207 51.1909L22.7228 51.1924L23.2836 50.3644ZM19.8426 45.9575L18.9187 46.3402L18.92 46.3435L19.8426 45.9575ZM18.6593 39.015L19.6593 39.018V39.015H18.6593ZM19.8546 32.1208L18.9339 31.7307L18.9325 31.734L19.8546 32.1208ZM23.2957 27.7863L23.8493 28.6191L23.8504 28.6184L23.2957 27.7863ZM33.981 27.7863L33.4243 28.617L33.4263 28.6184L33.981 27.7863ZM37.4342 32.1329L36.5134 32.5231L36.514 32.5245L37.4342 32.1329ZM38.6295 39.015L37.6295 39.012V39.015H38.6295ZM37.4221 45.9695L36.4996 45.5836L36.4982 45.5869L37.4221 45.9695ZM33.9931 50.3765L34.556 51.203V51.203L33.9931 50.3765ZM32.0372 45.4262L32.8972 45.9364L32.0372 45.4262ZM33.2928 39.015H32.2928L32.2928 39.0178L33.2928 39.015ZM32.7133 34.3303L31.7563 34.6205L31.758 34.6262L32.7133 34.3303ZM31.0954 31.5171L30.4236 32.2579L30.4278 32.2617L31.0954 31.5171ZM25.2637 32.6883L24.4062 32.1738L25.2637 32.6883ZM23.9839 39.015L22.9839 39.0121V39.015H23.9839ZM24.5514 43.7721L23.5928 44.0572L23.5951 44.0645L24.5514 43.7721ZM26.1813 46.6215L25.5091 47.3619L25.5138 47.3661L26.1813 46.6215ZM28.6483 50.8978C26.7399 50.8904 25.1537 50.4234 23.8445 49.5365L22.7228 51.1924C24.4078 52.3338 26.3955 52.8891 28.6405 52.8978L28.6483 50.8978ZM23.8465 49.5379C22.5413 48.649 21.5073 47.3455 20.7651 45.5715L18.92 46.3435C19.7876 48.417 21.0476 50.0515 22.7207 51.1909L23.8465 49.5379ZM20.7664 45.5748C20.0329 43.8039 19.6515 41.6279 19.6593 39.018L17.6593 39.012C17.651 41.8112 18.0585 44.2635 18.9187 46.3402L20.7664 45.5748ZM19.6593 39.015C19.6593 36.4123 20.0445 34.2533 20.7768 32.5077L18.9325 31.734C18.071 33.7876 17.6593 36.2247 17.6593 39.015H19.6593ZM20.7754 32.511C21.516 30.7632 22.5472 29.4848 23.8493 28.6191L22.742 26.9536C21.0659 28.068 19.8031 29.6792 18.9339 31.7307L20.7754 32.511ZM23.8504 28.6184C25.1597 27.7455 26.7428 27.2892 28.6444 27.2892V25.2892C26.4087 25.2892 24.426 25.8309 22.741 26.9543L23.8504 28.6184ZM28.6444 27.2892C30.5462 27.2892 32.1241 27.7455 33.4243 28.617L34.5378 26.9556C32.8597 25.8309 30.88 25.2892 28.6444 25.2892V27.2892ZM33.4263 28.6184C34.7381 29.4928 35.7732 30.7762 36.5134 32.5231L38.3549 31.7428C37.4853 29.6903 36.2183 28.076 34.5357 26.9543L33.4263 28.6184ZM36.514 32.5245C37.2521 34.2589 37.6373 36.4108 37.6295 39.012L39.6295 39.018C39.6378 36.2262 39.2261 33.79 38.3543 31.7413L36.514 32.5245ZM37.6295 39.015C37.6295 41.6331 37.2405 43.8128 36.4996 45.5836L38.3446 46.3555C39.2136 44.2787 39.6295 41.8221 39.6295 39.015H37.6295ZM36.4982 45.5869C35.764 47.3594 34.7344 48.6617 33.4302 49.55L34.556 51.203C36.23 50.0629 37.4865 48.4272 38.346 46.3522L36.4982 45.5869ZM33.4302 49.55C32.1314 50.4346 30.5519 50.8978 28.6444 50.8978V52.8978C30.8903 52.8978 32.8767 52.3468 34.556 51.203L33.4302 49.55ZM28.6444 48.5633C30.4796 48.5633 31.908 47.6039 32.8972 45.9364L31.1771 44.916C30.4759 46.098 29.6425 46.5633 28.6444 46.5633V48.5633ZM32.8972 45.9364C33.8791 44.2813 34.3011 41.9281 34.2928 39.0122L32.2928 39.0178C32.3007 41.8008 31.8856 43.7217 31.1771 44.916L32.8972 45.9364ZM34.2928 39.015C34.2928 37.079 34.0944 35.4097 33.6685 34.0345L31.758 34.6262C32.1049 35.7462 32.2928 37.2001 32.2928 39.015H34.2928ZM33.6703 34.0402C33.2585 32.6822 32.6423 31.561 31.7629 30.7726L30.4278 32.2617C30.9491 32.729 31.4115 33.4832 31.7563 34.6205L33.6703 34.0402ZM31.7672 30.7764C30.8894 29.9803 29.8324 29.5754 28.6444 29.5754V31.5754C29.3399 31.5754 29.9169 31.7983 30.4236 32.2579L31.7672 30.7764ZM28.6444 29.5754C26.8206 29.5754 25.3966 30.5232 24.4062 32.1738L26.1212 33.2028C26.8212 32.0362 27.651 31.5754 28.6444 31.5754V29.5754ZM24.4062 32.1738C23.4238 33.8112 22.9921 36.1353 22.9839 39.0121L24.9839 39.0179C24.9917 36.2764 25.4133 34.3826 26.1212 33.2028L24.4062 32.1738ZM22.9839 39.015C22.9839 40.9733 23.178 42.6625 23.5929 44.0572L25.5098 43.487C25.1681 42.3381 24.9839 40.856 24.9839 39.015H22.9839ZM23.5951 44.0645C24.0141 45.4352 24.6328 46.5661 25.5091 47.3619L26.8536 45.8812C26.3293 45.4052 25.8613 44.6365 25.5077 43.4797L23.5951 44.0645ZM25.5138 47.3661C26.3978 48.1587 27.4566 48.5633 28.6444 48.5633V46.5633C27.9487 46.5633 27.3654 46.3401 26.8489 45.877L25.5138 47.3661ZM46.8246 50.7508L46.3972 51.6549L46.3993 51.6559L46.8246 50.7508ZM43.6613 48.1549L44.4774 47.5771L43.6613 48.1549ZM42.4418 44.3637V43.3637C42.1727 43.3637 41.9149 43.4722 41.7268 43.6647C41.5386 43.8571 41.436 44.1173 41.4421 44.3863L42.4418 44.3637ZM47.5128 44.3637L48.5111 44.305C48.48 43.7764 48.0423 43.3637 47.5128 43.3637V44.3637ZM48.7202 46.694L49.3429 45.9115L48.7202 46.694ZM53.5618 47.0441L54.0616 47.9103L54.065 47.9083L53.5618 47.0441ZM55.0469 45.5107L54.1702 45.0296L54.1682 45.0334L55.0469 45.5107ZM55.0348 40.9468L54.1581 41.4279L54.1627 41.4361L55.0348 40.9468ZM53.5256 39.4014L53.0271 40.2683V40.2683L53.5256 39.4014ZM51.3161 38.8339L51.3258 37.8339H51.3161V38.8339ZM49.2032 39.2806L48.804 38.3637L48.8001 38.3655L49.2032 39.2806ZM47.6215 40.5001L47.4451 41.4844C47.8206 41.5517 48.2017 41.3995 48.4275 41.092L47.6215 40.5001ZM42.9731 39.667L41.9771 39.5775C41.9307 40.0938 42.2865 40.5599 42.7966 40.6513L42.9731 39.667ZM44.1442 26.6272V25.6272C43.6266 25.6272 43.1945 26.0222 43.1482 26.5378L44.1442 26.6272ZM59.2607 26.6272H60.2607C60.2607 26.0749 59.813 25.6272 59.2607 25.6272V26.6272ZM59.2607 30.9014V31.9014C59.813 31.9014 60.2607 31.4537 60.2607 30.9014H59.2607ZM48.4546 30.9014V29.9014C47.9421 29.9014 47.5126 30.2888 47.4599 30.7986L48.4546 30.9014ZM47.8147 37.0953L46.82 36.9925C46.7909 37.2741 46.8825 37.5548 47.0721 37.765C47.2617 37.9753 47.5316 38.0953 47.8147 38.0953V37.0953ZM47.9596 37.0953V38.0953C48.2834 38.0953 48.5872 37.9384 48.7747 37.6745L47.9596 37.0953ZM49.9276 35.574L50.3445 36.4829L49.9276 35.574ZM56.858 36.0207L57.3725 35.1632L56.858 36.0207ZM59.6229 38.9063L58.7477 39.39L58.749 39.3925L59.6229 38.9063ZM60.625 43.108L59.625 43.103L59.6251 43.1129L60.625 43.108ZM59.466 47.5512L58.6094 47.0352L58.6085 47.0367L59.466 47.5512ZM56.2181 50.5938L56.6857 51.4778L56.6876 51.4768L56.2181 50.5938ZM51.3885 50.6926C49.8063 50.6926 48.4338 50.402 47.2499 49.8457L46.3993 51.6559C47.8878 52.3553 49.5579 52.6926 51.3885 52.6926V50.6926ZM47.252 49.8467C46.0654 49.2858 45.1503 48.5274 44.4774 47.5771L42.8451 48.7328C43.7338 49.988 44.9276 50.9601 46.3972 51.6549L47.252 49.8467ZM44.4774 47.5771C43.8183 46.6461 43.4695 45.5781 43.4416 44.3411L41.4421 44.3863C41.4785 45.9988 41.9427 47.4582 42.8451 48.7328L44.4774 47.5771ZM42.4418 45.3637H47.5128V43.3637H42.4418V45.3637ZM46.5146 44.4224C46.5875 45.663 47.1259 46.7033 48.0976 47.4765L49.3429 45.9115C48.8174 45.4934 48.5508 44.9802 48.5111 44.305L46.5146 44.4224ZM48.0976 47.4765C49.0372 48.2241 50.1507 48.5874 51.3885 48.5874V46.5874C50.5658 46.5874 49.9004 46.3551 49.3429 45.9115L48.0976 47.4765ZM51.3885 48.5874C52.3613 48.5874 53.2625 48.3713 54.0616 47.9103L53.0621 46.1779C52.6055 46.4414 52.0578 46.5874 51.3885 46.5874V48.5874ZM54.065 47.9083C54.8605 47.4451 55.4848 46.7995 55.9256 45.9881L54.1682 45.0334C53.9007 45.5259 53.5349 45.9026 53.0586 46.1799L54.065 47.9083ZM55.9236 45.9918C56.377 45.1656 56.5902 44.2395 56.5902 43.2409H54.5902C54.5902 43.9486 54.4413 44.5358 54.1703 45.0296L55.9236 45.9918ZM56.5902 43.2409C56.5902 42.226 56.3729 41.288 55.907 40.4576L54.1627 41.4361C54.4374 41.9257 54.5902 42.5171 54.5902 43.2409H56.5902ZM55.9115 40.4657C55.4623 39.6471 54.8294 38.9975 54.0241 38.5345L53.0271 40.2683C53.5097 40.5458 53.883 40.9264 54.1582 41.4279L55.9115 40.4657ZM54.0241 38.5345C53.2146 38.069 52.3062 37.8435 51.3258 37.8339L51.3064 39.8338C51.9842 39.8404 52.5487 39.9932 53.0271 40.2683L54.0241 38.5345ZM51.3161 37.8339C50.4502 37.8339 49.6103 38.0128 48.8041 38.3637L49.6023 40.1975C50.1644 39.9528 50.7332 39.8339 51.3161 39.8339V37.8339ZM48.8001 38.3655C47.9889 38.7228 47.3127 39.2311 46.8155 39.9082L48.4275 41.092C48.6869 40.7388 49.0651 40.4341 49.6063 40.1958L48.8001 38.3655ZM47.7979 39.5158L43.1495 38.6827L42.7966 40.6513L47.4451 41.4844L47.7979 39.5158ZM43.969 39.7564L45.1402 26.7167L43.1482 26.5378L41.9771 39.5775L43.969 39.7564ZM44.1442 27.6272H59.2607V25.6272H44.1442V27.6272ZM58.2607 26.6272V30.9014H60.2607V26.6272H58.2607ZM59.2607 29.9014H48.4546V31.9014H59.2607V29.9014ZM47.4599 30.7986L46.82 36.9925L48.8094 37.198L49.4493 31.0041L47.4599 30.7986ZM47.8147 38.0953H47.9596V36.0953H47.8147V38.0953ZM48.7747 37.6745C49.0828 37.241 49.5819 36.8327 50.3445 36.4829L49.5107 34.665C48.5186 35.1201 47.7057 35.7261 47.1444 36.5161L48.7747 37.6745ZM50.3445 36.4829C51.0756 36.1476 51.9127 35.9703 52.8736 35.9703V33.9703C51.6612 33.9703 50.5344 34.1954 49.5107 34.665L50.3445 36.4829ZM52.8736 35.9703C54.1991 35.9703 55.3462 36.2798 56.3435 36.8782L57.3725 35.1632C56.0355 34.361 54.5264 33.9703 52.8736 33.9703V35.9703ZM56.3435 36.8782C57.3553 37.4853 58.1543 38.3164 58.7477 39.39L60.4982 38.4227C59.7392 37.0493 58.6949 35.9567 57.3725 35.1632L56.3435 36.8782ZM58.749 39.3925C59.3305 40.4377 59.6324 41.6647 59.6251 43.103L61.625 43.1131C61.6338 41.38 61.2676 39.8058 60.4968 38.4202L58.749 39.3925ZM59.6251 43.1129C59.6323 44.6147 59.286 45.9121 58.6094 47.0352L60.3225 48.0673C61.2074 46.5985 61.6339 44.9337 61.625 43.1032L59.6251 43.1129ZM58.6085 47.0367C57.934 48.1609 56.9891 49.0512 55.7486 49.7109L56.6876 51.4768C58.2321 50.6554 59.4525 49.5173 60.3234 48.0657L58.6085 47.0367ZM55.7504 49.7099C54.5329 50.3541 53.0888 50.6926 51.3885 50.6926V52.6926C53.3588 52.6926 55.1343 52.2986 56.6857 51.4778L55.7504 49.7099Z" fill="#155263"/>
<rect x="1.10596" y="0.854492" width="77" height="77" rx="38.5" stroke="#B3C1C6"/>
</svg>
