<svg width="79" height="79" viewBox="0 0 79 79" fill="none" xmlns="http://www.w3.org/2000/svg">
<path d="M28.4051 51.8978L28.4013 52.8978H28.4051V51.8978ZM23.0443 50.3644L22.4814 51.1909L22.4835 51.1924L23.0443 50.3644ZM19.6033 45.9575L18.6794 46.3402L18.6808 46.3435L19.6033 45.9575ZM18.4201 39.015L19.4201 39.018V39.015H18.4201ZM19.6154 32.1208L18.6946 31.7307L18.6932 31.734L19.6154 32.1208ZM23.0564 27.7863L23.6101 28.6191L23.6111 28.6184L23.0564 27.7863ZM33.7418 27.7863L33.185 28.617L33.1871 28.6184L33.7418 27.7863ZM37.1949 32.1329L36.2742 32.5231L36.2748 32.5245L37.1949 32.1329ZM38.3902 39.015L37.3902 39.012V39.015H38.3902ZM37.1828 45.9695L36.2603 45.5836L36.259 45.5869L37.1828 45.9695ZM33.7539 50.3765L34.3168 51.203V51.203L33.7539 50.3765ZM31.7979 45.4262L32.658 45.9364L31.7979 45.4262ZM33.0536 39.015H32.0536L32.0536 39.0178L33.0536 39.015ZM32.474 34.3303L31.517 34.6205L31.5188 34.6262L32.474 34.3303ZM30.8561 31.5171L30.1843 32.2579L30.1886 32.2617L30.8561 31.5171ZM25.0245 32.6883L24.167 32.1738L25.0245 32.6883ZM23.7446 39.015L22.7446 39.0121V39.015H23.7446ZM24.3121 43.7721L23.3536 44.0572L23.3558 44.0645L24.3121 43.7721ZM25.9421 46.6215L25.2698 47.3619L25.2745 47.3661L25.9421 46.6215ZM28.409 50.8978C26.5006 50.8904 24.9145 50.4234 23.6052 49.5365L22.4835 51.1924C24.1686 52.3338 26.1563 52.8891 28.4013 52.8978L28.409 50.8978ZM23.6073 49.5379C22.3021 48.649 21.2681 47.3455 20.5258 45.5715L18.6808 46.3435C19.5484 48.417 20.8084 50.0515 22.4814 51.1909L23.6073 49.5379ZM20.5272 45.5748C19.7936 43.8039 19.4123 41.6279 19.4201 39.018L17.4201 39.012C17.4117 41.8112 17.8192 44.2635 18.6794 46.3402L20.5272 45.5748ZM19.4201 39.015C19.4201 36.4123 19.8052 34.2533 20.5375 32.5077L18.6932 31.734C17.8317 33.7876 17.4201 36.2247 17.4201 39.015H19.4201ZM20.5361 32.511C21.2767 30.7632 22.308 29.4848 23.6101 28.6191L22.5028 26.9536C20.8266 28.068 19.5639 29.6792 18.6946 31.7307L20.5361 32.511ZM23.6111 28.6184C24.9204 27.7455 26.5035 27.2892 28.4051 27.2892V25.2892C26.1694 25.2892 24.1867 25.8309 22.5017 26.9543L23.6111 28.6184ZM28.4051 27.2892C30.3069 27.2892 31.8849 27.7455 33.185 28.617L34.2986 26.9556C32.6205 25.8309 30.6407 25.2892 28.4051 25.2892V27.2892ZM33.1871 28.6184C34.4988 29.4928 35.534 30.7762 36.2742 32.5231L38.1157 31.7428C37.246 29.6903 35.9791 28.076 34.2965 26.9543L33.1871 28.6184ZM36.2748 32.5245C37.0128 34.2589 37.398 36.4108 37.3902 39.012L39.3902 39.018C39.3986 36.2262 38.9868 33.79 38.1151 31.7413L36.2748 32.5245ZM37.3902 39.015C37.3902 41.6331 37.0012 43.8128 36.2603 45.5836L38.1053 46.3555C38.9743 44.2787 39.3902 41.8221 39.3902 39.015H37.3902ZM36.259 45.5869C35.5247 47.3594 34.4952 48.6617 33.1909 49.55L34.3168 51.203C35.9908 50.0629 37.2472 48.4272 38.1067 46.3522L36.259 45.5869ZM33.1909 49.55C31.8921 50.4346 30.3126 50.8978 28.4051 50.8978V52.8978C30.6511 52.8978 32.6374 52.3468 34.3168 51.203L33.1909 49.55ZM28.4051 48.5633C30.2403 48.5633 31.6688 47.6039 32.658 45.9364L30.9378 44.916C30.2367 46.098 29.4033 46.5633 28.4051 46.5633V48.5633ZM32.658 45.9364C33.6398 44.2813 34.0618 41.9281 34.0536 39.0122L32.0536 39.0178C32.0614 41.8008 31.6463 43.7217 30.9378 44.916L32.658 45.9364ZM34.0536 39.015C34.0536 37.079 33.8551 35.4097 33.4293 34.0345L31.5188 34.6262C31.8657 35.7462 32.0536 37.2001 32.0536 39.015H34.0536ZM33.431 34.0402C33.0192 32.6822 32.403 31.561 31.5237 30.7726L30.1886 32.2617C30.7098 32.729 31.1722 33.4832 31.5171 34.6205L33.431 34.0402ZM31.5279 30.7764C30.6502 29.9803 29.5931 29.5754 28.4051 29.5754V31.5754C29.1007 31.5754 29.6776 31.7983 30.1843 32.2579L31.5279 30.7764ZM28.4051 29.5754C26.5813 29.5754 25.1573 30.5232 24.167 32.1738L25.882 33.2028C26.5819 32.0362 27.4117 31.5754 28.4051 31.5754V29.5754ZM24.167 32.1738C23.1845 33.8112 22.7529 36.1353 22.7446 39.0121L24.7446 39.0179C24.7525 36.2764 25.174 34.3826 25.882 33.2028L24.167 32.1738ZM22.7446 39.015C22.7446 40.9733 22.9387 42.6625 23.3536 44.0572L25.2706 43.487C24.9288 42.3381 24.7446 40.856 24.7446 39.015H22.7446ZM23.3558 44.0645C23.7749 45.4352 24.3935 46.5661 25.2698 47.3619L26.6143 45.8812C26.0901 45.4052 25.6221 44.6365 25.2684 43.4797L23.3558 44.0645ZM25.2745 47.3661C26.1585 48.1587 27.2174 48.5633 28.4051 48.5633V46.5633C27.7094 46.5633 27.1262 46.3401 26.6096 45.877L25.2745 47.3661ZM51.6081 51.6926L51.6018 52.6925L51.6037 52.6926L51.6081 51.6926ZM47.9256 51.0526L47.59 51.9947L47.5921 51.9954L47.9256 51.0526ZM44.7622 49.0122L44.0521 49.7162L44.7622 49.0122ZM42.5406 45.2693L41.5959 45.5972L41.5974 45.6016L42.5406 45.2693ZM41.7317 39.5463L40.7317 39.5424V39.5463H41.7317ZM42.444 33.9802L41.4834 33.7024L41.4825 33.7055L42.444 33.9802ZM44.4724 29.8026L43.6819 29.1902L43.6792 29.1937L44.4724 29.8026ZM47.6479 27.1947L48.0833 28.0949L48.088 28.0926L47.6479 27.1947ZM56.1599 27.2551L55.7059 28.1461L55.7104 28.1483L56.1599 27.2551ZM59.2025 29.8509L58.3827 30.4236L58.3856 30.4276L59.2025 29.8509ZM60.6031 33.5335V34.5335C60.8888 34.5335 61.1609 34.4113 61.3506 34.1977C61.5404 33.9842 61.6298 33.6997 61.5962 33.4159L60.6031 33.5335ZM55.4476 33.5335L54.4738 33.761C54.5795 34.2134 54.9829 34.5335 55.4476 34.5335V33.5335ZM48.1187 32.8694L47.2604 32.3564L47.2582 32.36L48.1187 32.8694ZM46.851 38.5803L45.851 38.5737C45.8492 38.84 45.9538 39.0961 46.1415 39.2851C46.3292 39.4741 46.5846 39.5803 46.851 39.5803V38.5803ZM47.02 38.5803V39.5803C47.3972 39.5803 47.7423 39.3681 47.9125 39.0315L47.02 38.5803ZM48.5172 36.7089L49.1515 37.482L49.1525 37.4811L48.5172 36.7089ZM50.6784 35.5136L51.0003 36.4604L51.0058 36.4585L50.6784 35.5136ZM57.1621 36.1293L56.644 36.9847L56.6485 36.9874L57.1621 36.1293ZM59.6855 47.5392L58.8275 47.0254L58.8252 47.0293L59.6855 47.5392ZM56.4376 50.6059L56.9053 51.4898L56.9072 51.4888L56.4376 50.6059ZM53.7452 47.0079L54.2644 47.8625L53.7452 47.0079ZM55.2423 45.4383L56.119 45.9194V45.9194L55.2423 45.4383ZM55.2423 41.0072L54.3636 41.4845L54.3682 41.4928L55.2423 41.0072ZM53.7693 39.4497L54.2934 38.598L53.7693 39.4497ZM49.9419 39.2082L49.5411 38.292L49.5358 38.2944L49.9419 39.2082ZM48.6017 40.1499L47.8803 39.4574L47.8731 39.465L48.6017 40.1499ZM47.7082 41.5505L48.6317 41.9341L48.6338 41.9291L47.7082 41.5505ZM47.9256 45.4142L47.0489 45.8953L47.0534 45.9034L47.9256 45.4142ZM49.4227 46.9958L48.8908 47.8426L48.8956 47.8456L49.4227 46.9958ZM51.6144 50.6926C50.4526 50.6852 49.3358 50.4908 48.2591 50.1099L47.5921 51.9954C48.8818 52.4516 50.22 52.6838 51.6018 52.6925L51.6144 50.6926ZM48.2611 50.1106C47.2358 49.7455 46.3074 49.1503 45.4723 48.3081L44.0521 49.7162C45.0845 50.7575 46.2649 51.5227 47.59 51.9947L48.2611 50.1106ZM45.4723 48.3081C44.665 47.4938 43.9935 46.3838 43.4838 44.937L41.5974 45.6016C42.1824 47.2618 42.992 48.647 44.0521 49.7162L45.4723 48.3081ZM43.4853 44.9413C42.9935 43.5246 42.7317 41.7353 42.7317 39.5463H40.7317C40.7317 41.8809 41.0091 43.9069 41.5959 45.5972L43.4853 44.9413ZM42.7317 39.5501C42.7394 37.5455 42.9687 35.7839 43.4056 34.2549L41.4825 33.7055C40.9856 35.4445 40.74 37.3936 40.7317 39.5424L42.7317 39.5501ZM43.4047 34.258C43.8512 32.714 44.477 31.439 45.2657 30.4115L43.6792 29.1937C42.7131 30.4523 41.9866 31.9624 41.4834 33.7024L43.4047 34.258ZM45.263 30.415C46.0594 29.387 46.9986 28.6195 48.0833 28.0949L47.2125 26.2945C45.834 26.9612 44.6563 27.9323 43.6819 29.1902L45.263 30.415ZM48.088 28.0926C49.1675 27.5635 50.3947 27.2892 51.7892 27.2892V25.2892C50.125 25.2892 48.5913 25.6185 47.2077 26.2968L48.088 28.0926ZM51.7892 27.2892C53.3073 27.2892 54.6041 27.5846 55.7059 28.1461L56.6139 26.3641C55.1883 25.6376 53.5713 25.2892 51.7892 25.2892V27.2892ZM55.7104 28.1483C56.8352 28.7143 57.7187 29.4729 58.3828 30.4236L60.0223 29.2783C59.1571 28.0396 58.0122 27.0676 56.6094 26.3618L55.7104 28.1483ZM58.3856 30.4276C59.0601 31.3832 59.4682 32.4522 59.61 33.651L61.5962 33.4159C61.4161 31.8941 60.8905 30.5081 60.0195 29.2743L58.3856 30.4276ZM60.6031 32.5335H55.4476V34.5335H60.6031V32.5335ZM56.4214 33.306C56.1725 32.2409 55.6322 31.355 54.7862 30.7099L53.5735 32.3003C54.0153 32.6371 54.3202 33.1035 54.4738 33.761L56.4214 33.306ZM54.7862 30.7099C53.9391 30.064 52.9188 29.7686 51.7892 29.7686V31.7686C52.5592 31.7686 53.1326 31.9641 53.5735 32.3003L54.7862 30.7099ZM51.7892 29.7686C49.8216 29.7686 48.275 30.6588 47.2604 32.3564L48.9771 33.3825C49.6367 32.2789 50.537 31.7686 51.7892 31.7686V29.7686ZM47.2582 32.36C46.3059 33.9688 45.8678 36.0689 45.851 38.5737L47.851 38.587C47.8664 36.2783 48.2735 34.5711 48.9793 33.3788L47.2582 32.36ZM46.851 39.5803H47.02V37.5803H46.851V39.5803ZM47.9125 39.0315C48.2207 38.4217 48.6323 37.908 49.1515 37.482L47.8829 35.9358C47.1464 36.5401 46.5599 37.274 46.1276 38.1292L47.9125 39.0315ZM49.1525 37.4811C49.6923 37.037 50.3058 36.6965 51.0003 36.4604L50.3565 34.5668C49.4412 34.878 48.6138 35.3344 47.8818 35.9367L49.1525 37.4811ZM51.0058 36.4585C51.7085 36.2149 52.4547 36.091 53.2501 36.091V34.091C52.2425 34.091 51.2742 34.2488 50.351 34.5687L51.0058 36.4585ZM53.2501 36.091C54.5506 36.091 55.6721 36.3961 56.644 36.9847L57.6801 35.274C56.366 34.4782 54.8796 34.091 53.2501 34.091V36.091ZM56.6485 36.9874C57.6351 37.578 58.4134 38.3881 58.9905 39.4368L60.7427 38.4725C59.9997 37.1225 58.975 36.0491 57.6757 35.2713L56.6485 36.9874ZM58.9905 39.4368C59.5593 40.4702 59.8567 41.6729 59.8567 43.0718H61.8567C61.8567 41.3798 61.494 39.8377 60.7427 38.4725L58.9905 39.4368ZM59.8567 43.0718C59.8567 44.5841 59.5061 45.8922 58.8275 47.0254L60.5435 48.0529C61.4265 46.5782 61.8567 44.9081 61.8567 43.0718H59.8567ZM58.8252 47.0293C58.1499 48.1689 57.2055 49.065 55.9681 49.723L56.9072 51.4888C58.4548 50.6658 59.6756 49.5174 60.5458 48.049L58.8252 47.0293ZM55.97 49.722C54.754 50.3653 53.3115 50.7 51.6125 50.6926L51.6037 52.6926C53.5751 52.7012 55.3523 52.3115 56.9053 51.4898L55.97 49.722ZM51.5839 48.5874C52.5565 48.5874 53.4593 48.3517 54.2644 47.8625L53.2259 46.1533C52.7593 46.4368 52.2213 46.5874 51.5839 46.5874V48.5874ZM54.2644 47.8625C55.052 47.384 55.6735 46.7312 56.119 45.9194L54.3657 44.9572C54.0867 45.4655 53.7101 45.8591 53.2259 46.1533L54.2644 47.8625ZM56.119 45.9194C56.5693 45.0988 56.7856 44.1903 56.7856 43.2167H54.7856C54.7856 43.8851 54.6398 44.4577 54.3657 44.9572L56.119 45.9194ZM56.7856 43.2167C56.7856 42.2433 56.5693 41.3367 56.1165 40.5215L54.3682 41.4928C54.6397 41.9817 54.7856 42.5481 54.7856 43.2167H56.7856ZM56.121 40.5299C55.684 39.7253 55.0712 39.0766 54.2934 38.598L53.2452 40.3013C53.7231 40.5954 54.0923 40.9851 54.3636 41.4845L56.121 40.5299ZM54.2934 38.598C53.4936 38.1058 52.5925 37.8701 51.6202 37.8701V39.8701C52.2576 39.8701 52.7893 40.0208 53.2452 40.3013L54.2934 38.598ZM51.6202 37.8701C50.8888 37.8701 50.1917 38.0074 49.5411 38.292L50.3427 40.1243C50.7224 39.9582 51.1441 39.8701 51.6202 39.8701V37.8701ZM49.5358 38.2944C48.9096 38.5727 48.3559 38.962 47.8803 39.4574L49.3231 40.8425C49.6202 40.533 49.96 40.2945 50.348 40.122L49.5358 38.2944ZM47.8731 39.465C47.4077 39.9602 47.0445 40.5319 46.7827 41.1719L48.6338 41.9291C48.8066 41.5067 49.0391 41.1447 49.3303 40.8349L47.8731 39.465ZM46.7847 41.1669C46.5143 41.8179 46.3822 42.5084 46.3822 43.2288H48.3822C48.3822 42.7579 48.4675 42.3295 48.6317 41.9341L46.7847 41.1669ZM46.3822 43.2288C46.3822 44.1837 46.601 45.0791 47.0489 45.8952L48.8022 44.9331C48.5257 44.4291 48.3822 43.8676 48.3822 43.2288H46.3822ZM47.0534 45.9034C47.5037 46.706 48.1184 47.3574 48.8908 47.8426L49.9547 46.149C49.4713 45.8454 49.088 45.4424 48.7977 44.9249L47.0534 45.9034ZM48.8956 47.8456C49.7018 48.3457 50.6074 48.5874 51.5839 48.5874V46.5874C50.9506 46.5874 50.4154 46.4348 49.9498 46.146L48.8956 47.8456Z" fill="#155263"/>
<rect x="1.13232" y="0.854492" width="77" height="77" rx="38.5" stroke="#B3C1C6"/>
</svg>
