<svg width="79" height="79" viewBox="0 0 79 79" fill="none" xmlns="http://www.w3.org/2000/svg">
<path d="M31.1781 51.8978L31.1742 52.8978H31.1781V51.8978ZM25.8173 50.3644L25.2544 51.1909L25.2564 51.1924L25.8173 50.3644ZM22.3762 45.9575L21.4524 46.3402L21.4537 46.3435L22.3762 45.9575ZM21.193 39.015L22.193 39.018V39.015H21.193ZM22.3883 32.1208L21.4676 31.7307L21.4662 31.734L22.3883 32.1208ZM25.8294 27.7863L26.383 28.6191L26.3841 28.6184L25.8294 27.7863ZM36.5147 27.7863L35.958 28.617L35.96 28.6184L36.5147 27.7863ZM39.9679 32.1329L39.0471 32.5231L39.0477 32.5245L39.9679 32.1329ZM41.1632 39.015L40.1632 39.012V39.015H41.1632ZM39.9558 45.9695L39.0333 45.5836L39.0319 45.5869L39.9558 45.9695ZM36.5268 50.3765L37.0897 51.203V51.203L36.5268 50.3765ZM34.5708 45.4262L35.4309 45.9364L34.5708 45.4262ZM35.8265 39.015H34.8265L34.8265 39.0178L35.8265 39.015ZM35.247 34.3303L34.29 34.6205L34.2917 34.6262L35.247 34.3303ZM33.6291 31.5171L32.9573 32.2579L32.9615 32.2617L33.6291 31.5171ZM27.7974 32.6883L26.9399 32.1738L27.7974 32.6883ZM26.5176 39.015L25.5176 39.0121V39.015H26.5176ZM27.085 43.7721L26.1265 44.0572L26.1287 44.0645L27.085 43.7721ZM28.715 46.6215L28.0428 47.3619L28.0475 47.3661L28.715 46.6215ZM31.182 50.8978C29.2735 50.8904 27.6874 50.4234 26.3781 49.5365L25.2564 51.1924C26.9415 52.3338 28.9292 52.8891 31.1742 52.8978L31.182 50.8978ZM26.3802 49.5379C25.075 48.649 24.041 47.3455 23.2987 45.5715L21.4537 46.3435C22.3213 48.417 23.5813 50.0515 25.2544 51.1909L26.3802 49.5379ZM23.3001 45.5748C22.5666 43.8039 22.1852 41.6279 22.193 39.018L20.193 39.012C20.1847 41.8112 20.5922 44.2635 21.4524 46.3402L23.3001 45.5748ZM22.193 39.015C22.193 36.4123 22.5782 34.2533 23.3105 32.5077L21.4662 31.734C20.6047 33.7876 20.193 36.2247 20.193 39.015H22.193ZM23.3091 32.511C24.0497 30.7632 25.0809 29.4848 26.383 28.6191L25.2757 26.9536C23.5996 28.068 22.3368 29.6792 21.4676 31.7307L23.3091 32.511ZM26.3841 28.6184C27.6934 27.7455 29.2765 27.2892 31.1781 27.2892V25.2892C28.9424 25.2892 26.9597 25.8309 25.2747 26.9543L26.3841 28.6184ZM31.1781 27.2892C33.0798 27.2892 34.6578 27.7455 35.958 28.617L37.0715 26.9556C35.3934 25.8309 33.4136 25.2892 31.1781 25.2892V27.2892ZM35.96 28.6184C37.2718 29.4928 38.3069 30.7762 39.0471 32.5231L40.8886 31.7428C40.0189 29.6903 38.752 28.076 37.0694 26.9543L35.96 28.6184ZM39.0477 32.5245C39.7858 34.2589 40.1709 36.4108 40.1632 39.012L42.1632 39.018C42.1715 36.2262 41.7598 33.79 40.888 31.7413L39.0477 32.5245ZM40.1632 39.015C40.1632 41.6331 39.7742 43.8128 39.0333 45.5836L40.8783 46.3555C41.7472 44.2787 42.1632 41.8221 42.1632 39.015H40.1632ZM39.0319 45.5869C38.2977 47.3594 37.2681 48.6617 35.9639 49.55L37.0897 51.203C38.7637 50.0629 40.0202 48.4272 40.8797 46.3522L39.0319 45.5869ZM35.9639 49.55C34.665 50.4346 33.0856 50.8978 31.1781 50.8978V52.8978C33.424 52.8978 35.4104 52.3468 37.0897 51.203L35.9639 49.55ZM31.1781 48.5633C33.0133 48.5633 34.4417 47.6039 35.4309 45.9364L33.7108 44.916C33.0096 46.098 32.1762 46.5633 31.1781 46.5633V48.5633ZM35.4309 45.9364C36.4128 44.2813 36.8348 41.9281 36.8265 39.0122L34.8265 39.0178C34.8344 41.8008 34.4193 43.7217 33.7108 44.916L35.4309 45.9364ZM36.8265 39.015C36.8265 37.079 36.6281 35.4097 36.2022 34.0345L34.2917 34.6262C34.6386 35.7462 34.8265 37.2001 34.8265 39.015H36.8265ZM36.204 34.0402C35.7922 32.6822 35.176 31.561 34.2966 30.7726L32.9615 32.2617C33.4827 32.729 33.9452 33.4832 34.29 34.6205L36.204 34.0402ZM34.3009 30.7764C33.4231 29.9803 32.3661 29.5754 31.1781 29.5754V31.5754C31.8736 31.5754 32.4506 31.7983 32.9573 32.2579L34.3009 30.7764ZM31.1781 29.5754C29.3543 29.5754 27.9303 30.5232 26.9399 32.1738L28.6549 33.2028C29.3549 32.0362 30.1847 31.5754 31.1781 31.5754V29.5754ZM26.9399 32.1738C25.9575 33.8112 25.5258 36.1353 25.5176 39.0121L27.5176 39.0179C27.5254 36.2764 27.947 34.3826 28.6549 33.2028L26.9399 32.1738ZM25.5176 39.015C25.5176 40.9733 25.7117 42.6625 26.1266 44.0572L28.0435 43.487C27.7018 42.3381 27.5176 40.856 27.5176 39.015H25.5176ZM26.1287 44.0645C26.5478 45.4352 27.1665 46.5661 28.0428 47.3619L29.3873 45.8812C28.863 45.4052 28.395 44.6365 28.0414 43.4797L26.1287 44.0645ZM28.0475 47.3661C28.9315 48.1587 29.9903 48.5633 31.1781 48.5633V46.5633C30.4824 46.5633 29.8991 46.3401 29.3826 45.877L28.0475 47.3661ZM55.6488 26.6272H56.6488C56.6488 26.0749 56.2011 25.6272 55.6488 25.6272V26.6272ZM55.6488 51.3545V52.3545C56.2011 52.3545 56.6488 51.9068 56.6488 51.3545H55.6488ZM50.4208 51.3545H49.4208C49.4208 51.9068 49.8685 52.3545 50.4208 52.3545V51.3545ZM50.4208 31.5896H51.4208C51.4208 31.0373 50.9731 30.5896 50.4208 30.5896V31.5896ZM50.2759 31.5896V30.5896C50.088 30.5896 49.904 30.6425 49.7448 30.7423L50.2759 31.5896ZM44.6133 35.1393H43.6133C43.6133 35.5031 43.8108 35.8381 44.1291 36.0143C44.4474 36.1904 44.8362 36.1798 45.1444 35.9866L44.6133 35.1393ZM44.6133 30.5029L44.0783 29.658C43.7888 29.8414 43.6133 30.1602 43.6133 30.5029H44.6133ZM50.7347 26.6272V25.6272C50.5453 25.6272 50.3598 25.681 50.1998 25.7823L50.7347 26.6272ZM54.6488 26.6272V51.3545H56.6488V26.6272H54.6488ZM55.6488 50.3545H50.4208V52.3545H55.6488V50.3545ZM51.4208 51.3545V31.5896H49.4208V51.3545H51.4208ZM50.4208 30.5896H50.2759V32.5896H50.4208V30.5896ZM49.7448 30.7423L44.0821 34.292L45.1444 35.9866L50.8071 32.4369L49.7448 30.7423ZM45.6133 35.1393V30.5029H43.6133V35.1393H45.6133ZM45.1482 31.3478L51.2697 27.4721L50.1998 25.7823L44.0783 29.658L45.1482 31.3478ZM50.7347 27.6272H55.6488V25.6272H50.7347V27.6272Z" fill="#155263"/>
<rect x="1" y="0.854492" width="77" height="77" rx="38.5" stroke="#B3C1C6"/>
</svg>
