<svg width="63" height="61" viewBox="0 0 63 61" fill="none" xmlns="http://www.w3.org/2000/svg">
<path d="M59.0303 53.578H55.4365V24.2812H58.0329C59.2096 24.2812 60.167 23.3237 60.167 22.147V7.63518C60.167 6.45847 59.2096 5.50103 58.0329 5.50103H55.4365V2.44274C55.4365 1.26603 54.4791 0.308594 53.3024 0.308594H10.246C9.06932 0.308594 8.11188 1.26603 8.11188 2.44274V5.50103H5.51554C4.33883 5.50103 3.3814 6.45847 3.3814 7.63518V22.147C3.3814 23.3237 4.33883 24.2812 5.51554 24.2812H8.112V30.4581C8.112 30.9632 8.52152 31.3727 9.02664 31.3727C9.53176 31.3727 9.94127 30.9632 9.94127 30.4581V24.2812H53.6074V39.8635H50.2994C49.7942 39.8635 49.3848 40.273 49.3848 40.7781C49.3848 41.2832 49.7942 41.6927 50.2994 41.6927H53.6074V47.9913H42.6248V41.6927H46.2853C46.7905 41.6927 47.1999 41.2832 47.1999 40.7781C47.1999 40.273 46.7905 39.8635 46.2853 39.8635H42.6248V36.1169H44.0786C44.5747 36.1169 45.0412 35.8745 45.3262 35.4685C45.6113 35.0625 45.6808 34.5415 45.5122 34.0747L43.6592 28.9436C43.3548 28.1007 42.5482 27.5343 41.6519 27.5343H21.8965C21.0003 27.5343 20.1937 28.1005 19.8893 28.9436L18.0363 34.0747C17.8677 34.5414 17.9372 35.0624 18.2222 35.4683C18.5074 35.8744 18.9738 36.1169 19.4699 36.1169H20.9237V39.8635H9.94115V34.4441C9.94115 33.939 9.53164 33.5294 9.02652 33.5294C8.5214 33.5294 8.11188 33.939 8.11188 34.4441V53.5779H4.5181C2.33274 53.5779 0.554688 55.3559 0.554688 57.5413V58.7842C0.554688 59.6248 1.23847 60.3086 2.07908 60.3086H61.4693C62.3099 60.3086 62.9937 59.6248 62.9937 58.7842V57.5414C62.9937 55.356 61.2158 53.578 59.0303 53.578ZM5.21066 22.147V7.63518C5.21066 7.46713 5.34749 7.3303 5.51554 7.3303H45.9346C46.4398 7.3303 46.8492 6.92079 46.8492 6.41567C46.8492 5.91054 46.4398 5.50103 45.9346 5.50103H9.94115V2.44274C9.94115 2.27469 10.078 2.13786 10.246 2.13786H53.3024C53.4705 2.13786 53.6073 2.27469 53.6073 2.44274V5.50103H49.9207C49.4154 5.50103 49.006 5.91054 49.006 6.41567C49.006 6.92079 49.4154 7.3303 49.9207 7.3303H58.0329C58.201 7.3303 58.3377 7.46713 58.3377 7.63518V22.147C58.3377 22.3151 58.201 22.4519 58.0329 22.4519H5.51554C5.34737 22.4519 5.21066 22.3152 5.21066 22.147ZM53.6073 49.8207V53.578H42.6247V49.8207H53.6073ZM40.7955 53.578H32.6888V36.1169H40.7955V53.578ZM34.4942 29.3637L36.2726 34.2877H27.2759L29.0542 29.3637H34.4942ZM41.9387 29.5649L43.6443 34.2876H38.2175L36.4391 29.3636H41.6519C41.7799 29.3637 41.8952 29.4446 41.9387 29.5649ZM21.6098 29.5649C21.6532 29.4446 21.7685 29.3636 21.8965 29.3636H27.1092L25.3309 34.2876H19.9042L21.6098 29.5649ZM30.8596 36.1169V53.578H22.753V36.1169H30.8596ZM20.9237 41.6929V47.9914H9.94115V41.6929H20.9237ZM9.94115 49.8207H20.9237V53.578H9.94115V49.8207ZM61.1644 58.4793H2.38396V57.5414C2.38396 56.3647 3.34139 55.4073 4.5181 55.4073H59.0303C60.207 55.4073 61.1644 56.3647 61.1644 57.5414V58.4793Z" fill="#155263"/>
<path d="M28.8087 9.00439C28.3035 9.00439 27.894 9.41391 27.894 9.91903V13.8059H22.842V9.91903C22.842 9.41391 22.4325 9.00439 21.9273 9.00439C21.4222 9.00439 21.0127 9.41391 21.0127 9.91903V19.8631C21.0127 20.3682 21.4222 20.7777 21.9273 20.7777C22.4325 20.7777 22.842 20.3682 22.842 19.8631V15.6351H27.894V19.8631C27.894 20.3682 28.3035 20.7777 28.8087 20.7777C29.3138 20.7777 29.7233 20.3682 29.7233 19.8631V9.91903C29.7233 9.41391 29.3138 9.00439 28.8087 9.00439Z" fill="#155263"/>
<path d="M16.2786 14.1113C15.0037 13.641 13.8207 13.1276 13.5168 12.9941C13.2093 12.7673 13.0602 12.4061 13.1163 12.0154C13.1874 11.52 13.5691 11.1221 14.1375 10.9509C15.7212 10.4738 17.1543 11.6255 17.1773 11.6444C17.5638 11.9661 18.1384 11.9153 18.4624 11.5298C18.7874 11.1431 18.7374 10.5661 18.3508 10.2411C18.2625 10.1669 16.158 8.43186 13.6099 9.19942C12.3609 9.57564 11.478 10.555 11.3055 11.7554C11.1449 12.8738 11.6293 13.9494 12.5696 14.5625C12.6101 14.5888 12.6524 14.6119 12.6965 14.6315C12.7537 14.6571 14.1135 15.2622 15.6455 15.8275C16.731 16.2278 17.2826 16.8545 17.159 17.5471C17.036 18.2359 16.2316 18.9483 15.0986 18.9483C14.0191 18.9483 12.977 18.5095 12.3112 17.7747C11.972 17.4004 11.3936 17.3717 11.0192 17.7111C10.6449 18.0503 10.6164 18.6288 10.9557 19.0031C11.9626 20.1142 13.5114 20.7776 15.0987 20.7776C17.0038 20.7776 18.6637 19.527 18.9598 17.8686C19.184 16.613 18.5973 14.9665 16.2786 14.1113Z" fill="#155263"/>
<path d="M49.0535 9.00439H46.2848C45.7863 9.00439 45.3701 9.42061 45.3701 9.91903V19.8631C45.3701 20.3682 45.7795 20.7777 46.2848 20.7777C46.79 20.7777 47.1994 20.3682 47.1994 19.8631V16.4533C47.8276 16.4499 48.63 16.4461 49.0535 16.4461C51.1355 16.4461 52.8294 14.777 52.8294 12.7252C52.8294 10.6735 51.1356 9.00439 49.0535 9.00439ZM49.0535 14.6167C48.6319 14.6167 47.8404 14.6205 47.2135 14.6239C47.2101 13.9788 47.2062 13.1557 47.2062 12.7252C47.2062 12.3607 47.2039 11.5055 47.2021 10.8337H49.0535C50.1087 10.8337 51.0001 11.6999 51.0001 12.7252C51.0001 13.7506 50.1088 14.6167 49.0535 14.6167Z" fill="#155263"/>
<path d="M37.4765 9.00439C34.2307 9.00439 31.5898 11.6451 31.5898 14.891C31.5898 18.137 34.2306 20.7777 37.4765 20.7777C40.7224 20.7777 43.3631 18.137 43.3631 14.891C43.363 11.645 40.7224 9.00439 37.4765 9.00439ZM37.4765 18.9483C35.2392 18.9483 33.4191 17.1282 33.4191 14.8909C33.4191 12.6537 35.2392 10.8335 37.4765 10.8335C39.7137 10.8335 41.5339 12.6537 41.5339 14.8909C41.5337 17.1282 39.7136 18.9483 37.4765 18.9483Z" fill="#155263"/>
</svg>
