<svg width="61" height="61" viewBox="0 0 61 61" fill="none" xmlns="http://www.w3.org/2000/svg">
<path d="M60.9941 26.5293V21.373H35.7089L45.8702 8.90336L40.5946 0.396484H21.3937L16.118 8.90336L26.2792 21.373H0.994141V26.5293H3.92383V58.5215H0.994141V60.2793H60.9941V58.5215H58.0645V26.5293H60.9941ZM33.4414 21.373H33.2271L36.717 9.71289H42.943L33.4414 21.373ZM31.3921 21.373H30.5962L27.1063 9.71289H34.882L31.3921 21.373ZM39.6163 2.1543L43.2137 7.95508H36.7638L35.4425 2.1543H39.6163ZM28.3487 2.1543H33.6395L34.9608 7.95508H27.0273L28.3487 2.1543ZM22.372 2.1543H26.5459L25.2246 7.95508H18.7746L22.372 2.1543ZM19.0454 9.71289H25.2714L28.7612 21.373H28.547L19.0454 9.71289ZM52 58.5215H39.0801V42.9355H52V58.5215ZM39.0835 41.1777C39.1482 37.9734 41.5563 35.3355 44.6611 34.911V41.1777H39.0835ZM46.4189 41.1777V34.911C49.5239 35.3355 51.9319 37.9734 51.9966 41.1777H46.4189ZM56.3066 58.5215H53.7578V41.3096C53.7578 36.7783 50.0713 33.0918 45.54 33.0918C41.0088 33.0918 37.3223 36.7783 37.3223 41.3096V58.5215H5.68164V26.5293H56.3066V58.5215ZM2.75195 24.7715V23.1309H59.2363V24.7715H2.75195Z" fill="#155263"/>
<path d="M21.0917 53.1309C26.5034 53.1309 30.9061 48.7281 30.9061 43.3164V40.656L30.4045 40.4177C25.3101 37.9973 26.0293 33.2829 25.9732 33.0918H16.2102C16.1928 33.1511 16.7546 38.0535 11.779 40.4177L11.2773 40.656V43.3164C11.2772 48.728 15.68 53.1309 21.0917 53.1309ZM17.9157 34.8496H24.2677C24.4396 36.3007 25.0296 37.7151 25.9362 38.9454C24.3099 40.8052 22.0476 42.3803 21.092 43.0068C20.1363 42.3802 17.8738 40.805 16.2475 38.9452C17.1538 37.7148 17.7437 36.3005 17.9157 34.8496ZM13.035 41.749C13.7834 41.3395 14.4673 40.8387 15.0723 40.2695C16.3601 41.7018 18.353 43.4106 21.0919 45.0754C23.8298 43.4112 25.8232 41.7023 27.1113 40.2696C27.7162 40.8387 28.4002 41.3395 29.1484 41.7489V43.3162C29.1484 47.7586 25.5341 51.3728 21.0917 51.3728C16.6493 51.3728 13.0352 47.7586 13.0352 43.3162L13.035 41.749Z" fill="#155263"/>
<path d="M20.2129 46.6499H21.9707V48.4077H20.2129V46.6499Z" fill="#155263"/>
<path d="M9.54883 9.71289H11.3066V13.0527H9.54883V9.71289Z" fill="#155263"/>
<path d="M9.54883 15.6895H11.3066V19.0293H9.54883V15.6895Z" fill="#155263"/>
<path d="M5.76953 13.4922H9.10938V15.25H5.76953V13.4922Z" fill="#155263"/>
<path d="M11.7461 13.4922H15.0859V15.25H11.7461V13.4922Z" fill="#155263"/>
<path d="M50.6816 0.337891H52.4395V3.67773H50.6816V0.337891Z" fill="#155263"/>
<path d="M50.6816 6.31445H52.4395V9.6543H50.6816V6.31445Z" fill="#155263"/>
<path d="M46.9023 4.11719H50.2422V5.875H46.9023V4.11719Z" fill="#155263"/>
<path d="M52.8789 4.11719H56.2188V5.875H52.8789V4.11719Z" fill="#155263"/>
<path d="M10.0166 56.8224H32.1656C33.6195 56.8224 34.8023 55.6396 34.8023 54.1856V32.0366C34.8023 30.5827 33.6195 29.3999 32.1656 29.3999H10.0166C8.56277 29.3999 7.37988 30.5827 7.37988 32.0366V54.1856C7.37988 55.6396 8.56277 56.8224 10.0166 56.8224ZM9.1377 32.0366C9.1377 31.5519 9.53191 31.1577 10.0166 31.1577H32.1656C32.6503 31.1577 33.0445 31.5519 33.0445 32.0366V54.1856C33.0445 54.6703 32.6503 55.0646 32.1656 55.0646H10.0166C9.53191 55.0646 9.1377 54.6703 9.1377 54.1856V32.0366Z" fill="#155263"/>
</svg>
