<svg width="69" height="61" viewBox="0 0 69 61" fill="none" xmlns="http://www.w3.org/2000/svg">
<path d="M27.8252 43.9566C27.5683 43.9566 27.3095 43.8682 27.0984 43.6884L19.8332 37.5021C19.5826 37.2884 19.4385 36.9764 19.4385 36.6469C19.4385 36.318 19.5832 36.0059 19.8332 35.7923L27.0984 29.606C27.5702 29.2037 28.2788 29.2608 28.681 29.7325C29.0826 30.2049 29.0262 30.9135 28.5538 31.3151L22.2929 36.6469L28.5538 41.9786C29.0262 42.3809 29.0826 43.0895 28.681 43.5612C28.4586 43.8225 28.1428 43.9566 27.8252 43.9566Z" fill="#155263"/>
<path d="M42.1682 43.9566C41.8506 43.9566 41.5348 43.8225 41.313 43.5612C40.9108 43.0895 40.9678 42.3809 41.4396 41.9786L47.7004 36.6469L41.4396 31.3151C40.9678 30.9135 40.9108 30.2049 41.313 29.7325C41.7146 29.2608 42.4238 29.2037 42.895 29.606L50.1602 35.7923C50.4108 36.0059 50.5549 36.318 50.5549 36.6469C50.5549 36.9764 50.4108 37.2884 50.1602 37.5021L42.895 43.6884C42.6838 43.8682 42.4251 43.9566 42.1682 43.9566Z" fill="#155263"/>
<path d="M32.4243 48.5961C32.3473 48.5961 32.2696 48.5879 32.1912 48.5716C31.5848 48.4438 31.1963 47.848 31.3241 47.2415L35.852 25.7435C35.9799 25.137 36.5751 24.7486 37.1822 24.8764C37.7886 25.0042 38.1771 25.5994 38.0493 26.2065L33.5214 47.7045C33.4098 48.2333 32.9437 48.5961 32.4243 48.5961Z" fill="#155263"/>
<path d="M61.4615 60.3086H8.53252C4.37613 60.3086 0.994141 56.9272 0.994141 52.7702V7.84697C0.994141 3.69059 4.37613 0.308594 8.53252 0.308594H61.4615C65.6179 0.308594 68.9999 3.69059 68.9999 7.84697V52.7702C68.9999 56.9272 65.6179 60.3086 61.4615 60.3086ZM8.53252 2.55407C5.61415 2.55407 3.23961 4.92861 3.23961 7.84697V52.7702C3.23961 55.6886 5.61415 58.0631 8.53252 58.0631H61.4615C64.3799 58.0631 66.7544 55.6886 66.7544 52.7702V7.84697C66.7544 4.92861 64.3799 2.55407 61.4615 2.55407H8.53252Z" fill="#155263"/>
<path d="M67.8772 18.287H2.11688C1.49662 18.287 0.994141 17.7845 0.994141 17.1642C0.994141 16.5446 1.49662 16.0415 2.11688 16.0415H67.8772C68.4974 16.0415 68.9999 16.5446 68.9999 17.1642C68.9999 17.7845 68.4974 18.287 67.8772 18.287Z" fill="#155263"/>
<path d="M20.1771 12.9147C18.2185 12.9147 16.624 11.3202 16.624 9.36163C16.624 7.40248 18.2185 5.80859 20.1771 5.80859C22.1362 5.80859 23.7301 7.40248 23.7301 9.36163C23.7301 11.3202 22.1362 12.9147 20.1771 12.9147ZM20.1771 8.05407C19.4566 8.05407 18.8695 8.6405 18.8695 9.36163C18.8695 10.0828 19.4566 10.6692 20.1771 10.6692C20.8982 10.6692 21.4846 10.0828 21.4846 9.36163C21.4846 8.6405 20.8982 8.05407 20.1771 8.05407Z" fill="#155263"/>
<path d="M9.26007 12.88C7.30092 12.88 5.70703 11.2861 5.70703 9.32696C5.70703 7.36781 7.30092 5.77393 9.26007 5.77393C11.2192 5.77393 12.8131 7.36781 12.8131 9.32696C12.8131 11.2861 11.2192 12.88 9.26007 12.88ZM9.26007 8.0194C8.53956 8.0194 7.9525 8.60646 7.9525 9.32696C7.9525 10.0481 8.53956 10.6345 9.26007 10.6345C9.9812 10.6345 10.5676 10.0481 10.5676 9.32696C10.5676 8.60646 9.9812 8.0194 9.26007 8.0194Z" fill="#155263"/>
<path d="M31.0934 12.9482C29.1349 12.9482 27.541 11.3543 27.541 9.39518C27.541 7.43666 29.1349 5.84277 31.0934 5.84277C33.0526 5.84277 34.6465 7.43666 34.6465 9.39518C34.6465 11.3543 33.0526 12.9482 31.0934 12.9482ZM31.0934 8.08762C30.3729 8.08762 29.7865 8.67405 29.7865 9.39518C29.7865 10.1163 30.3729 10.7027 31.0934 10.7027C31.8146 10.7027 32.401 10.1163 32.401 9.39518C32.401 8.67405 31.8146 8.08762 31.0934 8.08762Z" fill="#155263"/>
</svg>
