<svg width="60" height="61" viewBox="0 0 60 61" fill="none" xmlns="http://www.w3.org/2000/svg">
<g clip-path="url(#clip0_3902_61783)">
<path d="M41.0389 31.6163C40.9053 31.4925 40.7385 31.4102 40.559 31.3796C40.3794 31.3489 40.1948 31.3713 40.0277 31.4439C39.8607 31.5165 39.7184 31.6362 39.6182 31.7883C39.5181 31.9405 39.4645 32.1185 39.4639 32.3007V57.8007C39.4641 57.9563 39.503 58.1093 39.5772 58.246C39.6513 58.3828 39.7583 58.4989 39.8885 58.584C40.0187 58.6691 40.168 58.7205 40.323 58.7335C40.478 58.7465 40.6338 58.7207 40.7764 58.6585L45.8342 56.4554L47.2404 59.7366C47.3428 59.9614 47.5296 60.1367 47.7605 60.2245C47.9913 60.3122 48.2474 60.3054 48.4732 60.2054L55.3123 57.257C55.5371 57.1546 55.7124 56.9677 55.8001 56.7369C55.8879 56.5061 55.881 56.25 55.7811 56.0241L54.3748 52.7429L59.4326 50.5398C59.5753 50.4775 59.7003 50.3807 59.7962 50.2581C59.8922 50.1354 59.956 49.9908 59.9821 49.8373C60.0081 49.6838 59.9955 49.5262 59.9454 49.3788C59.8953 49.2314 59.8093 49.0987 59.6951 48.9929L41.0389 31.6163ZM52.7576 51.3929C52.5329 51.4952 52.3576 51.6821 52.2698 51.9129C52.182 52.1438 52.1889 52.3999 52.2889 52.6257L53.6951 55.907L48.5764 58.1335L47.1701 54.8523C47.0678 54.6275 46.8809 54.4522 46.6501 54.3644C46.4192 54.2767 46.1631 54.2835 45.9373 54.3835L41.3295 56.3898V34.4757L57.3701 49.4101L52.7576 51.3929Z" fill="#155263"/>
<path d="M36.5625 54.6836C36.8111 54.6836 37.0496 54.5848 37.2254 54.409C37.4012 54.2332 37.5 53.9947 37.5 53.7461C37.5 53.4975 37.4012 53.259 37.2254 53.0832C37.0496 52.9074 36.8111 52.8086 36.5625 52.8086H5.6625C4.65799 52.8086 3.69463 52.4096 2.98433 51.6993C2.27404 50.989 1.875 50.0256 1.875 49.0211V17.1836H52.5V39.2148C52.5 39.4635 52.5988 39.7019 52.7746 39.8778C52.9504 40.0536 53.1889 40.1523 53.4375 40.1523C53.6861 40.1523 53.9246 40.0536 54.1004 39.8778C54.2762 39.7019 54.375 39.4635 54.375 39.2148V5.97109C54.3738 4.46969 53.7768 3.03013 52.7151 1.96847C51.6535 0.906817 50.2139 0.309835 48.7125 0.308594L5.6625 0.308594C4.16109 0.309835 2.72153 0.906817 1.65988 1.96847C0.598223 3.03013 0.00124135 4.46969 0 5.97109L0 49.0258C0.00248187 50.5264 0.600011 51.9647 1.66153 53.0254C2.72305 54.086 4.1619 54.6824 5.6625 54.6836H36.5625ZM5.6625 2.18359H48.7172C49.7209 2.18484 50.683 2.58442 51.3923 3.29458C52.1016 4.00474 52.5 4.9674 52.5 5.97109V15.3086H1.875V5.97109C1.875 4.96659 2.27404 4.00322 2.98433 3.29293C3.69463 2.58263 4.65799 2.18359 5.6625 2.18359Z" fill="#155263"/>
<path d="M45.9375 11.5586C46.4938 11.5586 47.0375 11.3936 47.5 11.0846C47.9626 10.7756 48.323 10.3363 48.5359 9.82239C48.7488 9.30847 48.8045 8.74297 48.696 8.1974C48.5874 7.65183 48.3196 7.15069 47.9262 6.75736C47.5329 6.36402 47.0318 6.09616 46.4862 5.98764C45.9406 5.87912 45.3751 5.93481 44.8612 6.14768C44.3473 6.36056 43.908 6.72104 43.599 7.18355C43.29 7.64607 43.125 8.18983 43.125 8.74609C43.125 9.49202 43.4213 10.2074 43.9488 10.7348C44.4762 11.2623 45.1916 11.5586 45.9375 11.5586ZM45.9375 7.80859C46.1229 7.80859 46.3042 7.86358 46.4583 7.96659C46.6125 8.06961 46.7327 8.21602 46.8036 8.38733C46.8746 8.55863 46.8932 8.74713 46.857 8.92899C46.8208 9.11085 46.7315 9.2779 46.6004 9.40901C46.4693 9.54012 46.3023 9.62941 46.1204 9.66558C45.9385 9.70175 45.75 9.68319 45.5787 9.61223C45.4074 9.54127 45.261 9.42111 45.158 9.26694C45.055 9.11277 45 8.93151 45 8.74609C45 8.49745 45.0988 8.259 45.2746 8.08318C45.4504 7.90737 45.6889 7.80859 45.9375 7.80859Z" fill="#155263"/>
<path d="M38.4375 11.5586C38.9938 11.5586 39.5375 11.3936 40 11.0846C40.4626 10.7756 40.823 10.3363 41.0359 9.82239C41.2488 9.30847 41.3045 8.74297 41.196 8.1974C41.0874 7.65183 40.8196 7.15069 40.4262 6.75736C40.0329 6.36402 39.5318 6.09616 38.9862 5.98764C38.4406 5.87912 37.8751 5.93481 37.3612 6.14768C36.8473 6.36056 36.408 6.72104 36.099 7.18355C35.79 7.64607 35.625 8.18983 35.625 8.74609C35.625 9.49202 35.9213 10.2074 36.4488 10.7348C36.9762 11.2623 37.6916 11.5586 38.4375 11.5586ZM38.4375 7.80859C38.6229 7.80859 38.8042 7.86358 38.9583 7.96659C39.1125 8.06961 39.2327 8.21602 39.3036 8.38733C39.3746 8.55863 39.3932 8.74713 39.357 8.92899C39.3208 9.11085 39.2315 9.2779 39.1004 9.40901C38.9693 9.54012 38.8023 9.62941 38.6204 9.66558C38.4385 9.70175 38.25 9.68319 38.0787 9.61223C37.9074 9.54127 37.761 9.42111 37.658 9.26694C37.555 9.11277 37.5 8.93151 37.5 8.74609C37.5 8.49745 37.5988 8.259 37.7746 8.08318C37.9504 7.90737 38.1889 7.80859 38.4375 7.80859Z" fill="#155263"/>
<path d="M30.9375 11.5586C31.4938 11.5586 32.0375 11.3936 32.5 11.0846C32.9626 10.7756 33.323 10.3363 33.5359 9.82239C33.7488 9.30847 33.8045 8.74297 33.696 8.1974C33.5874 7.65183 33.3196 7.15069 32.9262 6.75736C32.5329 6.36402 32.0318 6.09616 31.4862 5.98764C30.9406 5.87912 30.3751 5.93481 29.8612 6.14768C29.3473 6.36056 28.908 6.72104 28.599 7.18355C28.2899 7.64607 28.125 8.18983 28.125 8.74609C28.125 9.49202 28.4213 10.2074 28.9488 10.7348C29.4762 11.2623 30.1916 11.5586 30.9375 11.5586ZM30.9375 7.80859C31.1229 7.80859 31.3042 7.86358 31.4583 7.96659C31.6125 8.06961 31.7327 8.21602 31.8036 8.38733C31.8746 8.55863 31.8932 8.74713 31.857 8.92899C31.8208 9.11085 31.7315 9.2779 31.6004 9.40901C31.4693 9.54012 31.3023 9.62941 31.1204 9.66558C30.9385 9.70175 30.75 9.68319 30.5787 9.61223C30.4074 9.54127 30.261 9.42111 30.158 9.26694C30.055 9.11277 30 8.93151 30 8.74609C30 8.49745 30.0988 8.259 30.2746 8.08318C30.4504 7.90737 30.6889 7.80859 30.9375 7.80859Z" fill="#155263"/>
<path d="M34.6875 24.6834H16.7812C16.5661 23.6238 15.9912 22.6711 15.154 21.9868C14.3168 21.3025 13.2688 20.9287 12.1875 20.9287C11.1062 20.9287 10.0582 21.3025 9.22101 21.9868C8.38381 22.6711 7.80892 23.6238 7.59375 24.6834H6.5625C6.31386 24.6834 6.0754 24.7822 5.89959 24.958C5.72377 25.1338 5.625 25.3723 5.625 25.6209C5.625 25.8696 5.72377 26.108 5.89959 26.2838C6.0754 26.4596 6.31386 26.5584 6.5625 26.5584H7.59375C7.80892 27.6181 8.38381 28.5707 9.22101 29.255C10.0582 29.9393 11.1062 30.3131 12.1875 30.3131C13.2688 30.3131 14.3168 29.9393 15.154 29.255C15.9912 28.5707 16.5661 27.6181 16.7812 26.5584H34.6875C34.9361 26.5584 35.1746 26.4596 35.3504 26.2838C35.5262 26.108 35.625 25.8696 35.625 25.6209C35.625 25.3723 35.5262 25.1338 35.3504 24.958C35.1746 24.7822 34.9361 24.6834 34.6875 24.6834ZM12.1875 28.4334C11.6312 28.4334 11.0875 28.2685 10.625 27.9594C10.1624 27.6504 9.80196 27.2111 9.58909 26.6972C9.37622 26.1833 9.32052 25.6178 9.42904 25.0722C9.53756 24.5266 9.80543 24.0255 10.1988 23.6322C10.5921 23.2388 11.0932 22.971 11.6388 22.8625C12.1844 22.7539 12.7499 22.8096 13.2638 23.0225C13.7777 23.2354 14.217 23.5959 14.526 24.0584C14.835 24.5209 15 25.0647 15 25.6209C15 26.3668 14.7037 27.0822 14.1762 27.6096C13.6488 28.1371 12.9334 28.4334 12.1875 28.4334Z" fill="#155263"/>
<path d="M25.2188 43.4334C25.0036 42.3738 24.4287 41.4211 23.5915 40.7368C22.7543 40.0525 21.7063 39.6787 20.625 39.6787C19.5437 39.6787 18.4957 40.0525 17.6585 40.7368C16.8213 41.4211 16.2464 42.3738 16.0312 43.4334H6.5625C6.31386 43.4334 6.0754 43.5322 5.89959 43.708C5.72377 43.8838 5.625 44.1223 5.625 44.3709C5.625 44.6196 5.72377 44.858 5.89959 45.0338C6.0754 45.2096 6.31386 45.3084 6.5625 45.3084H16.0312C16.2464 46.3681 16.8213 47.3207 17.6585 48.005C18.4957 48.6893 19.5437 49.0631 20.625 49.0631C21.7063 49.0631 22.7543 48.6893 23.5915 48.005C24.4287 47.3207 25.0036 46.3681 25.2188 45.3084H34.6875C34.9361 45.3084 35.1746 45.2096 35.3504 45.0338C35.5262 44.858 35.625 44.6196 35.625 44.3709C35.625 44.1223 35.5262 43.8838 35.3504 43.708C35.1746 43.5322 34.9361 43.4334 34.6875 43.4334H25.2188ZM20.625 47.1834C20.0687 47.1834 19.525 47.0185 19.0625 46.7094C18.5999 46.4004 18.2395 45.9611 18.0266 45.4472C17.8137 44.9333 17.758 44.3678 17.8665 43.8222C17.9751 43.2766 18.2429 42.7755 18.6363 42.3822C19.0296 41.9888 19.5307 41.721 20.0763 41.6125C20.6219 41.5039 21.1874 41.5596 21.7013 41.7725C22.2152 41.9854 22.6545 42.3459 22.9635 42.8084C23.2726 43.2709 23.4375 43.8147 23.4375 44.3709C23.4375 45.1168 23.1412 45.8322 22.6137 46.3596C22.0863 46.8871 21.3709 47.1834 20.625 47.1834Z" fill="#155263"/>
<path d="M30.9375 30.3086C29.8569 30.3084 28.8094 30.6815 27.9723 31.3649C27.1352 32.0482 26.5599 32.9998 26.3438 34.0586H6.5625C6.31386 34.0586 6.0754 34.1574 5.89959 34.3332C5.72377 34.509 5.625 34.7475 5.625 34.9961C5.625 35.2447 5.72377 35.4832 5.89959 35.659C6.0754 35.8348 6.31386 35.9336 6.5625 35.9336H26.3438C26.5211 36.8026 26.9414 37.6034 27.5557 38.2431C28.1701 38.8827 28.9533 39.335 29.8144 39.5473C30.6755 39.7596 31.5792 39.7233 32.4205 39.4425C33.2618 39.1617 34.0062 38.648 34.5672 37.9611C35.1282 37.2742 35.4828 36.4422 35.5898 35.5618C35.6968 34.6813 35.5519 33.7886 35.1718 32.9873C34.7917 32.1859 34.1921 31.5089 33.4426 31.0347C32.6931 30.5606 31.8244 30.3088 30.9375 30.3086ZM30.9375 37.8086C30.3812 37.8086 29.8375 37.6436 29.375 37.3346C28.9124 37.0256 28.552 36.5863 28.3391 36.0724C28.1262 35.5585 28.0705 34.993 28.179 34.4474C28.2876 33.9018 28.5554 33.4007 28.9488 33.0074C29.3421 32.614 29.8432 32.3462 30.3888 32.2376C30.9344 32.1291 31.4999 32.1848 32.0138 32.3977C32.5277 32.6106 32.967 32.971 33.276 33.4336C33.585 33.8961 33.75 34.4398 33.75 34.9961C33.75 35.742 33.4537 36.4574 32.9262 36.9848C32.3988 37.5123 31.6834 37.8086 30.9375 37.8086Z" fill="#155263"/>
</g>
<defs>
<clipPath id="clip0_3902_61783">
<rect width="60" height="60" fill="white" transform="translate(0 0.308594)"/>
</clipPath>
</defs>
</svg>
