<svg width="74" height="61" viewBox="0 0 74 61" fill="none" xmlns="http://www.w3.org/2000/svg">
<path d="M71.7611 2.16113C70.5413 0.929827 68.8497 0.273901 67.1121 0.36596C65.3744 0.45802 63.7634 1.28656 62.6817 2.63293L47.8485 20.5846C44.9832 19.9632 42.4515 21.2405 40.6794 24.29C40.035 25.3947 39.5977 26.6836 39.379 28.122C39.0223 30.412 38.3088 32.3913 37.1811 34.1634C36.997 34.4626 36.974 34.8309 37.1351 35.1416C37.2962 35.4523 37.6184 35.6479 37.9636 35.6594C38.4584 35.6824 38.9533 35.6824 39.4251 35.6824C45.1558 35.6824 49.1604 34.3245 51.3238 31.6548C53.0039 29.5719 53.096 27.282 52.9809 26.0392L71.1857 11.2405C72.5436 10.1703 73.3836 8.55929 73.4987 6.83316C73.6253 5.09554 72.9809 3.39243 71.7611 2.16113ZM52.2559 18.3291L55.455 21.5282L52.1638 24.198L49.5632 21.5858L52.2559 18.3291ZM49.7933 30.4465C48.0672 32.5639 44.5804 33.6916 39.6667 33.7261C40.4722 32.1151 41.0131 30.366 41.3123 28.4097C41.4964 27.2129 41.8531 26.1542 42.371 25.2681C43.4987 23.3349 44.8796 22.3683 46.4907 22.3683C46.8819 22.3683 47.2962 22.4258 47.722 22.5409L51.0131 25.855C51.1282 26.557 51.2893 28.6283 49.7933 30.4465ZM69.9889 9.71003L69.9774 9.72154L56.974 20.2969L53.4987 16.8217L64.2007 3.87574C64.9372 2.95514 66.0304 2.39128 67.2156 2.32223C68.4009 2.25319 69.5401 2.70198 70.3687 3.54202C71.1972 4.38207 71.6345 5.53282 71.5655 6.70658C71.4964 7.88034 70.921 8.97356 69.9889 9.71003Z" fill="#155263"/>
<path d="M31.6455 46.4419C32.262 46.4419 32.7617 45.9422 32.7617 45.3257C32.7617 44.7092 32.262 44.2095 31.6455 44.2095C31.029 44.2095 30.5293 44.7092 30.5293 45.3257C30.5293 45.9422 31.029 46.4419 31.6455 46.4419Z" fill="#155263"/>
<path d="M20.1152 7.2589C20.1152 6.71805 19.6779 6.28076 19.1371 6.28076H6.57091C6.03006 6.28076 5.59277 6.71805 5.59277 7.2589V17.1208C5.59277 17.6617 6.03006 18.0989 6.57091 18.0989H19.1371C19.6779 18.0989 20.1152 17.6617 20.1152 17.1208V7.2589ZM18.1589 16.1312H7.54905V8.22553H18.1589V16.1312Z" fill="#155263"/>
<path d="M20.1152 21.9542C20.1152 21.4134 19.6779 20.9761 19.1371 20.9761H6.57091C6.03006 20.9761 5.59277 21.4134 5.59277 21.9542C5.59277 22.4951 6.03006 22.9323 6.57091 22.9323H19.1371C19.6779 22.9323 20.1152 22.4951 20.1152 21.9542Z" fill="#155263"/>
<path d="M6.57091 25.3721C6.03006 25.3721 5.59277 25.8094 5.59277 26.3502C5.59277 26.8911 6.03006 27.3283 6.57091 27.3283H15.3971C15.938 27.3283 16.3753 26.8911 16.3753 26.3502C16.3753 25.8094 15.938 25.3721 15.3971 25.3721H6.57091Z" fill="#155263"/>
<path d="M37.1006 21.9542C37.1006 21.4134 36.6633 20.9761 36.1224 20.9761H23.5563C23.0154 20.9761 22.5781 21.4134 22.5781 21.9542C22.5781 22.4951 23.0154 22.9323 23.5563 22.9323H36.1224C36.6633 22.9323 37.1006 22.4951 37.1006 21.9542Z" fill="#155263"/>
<path d="M23.5563 25.3721C23.0154 25.3721 22.5781 25.8094 22.5781 26.3502C22.5781 26.8911 23.0154 27.3283 23.5563 27.3283H32.3825C32.9234 27.3283 33.3606 26.8911 33.3606 26.3502C33.3606 25.8094 32.9234 25.3721 32.3825 25.3721H23.5563Z" fill="#155263"/>
<path d="M37.1006 7.2589C37.1006 6.71805 36.6633 6.28076 36.1224 6.28076H23.5563C23.0154 6.28076 22.5781 6.71805 22.5781 7.2589V17.1208C22.5781 17.6617 23.0154 18.0989 23.5563 18.0989H36.1224C36.6633 18.0989 37.1006 17.6617 37.1006 17.1208V7.2589ZM35.1443 16.1312H24.5344V8.22553H35.1443V16.1312Z" fill="#155263"/>
<path d="M63.2911 22.9668C63.2911 22.426 62.8539 21.9887 62.313 21.9887C61.7722 21.9887 61.3349 22.426 61.3349 22.9668V40.3086H1.95627V6.13138C1.95627 4.00249 3.68239 2.26487 5.81128 2.26487H57.4684C57.8596 2.26487 58.2624 2.33391 58.7112 2.49501C59.2175 2.66763 59.7814 2.39145 59.954 1.88512C60.1266 1.37879 59.8504 0.814923 59.3441 0.642311C58.6882 0.423669 58.0783 0.308594 57.4684 0.308594H5.81128C2.6122 0.308594 0 2.92079 0 6.13138V41.2867V44.4973C0 47.7079 2.6122 50.3201 5.81128 50.3201H23.8895L22.3936 53.8874H18.1013C16.3291 53.8874 14.8907 55.3259 14.8907 57.098C14.8907 58.8702 16.3291 60.3086 18.1013 60.3086H45.2014C46.9735 60.3086 48.412 58.8702 48.412 57.098C48.412 55.3259 46.9735 53.8874 45.2014 53.8874H40.9091L39.4131 50.3201H57.4799C60.679 50.3201 63.2911 47.7194 63.2911 44.5203V41.2867V22.9668ZM46.4557 57.1095C46.4557 57.8 45.8918 58.3638 45.2014 58.3638H18.1013C17.4108 58.3638 16.847 57.8 16.847 57.1095C16.847 56.4191 17.4108 55.8552 18.1013 55.8552H45.2014C45.8918 55.8552 46.4557 56.4191 46.4557 57.1095ZM38.7802 53.8989H24.5109L26.0069 50.3316H37.2842L38.7802 53.8989ZM61.3349 44.5318C61.3349 46.6492 59.6088 48.3753 57.4799 48.3753H5.81128C3.68239 48.3753 1.95627 46.6377 1.95627 44.5088V42.2764H61.3349V44.5318Z" fill="#155263"/>
</svg>
