<svg width="61" height="61" viewBox="0 0 61 61" fill="none" xmlns="http://www.w3.org/2000/svg">
<path d="M7.10168 60.2495C3.50132 60.2495 0.572266 57.3205 0.572266 53.7201V45.3084C0.572266 44.8544 0.941677 44.4848 1.3958 44.4848C1.84991 44.4848 2.21932 44.8544 2.21932 45.3084V53.7201C2.21932 56.4122 4.40956 58.6025 7.10168 58.6025H53.9252C56.6173 58.6025 58.8076 56.4122 58.8076 53.7201V14.3672H50.3981C49.9441 14.3672 49.5746 13.9978 49.5746 13.5437C49.5746 13.0895 49.9441 12.7201 50.3981 12.7201H58.8076V6.8966C58.8076 4.20448 56.6173 2.01425 53.9252 2.01425H7.10168C4.40956 2.01425 2.21932 4.20448 2.21932 6.8966V12.7201H43.3393C43.7933 12.7201 44.1629 13.0895 44.1629 13.5437C44.1629 13.9978 43.7933 14.3672 43.3393 14.3672H2.21932V38.2495C2.21932 38.7035 1.84991 39.0731 1.3958 39.0731C0.941677 39.0731 0.572266 38.7035 0.572266 38.2495V6.8966C0.572266 3.29625 3.50132 0.367188 7.10168 0.367188H53.9252C57.5256 0.367188 60.4546 3.29625 60.4546 6.8966V53.7201C60.4546 57.3205 57.5256 60.2495 53.9252 60.2495H7.10168Z" fill="#155263"/>
<path d="M53.9254 0.426241C57.4933 0.426241 60.396 3.32895 60.396 6.89683V53.7204C60.396 57.2882 57.4933 60.1909 53.9254 60.1909H7.10191C3.53402 60.1909 0.631319 57.2882 0.631319 53.7204V45.3086C0.631319 44.8869 0.974378 44.5439 1.39602 44.5439C1.81767 44.5439 2.16073 44.8869 2.16073 45.3086V53.7204C2.16073 56.4449 4.37732 58.6615 7.10191 58.6615H53.9254C56.65 58.6615 58.8666 56.4449 58.8666 53.7204V14.4262V14.3086H58.749H50.3984C49.9767 14.3086 49.6337 13.9655 49.6337 13.5439C49.6337 13.1222 49.9767 12.7792 50.3984 12.7792H58.749H58.8666V12.6615V6.89683C58.8666 4.17224 56.65 1.95565 53.9254 1.95565H7.10191C4.37732 1.95565 2.16073 4.17224 2.16073 6.89683V12.6615V12.7792H2.27838H43.3396C43.7612 12.7792 44.1043 13.1222 44.1043 13.5439C44.1043 13.9655 43.7612 14.3086 43.3396 14.3086H2.27838H2.16073V14.4262V38.2498C2.16073 38.6714 1.81767 39.0145 1.39602 39.0145C0.974378 39.0145 0.631319 38.6714 0.631319 38.2498V6.89683C0.631319 3.32895 3.53402 0.426241 7.10191 0.426241H53.9254ZM53.9254 0.308594H7.10191C3.46908 0.308594 0.513672 3.26401 0.513672 6.89683V38.2498C0.513672 38.7372 0.908613 39.1321 1.39602 39.1321C1.88344 39.1321 2.27838 38.7372 2.27838 38.2498V14.4262H43.3396C43.827 14.4262 44.2219 14.0313 44.2219 13.5439C44.2219 13.0565 43.827 12.6615 43.3396 12.6615H2.27838V6.89683C2.27838 4.23718 4.44226 2.0733 7.10191 2.0733H53.9254C56.5851 2.0733 58.749 4.23718 58.749 6.89683V12.6615H50.3984C49.911 12.6615 49.516 13.0565 49.516 13.5439C49.516 14.0313 49.911 14.4262 50.3984 14.4262H58.749V53.7204C58.749 56.38 56.5851 58.5439 53.9254 58.5439H7.10191C4.44226 58.5439 2.27838 56.38 2.27838 53.7204V45.3086C2.27838 44.8212 1.88344 44.4262 1.39602 44.4262C0.908613 44.4262 0.513672 44.8212 0.513672 45.3086V53.7204C0.513672 57.3532 3.46908 60.3086 7.10191 60.3086H53.9254C57.5583 60.3086 60.5137 57.3532 60.5137 53.7204V6.89683C60.5137 3.26401 57.5583 0.308594 53.9254 0.308594Z" fill="#155263"/>
<path d="M8.45445 9.95528C7.02727 9.95528 5.86621 8.79422 5.86621 7.36704C5.86621 5.93987 7.02727 4.77881 8.45445 4.77881C9.88162 4.77881 11.0427 5.93987 11.0427 7.36704C11.0427 8.79422 9.88162 9.95528 8.45445 9.95528ZM8.45445 6.42587C7.93551 6.42587 7.51327 6.8481 7.51327 7.36704C7.51327 7.88599 7.93551 8.30822 8.45445 8.30822C8.97339 8.30822 9.39562 7.88599 9.39562 7.36704C9.39562 6.8481 8.97339 6.42587 8.45445 6.42587Z" fill="#155263"/>
<path d="M8.45468 4.83786C9.84938 4.83786 10.9841 5.97257 10.9841 7.36727C10.9841 8.76198 9.84938 9.89669 8.45468 9.89669C7.05997 9.89669 5.92526 8.76198 5.92526 7.36727C5.92526 5.97257 7.05997 4.83786 8.45468 4.83786ZM8.45468 8.36727C9.00609 8.36727 9.45468 7.91869 9.45468 7.36727C9.45468 6.81586 9.00609 6.36727 8.45468 6.36727C7.90326 6.36727 7.45468 6.81586 7.45468 7.36727C7.45468 7.91869 7.90326 8.36727 8.45468 8.36727ZM8.45468 4.72021C6.99515 4.72021 5.80762 5.90774 5.80762 7.36727C5.80762 8.8268 6.99515 10.0143 8.45468 10.0143C9.91421 10.0143 11.1017 8.8268 11.1017 7.36727C11.1017 5.90774 9.91421 4.72021 8.45468 4.72021ZM8.45468 8.24963C7.96809 8.24963 7.57232 7.85386 7.57232 7.36727C7.57232 6.88069 7.96809 6.48492 8.45468 6.48492C8.94126 6.48492 9.33703 6.88069 9.33703 7.36727C9.33703 7.85386 8.94126 8.24963 8.45468 8.24963Z" fill="#155263"/>
<path d="M15.513 9.95528C14.0859 9.95528 12.9248 8.79422 12.9248 7.36704C12.9248 5.93987 14.0859 4.77881 15.513 4.77881C16.9402 4.77881 18.1013 5.93987 18.1013 7.36704C18.1013 8.79422 16.9402 9.95528 15.513 9.95528ZM15.513 6.42587C14.9941 6.42587 14.5719 6.8481 14.5719 7.36704C14.5719 7.88599 14.9941 8.30822 15.513 8.30822C16.032 8.30822 16.4542 7.88599 16.4542 7.36704C16.4542 6.8481 16.032 6.42587 15.513 6.42587Z" fill="#155263"/>
<path d="M15.5133 4.83786C16.908 4.83786 18.0427 5.97257 18.0427 7.36727C18.0427 8.76198 16.908 9.89669 15.5133 9.89669C14.1186 9.89669 12.9839 8.76198 12.9839 7.36727C12.9839 5.97257 14.1186 4.83786 15.5133 4.83786ZM15.5133 8.36727C16.0647 8.36727 16.5133 7.91869 16.5133 7.36727C16.5133 6.81586 16.0647 6.36727 15.5133 6.36727C14.9619 6.36727 14.5133 6.81586 14.5133 7.36727C14.5133 7.91869 14.9619 8.36727 15.5133 8.36727ZM15.5133 4.72021C14.0537 4.72021 12.8662 5.90774 12.8662 7.36727C12.8662 8.8268 14.0537 10.0143 15.5133 10.0143C16.9728 10.0143 18.1603 8.8268 18.1603 7.36727C18.1603 5.90774 16.9728 4.72021 15.5133 4.72021ZM15.5133 8.24963C15.0267 8.24963 14.6309 7.85386 14.6309 7.36727C14.6309 6.88069 15.0267 6.48492 15.5133 6.48492C15.9999 6.48492 16.3956 6.88069 16.3956 7.36727C16.3956 7.85386 15.9999 8.24963 15.5133 8.24963Z" fill="#155263"/>
<path d="M22.5726 9.95528C21.1454 9.95528 19.9844 8.79422 19.9844 7.36704C19.9844 5.93987 21.1454 4.77881 22.5726 4.77881C23.9998 4.77881 25.1608 5.93987 25.1608 7.36704C25.1608 8.79422 23.9998 9.95528 22.5726 9.95528ZM22.5726 6.42587C22.0537 6.42587 21.6314 6.8481 21.6314 7.36704C21.6314 7.88599 22.0537 8.30822 22.5726 8.30822C23.0916 8.30822 23.5138 7.88599 23.5138 7.36704C23.5138 6.8481 23.0916 6.42587 22.5726 6.42587Z" fill="#155263"/>
<path d="M22.5728 4.83786C23.9675 4.83786 25.1023 5.97257 25.1023 7.36727C25.1023 8.76198 23.9675 9.89669 22.5728 9.89669C21.1781 9.89669 20.0434 8.76198 20.0434 7.36727C20.0434 5.97257 21.1781 4.83786 22.5728 4.83786ZM22.5728 8.36727C23.1243 8.36727 23.5728 7.91869 23.5728 7.36727C23.5728 6.81586 23.1243 6.36727 22.5728 6.36727C22.0214 6.36727 21.5728 6.81586 21.5728 7.36727C21.5728 7.91869 22.0214 8.36727 22.5728 8.36727ZM22.5728 4.72021C21.1133 4.72021 19.9258 5.90774 19.9258 7.36727C19.9258 8.8268 21.1133 10.0143 22.5728 10.0143C24.0324 10.0143 25.2199 8.8268 25.2199 7.36727C25.2199 5.90774 24.0324 4.72021 22.5728 4.72021ZM22.5728 8.24963C22.0863 8.24963 21.6905 7.85386 21.6905 7.36727C21.6905 6.88069 22.0863 6.48492 22.5728 6.48492C23.0594 6.48492 23.4552 6.88069 23.4552 7.36727C23.4552 7.85386 23.0594 8.24963 22.5728 8.24963Z" fill="#155263"/>
<path d="M31.3959 9.95528C29.9687 9.95528 28.8076 8.79422 28.8076 7.36704C28.8076 5.93987 29.9687 4.77881 31.3959 4.77881H52.5723C53.9995 4.77881 55.1606 5.93987 55.1606 7.36704C55.1606 8.79422 53.9995 9.95528 52.5723 9.95528H31.3959ZM31.3959 6.42587C30.8769 6.42587 30.4547 6.8481 30.4547 7.36704C30.4547 7.88599 30.8769 8.30822 31.3959 8.30822H52.5723C53.0913 8.30822 53.5135 7.88599 53.5135 7.36704C53.5135 6.8481 53.0913 6.42587 52.5723 6.42587H31.3959Z" fill="#155263"/>
<path d="M52.5726 4.83786C53.9673 4.83786 55.102 5.97257 55.102 7.36727C55.102 8.76198 53.9673 9.89669 52.5726 9.89669H31.3961C30.0014 9.89669 28.8667 8.76198 28.8667 7.36727C28.8667 5.97257 30.0014 4.83786 31.3961 4.83786H52.5726ZM31.3961 8.36727H52.5726C53.124 8.36727 53.5726 7.91869 53.5726 7.36727C53.5726 6.81586 53.124 6.36727 52.5726 6.36727H31.3961C30.8447 6.36727 30.3961 6.81586 30.3961 7.36727C30.3961 7.91869 30.8447 8.36727 31.3961 8.36727ZM52.5726 4.72021H31.3961C29.9366 4.72021 28.749 5.90774 28.749 7.36727C28.749 8.8268 29.9366 10.0143 31.3961 10.0143H52.5726C54.0321 10.0143 55.2196 8.8268 55.2196 7.36727C55.2196 5.90774 54.0321 4.72021 52.5726 4.72021ZM31.3961 8.24963C30.9095 8.24963 30.5137 7.85386 30.5137 7.36727C30.5137 6.88069 30.9095 6.48492 31.3961 6.48492H52.5726C53.0591 6.48492 53.4549 6.88069 53.4549 7.36727C53.4549 7.85386 53.0591 8.24963 52.5726 8.24963H31.3961Z" fill="#155263"/>
<path d="M17.2779 55.8376C11.9585 55.8376 7.63086 51.5099 7.63086 46.1905C7.63086 40.8711 11.9585 36.5435 17.2779 36.5435C22.5973 36.5435 26.925 40.8711 26.925 46.1905C26.925 51.5099 22.5973 55.8376 17.2779 55.8376ZM17.2779 38.1905C12.8667 38.1905 9.27792 41.7793 9.27792 46.1905C9.27792 50.6017 12.8667 54.1905 17.2779 54.1905C21.6891 54.1905 25.2779 50.6017 25.2779 46.1905C25.2779 41.7793 21.6891 38.1905 17.2779 38.1905Z" fill="#155263"/>
<path d="M17.2781 36.6025C22.5651 36.6025 26.8664 40.9038 26.8664 46.1907C26.8664 51.4777 22.5651 55.779 17.2781 55.779C11.9912 55.779 7.68991 51.4777 7.68991 46.1907C7.68991 40.9038 11.9912 36.6025 17.2781 36.6025ZM17.2781 54.2496C21.7218 54.2496 25.337 50.6344 25.337 46.1907C25.337 41.7471 21.7218 38.1319 17.2781 38.1319C12.8345 38.1319 9.21932 41.7471 9.21932 46.1907C9.21932 50.6344 12.8345 54.2496 17.2781 54.2496ZM17.2781 36.4849C11.9264 36.4849 7.57227 40.839 7.57227 46.1907C7.57227 51.5425 11.9264 55.8966 17.2781 55.8966C22.6299 55.8966 26.984 51.5425 26.984 46.1907C26.984 40.839 22.6299 36.4849 17.2781 36.4849ZM17.2781 54.1319C12.8993 54.1319 9.33697 50.5696 9.33697 46.1907C9.33697 41.8119 12.8993 38.2496 17.2781 38.2496C21.657 38.2496 25.2193 41.8119 25.2193 46.1907C25.2193 50.5696 21.657 54.1319 17.2781 54.1319Z" fill="#155263"/>
<path d="M16.396 48.7794C16.176 48.7794 15.9693 48.6936 15.8136 48.5382L13.1666 45.8912C12.8455 45.5701 12.8455 45.0475 13.1666 44.7265C13.3221 44.5711 13.529 44.4854 13.7489 44.4854C13.9688 44.4854 14.1758 44.5711 14.3313 44.7265L16.396 46.7913L20.2254 42.9618C20.3809 42.8063 20.5879 42.7207 20.8078 42.7207C21.0276 42.7207 21.2346 42.8063 21.3901 42.9618C21.7112 43.2828 21.7112 43.8054 21.3901 44.1265L16.9783 48.5382C16.8227 48.6936 16.616 48.7794 16.396 48.7794Z" fill="#155263"/>
<path d="M20.8075 42.7793C21.0117 42.7793 21.2038 42.8588 21.3482 43.0032C21.6463 43.3014 21.6463 43.7866 21.3482 44.0847L16.9364 48.4964C16.7919 48.6409 16.5998 48.7204 16.3956 48.7204C16.1914 48.7204 15.9992 48.6409 15.8548 48.4966L13.2077 45.8495C12.9096 45.5513 12.9096 45.0661 13.2077 44.768C13.3522 44.6236 13.5443 44.5441 13.7485 44.5441C13.9528 44.5441 14.1449 44.6236 14.2894 44.768L16.3124 46.7912L16.3956 46.8743L16.4788 46.7912L20.2665 43.0033C20.4111 42.8588 20.6032 42.7793 20.8075 42.7793ZM20.8075 42.6616C20.5817 42.6616 20.3558 42.7477 20.1835 42.92L16.3957 46.708L14.3727 44.6848C14.2003 44.5126 13.9745 44.4264 13.7487 44.4264C13.5228 44.4264 13.297 44.5126 13.1247 44.6848C12.7801 45.0295 12.7801 45.5881 13.1247 45.9327L15.7717 48.5797C15.9441 48.752 16.1698 48.8381 16.3957 48.8381C16.6216 48.8381 16.8472 48.752 17.0197 48.5797L21.4315 44.168C21.7761 43.8233 21.7761 43.2647 21.4315 42.9201C21.2591 42.7477 21.0332 42.6616 20.8075 42.6616Z" fill="#155263"/>
<path d="M8.45439 25.8377C8.00027 25.8377 7.63086 25.4683 7.63086 25.0142V17.9554C7.63086 17.5012 8.00027 17.1318 8.45439 17.1318H26.1014C26.5556 17.1318 26.925 17.5012 26.925 17.9554V25.0142C26.925 25.4683 26.5556 25.8377 26.1014 25.8377H8.45439ZM9.27792 24.1907H25.2779V18.7789H9.27792V24.1907Z" fill="#155263"/>
<path d="M26.1017 17.1909C26.5233 17.1909 26.8664 17.5339 26.8664 17.9556V25.0144C26.8664 25.4361 26.5233 25.7791 26.1017 25.7791H8.45462C8.03297 25.7791 7.68991 25.4361 7.68991 25.0144V17.9556C7.68991 17.5339 8.03297 17.1909 8.45462 17.1909H26.1017ZM9.21932 24.2497H9.33697H25.2193H25.337V24.1321V18.8379V18.7203H25.2193H9.33697H9.21932V18.8379V24.1321V24.2497ZM26.1017 17.0732H8.45462C7.96721 17.0732 7.57227 17.4682 7.57227 17.9556V25.0144C7.57227 25.5018 7.96721 25.8968 8.45462 25.8968H26.1017C26.5891 25.8968 26.984 25.5018 26.984 25.0144V17.9556C26.984 17.4682 26.5891 17.0732 26.1017 17.0732ZM9.33697 24.1321V18.8379H25.2193V24.1321H9.33697Z" fill="#155263"/>
<path d="M13.7483 29.3673C13.2942 29.3673 12.9248 28.9979 12.9248 28.5437C12.9248 28.0896 13.2942 27.7202 13.7483 27.7202H26.1013C26.5554 27.7202 26.9248 28.0896 26.9248 28.5437C26.9248 28.9979 26.5554 29.3673 26.1013 29.3673H13.7483Z" fill="#155263"/>
<path d="M26.1015 27.7793C26.5232 27.7793 26.8662 28.1223 26.8662 28.544C26.8662 28.9656 26.5232 29.3087 26.1015 29.3087H13.7486C13.3269 29.3087 12.9839 28.9656 12.9839 28.544C12.9839 28.1223 13.3269 27.7793 13.7486 27.7793H26.1015ZM26.1015 27.6616H13.7486C13.2612 27.6616 12.8662 28.0566 12.8662 28.544C12.8662 29.0314 13.2612 29.4263 13.7486 29.4263H26.1015C26.5889 29.4263 26.9839 29.0314 26.9839 28.544C26.9839 28.0566 26.5889 27.6616 26.1015 27.6616Z" fill="#155263"/>
<path d="M13.7483 32.8966C13.2942 32.8966 12.9248 32.527 12.9248 32.073C12.9248 31.619 13.2942 31.2495 13.7483 31.2495H26.1013C26.5554 31.2495 26.9248 31.619 26.9248 32.073C26.9248 32.527 26.5554 32.8966 26.1013 32.8966H13.7483Z" fill="#155263"/>
<path d="M26.1015 31.3086C26.5232 31.3086 26.8662 31.6516 26.8662 32.0733C26.8662 32.4949 26.5232 32.838 26.1015 32.838H13.7486C13.3269 32.838 12.9839 32.4949 12.9839 32.0733C12.9839 31.6516 13.3269 31.3086 13.7486 31.3086H26.1015ZM26.1015 31.1909H13.7486C13.2612 31.1909 12.8662 31.5859 12.8662 32.0733C12.8662 32.5607 13.2612 32.9556 13.7486 32.9556H26.1015C26.5889 32.9556 26.9839 32.5607 26.9839 32.0733C26.9839 31.5859 26.5889 31.1909 26.1015 31.1909Z" fill="#155263"/>
<path d="M8.45439 29.3673C8.00027 29.3673 7.63086 28.9979 7.63086 28.5437C7.63086 28.0896 8.00027 27.7202 8.45439 27.7202H9.33674C9.79086 27.7202 10.1603 28.0896 10.1603 28.5437C10.1603 28.9979 9.79086 29.3673 9.33674 29.3673H8.45439Z" fill="#155263"/>
<path d="M9.33697 27.7793C9.75862 27.7793 10.1017 28.1223 10.1017 28.544C10.1017 28.9656 9.75862 29.3087 9.33697 29.3087H8.45462C8.03297 29.3087 7.68991 28.9656 7.68991 28.544C7.68991 28.1223 8.03297 27.7793 8.45462 27.7793H9.33697ZM9.33697 27.6616H8.45462C7.96721 27.6616 7.57227 28.0566 7.57227 28.544C7.57227 29.0314 7.96721 29.4263 8.45462 29.4263H9.33697C9.82438 29.4263 10.2193 29.0314 10.2193 28.544C10.2193 28.0566 9.82438 27.6616 9.33697 27.6616Z" fill="#155263"/>
<path d="M8.45439 32.8966C8.00027 32.8966 7.63086 32.527 7.63086 32.073C7.63086 31.619 8.00027 31.2495 8.45439 31.2495H9.33674C9.79086 31.2495 10.1603 31.619 10.1603 32.073C10.1603 32.527 9.79086 32.8966 9.33674 32.8966H8.45439Z" fill="#155263"/>
<path d="M9.33697 31.3086C9.75862 31.3086 10.1017 31.6516 10.1017 32.0733C10.1017 32.4949 9.75862 32.838 9.33697 32.838H8.45462C8.03297 32.838 7.68991 32.4949 7.68991 32.0733C7.68991 31.6516 8.03297 31.3086 8.45462 31.3086H9.33697ZM9.33697 31.1909H8.45462C7.96721 31.1909 7.57227 31.5859 7.57227 32.0733C7.57227 32.5607 7.96721 32.9556 8.45462 32.9556H9.33697C9.82438 32.9556 10.2193 32.5607 10.2193 32.0733C10.2193 31.5859 9.82438 31.1909 9.33697 31.1909Z" fill="#155263"/>
<path d="M43.7486 55.8376C38.4292 55.8376 34.1016 51.5099 34.1016 46.1905C34.1016 40.8711 38.4292 36.5435 43.7486 36.5435C49.068 36.5435 53.3957 40.8711 53.3957 46.1905C53.3957 51.5099 49.068 55.8376 43.7486 55.8376ZM43.7486 38.1905C39.3374 38.1905 35.7486 41.7793 35.7486 46.1905C35.7486 50.6017 39.3374 54.1905 43.7486 54.1905C48.1598 54.1905 51.7486 50.6017 51.7486 46.1905C51.7486 41.7793 48.1598 38.1905 43.7486 38.1905Z" fill="#155263"/>
<path d="M43.7489 36.6025C49.0358 36.6025 53.3371 40.9038 53.3371 46.1907C53.3371 51.4777 49.0358 55.779 43.7489 55.779C38.4619 55.779 34.1606 51.4777 34.1606 46.1907C34.1606 40.9038 38.4619 36.6025 43.7489 36.6025ZM43.7489 54.2496C48.1925 54.2496 51.8077 50.6344 51.8077 46.1907C51.8077 41.7471 48.1925 38.1319 43.7489 38.1319C39.3052 38.1319 35.69 41.7471 35.69 46.1907C35.69 50.6344 39.3052 54.2496 43.7489 54.2496ZM43.7489 36.4849C38.3971 36.4849 34.043 40.839 34.043 46.1907C34.043 51.5425 38.3971 55.8966 43.7489 55.8966C49.1006 55.8966 53.4547 51.5425 53.4547 46.1907C53.4547 40.839 49.1006 36.4849 43.7489 36.4849ZM43.7489 54.1319C39.37 54.1319 35.8077 50.5696 35.8077 46.1907C35.8077 41.8119 39.37 38.2496 43.7489 38.2496C48.1277 38.2496 51.69 41.8119 51.69 46.1907C51.69 50.5696 48.1277 54.1319 43.7489 54.1319Z" fill="#155263"/>
<path d="M34.9251 25.8377C34.4711 25.8377 34.1016 25.4683 34.1016 25.0142V17.9554C34.1016 17.5012 34.4711 17.1318 34.9251 17.1318H52.5721C53.0261 17.1318 53.3957 17.5012 53.3957 17.9554V25.0142C53.3957 25.4683 53.0261 25.8377 52.5721 25.8377H34.9251ZM35.7486 24.1907H51.7486V18.7789H35.7486V24.1907Z" fill="#155263"/>
<path d="M52.5724 17.1909C52.994 17.1909 53.3371 17.5339 53.3371 17.9556V25.0144C53.3371 25.4361 52.994 25.7791 52.5724 25.7791H34.9253C34.5037 25.7791 34.1606 25.4361 34.1606 25.0144V17.9556C34.1606 17.5339 34.5037 17.1909 34.9253 17.1909H52.5724ZM35.69 24.2497H35.8077H51.69H51.8077V24.1321V18.8379V18.7203H51.69H35.8077H35.69V18.8379V24.1321V24.2497ZM52.5724 17.0732H34.9253C34.4379 17.0732 34.043 17.4682 34.043 17.9556V25.0144C34.043 25.5018 34.4379 25.8968 34.9253 25.8968H52.5724C53.0598 25.8968 53.4547 25.5018 53.4547 25.0144V17.9556C53.4547 17.4682 53.0598 17.0732 52.5724 17.0732ZM35.8077 24.1321V18.8379H51.69V24.1321H35.8077Z" fill="#155263"/>
<path d="M40.219 29.3673C39.765 29.3673 39.3955 28.9979 39.3955 28.5437C39.3955 28.0896 39.765 27.7202 40.219 27.7202H52.572C53.026 27.7202 53.3955 28.0896 53.3955 28.5437C53.3955 28.9979 53.026 29.3673 52.572 29.3673H40.219Z" fill="#155263"/>
<path d="M52.5722 27.7793C52.9939 27.7793 53.3369 28.1223 53.3369 28.544C53.3369 28.9656 52.9939 29.3087 52.5722 29.3087H40.2193C39.7976 29.3087 39.4546 28.9656 39.4546 28.544C39.4546 28.1223 39.7976 27.7793 40.2193 27.7793H52.5722ZM52.5722 27.6616H40.2193C39.7319 27.6616 39.3369 28.0566 39.3369 28.544C39.3369 29.0314 39.7319 29.4263 40.2193 29.4263H52.5722C53.0596 29.4263 53.4546 29.0314 53.4546 28.544C53.4546 28.0566 53.0596 27.6616 52.5722 27.6616Z" fill="#155263"/>
<path d="M40.219 32.8966C39.765 32.8966 39.3955 32.527 39.3955 32.073C39.3955 31.619 39.765 31.2495 40.219 31.2495H52.572C53.026 31.2495 53.3955 31.619 53.3955 32.073C53.3955 32.527 53.026 32.8966 52.572 32.8966H40.219Z" fill="#155263"/>
<path d="M52.5722 31.3086C52.9939 31.3086 53.3369 31.6516 53.3369 32.0733C53.3369 32.4949 52.9939 32.838 52.5722 32.838H40.2193C39.7976 32.838 39.4546 32.4949 39.4546 32.0733C39.4546 31.6516 39.7976 31.3086 40.2193 31.3086H52.5722ZM52.5722 31.1909H40.2193C39.7319 31.1909 39.3369 31.5859 39.3369 32.0733C39.3369 32.5607 39.7319 32.9556 40.2193 32.9556H52.5722C53.0596 32.9556 53.4546 32.5607 53.4546 32.0733C53.4546 31.5859 53.0596 31.1909 52.5722 31.1909Z" fill="#155263"/>
<path d="M34.9251 29.3673C34.4711 29.3673 34.1016 28.9979 34.1016 28.5437C34.1016 28.0896 34.4711 27.7202 34.9251 27.7202H35.8074C36.2614 27.7202 36.631 28.0896 36.631 28.5437C36.631 28.9979 36.2614 29.3673 35.8074 29.3673H34.9251Z" fill="#155263"/>
<path d="M35.8077 27.7793C36.2293 27.7793 36.5724 28.1223 36.5724 28.544C36.5724 28.9656 36.2293 29.3087 35.8077 29.3087H34.9253C34.5037 29.3087 34.1606 28.9656 34.1606 28.544C34.1606 28.1223 34.5037 27.7793 34.9253 27.7793H35.8077ZM35.8077 27.6616H34.9253C34.4379 27.6616 34.043 28.0566 34.043 28.544C34.043 29.0314 34.4379 29.4263 34.9253 29.4263H35.8077C36.2951 29.4263 36.69 29.0314 36.69 28.544C36.69 28.0566 36.2951 27.6616 35.8077 27.6616Z" fill="#155263"/>
<path d="M34.9251 32.8966C34.4711 32.8966 34.1016 32.527 34.1016 32.073C34.1016 31.619 34.4711 31.2495 34.9251 31.2495H35.8074C36.2614 31.2495 36.631 31.619 36.631 32.073C36.631 32.527 36.2614 32.8966 35.8074 32.8966H34.9251Z" fill="#155263"/>
<path d="M35.8077 31.3086C36.2293 31.3086 36.5724 31.6516 36.5724 32.0733C36.5724 32.4949 36.2293 32.838 35.8077 32.838H34.9253C34.5037 32.838 34.1606 32.4949 34.1606 32.0733C34.1606 31.6516 34.5037 31.3086 34.9253 31.3086H35.8077ZM35.8077 31.1909H34.9253C34.4379 31.1909 34.043 31.5859 34.043 32.0733C34.043 32.5607 34.4379 32.9556 34.9253 32.9556H35.8077C36.2951 32.9556 36.69 32.5607 36.69 32.0733C36.69 31.5859 36.2951 31.1909 35.8077 31.1909Z" fill="#155263"/>
<path d="M46.869 50.1342C46.6491 50.1342 46.4421 50.0484 46.2866 49.893L43.7493 47.3557L41.2121 49.8929C41.0566 50.0483 40.8498 50.134 40.6299 50.134C40.41 50.134 40.203 50.0483 40.0474 49.8929C39.7264 49.5718 39.7264 49.0492 40.0474 48.7282L42.5846 46.191L40.0474 43.6538C39.7264 43.3328 39.7264 42.8102 40.0474 42.4891C40.203 42.3337 40.4098 42.248 40.6298 42.248C40.8498 42.248 41.0566 42.3337 41.2121 42.4891L43.7493 45.0263L46.2865 42.4891C46.442 42.3337 46.6488 42.248 46.8688 42.248C47.0888 42.248 47.2957 42.3337 47.4512 42.4891C47.7723 42.8102 47.7723 43.3328 47.4512 43.6538L44.914 46.191L47.4512 48.7282C47.7723 49.0492 47.7723 49.5718 47.4512 49.8929C47.2958 50.0484 47.0888 50.1342 46.869 50.1342Z" fill="#155263"/>
<path d="M46.8688 42.3066C47.073 42.3066 47.2652 42.3861 47.4095 42.5305C47.7076 42.8287 47.7076 43.3139 47.4095 43.612L44.9139 46.1077L44.8307 46.1908L44.9139 46.274L47.4095 48.7697C47.7076 49.0679 47.7076 49.5531 47.4095 49.8512C47.265 49.9957 47.0729 50.0752 46.8687 50.0752C46.6645 50.0752 46.4723 49.9957 46.3279 49.8513L43.8323 47.3556L43.7492 47.2724L43.666 47.3556L41.1703 49.8512C41.0259 49.9957 40.8337 50.0752 40.6295 50.0752C40.4253 50.0752 40.2332 49.9957 40.0887 49.8513C39.7906 49.5531 39.7906 49.0679 40.0887 48.7698L42.5843 46.2741L42.6675 46.191L42.5843 46.1078L40.0887 43.6121C39.7906 43.3139 39.7906 42.8287 40.0887 42.5306C40.2332 42.3863 40.4253 42.3067 40.6295 42.3067C40.8337 42.3067 41.0259 42.3863 41.1703 42.5306L43.666 45.0263L43.7492 45.1094L43.8323 45.0263L46.328 42.5306C46.4725 42.3861 46.6645 42.3066 46.8688 42.3066ZM46.8688 42.189C46.643 42.189 46.4172 42.2751 46.2448 42.4473L43.7492 44.943L41.2535 42.4473C41.0812 42.2751 40.8554 42.189 40.6295 42.189C40.4036 42.189 40.1779 42.2751 40.0055 42.4473C39.6609 42.792 39.6609 43.3506 40.0055 43.6952L42.5013 46.1908L40.0056 48.6865C39.661 49.0312 39.661 49.5898 40.0056 49.9344C40.178 50.1066 40.4037 50.1927 40.6296 50.1927C40.8555 50.1927 41.0812 50.1066 41.2536 49.9344L43.7493 47.4387L46.2449 49.9344C46.4173 50.1066 46.643 50.1927 46.8689 50.1927C47.0948 50.1927 47.3205 50.1066 47.4929 49.9344C47.8375 49.5897 47.8375 49.0311 47.4929 48.6865L44.997 46.1908L47.4927 43.6952C47.8373 43.3505 47.8373 42.7919 47.4927 42.4473C47.3203 42.2751 47.0946 42.189 46.8688 42.189Z" fill="#155263"/>
<path d="M46.8685 14.3673C47.3233 14.3673 47.692 13.9986 47.692 13.5437C47.692 13.0889 47.3233 12.7202 46.8685 12.7202C46.4136 12.7202 46.0449 13.0889 46.0449 13.5437C46.0449 13.9986 46.4136 14.3673 46.8685 14.3673Z" fill="#155263"/>
<path d="M46.8687 12.7793C47.2903 12.7793 47.6334 13.1223 47.6334 13.544C47.6334 13.9656 47.2903 14.3087 46.8687 14.3087C46.447 14.3087 46.104 13.9656 46.104 13.544C46.104 13.1223 46.4469 12.7793 46.8687 12.7793ZM46.8687 12.6616C46.3814 12.6616 45.9863 13.0567 45.9863 13.544C45.9863 14.0313 46.3814 14.4263 46.8687 14.4263C47.356 14.4263 47.751 14.0313 47.751 13.544C47.751 13.0567 47.356 12.6616 46.8687 12.6616Z" fill="#155263"/>
<path d="M1.3958 42.6026C1.85062 42.6026 2.21932 42.2339 2.21932 41.7791C2.21932 41.3243 1.85062 40.9556 1.3958 40.9556C0.940972 40.9556 0.572266 41.3243 0.572266 41.7791C0.572266 42.2339 0.940972 42.6026 1.3958 42.6026Z" fill="#155263"/>
<path d="M1.39602 41.0146C1.81767 41.0146 2.16073 41.3577 2.16073 41.7793C2.16073 42.201 1.81767 42.544 1.39602 42.544C0.974378 42.544 0.631319 42.201 0.631319 41.7793C0.631319 41.3577 0.974378 41.0146 1.39602 41.0146ZM1.39602 40.897C0.908731 40.897 0.513672 41.292 0.513672 41.7793C0.513672 42.2666 0.908731 42.6617 1.39602 42.6617C1.88332 42.6617 2.27838 42.2666 2.27838 41.7793C2.27838 41.292 1.88332 40.897 1.39602 40.897Z" fill="#155263"/>
</svg>
