<svg width="1622" height="774" viewBox="0 0 1622 774" fill="none" xmlns="http://www.w3.org/2000/svg">
<path d="M1560.75 366.837L1566.26 367.847L1567.49 373.657L1568.72 367.847L1574.23 366.827L1568.74 365.487L1567.49 360.007L1566.23 365.487L1560.75 366.837Z" fill="#C7C7C7"/>
<path d="M1333.46 335.477L1338.97 336.497L1340.2 342.307L1341.43 336.497L1346.94 335.477L1341.46 334.137L1340.2 328.657L1338.95 334.137L1333.46 335.477Z" fill="#C7C7C7"/>
<path d="M1504.48 273.407L1509.99 274.427L1511.22 280.227L1512.45 274.427L1517.96 273.407L1512.48 272.057L1511.22 266.577L1509.97 272.057L1504.48 273.407Z" fill="#C7C7C7"/>
<path d="M1613.11 332.647L1616.19 333.217L1616.88 336.467L1617.57 333.217L1620.64 332.647L1617.58 331.897L1616.88 328.837L1616.18 331.897L1613.11 332.647Z" fill="#C7C7C7"/>
<path d="M1379.47 456.147L1382.54 456.717L1383.23 459.967L1383.92 456.717L1387 456.147L1383.93 455.397L1383.23 452.337L1382.53 455.397L1379.47 456.147Z" fill="#C7C7C7"/>
<path d="M1605.58 186.557L1608.66 187.127L1609.35 190.367L1610.03 187.127L1613.11 186.547L1610.05 185.807L1609.35 182.737L1608.64 185.807L1605.58 186.557Z" fill="#C7C7C7"/>
<path d="M1242.39 256.367L1245.47 256.937L1246.16 260.177L1246.84 256.937L1249.92 256.367L1246.86 255.617L1246.16 252.547L1245.46 255.617L1242.39 256.367Z" fill="#C7C7C7"/>
<path d="M1258.91 421.557L1261.99 422.127L1262.68 425.367L1263.36 422.127L1266.44 421.557L1263.38 420.807L1262.68 417.737L1261.97 420.807L1258.91 421.557Z" fill="#C7C7C7"/>
<path d="M1593.7 268.767L1596.78 269.337L1597.46 272.577L1598.15 269.337L1601.23 268.767L1598.17 268.017L1597.46 264.947L1596.76 268.017L1593.7 268.767Z" fill="#C7C7C7"/>
<path d="M1463.83 373.657L1466.91 374.227L1467.6 377.477L1468.29 374.227L1471.37 373.657L1468.3 372.907L1467.6 369.847L1466.9 372.907L1463.83 373.657Z" fill="#C7C7C7"/>
<path d="M1351.79 113.037L1354.87 113.607L1355.56 116.847L1356.25 113.607L1359.32 113.037L1356.26 112.287L1355.56 109.217L1354.86 112.287L1351.79 113.037Z" fill="#C7C7C7"/>
<path d="M1472.32 361.867L1475.4 362.437L1476.09 365.687L1476.78 362.437L1479.86 361.867L1476.79 361.117L1476.09 358.047L1475.39 361.117L1472.32 361.867Z" fill="#C7C7C7"/>
<path d="M1372.18 463.167C1372.4 463.191 1372.61 463.295 1372.75 463.461C1372.9 463.626 1372.99 463.84 1372.99 464.062C1372.99 464.285 1372.9 464.499 1372.75 464.664C1372.61 464.83 1372.4 464.934 1372.18 464.957C1371.96 464.934 1371.75 464.83 1371.61 464.664C1371.46 464.499 1371.38 464.285 1371.38 464.062C1371.38 463.84 1371.46 463.626 1371.61 463.461C1371.75 463.295 1371.96 463.191 1372.18 463.167Z" fill="#C7C7C7"/>
<path d="M1531.39 295.777C1531.61 295.801 1531.82 295.905 1531.96 296.07C1532.11 296.236 1532.2 296.45 1532.2 296.672C1532.2 296.895 1532.11 297.109 1531.96 297.274C1531.82 297.44 1531.61 297.544 1531.39 297.567C1531.17 297.544 1530.96 297.44 1530.82 297.274C1530.67 297.109 1530.58 296.895 1530.58 296.672C1530.58 296.45 1530.67 296.236 1530.82 296.07C1530.96 295.905 1531.17 295.801 1531.39 295.777Z" fill="#C7C7C7"/>
<path d="M1455.24 370.967C1455.48 370.967 1455.7 371.061 1455.87 371.228C1456.04 371.395 1456.13 371.621 1456.13 371.857C1456.13 372.093 1456.04 372.32 1455.87 372.487C1455.7 372.654 1455.48 372.747 1455.24 372.747C1455 372.747 1454.78 372.654 1454.61 372.487C1454.44 372.32 1454.35 372.093 1454.35 371.857C1454.35 371.621 1454.44 371.395 1454.61 371.228C1454.78 371.061 1455 370.967 1455.24 370.967Z" fill="#C7C7C7"/>
<path d="M1322.87 456.478C1323.11 456.478 1323.33 456.571 1323.5 456.738C1323.67 456.905 1323.76 457.131 1323.76 457.368C1323.76 457.604 1323.67 457.83 1323.5 457.997C1323.33 458.164 1323.11 458.258 1322.87 458.258C1322.63 458.258 1322.41 458.164 1322.24 457.997C1322.07 457.83 1321.98 457.604 1321.98 457.368C1321.98 457.131 1322.07 456.905 1322.24 456.738C1322.41 456.571 1322.63 456.478 1322.87 456.478Z" fill="#C7C7C7"/>
<path d="M1620.81 468.297C1621.03 468.321 1621.24 468.425 1621.38 468.59C1621.53 468.756 1621.62 468.97 1621.62 469.192C1621.62 469.415 1621.53 469.629 1621.38 469.794C1621.24 469.96 1621.03 470.064 1620.81 470.087C1620.59 470.064 1620.38 469.96 1620.24 469.794C1620.09 469.629 1620 469.415 1620 469.192C1620 468.97 1620.09 468.756 1620.24 468.59C1620.38 468.425 1620.59 468.321 1620.81 468.297Z" fill="#C7C7C7"/>
<path d="M1573.86 307.478C1574.1 307.478 1574.32 307.571 1574.49 307.738C1574.66 307.905 1574.75 308.131 1574.75 308.368C1574.75 308.604 1574.66 308.83 1574.49 308.997C1574.32 309.164 1574.1 309.258 1573.86 309.258C1573.62 309.258 1573.4 309.164 1573.23 308.997C1573.06 308.83 1572.97 308.604 1572.97 308.368C1572.97 308.131 1573.06 307.905 1573.23 307.738C1573.4 307.571 1573.62 307.478 1573.86 307.478Z" fill="#C7C7C7"/>
<path d="M1394.54 447.117C1394.71 447.117 1394.87 447.184 1394.99 447.302C1395.1 447.42 1395.17 447.58 1395.17 447.747C1395.17 447.915 1395.1 448.075 1394.99 448.193C1394.87 448.311 1394.71 448.377 1394.54 448.377C1394.37 448.377 1394.21 448.311 1394.09 448.193C1393.98 448.075 1393.91 447.915 1393.91 447.747C1393.91 447.58 1393.98 447.42 1394.09 447.302C1394.21 447.184 1394.37 447.117 1394.54 447.117Z" fill="#C7C7C7"/>
<path d="M1268.46 119.287C1268.61 119.307 1268.76 119.382 1268.86 119.499C1268.96 119.616 1269.02 119.766 1269.02 119.922C1269.02 120.078 1268.96 120.229 1268.86 120.346C1268.76 120.463 1268.61 120.538 1268.46 120.557C1268.31 120.538 1268.16 120.463 1268.06 120.346C1267.96 120.229 1267.9 120.078 1267.9 119.922C1267.9 119.766 1267.96 119.616 1268.06 119.499C1268.16 119.382 1268.31 119.307 1268.46 119.287Z" fill="#C7C7C7"/>
<path d="M1512 322.217C1512.17 322.217 1512.33 322.284 1512.45 322.402C1512.56 322.52 1512.63 322.68 1512.63 322.847C1512.63 323.014 1512.56 323.175 1512.45 323.293C1512.33 323.411 1512.17 323.477 1512 323.477C1511.83 323.477 1511.67 323.411 1511.55 323.293C1511.44 323.175 1511.37 323.014 1511.37 322.847C1511.37 322.68 1511.44 322.52 1511.55 322.402C1511.67 322.284 1511.83 322.217 1512 322.217Z" fill="#C7C7C7"/>
<path d="M1481.46 376.847C1481.63 376.847 1481.79 376.914 1481.91 377.032C1482.02 377.15 1482.09 377.31 1482.09 377.477C1482.09 377.645 1482.02 377.805 1481.91 377.923C1481.79 378.041 1481.63 378.107 1481.46 378.107C1481.29 378.107 1481.13 378.041 1481.01 377.923C1480.9 377.805 1480.83 377.645 1480.83 377.477C1480.83 377.31 1480.9 377.15 1481.01 377.032C1481.13 376.914 1481.29 376.847 1481.46 376.847Z" fill="#C7C7C7"/>
<path d="M1431.51 366.197C1431.66 366.217 1431.81 366.292 1431.91 366.409C1432.01 366.526 1432.07 366.676 1432.07 366.832C1432.07 366.988 1432.01 367.139 1431.91 367.256C1431.81 367.373 1431.66 367.448 1431.51 367.467C1431.36 367.448 1431.21 367.373 1431.11 367.256C1431.01 367.139 1430.95 366.988 1430.95 366.832C1430.95 366.676 1431.01 366.526 1431.11 366.409C1431.21 366.292 1431.36 366.217 1431.51 366.197Z" fill="#C7C7C7"/>
<path d="M1490.56 310.747C1491.01 310.747 1491.45 310.927 1491.77 311.248C1492.09 311.569 1492.27 312.004 1492.27 312.457C1492.27 312.911 1492.09 313.346 1491.77 313.666C1491.45 313.987 1491.01 314.167 1490.56 314.167C1490.11 314.167 1489.67 313.987 1489.35 313.666C1489.03 313.346 1488.85 312.911 1488.85 312.457C1488.85 312.004 1489.03 311.569 1489.35 311.248C1489.67 310.927 1490.11 310.747 1490.56 310.747Z" fill="#C7C7C7"/>
<path d="M1402.99 137.937L1408.5 138.957L1409.73 144.757L1410.96 138.957L1416.47 137.937L1410.98 136.597L1409.73 131.107L1408.47 136.597L1402.99 137.937Z" fill="#C7C7C7"/>
<path d="M1423.98 87.6674L1427.06 88.2374L1427.75 91.4774L1428.44 88.2374L1431.51 87.6674L1428.45 86.9174L1427.75 83.8474L1427.05 86.9174L1423.98 87.6674Z" fill="#C7C7C7"/>
<path d="M1237.34 170.967C1237.58 170.967 1237.8 171.061 1237.97 171.228C1238.14 171.395 1238.23 171.621 1238.23 171.857C1238.23 172.093 1238.14 172.32 1237.97 172.487C1237.8 172.654 1237.58 172.747 1237.34 172.747C1237.1 172.747 1236.88 172.654 1236.71 172.487C1236.54 172.32 1236.45 172.093 1236.45 171.857C1236.45 171.621 1236.54 171.395 1236.71 171.228C1236.88 171.061 1237.1 170.967 1237.34 170.967Z" fill="#C7C7C7"/>
<path d="M1251.36 407.667C1251.58 407.691 1251.79 407.795 1251.93 407.961C1252.08 408.126 1252.17 408.34 1252.17 408.562C1252.17 408.785 1252.08 408.999 1251.93 409.164C1251.79 409.33 1251.58 409.434 1251.36 409.457C1251.14 409.434 1250.93 409.33 1250.79 409.164C1250.64 408.999 1250.55 408.785 1250.55 408.562C1250.55 408.34 1250.64 408.126 1250.79 407.961C1250.93 407.795 1251.14 407.691 1251.36 407.667Z" fill="#C7C7C7"/>
<path d="M1227.19 451.967C1227.41 451.991 1227.62 452.095 1227.76 452.26C1227.91 452.426 1228 452.64 1228 452.862C1228 453.085 1227.91 453.299 1227.76 453.464C1227.62 453.63 1227.41 453.734 1227.19 453.757C1226.97 453.734 1226.76 453.63 1226.62 453.464C1226.47 453.299 1226.38 453.085 1226.38 452.862C1226.38 452.64 1226.47 452.426 1226.62 452.26C1226.76 452.095 1226.97 451.991 1227.19 451.967Z" fill="#C7C7C7"/>
<path d="M1272.9 245.787C1273.12 245.811 1273.33 245.915 1273.47 246.08C1273.62 246.246 1273.71 246.46 1273.71 246.682C1273.71 246.905 1273.62 247.119 1273.47 247.284C1273.33 247.45 1273.12 247.554 1272.9 247.577C1272.68 247.554 1272.47 247.45 1272.33 247.284C1272.18 247.119 1272.09 246.905 1272.09 246.682C1272.09 246.46 1272.18 246.246 1272.33 246.08C1272.47 245.915 1272.68 245.811 1272.9 245.787Z" fill="#C7C7C7"/>
<path d="M1227.19 91.7373C1227.41 91.7607 1227.62 91.8651 1227.76 92.0303C1227.91 92.1956 1228 92.41 1228 92.6323C1228 92.8546 1227.91 93.069 1227.76 93.2343C1227.62 93.3995 1227.41 93.5039 1227.19 93.5273C1226.97 93.5039 1226.76 93.3995 1226.62 93.2343C1226.47 93.069 1226.38 92.8546 1226.38 92.6323C1226.38 92.41 1226.47 92.1956 1226.62 92.0303C1226.76 91.8651 1226.97 91.7607 1227.19 91.7373Z" fill="#C7C7C7"/>
<path d="M1308.21 365.117C1308.36 365.137 1308.51 365.212 1308.61 365.329C1308.71 365.446 1308.77 365.597 1308.77 365.752C1308.77 365.908 1308.71 366.059 1308.61 366.176C1308.51 366.293 1308.36 366.368 1308.21 366.387C1308.06 366.368 1307.91 366.293 1307.81 366.176C1307.71 366.059 1307.65 365.908 1307.65 365.752C1307.65 365.597 1307.71 365.446 1307.81 365.329C1307.91 365.212 1308.06 365.137 1308.21 365.117Z" fill="#C7C7C7"/>
<path d="M1441.39 446.047C1441.56 446.047 1441.72 446.114 1441.84 446.232C1441.95 446.35 1442.02 446.51 1442.02 446.677C1442.02 446.844 1441.95 447.005 1441.84 447.123C1441.72 447.241 1441.56 447.307 1441.39 447.307C1441.22 447.307 1441.06 447.241 1440.94 447.123C1440.83 447.005 1440.76 446.844 1440.76 446.677C1440.76 446.51 1440.83 446.35 1440.94 446.232C1441.06 446.114 1441.22 446.047 1441.39 446.047Z" fill="#C7C7C7"/>
<path d="M1535.15 157.197C1535.3 157.217 1535.45 157.292 1535.55 157.409C1535.65 157.526 1535.71 157.676 1535.71 157.832C1535.71 157.988 1535.65 158.139 1535.55 158.256C1535.45 158.373 1535.3 158.448 1535.15 158.467C1535 158.448 1534.85 158.373 1534.75 158.256C1534.65 158.139 1534.59 157.988 1534.59 157.832C1534.59 157.676 1534.65 157.526 1534.75 157.409C1534.85 157.292 1535 157.217 1535.15 157.197Z" fill="#C7C7C7"/>
<path d="M1421.1 118.537C1421.27 118.537 1421.43 118.604 1421.55 118.722C1421.66 118.84 1421.73 119 1421.73 119.167C1421.73 119.334 1421.66 119.495 1421.55 119.613C1421.43 119.731 1421.27 119.797 1421.1 119.797C1420.93 119.797 1420.77 119.731 1420.65 119.613C1420.54 119.495 1420.47 119.334 1420.47 119.167C1420.47 119 1420.54 118.84 1420.65 118.722C1420.77 118.604 1420.93 118.537 1421.1 118.537Z" fill="#C7C7C7"/>
<path d="M1383.23 342.688C1383.68 342.688 1384.12 342.868 1384.44 343.188C1384.76 343.509 1384.94 343.944 1384.94 344.397C1384.94 344.851 1384.76 345.286 1384.44 345.607C1384.12 345.927 1383.68 346.108 1383.23 346.108C1382.78 346.108 1382.34 345.927 1382.02 345.607C1381.7 345.286 1381.52 344.851 1381.52 344.397C1381.52 343.944 1381.7 343.509 1382.02 343.188C1382.34 342.868 1382.78 342.688 1383.23 342.688Z" fill="#C7C7C7"/>
<path d="M1608.59 213.417C1609.02 213.451 1609.43 213.646 1609.72 213.964C1610.02 214.282 1610.18 214.699 1610.18 215.132C1610.18 215.566 1610.02 215.983 1609.72 216.301C1609.43 216.619 1609.02 216.814 1608.59 216.847C1608.16 216.814 1607.75 216.619 1607.46 216.301C1607.16 215.983 1607 215.566 1607 215.132C1607 214.699 1607.16 214.282 1607.46 213.964C1607.75 213.646 1608.16 213.451 1608.59 213.417Z" fill="#C7C7C7"/>
<path d="M1258.47 363.407C1258.92 363.407 1259.36 363.588 1259.68 363.908C1260 364.229 1260.18 364.664 1260.18 365.117C1260.18 365.571 1260 366.006 1259.68 366.327C1259.36 366.647 1258.92 366.827 1258.47 366.827C1258.02 366.827 1257.58 366.647 1257.26 366.327C1256.94 366.006 1256.76 365.571 1256.76 365.117C1256.76 364.664 1256.94 364.229 1257.26 363.908C1257.58 363.588 1258.02 363.407 1258.47 363.407Z" fill="#C7C7C7"/>
<path d="M1402.19 297.567L1405.27 298.137L1405.96 301.377L1406.65 298.137L1409.73 297.567L1406.66 296.817L1405.96 293.747L1405.26 296.817L1402.19 297.567Z" fill="#C7C7C7"/>
<path d="M1467.6 452.837L1470.68 453.407L1471.37 456.647L1472.05 453.407L1475.13 452.827L1472.07 452.087L1471.37 449.017L1470.66 452.087L1467.6 452.837Z" fill="#C7C7C7"/>
<path d="M1481.24 412.847C1481.46 412.871 1481.67 412.975 1481.81 413.14C1481.96 413.306 1482.05 413.52 1482.05 413.742C1482.05 413.965 1481.96 414.179 1481.81 414.344C1481.67 414.51 1481.46 414.614 1481.24 414.637C1481.02 414.614 1480.81 414.51 1480.67 414.344C1480.52 414.179 1480.43 413.965 1480.43 413.742C1480.43 413.52 1480.52 413.306 1480.67 413.14C1480.81 412.975 1481.02 412.871 1481.24 412.847Z" fill="#C7C7C7"/>
<path d="M1516 389.107C1516.22 389.131 1516.43 389.235 1516.57 389.4C1516.72 389.566 1516.81 389.78 1516.81 390.002C1516.81 390.225 1516.72 390.439 1516.57 390.604C1516.43 390.77 1516.22 390.874 1516 390.897C1515.78 390.874 1515.57 390.77 1515.43 390.604C1515.28 390.439 1515.19 390.225 1515.19 390.002C1515.19 389.78 1515.28 389.566 1515.43 389.4C1515.57 389.235 1515.78 389.131 1516 389.107Z" fill="#C7C7C7"/>
<path d="M1405.96 430.097L1409.04 430.667L1409.73 433.917L1410.42 430.667L1413.5 430.097L1410.43 429.347L1409.73 426.277L1409.03 429.347L1405.96 430.097Z" fill="#C7C7C7"/>
<path d="M1532.7 142.647C1532.92 142.671 1533.13 142.775 1533.27 142.94C1533.42 143.106 1533.51 143.32 1533.51 143.542C1533.51 143.765 1533.42 143.979 1533.27 144.144C1533.13 144.31 1532.92 144.414 1532.7 144.437C1532.48 144.414 1532.27 144.31 1532.13 144.144C1531.98 143.979 1531.89 143.765 1531.89 143.542C1531.89 143.32 1531.98 143.106 1532.13 142.94C1532.27 142.775 1532.48 142.671 1532.7 142.647Z" fill="#C7C7C7"/>
<path d="M1554.17 391.967C1554.34 391.967 1554.5 392.034 1554.62 392.152C1554.73 392.27 1554.8 392.43 1554.8 392.597C1554.8 392.764 1554.73 392.925 1554.62 393.043C1554.5 393.161 1554.34 393.227 1554.17 393.227C1554 393.227 1553.84 393.161 1553.72 393.043C1553.61 392.925 1553.54 392.764 1553.54 392.597C1553.54 392.43 1553.61 392.27 1553.72 392.152C1553.84 392.034 1554 391.967 1554.17 391.967Z" fill="#C7C7C7"/>
<path d="M1285.52 284.587L1288.6 285.157L1289.28 288.397L1289.97 285.157L1293.05 284.587L1289.99 283.837L1289.28 280.767L1288.58 283.837L1285.52 284.587Z" fill="#C7C7C7"/>
<path d="M1249.92 333.697C1250.16 333.697 1250.38 333.791 1250.55 333.958C1250.72 334.125 1250.81 334.351 1250.81 334.587C1250.81 334.823 1250.72 335.05 1250.55 335.217C1250.38 335.383 1250.16 335.477 1249.92 335.477C1249.68 335.477 1249.46 335.383 1249.29 335.217C1249.12 335.05 1249.03 334.823 1249.03 334.587C1249.03 334.351 1249.12 334.125 1249.29 333.958C1249.46 333.791 1249.68 333.697 1249.92 333.697Z" fill="#C7C7C7"/>
<path d="M1373 267.967C1373.24 267.967 1373.46 268.061 1373.63 268.228C1373.8 268.395 1373.89 268.621 1373.89 268.857C1373.89 269.093 1373.8 269.32 1373.63 269.487C1373.46 269.654 1373.24 269.747 1373 269.747C1372.76 269.747 1372.54 269.654 1372.37 269.487C1372.2 269.32 1372.11 269.093 1372.11 268.857C1372.11 268.621 1372.2 268.395 1372.37 268.228C1372.54 268.061 1372.76 267.967 1373 267.967Z" fill="#C7C7C7"/>
<path d="M1268.46 177.797C1268.61 177.817 1268.76 177.892 1268.86 178.009C1268.96 178.126 1269.02 178.276 1269.02 178.432C1269.02 178.588 1268.96 178.739 1268.86 178.856C1268.76 178.973 1268.61 179.048 1268.46 179.067C1268.31 179.048 1268.16 178.973 1268.06 178.856C1267.96 178.739 1267.9 178.588 1267.9 178.432C1267.9 178.276 1267.96 178.126 1268.06 178.009C1268.16 177.892 1268.31 177.817 1268.46 177.797Z" fill="#C7C7C7"/>
<path d="M1260.37 171.967C1260.82 171.967 1261.26 172.147 1261.58 172.468C1261.9 172.789 1262.08 173.224 1262.08 173.677C1262.08 174.131 1261.9 174.566 1261.58 174.886C1261.26 175.207 1260.82 175.387 1260.37 175.387C1259.92 175.387 1259.48 175.207 1259.16 174.886C1258.84 174.566 1258.66 174.131 1258.66 173.677C1258.66 173.224 1258.84 172.789 1259.16 172.468C1259.48 172.147 1259.92 171.967 1260.37 171.967Z" fill="#C7C7C7"/>
<path d="M1610.24 96.4575C1610.69 96.4575 1611.13 96.6377 1611.45 96.9584C1611.77 97.2791 1611.95 97.714 1611.95 98.1675C1611.95 98.621 1611.77 99.056 1611.45 99.3767C1611.13 99.6974 1610.69 99.8775 1610.24 99.8775C1609.79 99.8775 1609.35 99.6974 1609.03 99.3767C1608.71 99.056 1608.53 98.621 1608.53 98.1675C1608.53 97.714 1608.71 97.2791 1609.03 96.9584C1609.35 96.6377 1609.79 96.4575 1610.24 96.4575Z" fill="#C7C7C7"/>
<path d="M1516.26 613.847C1516.27 609.533 1515.45 605.257 1513.83 601.26C1512.19 597.322 1509.59 593.833 1506.23 591.639C1505.41 591.095 1504.54 590.626 1503.63 590.236C1502.75 589.869 1501.83 589.587 1500.88 589.395C1499.05 589.016 1497.16 588.989 1495.31 589.315C1491.66 589.946 1488.28 591.759 1485.29 594.145C1485.11 594.299 1484.9 594.452 1484.72 594.594L1484.3 594.998C1484.03 595.282 1483.73 595.566 1483.5 595.867C1482.95 596.488 1482.45 597.151 1482.01 597.85C1481.05 599.361 1480.22 600.957 1479.54 602.618C1478.07 606.283 1476.86 610.048 1475.92 613.886C1473.89 621.842 1472.28 630.269 1470.36 638.827C1469.88 640.971 1469.37 643.123 1468.83 645.283C1468.31 647.448 1467.73 649.618 1467.12 651.806C1465.9 656.356 1464.33 660.806 1462.42 665.115C1461.9 666.251 1461.32 667.388 1460.64 668.564C1460.3 669.132 1459.92 669.74 1459.5 670.32C1459.08 670.899 1458.67 671.456 1458.22 671.962C1456.51 673.962 1454.51 675.71 1452.31 677.156C1448.14 679.957 1443.85 681.702 1439.74 683.475C1435.63 685.248 1431.57 686.885 1427.73 688.845C1423.93 690.75 1420.36 693.078 1417.09 695.783C1413.92 698.439 1411.22 701.606 1409.09 705.154C1407 708.671 1405.48 712.507 1405.04 716.241C1404.8 718.021 1404.83 719.826 1405.12 721.599C1405.39 723.184 1405.97 724.701 1406.82 726.066C1407.58 727.272 1408.59 728.308 1409.77 729.108C1410.95 729.909 1412.28 730.458 1413.69 730.72C1415.12 730.999 1416.58 731.057 1418.03 730.89C1419.59 730.698 1421.11 730.316 1422.58 729.754C1422.96 729.612 1423.33 729.453 1423.71 729.293L1425.06 728.725C1425.94 728.327 1426.82 727.913 1427.68 727.469C1429.39 726.589 1431.09 725.64 1432.74 724.577C1436.06 722.48 1439.31 719.94 1442.94 717.19C1446.74 714.264 1450.75 711.622 1454.94 709.285C1459.31 706.952 1463.89 705.044 1468.62 703.586C1469.19 703.392 1469.79 703.239 1470.37 703.068L1471.95 702.62C1472.82 702.364 1473.7 702.085 1474.57 701.784C1476.32 701.17 1478.05 700.472 1479.73 699.693C1486.45 696.556 1492.33 692.158 1496.51 686.441C1498.67 683.526 1500.46 680.352 1501.83 676.991C1502.57 675.234 1503.2 673.43 1503.7 671.593C1504.25 669.689 1504.69 667.758 1505.03 665.808C1505.37 663.825 1505.64 661.79 1505.8 659.722C1505.89 658.75 1505.95 657.483 1506.03 656.312C1506.11 655.142 1506.23 653.977 1506.37 652.818C1506.91 648.234 1507.77 643.694 1508.95 639.231C1510.09 634.815 1511.5 630.542 1512.93 626.343C1513.65 624.24 1514.37 622.155 1515.02 620.092C1515.71 618.075 1516.12 615.975 1516.26 613.847ZM1517.96 613.847C1517.95 615.009 1517.84 616.168 1517.61 617.307C1517.41 618.444 1517.15 619.518 1516.89 620.597C1516.38 622.763 1515.83 624.899 1515.37 627.047C1514.92 629.195 1514.52 631.338 1514.24 633.491C1513.96 635.645 1513.78 637.804 1513.67 639.958C1513.52 644.227 1513.79 648.501 1514.49 652.715C1514.65 653.761 1514.85 654.795 1515.06 655.824C1515.26 656.852 1515.51 657.807 1515.74 659.029C1516.23 661.382 1516.58 663.761 1516.81 666.155C1517.29 671.128 1517.06 676.146 1516.12 681.054C1515.12 686.185 1513.25 691.106 1510.6 695.607C1507.87 700.122 1504.47 704.186 1500.5 707.654C1496.61 711.062 1492.27 713.929 1487.62 716.178C1485.32 717.301 1482.96 718.277 1480.55 719.099C1479.34 719.525 1478.11 719.894 1476.86 720.235L1473.83 721.048C1470.1 722.064 1466.47 723.395 1462.97 725.026C1459.34 726.759 1455.83 728.743 1452.47 730.964C1448.87 733.237 1444.96 735.891 1440.63 738.192C1438.46 739.361 1436.23 740.414 1433.94 741.346C1432.81 741.818 1431.67 742.244 1430.48 742.653L1428.73 743.221C1428.06 743.42 1427.39 743.613 1426.72 743.79C1423.94 744.494 1421.08 744.802 1418.23 744.705C1415.26 744.61 1412.33 743.999 1409.57 742.897C1406.76 741.765 1404.2 740.076 1402.05 737.931C1399.93 735.815 1398.29 733.272 1397.23 730.47C1396.24 727.82 1395.75 725.008 1395.8 722.179C1395.83 719.544 1396.24 716.927 1397.02 714.411C1398.54 709.769 1400.86 705.427 1403.87 701.58C1405.3 699.703 1406.86 697.926 1408.53 696.261C1410.19 694.625 1411.94 693.088 1413.78 691.658C1421.11 685.975 1429.43 682.202 1436.94 677.809C1440.69 675.639 1444.27 673.263 1446.98 670.524C1448.25 669.246 1449.33 667.792 1450.18 666.206C1450.38 665.827 1450.55 665.448 1450.71 665.069C1450.87 664.7 1451.01 664.325 1451.15 663.933C1451.43 663.114 1451.68 662.228 1451.92 661.285C1452.38 659.415 1452.74 657.398 1453.05 655.341C1453.37 653.284 1453.66 651.175 1453.95 649.05L1454.79 642.606C1455.07 640.441 1455.36 638.259 1455.7 636.065C1457.04 627.314 1458.74 618.387 1461.95 609.499C1463.56 604.88 1465.72 600.468 1468.37 596.356C1469.09 595.299 1469.84 594.253 1470.68 593.23C1471.51 592.183 1472.42 591.193 1473.39 590.27C1474.39 589.303 1475.47 588.416 1476.61 587.616C1477.19 587.205 1477.79 586.826 1478.42 586.479L1479.37 585.968C1479.68 585.809 1479.94 585.695 1480.24 585.559C1482.55 584.488 1484.96 583.668 1487.44 583.115C1489.97 582.557 1492.56 582.366 1495.14 582.547C1497.71 582.73 1500.23 583.357 1502.58 584.4C1503.73 584.91 1504.83 585.524 1505.86 586.235C1506.87 586.925 1507.82 587.696 1508.7 588.542C1512.04 591.867 1514.5 595.967 1515.87 600.476C1517.21 604.791 1517.92 609.281 1517.96 613.801V613.847Z" fill="#F9F9F9"/>
<g opacity="0.6">
<path d="M1470.64 63.6554L1478.34 55.9554C1478.87 55.4312 1479.29 54.808 1479.57 54.1215C1479.86 53.435 1480.01 52.6988 1480.01 51.9554C1480.01 51.2119 1479.86 50.4757 1479.57 49.7892C1479.29 49.1027 1478.87 48.4795 1478.34 47.9554C1477.82 47.4292 1477.19 47.0118 1476.51 46.7271C1475.82 46.4423 1475.09 46.2957 1474.34 46.2957C1473.6 46.2957 1472.86 46.4423 1472.18 46.7271C1471.49 47.0118 1470.87 47.4292 1470.34 47.9554L1462.64 55.6554C1462.12 56.1795 1461.7 56.8028 1461.41 57.4892C1461.13 58.1757 1460.98 58.9119 1460.98 59.6554C1460.98 60.3989 1461.13 61.135 1461.41 61.8215C1461.7 62.5079 1462.12 63.1312 1462.64 63.6554C1463.17 64.1815 1463.79 64.5989 1464.48 64.8837C1465.16 65.1685 1465.9 65.3151 1466.64 65.3151C1467.39 65.3151 1468.12 65.1685 1468.81 64.8837C1469.49 64.5989 1470.12 64.1815 1470.64 63.6554Z" fill="#EBEBEB"/>
<path d="M1575.82 139.985L1580.71 130.255C1581.38 128.917 1581.5 127.367 1581.03 125.946C1580.56 124.525 1579.54 123.348 1578.2 122.675C1577.54 122.341 1576.82 122.142 1576.08 122.087C1575.34 122.033 1574.6 122.125 1573.89 122.358C1573.19 122.591 1572.54 122.961 1571.98 123.446C1571.42 123.931 1570.96 124.522 1570.62 125.185L1565.73 134.915C1565.4 135.578 1565.2 136.299 1565.15 137.039C1565.09 137.779 1565.18 138.522 1565.42 139.226C1565.65 139.93 1566.02 140.581 1566.5 141.142C1566.99 141.703 1567.58 142.163 1568.24 142.495C1568.91 142.829 1569.63 143.029 1570.37 143.083C1571.11 143.138 1571.85 143.046 1572.55 142.812C1573.26 142.579 1573.91 142.21 1574.47 141.724C1575.03 141.239 1575.49 140.648 1575.82 139.985Z" fill="#EBEBEB"/>
<path d="M1508.4 41.9153L1514.19 41.0853C1515.68 40.8724 1517.01 40.0797 1517.91 38.8816C1518.81 37.6834 1519.19 36.1777 1518.98 34.6953C1518.88 33.9608 1518.63 33.2541 1518.25 32.6157C1517.88 31.9772 1517.38 31.4195 1516.78 30.9746C1516.19 30.5296 1515.51 30.2061 1514.79 30.0226C1514.08 29.8392 1513.33 29.7993 1512.59 29.9053L1506.8 30.7353C1506.07 30.8395 1505.36 31.0875 1504.72 31.4653C1504.08 31.843 1503.53 32.3429 1503.08 32.9365C1502.64 33.5301 1502.31 34.2056 1502.13 34.9244C1501.95 35.6431 1501.91 36.3911 1502.01 37.1253C1502.23 38.6075 1503.02 39.9445 1504.22 40.8427C1505.41 41.7408 1506.92 42.1266 1508.4 41.9153Z" fill="#EBEBEB"/>
<path d="M1462.44 118.325L1461.61 112.535C1461.51 111.801 1461.26 111.094 1460.88 110.456C1460.51 109.817 1460.01 109.26 1459.41 108.815C1458.82 108.37 1458.14 108.046 1457.42 107.863C1456.7 107.679 1455.96 107.639 1455.22 107.745C1454.49 107.85 1453.78 108.097 1453.15 108.475C1452.51 108.852 1451.95 109.351 1451.51 109.944C1451.07 110.536 1450.74 111.211 1450.56 111.928C1450.38 112.646 1450.34 113.392 1450.44 114.125L1451.26 119.925C1451.48 121.406 1452.27 122.742 1453.47 123.639C1454.67 124.537 1456.17 124.924 1457.65 124.715C1459.13 124.502 1460.47 123.71 1461.37 122.512C1462.27 121.313 1462.65 119.808 1462.44 118.325Z" fill="#EBEBEB"/>
<path d="M1586.62 109.605V96.7852C1586.62 95.5923 1585.66 94.6252 1584.46 94.6252H1577.49C1576.3 94.6252 1575.33 95.5923 1575.33 96.7852V109.605C1575.33 110.798 1576.3 111.765 1577.49 111.765H1584.46C1585.66 111.765 1586.62 110.798 1586.62 109.605Z" fill="#EBEBEB"/>
<path d="M1497.92 167.405L1503.57 168.915C1504.29 169.107 1505.04 169.156 1505.77 169.058C1506.51 168.961 1507.22 168.72 1507.86 168.348C1508.5 167.977 1509.06 167.482 1509.51 166.893C1509.96 166.304 1510.29 165.632 1510.48 164.915C1510.67 164.198 1510.72 163.45 1510.63 162.714C1510.53 161.979 1510.29 161.269 1509.92 160.626C1509.55 159.984 1509.05 159.421 1508.46 158.969C1507.87 158.518 1507.2 158.187 1506.48 157.995L1500.83 156.485C1500.12 156.293 1499.37 156.244 1498.63 156.342C1497.9 156.439 1497.19 156.68 1496.54 157.051C1495.9 157.423 1495.34 157.917 1494.89 158.506C1494.44 159.096 1494.1 159.768 1493.91 160.485C1493.53 161.934 1493.74 163.476 1494.49 164.773C1495.24 166.069 1496.48 167.016 1497.92 167.405Z" fill="#EBEBEB"/>
<path d="M1517.48 165.885C1553.46 165.885 1582.62 136.721 1582.62 100.745C1582.62 64.7694 1553.46 35.6052 1517.48 35.6052C1481.51 35.6052 1452.34 64.7694 1452.34 100.745C1452.34 136.721 1481.51 165.885 1517.48 165.885Z" fill="#EBEBEB"/>
<path d="M1541.18 62.1052C1541.35 65.2339 1540.5 68.3326 1538.77 70.9452C1537.03 73.6373 1534.58 75.8018 1531.69 77.2052C1528.73 78.6949 1525.3 78.985 1522.12 78.0152C1519.11 77.0614 1516.54 75.0789 1514.84 72.4152C1517.16 74.1295 1519.83 75.3079 1522.65 75.8652C1523.98 76.1004 1525.33 76.1004 1526.65 75.8652C1527.97 75.6615 1529.25 75.2497 1530.44 74.6452C1531.05 74.3452 1531.67 74.0152 1532.27 73.6452C1532.87 73.2752 1533.43 72.8952 1533.96 72.4552C1535.06 71.621 1536.07 70.6687 1536.96 69.6152C1538.84 67.41 1540.28 64.859 1541.18 62.1052Z" fill="#C7C7C7"/>
<path d="M1517.76 65.8553C1517.47 63.6835 1517.95 61.4791 1519.12 59.6253C1520.29 57.6987 1521.99 56.1502 1524.02 55.1653C1525.07 54.6397 1526.21 54.3258 1527.37 54.2417C1528.54 54.1576 1529.71 54.305 1530.82 54.6753C1532.92 55.3878 1534.66 56.8766 1535.69 58.8353C1534.04 57.8163 1532.21 57.1364 1530.29 56.8353C1528.57 56.6324 1526.83 56.942 1525.29 57.7253C1521.86 59.411 1519.18 62.3074 1517.76 65.8553Z" fill="#C7C7C7"/>
<path d="M1495.7 110.595C1496.51 112.578 1496.56 114.784 1495.86 116.805C1495.18 118.905 1493.87 120.744 1492.1 122.075C1491.2 122.777 1490.17 123.292 1489.07 123.589C1487.97 123.886 1486.82 123.959 1485.69 123.805C1483.57 123.512 1481.62 122.443 1480.23 120.805C1482.02 121.397 1483.91 121.661 1485.79 121.585C1487.46 121.465 1489.06 120.848 1490.37 119.815C1491.77 118.759 1492.95 117.437 1493.83 115.925C1494.76 114.272 1495.4 112.468 1495.7 110.595Z" fill="#C7C7C7"/>
<path d="M1482.21 117.985C1481.85 117.324 1481.63 116.598 1481.55 115.85C1481.48 115.101 1481.55 114.345 1481.77 113.625C1482.21 112.103 1483.13 110.765 1484.39 109.815C1485.04 109.303 1485.79 108.933 1486.59 108.729C1487.39 108.526 1488.23 108.494 1489.04 108.635C1489.79 108.764 1490.5 109.043 1491.14 109.456C1491.77 109.868 1492.32 110.406 1492.74 111.035C1491.49 110.791 1490.21 110.733 1488.94 110.865C1487.91 111.016 1486.93 111.433 1486.11 112.075C1484.2 113.565 1482.83 115.641 1482.21 117.985Z" fill="#C7C7C7"/>
<path d="M1472.34 96.0952C1472.92 96.6331 1473.38 97.2813 1473.7 98.0012C1474.02 98.721 1474.19 99.4978 1474.2 100.285C1474.22 101.137 1474.06 101.983 1473.74 102.773C1473.43 103.563 1472.95 104.281 1472.35 104.885C1471.74 105.505 1470.99 105.975 1470.16 106.257C1469.33 106.54 1468.45 106.628 1467.58 106.515C1466.03 106.342 1464.58 105.635 1463.49 104.515C1464.84 104.567 1466.18 104.489 1467.51 104.285C1468.57 104.128 1469.55 103.638 1470.3 102.885C1471.08 102.095 1471.65 101.122 1471.95 100.055C1472.3 98.7661 1472.43 97.4277 1472.34 96.0952Z" fill="#C7C7C7"/>
<path d="M1464.27 102.425C1463.8 102.102 1463.41 101.675 1463.13 101.175C1462.84 100.675 1462.68 100.118 1462.65 99.5452C1462.61 98.9162 1462.71 98.2858 1462.93 97.696C1463.15 97.1062 1463.5 96.5707 1463.94 96.1252C1464.4 95.6624 1464.97 95.3171 1465.59 95.1187C1466.21 94.9202 1466.87 94.8745 1467.51 94.9852C1468.07 95.0682 1468.6 95.2604 1469.08 95.5505C1469.56 95.8406 1469.97 96.2229 1470.3 96.6752C1469.38 96.8001 1468.46 96.9838 1467.56 97.2252C1466.96 97.3769 1466.41 97.6917 1465.97 98.1352C1465.51 98.6088 1465.13 99.1694 1464.88 99.7852C1464.56 100.632 1464.35 101.521 1464.27 102.425Z" fill="#C7C7C7"/>
<path d="M1561.6 76.8052C1561.68 77.5889 1561.59 78.3798 1561.35 79.1295C1561.11 79.8791 1560.72 80.5718 1560.2 81.1652C1559.65 81.8115 1558.97 82.3408 1558.21 82.722C1557.45 83.1033 1556.62 83.3287 1555.77 83.3852C1554.9 83.4385 1554.03 83.2904 1553.22 82.9523C1552.41 82.6142 1551.7 82.0951 1551.12 81.4352C1550.07 80.2817 1549.45 78.8024 1549.36 77.2452C1550.35 78.1753 1551.43 79.009 1552.57 79.7352C1553.46 80.31 1554.51 80.5931 1555.57 80.5452C1556.68 80.4752 1557.75 80.1315 1558.68 79.5452C1559.8 78.7969 1560.79 77.8714 1561.6 76.8052Z" fill="#C7C7C7"/>
<path d="M1551.36 76.1753C1551.22 75.6186 1551.22 75.0374 1551.34 74.477C1551.46 73.9167 1551.71 73.3924 1552.07 72.9453C1552.46 72.4497 1552.95 72.0419 1553.51 71.7489C1554.06 71.4558 1554.67 71.2842 1555.3 71.2453C1555.95 71.1994 1556.6 71.313 1557.2 71.5761C1557.8 71.8393 1558.32 72.2441 1558.72 72.7553C1559.09 73.1821 1559.37 73.6781 1559.54 74.214C1559.71 74.7499 1559.77 75.3148 1559.72 75.8753C1558.95 75.3459 1558.14 74.8714 1557.3 74.4553C1556.75 74.1674 1556.13 74.0392 1555.51 74.0853C1554.85 74.1252 1554.2 74.2951 1553.6 74.5853C1552.78 75.0063 1552.03 75.5417 1551.36 76.1753Z" fill="#C7C7C7"/>
<path d="M1525.08 121.065C1527.69 122.244 1530.58 122.622 1533.4 122.153C1536.22 121.683 1538.84 120.387 1540.92 118.428C1543 116.47 1544.46 113.937 1545.1 111.151C1545.74 108.365 1545.53 105.452 1544.52 102.781C1543.5 100.109 1541.71 97.8008 1539.38 96.1475C1537.05 94.4941 1534.28 93.5706 1531.42 93.494C1528.56 93.4173 1525.75 94.1911 1523.33 95.7171C1520.91 97.2431 1519 99.4525 1517.84 102.065C1516.29 105.545 1516.18 109.501 1517.53 113.063C1518.89 116.625 1521.61 119.503 1525.08 121.065Z" fill="#DBDBDB"/>
<path d="M1537.7 101.095C1539.58 101.932 1541.23 103.202 1542.52 104.799C1543.81 106.396 1544.7 108.276 1545.12 110.285C1545.51 107.903 1545.3 105.461 1544.5 103.183C1543.7 100.906 1542.33 98.8678 1540.53 97.2563C1538.74 95.6448 1536.56 94.5121 1534.21 93.9629C1531.86 93.4137 1529.41 93.4657 1527.08 94.114C1524.76 94.7623 1522.63 95.986 1520.91 97.6723C1519.18 99.3585 1517.9 101.453 1517.2 103.762C1516.49 106.071 1516.38 108.52 1516.87 110.884C1517.37 113.247 1518.45 115.449 1520.01 117.285C1519.2 114.879 1519.11 112.288 1519.74 109.829C1520.38 107.37 1521.71 105.148 1523.59 103.436C1525.46 101.723 1527.8 100.592 1530.3 100.182C1532.81 99.7717 1535.38 100.099 1537.7 101.125V101.095Z" fill="#C7C7C7"/>
<path d="M1550.86 110.305C1550.94 114.134 1549.83 117.892 1547.68 121.065C1545.51 124.315 1542.52 126.927 1539 128.635C1535.41 130.449 1531.26 130.828 1527.4 129.695C1523.72 128.564 1520.52 126.216 1518.34 123.035C1521.14 125.263 1524.43 126.805 1527.93 127.535C1528.77 127.675 1529.61 127.765 1530.46 127.805C1531.3 127.814 1532.14 127.747 1532.96 127.605C1534.63 127.354 1536.25 126.841 1537.75 126.085C1538.52 125.695 1539.29 125.285 1540.03 124.845C1540.77 124.405 1541.49 123.915 1542.15 123.355C1543.53 122.302 1544.79 121.094 1545.89 119.755C1548.18 116.979 1549.87 113.762 1550.86 110.305Z" fill="#C7C7C7"/>
<path d="M1566.63 115.785C1567.67 116.033 1568.76 115.967 1569.76 115.595C1570.76 115.223 1571.63 114.563 1572.25 113.697C1572.88 112.832 1573.23 111.8 1573.27 110.733C1573.31 109.666 1573.03 108.612 1572.47 107.705C1571.9 106.797 1571.09 106.077 1570.11 105.635C1569.14 105.194 1568.06 105.05 1567.01 105.224C1565.95 105.398 1564.98 105.88 1564.2 106.61C1563.42 107.34 1562.87 108.285 1562.63 109.325C1562.31 110.712 1562.55 112.171 1563.3 113.382C1564.05 114.593 1565.25 115.457 1566.63 115.785Z" fill="#DBDBDB"/>
<path d="M1569.83 107.565C1570.58 107.74 1571.27 108.089 1571.86 108.582C1572.44 109.076 1572.9 109.7 1573.2 110.405C1573.18 109.505 1572.93 108.626 1572.47 107.848C1572.02 107.071 1571.37 106.421 1570.6 105.958C1569.83 105.495 1568.95 105.234 1568.05 105.199C1567.15 105.164 1566.26 105.356 1565.45 105.758C1564.65 106.16 1563.95 106.759 1563.44 107.499C1562.93 108.239 1562.61 109.096 1562.51 109.992C1562.42 110.887 1562.55 111.792 1562.9 112.623C1563.25 113.454 1563.8 114.184 1564.5 114.745C1563.89 113.683 1563.71 112.428 1563.99 111.235C1564.28 109.975 1565.06 108.88 1566.15 108.192C1567.25 107.504 1568.57 107.278 1569.83 107.565Z" fill="#C7C7C7"/>
<path d="M1575.3 109.985C1575.68 111.387 1575.58 112.873 1575.03 114.215C1574.49 115.597 1573.56 116.798 1572.37 117.685C1571.15 118.622 1569.62 119.055 1568.09 118.895C1566.64 118.728 1565.29 118.043 1564.3 116.965C1565.51 117.515 1566.82 117.795 1568.14 117.785C1569.37 117.743 1570.55 117.312 1571.52 116.555C1572.56 115.767 1573.43 114.78 1574.08 113.652C1574.72 112.524 1575.14 111.277 1575.3 109.985Z" fill="#C7C7C7"/>
<path d="M1529.68 150.645C1531.19 150.734 1532.7 150.372 1534 149.605C1535.31 148.838 1536.36 147.701 1537.02 146.338C1537.68 144.974 1537.92 143.445 1537.71 141.945C1537.5 140.446 1536.85 139.042 1535.84 137.912C1534.83 136.783 1533.51 135.978 1532.04 135.6C1530.57 135.222 1529.03 135.288 1527.6 135.79C1526.17 136.291 1524.92 137.206 1524.01 138.417C1523.1 139.629 1522.57 141.083 1522.49 142.595C1522.44 143.596 1522.58 144.598 1522.91 145.544C1523.24 146.491 1523.75 147.362 1524.42 148.11C1525.09 148.857 1525.9 149.466 1526.8 149.901C1527.7 150.336 1528.68 150.589 1529.68 150.645Z" fill="#DBDBDB"/>
<path d="M1532.14 138.365C1533.23 138.422 1534.29 138.737 1535.23 139.283C1536.17 139.829 1536.97 140.59 1537.56 141.505C1537.31 140.25 1536.74 139.079 1535.91 138.101C1535.09 137.123 1534.03 136.369 1532.83 135.91C1531.63 135.45 1530.34 135.299 1529.07 135.471C1527.8 135.643 1526.6 136.133 1525.57 136.894C1524.54 137.655 1523.72 138.664 1523.18 139.827C1522.64 140.99 1522.41 142.27 1522.49 143.548C1522.58 144.826 1522.99 146.061 1523.68 147.139C1524.38 148.217 1525.33 149.103 1526.45 149.715C1525.33 148.379 1524.77 146.665 1524.87 144.925C1524.92 144.017 1525.14 143.127 1525.53 142.305C1525.92 141.484 1526.47 140.748 1527.15 140.138C1527.82 139.529 1528.61 139.059 1529.47 138.755C1530.33 138.451 1531.23 138.318 1532.14 138.365Z" fill="#C7C7C7"/>
<path d="M1540.4 140.425C1541.14 142.31 1541.29 144.374 1540.83 146.345C1540.38 148.359 1539.39 150.216 1537.98 151.725C1536.55 153.292 1534.58 154.263 1532.46 154.445C1530.43 154.582 1528.41 154.037 1526.72 152.895C1528.53 153.486 1530.45 153.641 1532.32 153.345C1534.1 153.007 1535.72 152.098 1536.94 150.755C1538.21 149.408 1539.17 147.805 1539.77 146.055C1540.37 144.243 1540.59 142.325 1540.4 140.425Z" fill="#C7C7C7"/>
<path d="M1495.6 76.8553C1492.15 82.1253 1484.53 83.2453 1478.6 79.3553C1472.67 75.4653 1470.6 68.0353 1474.06 62.7653C1477.52 57.4953 1485.12 56.3753 1491.06 60.2653C1497 64.1553 1499.04 71.5853 1495.6 76.8553Z" fill="#DBDBDB"/>
<path d="M1476.66 67.7052C1475.77 69.1306 1475.25 70.7586 1475.15 72.4384C1475.05 74.1183 1475.38 75.7957 1476.1 77.3152C1472.1 73.2152 1471.1 67.2252 1474.04 62.7552C1477.48 57.4952 1485.1 56.3752 1491.04 60.2652C1493.04 61.495 1494.66 63.2386 1495.75 65.313C1496.84 67.3875 1497.35 69.7163 1497.22 72.0553C1496.33 69.3179 1494.52 66.9746 1492.09 65.4252C1486.71 61.9052 1479.79 62.9152 1476.66 67.7052Z" fill="#C7C7C7"/>
<path d="M1499.8 68.1553C1500.69 69.5133 1501.3 71.0339 1501.59 72.6287C1501.88 74.2235 1501.86 75.8607 1501.51 77.4453C1501.14 79.0972 1500.4 80.6468 1499.36 81.9853C1498.33 83.3402 1497.07 84.5016 1495.63 85.4153C1494.14 86.2504 1492.51 86.803 1490.82 87.0453C1489.19 87.2498 1487.53 87.2026 1485.91 86.9053C1482.78 86.3576 1479.82 85.0759 1477.28 83.1653C1480.17 84.0061 1483.15 84.5193 1486.15 84.6953C1488.93 84.8985 1491.71 84.3015 1494.15 82.9753C1495.32 82.265 1496.36 81.3661 1497.23 80.3152C1498.15 79.2851 1498.86 78.0952 1499.34 76.8053C1500.28 74.0182 1500.44 71.0264 1499.8 68.1553Z" fill="#C7C7C7"/>
</g>
<path d="M1535.69 568.255L1537.85 572.195L1541.79 574.355L1537.85 576.505L1535.69 580.455L1533.54 576.505L1529.59 574.355L1533.54 572.195L1535.69 568.255Z" fill="#C6C6C6"/>
<path d="M1545.53 586.345L1546.51 588.155L1548.32 589.135L1546.51 590.125L1545.53 591.925L1544.54 590.125L1542.74 589.135L1544.54 588.155L1545.53 586.345Z" fill="#C6C6C6"/>
<path d="M1341.5 705.655L1343.65 709.605L1347.6 711.755L1343.65 713.915L1341.5 717.865L1339.34 713.915L1335.39 711.755L1339.34 709.605L1341.5 705.655Z" fill="#C6C6C6"/>
<path d="M1550.84 760.805L1553 764.745L1556.95 766.905L1553 769.065L1550.84 773.005L1548.69 769.065L1544.74 766.905L1548.69 764.745L1550.84 760.805Z" fill="#C6C6C6"/>
<path d="M1327.17 718.565L1328.16 720.375L1329.96 721.355L1328.16 722.345L1327.17 724.145L1326.19 722.345L1324.38 721.355L1326.19 720.375L1327.17 718.565Z" fill="#C6C6C6"/>
<path d="M1356.22 682.936L1357.21 684.736L1359.01 685.726L1357.21 686.706L1356.22 688.516L1355.23 686.706L1353.43 685.726L1355.23 684.736L1356.22 682.936Z" fill="#C6C6C6"/>
<path d="M440.975 350.228L441.525 351.228C442.145 352.358 443.074 353.288 444.205 353.908L445.205 354.458L444.205 355.018C443.074 355.638 442.145 356.567 441.525 357.698L440.975 358.698L440.425 357.698C439.805 356.567 438.875 355.638 437.745 355.018L436.745 354.458L437.745 353.908C438.875 353.288 439.805 352.358 440.425 351.228L440.975 350.228Z" fill="#C6C6C6"/>
<path d="M4.61478 499.817L5.17477 500.817C5.79201 501.95 6.72246 502.88 7.85477 503.497L8.85477 504.047L7.85477 504.607C6.72246 505.225 5.79201 506.155 5.17477 507.287L4.61478 508.287L4.06477 507.287C3.44482 506.157 2.51504 505.227 1.38477 504.607L0.384766 504.047L1.38477 503.497C2.51504 502.877 3.44482 501.948 4.06477 500.817L4.61478 499.817Z" fill="#C6C6C6"/>
<path d="M124.255 497.458L124.535 497.958C124.845 498.522 125.31 498.987 125.875 499.298L126.385 499.578L125.875 499.848C125.309 500.161 124.844 500.63 124.535 501.198L124.255 501.698L123.985 501.198C123.675 500.63 123.21 500.161 122.645 499.848L122.135 499.578L122.645 499.298C123.21 498.987 123.675 498.522 123.985 497.958L124.255 497.458Z" fill="#C6C6C6"/>
<path d="M399.555 495.577L399.835 496.087C400.145 496.652 400.61 497.117 401.175 497.427L401.675 497.697L401.175 497.977C400.607 498.284 400.142 498.75 399.835 499.317L399.555 499.817L399.285 499.317C398.975 498.752 398.51 498.288 397.945 497.977L397.435 497.697L397.945 497.427C398.508 497.115 398.972 496.65 399.285 496.087L399.555 495.577Z" fill="#C6C6C6"/>
<path d="M271.435 345.057L271.705 345.557C272.015 346.122 272.48 346.587 273.045 346.897L273.555 347.177L273.045 347.447C272.482 347.76 272.018 348.224 271.705 348.787L271.435 349.297L271.155 348.787C270.836 348.222 270.365 347.757 269.795 347.447L269.285 347.177L269.795 346.947C270.36 346.637 270.824 346.172 271.135 345.607L271.435 345.057Z" fill="#C6C6C6"/>
<path d="M122.645 325.877L122.915 326.377C123.224 326.945 123.689 327.414 124.255 327.727L124.765 327.997L124.255 328.277C123.69 328.588 123.225 329.052 122.915 329.617L122.645 330.117L122.365 329.617C122.058 329.05 121.592 328.584 121.025 328.277L120.525 327.997L121.025 327.727C121.593 327.416 122.058 326.947 122.365 326.377L122.645 325.877Z" fill="#C6C6C6"/>
<path d="M224.335 258.847L225.335 260.587C226.404 262.542 228.01 264.148 229.965 265.217L231.705 266.217L229.965 267.217C228.01 268.286 226.404 269.893 225.335 271.847L224.335 273.587L223.335 271.847C222.305 269.869 220.73 268.227 218.795 267.117L217.055 266.117L218.795 265.117C220.749 264.048 222.356 262.442 223.425 260.487L224.335 258.847Z" fill="#C6C6C6"/>
<path d="M121.065 570.367L122.015 572.107C123.081 574.064 124.689 575.671 126.645 576.737L128.385 577.737L126.645 578.687C124.691 579.756 123.084 581.363 122.015 583.317L121.065 585.057L120.065 583.317C118.996 581.363 117.389 579.756 115.435 578.687L113.695 577.737L115.435 576.737C117.391 575.671 118.999 574.064 120.065 572.107L121.065 570.367Z" fill="#C6C6C6"/>
<path d="M270.955 658.523C257.864 646.17 257.267 625.544 269.62 612.453C281.973 599.363 302.599 598.765 315.69 611.118C328.78 623.471 329.378 644.097 317.025 657.188C304.672 670.278 284.045 670.876 270.955 658.523Z" fill="#616161"/>
<path d="M323.651 646.804C320.836 643.934 317.586 641.524 314.021 639.664C307.811 636.304 290.551 631.794 282.771 627.044C271.831 620.374 270.911 614.044 271.231 610.864C274.322 608.031 277.927 605.818 281.851 604.344C282.401 607.694 284.631 618.184 303.021 626.344C312.521 630.574 322.021 629.024 325.301 628.504C326.524 634.636 325.951 640.99 323.651 646.804Z" fill="#C6C6C6"/>
<path d="M308.961 663.444C302.4 667.02 294.81 668.238 287.459 666.893C280.109 665.548 273.441 661.722 268.571 656.054C270.489 655.197 272.504 654.576 274.571 654.204C283.481 652.784 292.761 657.744 296.111 659.994C299.844 662.644 304.403 663.868 308.961 663.444Z" fill="#C6C6C6"/>
<path d="M321.331 651.524L320.861 652.284L320.421 652.954C320.081 653.464 319.741 653.954 319.421 654.444C319.101 654.934 318.751 655.304 318.421 655.714L318.031 656.174L317.581 656.684C317.431 656.854 317.281 657.024 317.121 657.184L316.561 657.764L316.001 658.324L315.501 658.794C315.131 659.134 314.751 659.464 314.371 659.794C312.301 660.244 309.611 659.794 305.781 657.874C300.061 655.084 294.151 649.004 283.081 643.984C276.24 640.946 268.694 639.853 261.271 640.824C260.032 634.207 260.877 627.369 263.691 621.254C265.771 621.344 272.381 622.834 285.691 635.734C289.819 639.856 294.359 643.542 299.241 646.734C310.891 654.084 318.081 652.734 321.131 651.524H321.331Z" fill="#C6C6C6"/>
<path d="M291.781 616.054C291.081 617.324 289.021 617.534 287.171 616.524C285.321 615.514 284.401 613.654 285.091 612.384C285.781 611.114 287.851 610.914 289.701 611.924C291.551 612.934 292.471 614.734 291.781 616.054Z" fill="#8D8D8D"/>
<path d="M282.381 617.484C281.991 618.194 280.771 618.284 279.661 617.674C278.551 617.064 277.981 615.994 278.371 615.284C278.761 614.574 279.981 614.474 281.091 615.084C282.201 615.694 282.771 616.764 282.381 617.484Z" fill="#8D8D8D"/>
<path d="M303.921 659.634C303.321 660.724 301.531 660.884 299.921 659.994C298.311 659.104 297.481 657.514 298.071 656.424C298.661 655.334 300.461 655.184 302.071 656.064C303.681 656.944 304.511 658.554 303.921 659.634Z" fill="#8D8D8D"/>
<path d="M297.841 660.214C297.764 660.546 297.585 660.846 297.329 661.071C297.072 661.296 296.752 661.435 296.412 661.469C296.073 661.502 295.731 661.428 295.436 661.257C295.141 661.086 294.907 660.826 294.767 660.515C294.627 660.204 294.588 659.857 294.656 659.523C294.724 659.188 294.895 658.884 295.145 658.651C295.395 658.419 295.711 658.272 296.05 658.229C296.388 658.186 296.732 658.251 297.031 658.414C297.372 658.552 297.646 658.817 297.797 659.152C297.947 659.487 297.963 659.867 297.841 660.214Z" fill="#8D8D8D"/>
<path d="M297.151 657.114C297.005 657.289 296.797 657.402 296.571 657.43C296.344 657.457 296.116 657.398 295.931 657.264C295.441 656.994 295.201 656.494 295.391 656.154C295.54 655.978 295.749 655.865 295.977 655.837C296.205 655.809 296.435 655.869 296.621 656.004C297.101 656.274 297.341 656.774 297.151 657.114Z" fill="#8D8D8D"/>
<path d="M276.901 655.184C276.371 656.184 274.901 656.364 273.601 655.654C272.301 654.944 271.691 653.584 272.221 652.654C272.751 651.724 274.221 651.474 275.521 652.184C276.821 652.894 277.431 654.214 276.901 655.184Z" fill="#8D8D8D"/>
<path d="M278.091 650.834C277.993 651.076 277.823 651.282 277.605 651.426C277.387 651.569 277.13 651.643 276.869 651.638C276.608 651.632 276.355 651.548 276.143 651.395C275.931 651.242 275.77 651.029 275.682 650.783C275.594 650.537 275.583 650.27 275.65 650.018C275.716 649.765 275.858 649.539 276.057 649.369C276.255 649.199 276.5 649.093 276.76 649.065C277.02 649.038 277.282 649.09 277.511 649.214C277.803 649.353 278.027 649.601 278.136 649.904C278.244 650.208 278.228 650.542 278.091 650.834Z" fill="#8D8D8D"/>
<path d="M319.381 654.444C299.181 650.167 279.513 643.681 260.731 635.104C246.131 628.244 237.121 621.674 238.341 617.964C239.561 614.254 250.511 614.204 265.941 617.174C265.521 617.824 265.131 618.484 264.751 619.174C264.611 619.434 264.481 619.694 264.341 619.944C256.131 618.894 250.691 619.374 249.951 621.634C249.211 623.894 253.431 627.634 260.881 631.714C270.298 636.658 280.133 640.761 290.271 643.974C300.362 647.399 310.736 649.926 321.271 651.524C329.661 652.634 335.271 652.164 335.991 649.874C336.711 647.584 332.641 644.024 325.451 640.014C325.631 638.921 325.751 637.82 325.811 636.714C340.391 643.554 349.531 650.354 348.271 654.054C347.011 657.754 335.601 657.714 319.381 654.444Z" fill="#8D8D8D"/>
<path d="M317.541 656.674C307.804 654.587 298.181 651.997 288.711 648.914C279.278 645.895 270.006 642.394 260.931 638.424C240.651 629.424 227.701 620.254 229.391 614.994C231.081 609.734 246.671 609.844 268.031 614.294C267.721 614.684 267.411 615.084 267.111 615.494C249.171 612.054 236.311 612.244 234.861 616.754C233.411 621.264 243.931 629.094 260.801 636.874C270.012 641.051 279.458 644.691 289.091 647.774C298.755 650.921 308.596 653.498 318.561 655.494C336.711 659.014 349.751 658.844 351.211 654.294C352.671 649.744 342.411 642.164 325.931 634.494C325.931 633.984 325.931 633.494 325.871 632.964C345.731 641.814 358.351 650.864 356.681 656.064C355.011 661.264 339.151 661.214 317.541 656.674Z" fill="#C6C6C6"/>
<path d="M225.584 350.457C215.533 347.026 210.167 336.097 213.599 326.046C217.03 315.995 227.96 310.629 238.01 314.06C248.061 317.492 253.427 328.421 249.996 338.472C246.565 348.523 235.635 353.889 225.584 350.457Z" fill="#EBEBEB"/>
<path d="M213.38 337.833C215.172 336.28 217.197 335.017 219.38 334.093C223.19 332.413 233.56 330.573 238.38 328.143C245.13 324.743 245.97 321.073 245.93 319.143C244.252 317.328 242.238 315.854 240 314.803C239.52 316.743 237.71 322.803 226.5 326.803C220.71 328.803 215.17 327.483 213.29 327.023C212.28 330.56 212.312 334.313 213.38 337.833Z" fill="#DBDBDB"/>
<path d="M221.232 348.323C224.919 350.745 229.326 351.826 233.716 351.385C238.105 350.945 242.209 349.009 245.342 345.903C244.252 345.306 243.094 344.846 241.892 344.533C236.722 343.273 231.032 345.743 228.952 346.913C226.63 348.29 223.891 348.79 221.232 348.323Z" fill="#DBDBDB"/>
<path d="M214.541 340.723L214.781 341.183C214.851 341.333 214.931 341.463 215.011 341.603C215.185 341.923 215.365 342.233 215.551 342.533C215.721 342.803 215.901 343.063 216.081 343.323L216.291 343.613L216.541 343.903L216.791 344.223C216.885 344.343 216.985 344.463 217.091 344.583C217.198 344.703 217.298 344.823 217.391 344.943L217.671 345.243C217.871 345.463 218.071 345.673 218.281 345.883C219.471 346.253 221.081 346.093 223.421 345.163C226.921 343.793 230.681 340.493 237.421 338.073C241.577 336.617 246.054 336.33 250.362 337.243C251.404 333.411 251.229 329.351 249.862 325.623C248.642 325.573 244.681 326.133 236.261 333.093C233.636 335.312 230.791 337.259 227.771 338.903C220.561 342.673 216.401 341.553 214.661 340.683H214.541V340.723Z" fill="#DBDBDB"/>
<path d="M232.801 347.953C232.461 347.173 231.261 346.953 230.121 347.443C228.981 347.933 228.341 348.973 228.681 349.753C229.021 350.533 230.221 350.753 231.361 350.273C232.501 349.793 233.141 348.743 232.801 347.953Z" fill="#C7C7C7"/>
<path d="M227.36 346.583C227.17 346.143 226.46 346.033 225.77 346.333C225.08 346.633 224.69 347.223 224.88 347.663C225.07 348.103 225.79 348.223 226.47 347.923C227.15 347.623 227.54 347.033 227.36 346.583Z" fill="#C7C7C7"/>
<path d="M242.273 322.963C241.983 322.303 240.943 322.103 239.943 322.543C238.943 322.983 238.373 323.873 238.673 324.543C238.973 325.213 240.003 325.403 241.003 324.963C242.003 324.523 242.543 323.633 242.273 322.963Z" fill="#C7C7C7"/>
<path d="M238.732 322.303C238.617 322.119 238.433 321.988 238.222 321.937C238.011 321.887 237.788 321.921 237.602 322.033C237.398 322.096 237.225 322.234 237.119 322.42C237.013 322.606 236.982 322.825 237.032 323.033C237.174 323.172 237.355 323.266 237.551 323.302C237.747 323.339 237.949 323.316 238.132 323.236C238.314 323.157 238.469 323.024 238.576 322.856C238.683 322.688 238.737 322.492 238.732 322.293V322.303Z" fill="#C7C7C7"/>
<path d="M238.16 324.083C238.083 323.972 237.967 323.895 237.835 323.867C237.703 323.84 237.565 323.863 237.45 323.933C237.15 324.063 236.99 324.343 237.08 324.553C237.154 324.667 237.27 324.748 237.402 324.778C237.535 324.808 237.674 324.784 237.79 324.713C237.921 324.675 238.032 324.589 238.101 324.472C238.17 324.355 238.191 324.215 238.16 324.083Z" fill="#C7C7C7"/>
<path d="M226.16 324.133C226.119 323.792 225.972 323.472 225.739 323.219C225.507 322.966 225.201 322.792 224.865 322.722C224.529 322.652 224.179 322.69 223.865 322.829C223.551 322.969 223.289 323.204 223.115 323.5C222.942 323.797 222.866 324.14 222.898 324.482C222.931 324.824 223.07 325.147 223.295 325.406C223.521 325.665 223.823 325.846 224.157 325.925C224.492 326.003 224.842 325.974 225.16 325.843C225.516 325.744 225.82 325.51 226.007 325.191C226.194 324.872 226.248 324.492 226.16 324.133Z" fill="#C7C7C7"/>
<path d="M226.621 326.753C226.533 326.579 226.382 326.445 226.199 326.379C226.016 326.313 225.814 326.32 225.636 326.398C225.458 326.476 225.316 326.62 225.241 326.8C225.165 326.979 225.162 327.181 225.231 327.363C225.318 327.537 225.469 327.671 225.652 327.737C225.835 327.803 226.037 327.796 226.215 327.718C226.394 327.64 226.535 327.496 226.611 327.316C226.686 327.137 226.69 326.935 226.621 326.753Z" fill="#C7C7C7"/>
<path d="M161.282 6.49735C155.842 3.33735 148.812 6.13735 143.932 10.0974C139.052 14.0574 134.932 19.2274 129.132 21.6574C125.432 23.2074 121.202 23.5674 117.932 25.8774C112.602 29.6374 111.662 37.2073 112.582 43.6673C113.502 50.1273 115.772 56.5374 114.982 63.0174C114.392 67.7574 112.172 72.5174 113.372 77.1474C115.062 83.6274 122.522 86.7174 126.152 92.3574C128.762 96.3574 129.472 101.847 133.362 104.687C137.872 107.977 144.142 106.057 149.712 106.557C156.562 107.177 162.422 111.557 168.932 113.777C174.166 115.485 179.756 115.792 185.146 114.667C190.536 113.543 195.537 111.026 199.652 107.367C203.782 103.607 206.832 98.7874 210.892 94.9574C214.372 91.6674 218.592 89.1074 221.442 85.2674C224.292 81.4274 225.442 76.9374 226.612 72.4574C228.342 65.9174 230.072 59.1073 228.812 52.4573C226.812 41.8473 217.752 34.1174 213.042 24.3974C211.202 20.5774 209.852 16.2774 206.492 13.8074C202.882 11.1874 197.992 11.4074 193.762 9.97735C187.692 7.97735 183.112 2.51735 176.912 0.977353C174.048 0.291949 171.046 0.454544 168.272 1.44532C165.499 2.4361 163.073 4.21227 161.292 6.55735" fill="#FAFAFA"/>
<path d="M181.871 102.319C206.561 95.8599 221.341 70.6085 214.882 45.9183C208.423 21.228 183.171 6.44865 158.481 12.9076C133.791 19.3665 119.011 44.6179 125.47 69.3082C131.929 93.9984 157.181 108.778 181.871 102.319Z" fill="#F0F0F0"/>
<path d="M156.552 65.2574C155.632 66.4317 154.385 67.3068 152.968 67.772C151.551 68.2372 150.027 68.2716 148.59 67.8709C147.154 67.4701 145.868 66.6522 144.896 65.5206C143.924 64.389 143.31 62.9946 143.131 61.5137C142.952 60.0329 143.216 58.5322 143.89 57.2015C144.564 55.8708 145.617 54.7699 146.917 54.038C148.217 53.3062 149.704 52.9763 151.191 53.0901C152.679 53.2039 154.099 53.7563 155.272 54.6774C156.052 55.2876 156.703 56.0454 157.189 56.9076C157.675 57.7698 157.987 58.7194 158.106 59.702C158.225 60.6847 158.149 61.6811 157.882 62.6344C157.615 63.5876 157.164 64.479 156.552 65.2574Z" fill="#F5F5F5"/>
<path d="M161.562 41.5772C161.028 42.2627 160.302 42.7742 159.477 43.0469C158.652 43.3197 157.764 43.3414 156.927 43.1094C156.089 42.8773 155.339 42.4019 154.772 41.7434C154.205 41.0849 153.846 40.2728 153.741 39.4102C153.636 38.5476 153.789 37.6731 154.181 36.8976C154.574 36.1221 155.187 35.4804 155.944 35.0539C156.701 34.6274 157.568 34.4352 158.435 34.5016C159.301 34.5681 160.128 34.8902 160.812 35.4272C161.725 36.1447 162.316 37.1947 162.457 38.3473C162.597 39.5 162.275 40.6613 161.562 41.5772Z" fill="#F5F5F5"/>
</svg>
