<svg width="394" height="400" viewBox="0 0 394 400" fill="none" xmlns="http://www.w3.org/2000/svg">
<path d="M319.252 117.182C319.252 117.182 337.063 124.228 339.682 141.342C342.301 158.456 301.829 208.587 301.829 208.587L177.019 141.331L216.48 72.0796L319.252 117.182Z" fill="#C7DCF9"/>
<path d="M291.656 133.358C291.656 133.358 304.788 146.842 308.817 161.761C312.845 176.68 313.364 203.322 312.693 213.302C293.102 231.432 215.662 216.24 215.662 216.24L141.036 128.455C141.036 128.455 153.686 104.437 160.109 97.8522C166.531 91.2676 187.348 83.0799 211.367 92.7448C225.463 112.75 291.656 133.358 291.656 133.358Z" fill="#E1ECFF"/>
<g style="mix-blend-mode:multiply">
<path d="M297.518 140.331C297.518 140.331 268.544 149.629 235.93 137.03C203.315 124.432 197.406 88.947 197.406 88.947L211.382 92.7501L291.656 133.358L297.518 140.331Z" fill="#E1ECFF"/>
</g>
<path d="M179.569 249.18C179.569 249.18 142.937 249.415 132.644 252.045C122.35 254.675 95.1051 316.336 83.8321 322.24C72.559 328.143 62.9832 318.337 50.5629 311.056C38.1426 303.774 26.7595 294.963 26.4033 291.286C26.0471 287.609 31.3222 272.915 35.8848 269.95C40.4475 266.985 53.6954 266.775 60.7621 271.301C71.1446 243.014 85.9065 201.762 99.4425 196.083C112.979 190.405 154.001 187.702 154.001 187.702L179.569 249.18Z" fill="#E1ECFF"/>
<g style="mix-blend-mode:multiply" opacity="0.51">
<path d="M141.036 222.181C141.036 222.181 111.208 225.445 102.968 236.545C94.728 247.645 78.3998 315.566 60.123 317.174C59.8297 339.176 97.6825 347.122 97.6825 347.122L188.417 246.304L141.036 222.181Z" fill="#E1ECFF"/>
</g>
<path d="M277.989 243.616C277.989 243.616 255.464 290.861 235.034 303.748C214.604 316.634 177.589 315.592 167.38 324.031C157.17 332.47 159.328 373.01 149.124 383.749C138.919 394.488 124.561 401.067 111.14 399.857C97.7192 398.647 86.9805 392.209 86.8443 386.169C86.7081 380.129 87.2476 374.891 93.5547 371.669C99.8617 368.448 108.746 365.766 109.128 362.01C109.511 358.254 116.646 301.071 119.605 285.529C122.565 269.986 145.551 248.367 175.174 237.477C203.226 213.988 246.312 224.051 246.312 224.051L277.989 243.616Z" fill="#E1ECFF"/>
<g style="mix-blend-mode:multiply">
<path d="M271.436 256.257C271.436 256.257 245.584 257.577 222.367 247.378C226.804 223.752 240.492 216.775 240.492 216.775L277.989 243.616L271.436 256.257Z" fill="#E1ECFF"/>
</g>
<path d="M235.662 9.53281C255.909 -1.30547 298.34 -4.96188 324.532 27.5215C350.724 60.0049 337.67 93.6932 326.664 109.377C315.14 125.836 275.527 150.991 233.248 127.366C190.968 103.74 186.537 35.8401 235.662 9.53281Z" fill="#E1ECFF"/>
<path d="M239.146 29.3967C221.162 33.6922 209.481 58.9257 215.521 83.0852C221.561 107.245 242.368 123.489 265.72 123.62C289.073 123.751 312.295 107.805 312.169 77.9882C312.044 49.3341 278.198 20.0723 239.146 29.3967Z" fill="#1C3177"/>
<g style="mix-blend-mode:multiply">
<path d="M290.959 218.116C267.528 207.241 285.055 182.411 261.697 176.764C230.901 181.143 222.383 179.571 222.383 179.571C222.383 179.571 281.299 231.317 290.959 218.116Z" fill="#E1ECFF"/>
</g>
<path d="M271.436 151.703L232.441 252.045L177.275 250.73L126.808 218.786L111.774 173.149L148.28 63.6245L166.002 114.898L211.906 151.405L271.436 151.703Z" fill="#FFA755"/>
<path d="M290.959 218.116C278.031 217.068 271.446 208.65 267.528 204.915C265.532 203.008 265.93 201.337 266.936 195.837C267.941 190.337 264.453 184.695 259.686 182.28C257.066 189.326 253.85 190.662 251.367 190.331C248.884 190.001 246.333 175.166 238.213 175.297C230.094 175.428 223.583 186.172 222.498 191.536C221.414 196.9 226.658 212.202 233.237 222.941C239.816 233.679 249.099 246.974 269.995 251.134C290.891 255.293 302.772 244.622 309.618 231.133C311.928 226.581 312.761 220.29 312.688 213.281C312.688 213.281 308.01 219.457 290.959 218.116Z" fill="#E1ECFF"/>
<path d="M135.708 101.346C135.708 101.346 133.22 109.44 134.896 112.593C136.573 115.747 138.857 118.355 140.533 122.394C142.209 126.433 139.726 141.656 132.345 144.27C124.964 146.884 118.856 140.042 116.908 136.082C114.959 132.122 116.038 121.724 118.924 114.474C121.811 107.224 127.238 100.78 135.708 101.346Z" fill="#E1ECFF"/>
<path d="M127.222 0.789799L125.567 4.14238C125.468 4.34553 125.32 4.52139 125.138 4.65468C124.955 4.78797 124.743 4.87465 124.519 4.90719L120.815 5.43103C120.557 5.46811 120.313 5.57704 120.113 5.74545C119.913 5.91387 119.764 6.13501 119.683 6.38378C119.603 6.63255 119.593 6.89898 119.656 7.15281C119.719 7.40663 119.852 7.63769 120.04 7.81975L122.717 10.439C122.88 10.5967 123.001 10.7917 123.072 11.0071C123.142 11.2226 123.159 11.4519 123.12 11.6752L122.492 15.3421C122.447 15.5993 122.476 15.8637 122.574 16.1056C122.672 16.3475 122.835 16.5571 123.046 16.7108C123.257 16.8645 123.507 16.9561 123.767 16.9753C124.027 16.9945 124.288 16.9404 124.519 16.8193L127.835 15.0802C128.035 14.9742 128.258 14.9188 128.485 14.9188C128.711 14.9188 128.934 14.9742 129.134 15.0802L132.45 16.8193C132.681 16.9419 132.942 16.9971 133.204 16.9786C133.465 16.9601 133.715 16.8687 133.927 16.7148C134.139 16.5609 134.303 16.3507 134.401 16.108C134.5 15.8653 134.528 15.6 134.483 15.3421L133.849 11.6752C133.81 11.4519 133.827 11.2226 133.897 11.0071C133.968 10.7917 134.089 10.5967 134.252 10.439L136.929 7.81975C137.117 7.63769 137.25 7.40663 137.313 7.15281C137.376 6.89898 137.366 6.63255 137.286 6.38378C137.205 6.13501 137.056 5.91387 136.856 5.74545C136.656 5.57704 136.413 5.46811 136.154 5.43103L132.45 4.90719C132.226 4.87465 132.014 4.78797 131.831 4.65468C131.649 4.52139 131.502 4.34553 131.402 4.14238L129.747 0.789799C129.632 0.553004 129.452 0.353371 129.229 0.213714C129.006 0.0740566 128.748 0 128.485 0C128.221 0 127.963 0.0740566 127.74 0.213714C127.517 0.353371 127.337 0.553004 127.222 0.789799Z" fill="#FEC272"/>
<path d="M304.448 355.582L303.06 358.395C302.977 358.566 302.853 358.714 302.7 358.825C302.546 358.937 302.368 359.009 302.18 359.035L299.073 359.485C298.857 359.517 298.653 359.608 298.486 359.749C298.319 359.891 298.195 360.076 298.127 360.284C298.059 360.492 298.051 360.715 298.104 360.927C298.156 361.14 298.267 361.333 298.424 361.486L300.671 363.676C300.809 363.809 300.912 363.975 300.97 364.157C301.029 364.34 301.041 364.535 301.006 364.723L300.483 367.814C300.447 368.03 300.471 368.251 300.554 368.454C300.637 368.656 300.774 368.831 300.951 368.96C301.127 369.089 301.336 369.166 301.554 369.183C301.772 369.2 301.991 369.156 302.185 369.056L304.961 367.594C305.13 367.506 305.316 367.461 305.506 367.461C305.696 367.461 305.883 367.506 306.051 367.594L308.817 369.045C309.011 369.147 309.23 369.193 309.449 369.177C309.668 369.161 309.878 369.084 310.055 368.955C310.232 368.826 310.37 368.649 310.452 368.446C310.534 368.242 310.557 368.02 310.519 367.804L309.995 364.713C309.963 364.524 309.977 364.33 310.036 364.147C310.096 363.965 310.199 363.799 310.336 363.665L312.578 361.476C312.735 361.323 312.845 361.129 312.898 360.917C312.95 360.704 312.942 360.481 312.875 360.273C312.807 360.065 312.683 359.88 312.516 359.739C312.348 359.598 312.145 359.506 311.928 359.475L308.827 359.024C308.639 358.998 308.46 358.926 308.305 358.814C308.151 358.703 308.026 358.556 307.942 358.385L306.554 355.572C306.456 355.376 306.305 355.211 306.119 355.096C305.932 354.981 305.717 354.921 305.498 354.922C305.278 354.923 305.064 354.985 304.878 355.102C304.693 355.219 304.544 355.385 304.448 355.582Z" fill="#FEC272"/>
<g style="mix-blend-mode:soft-light" opacity="0.48">
<path d="M254.844 59.5169C241.952 56.6754 232.316 50.6753 233.321 46.1153C234.326 41.5553 245.592 40.1622 258.484 43.0037C271.375 45.8452 281.011 51.8453 280.006 56.4053C279.001 60.9653 267.736 62.3584 254.844 59.5169Z" fill="white"/>
</g>
<g style="mix-blend-mode:multiply">
<path d="M225.484 206.581C225.484 206.581 240.314 193.328 243.002 193.328C245.689 193.328 252.845 203.805 251.231 206.581C249.618 209.357 241.331 218.451 232.231 221.249C229.282 215.623 225.484 206.581 225.484 206.581Z" fill="#E1ECFF"/>
</g>
<g style="mix-blend-mode:multiply" opacity="0.5">
<path d="M211.906 151.405L177.275 250.73L126.808 218.786L166.002 114.898L211.906 151.405Z" fill="#FFA755"/>
</g>
<g style="mix-blend-mode:multiply">
<path d="M116.635 304.502C121.826 308.803 127.659 312.262 133.922 314.754C139.794 317.017 141.779 321.648 140.004 330.144C138.228 338.641 137.233 351.889 133.566 355.378C129.899 358.867 117.285 357.012 110.747 348.903C112.795 332.926 116.635 304.502 116.635 304.502Z" fill="#E1ECFF"/>
</g>
<g style="mix-blend-mode:multiply">
<path d="M82.4544 217.875C82.4544 217.875 89.7882 221.07 89.0915 226.167C88.3948 231.264 80.9039 255.901 77.9494 258.122C74.995 260.343 66.252 256.404 66.252 256.404C75.2307 230.966 82.4544 217.875 82.4544 217.875Z" fill="#E1ECFF"/>
</g>
<path d="M391.94 276.828C397.77 264.738 378.771 251.799 362.605 252.731C346.439 253.664 339.645 268.588 333.919 274.156C321.96 285.775 322.337 297.143 330.619 302.03C338.901 306.917 384.224 292.821 391.94 276.828Z" fill="#98E5FA"/>
<path d="M65.8175 89.5285C70.5321 85.4006 65.6813 65.9975 54.5445 61.4558C43.4076 56.9141 29.5782 61.8801 26.6237 69.6644C23.6693 77.4487 56.1527 97.9833 65.8175 89.5285Z" fill="#98E5FA"/>
<path d="M11.2435 99.9112C13.6585 103.353 15.2667 113.154 10.1697 114.898C5.07271 116.643 1.21722 106.559 3.00875 101.31C4.80029 96.061 9.63012 97.6115 11.2435 99.9112Z" fill="#71D6F7"/>
<path d="M7.57689 20.3763C11.38 22.1679 17.6504 29.8683 14.0882 33.9176C10.5261 37.9669 2.18133 31.1255 1.12841 25.6828C0.075489 20.2401 5.03626 19.182 7.57689 20.3763Z" fill="#98E5FA"/>
<path opacity="0.44" d="M365.192 327.698C368.482 325.079 378.158 322.853 380.221 327.835C382.285 332.816 372.458 337.264 367.125 335.828C361.793 334.393 363.003 329.448 365.192 327.698Z" fill="#99ADF9"/>
<g style="mix-blend-mode:multiply" opacity="0.64">
<path d="M336.785 270.841C342.636 271.941 341.693 277.174 339.818 281.915C337.943 286.655 331.342 288.007 326.685 283.675C329.708 276.482 336.785 270.841 336.785 270.841Z" fill="#98E5FA"/>
</g>
<g style="mix-blend-mode:multiply" opacity="0.64">
<path d="M370.42 262.946C374.611 263.412 378.027 269.478 375.072 274.397C372.118 279.316 366.486 282.899 363.265 281.558C360.043 280.217 359.503 272.967 361.829 268.315C364.155 263.664 366.392 262.495 370.42 262.946Z" fill="#98E5FA"/>
</g>
<g style="mix-blend-mode:multiply" opacity="0.64">
<path d="M39.6987 65.6362C41.9984 66.3696 44.3295 68.8579 44.1252 71.5452C43.9209 74.2325 41.5741 76.5793 39.0282 76.2597C36.4824 75.9402 34.3137 71.828 34.8375 68.8736C35.3613 65.9191 37.9439 65.081 39.6987 65.6362Z" fill="#98E5FA"/>
</g>
<g style="mix-blend-mode:multiply" opacity="0.64">
<path d="M64.0519 70.8745C64.0519 70.8745 60.9088 74.0176 61.4327 77.5849C61.9565 81.1523 67.373 80.8222 67.373 80.8222C67.373 80.8222 66.5663 74.7405 64.0519 70.8745Z" fill="#98E5FA"/>
</g>
</svg>
