<svg width="124" height="89" viewBox="0 0 124 89" fill="none" xmlns="http://www.w3.org/2000/svg">
<path d="M123.38 86.8401C123.38 85.8401 122.57 85.0301 121.57 85.0301C120.57 85.0301 119.76 85.8401 119.76 86.8401C119.76 87.8401 120.57 88.6501 121.57 88.6501C122.57 88.6501 123.38 87.8401 123.38 86.8401Z" fill="#2D9CDB"/>
<path d="M103.421 86.8401C103.421 85.8401 102.611 85.0301 101.611 85.0301C100.611 85.0301 99.8009 85.8401 99.8009 86.8401C99.8009 87.8401 100.611 88.6501 101.611 88.6501C102.611 88.6501 103.421 87.8401 103.421 86.8401Z" fill="#2D9CDB"/>
<path d="M83.46 86.8401C83.46 85.8401 82.65 85.0301 81.65 85.0301C80.65 85.0301 79.84 85.8401 79.84 86.8401C79.84 87.8401 80.65 88.6501 81.65 88.6501C82.65 88.6501 83.46 87.8401 83.46 86.8401Z" fill="#2D9CDB"/>
<path d="M63.499 86.8401C63.499 85.8401 62.689 85.0301 61.689 85.0301C60.689 85.0301 59.879 85.8401 59.879 86.8401C59.879 87.8401 60.689 88.6501 61.689 88.6501C62.689 88.6501 63.499 87.8401 63.499 86.8401Z" fill="#2D9CDB"/>
<path d="M43.54 86.8401C43.54 85.8401 42.73 85.0301 41.73 85.0301C40.73 85.0301 39.92 85.8401 39.92 86.8401C39.92 87.8401 40.73 88.6501 41.73 88.6501C42.73 88.6501 43.54 87.8401 43.54 86.8401Z" fill="#2D9CDB"/>
<path d="M23.5791 86.8401C23.5791 85.8401 22.7691 85.0301 21.7691 85.0301C20.7691 85.0301 19.9591 85.8401 19.9591 86.8401C19.9591 87.8401 20.7691 88.6501 21.7691 88.6501C22.7691 88.6501 23.5791 87.8401 23.5791 86.8401Z" fill="#2D9CDB"/>
<path d="M3.62012 86.8401C3.62012 85.8401 2.81012 85.0301 1.81012 85.0301C0.81012 85.0301 0.000122402 85.8401 0.000122284 86.8401C0.000122166 87.8401 0.81012 88.6501 1.81012 88.6501C2.81012 88.6501 3.62012 87.8401 3.62012 86.8401Z" fill="#2D9CDB"/>
<path d="M123.38 69.8401C123.38 68.8401 122.57 68.0301 121.57 68.0301C120.57 68.0301 119.76 68.8401 119.76 69.8401C119.76 70.8401 120.57 71.6501 121.57 71.6501C122.57 71.6501 123.38 70.8401 123.38 69.8401Z" fill="#2D9CDB"/>
<path d="M103.421 69.8401C103.421 68.8401 102.611 68.0301 101.611 68.0301C100.611 68.0301 99.8009 68.8401 99.8009 69.8401C99.8009 70.8401 100.611 71.6501 101.611 71.6501C102.611 71.6501 103.421 70.8401 103.421 69.8401Z" fill="#2D9CDB"/>
<path d="M83.46 69.8401C83.46 68.8401 82.65 68.0301 81.65 68.0301C80.65 68.0301 79.84 68.8401 79.84 69.8401C79.84 70.8401 80.65 71.6501 81.65 71.6501C82.65 71.6501 83.46 70.8401 83.46 69.8401Z" fill="#2D9CDB"/>
<path d="M63.499 69.8401C63.499 68.8401 62.689 68.0301 61.689 68.0301C60.689 68.0301 59.879 68.8401 59.879 69.8401C59.879 70.8401 60.689 71.6501 61.689 71.6501C62.689 71.6501 63.499 70.8401 63.499 69.8401Z" fill="#2D9CDB"/>
<path d="M43.54 69.8401C43.54 68.8401 42.73 68.0301 41.73 68.0301C40.73 68.0301 39.92 68.8401 39.92 69.8401C39.92 70.8401 40.73 71.6501 41.73 71.6501C42.73 71.6501 43.54 70.8401 43.54 69.8401Z" fill="#2D9CDB"/>
<path d="M23.5791 69.8401C23.5791 68.8401 22.7691 68.0301 21.7691 68.0301C20.7691 68.0301 19.9591 68.8401 19.9591 69.8401C19.9591 70.8401 20.7691 71.6501 21.7691 71.6501C22.7691 71.6501 23.5791 70.8401 23.5791 69.8401Z" fill="#2D9CDB"/>
<path d="M3.62012 69.8401C3.62012 68.8401 2.81012 68.0301 1.81012 68.0301C0.81012 68.0301 0.000122402 68.8401 0.000122284 69.8401C0.000122166 70.8401 0.81012 71.6501 1.81012 71.6501C2.81012 71.6501 3.62012 70.8401 3.62012 69.8401Z" fill="#2D9CDB"/>
<path d="M123.38 52.8301C123.38 51.8301 122.57 51.0201 121.57 51.0201C120.57 51.0201 119.76 51.8301 119.76 52.8301C119.76 53.8301 120.57 54.6401 121.57 54.6401C122.57 54.6401 123.38 53.8301 123.38 52.8301Z" fill="#2D9CDB"/>
<path d="M103.421 52.8301C103.421 51.8301 102.611 51.0201 101.611 51.0201C100.611 51.0201 99.8009 51.8301 99.8009 52.8301C99.8009 53.8301 100.611 54.6401 101.611 54.6401C102.611 54.6401 103.421 53.8301 103.421 52.8301Z" fill="#2D9CDB"/>
<path d="M83.46 52.8301C83.46 51.8301 82.65 51.0201 81.65 51.0201C80.65 51.0201 79.84 51.8301 79.84 52.8301C79.84 53.8301 80.65 54.6401 81.65 54.6401C82.65 54.6401 83.46 53.8301 83.46 52.8301Z" fill="#2D9CDB"/>
<path d="M63.499 52.8301C63.499 51.8301 62.689 51.0201 61.689 51.0201C60.689 51.0201 59.879 51.8301 59.879 52.8301C59.879 53.8301 60.689 54.6401 61.689 54.6401C62.689 54.6401 63.499 53.8301 63.499 52.8301Z" fill="#2D9CDB"/>
<path d="M43.54 52.8301C43.54 51.8301 42.73 51.0201 41.73 51.0201C40.73 51.0201 39.92 51.8301 39.92 52.8301C39.92 53.8301 40.73 54.6401 41.73 54.6401C42.73 54.6401 43.54 53.8301 43.54 52.8301Z" fill="#2D9CDB"/>
<path d="M23.5791 52.8301C23.5791 51.8301 22.7691 51.0201 21.7691 51.0201C20.7691 51.0201 19.9591 51.8301 19.9591 52.8301C19.9591 53.8301 20.7691 54.6401 21.7691 54.6401C22.7691 54.6401 23.5791 53.8301 23.5791 52.8301Z" fill="#2D9CDB"/>
<path d="M3.62012 52.8301C3.62012 51.8301 2.81012 51.0201 1.81012 51.0201C0.81012 51.0201 0.000122402 51.8301 0.000122284 52.8301C0.000122166 53.8301 0.81012 54.6401 1.81012 54.6401C2.81012 54.6401 3.62012 53.8301 3.62012 52.8301Z" fill="#2D9CDB"/>
<path d="M123.38 35.8301C123.38 34.8301 122.57 34.0201 121.57 34.0201C120.57 34.0201 119.76 34.8301 119.76 35.8301C119.76 36.8301 120.57 37.6401 121.57 37.6401C122.57 37.6401 123.38 36.8201 123.38 35.8301Z" fill="#2D9CDB"/>
<path d="M103.421 35.8301C103.421 34.8301 102.611 34.0201 101.611 34.0201C100.611 34.0201 99.8009 34.8301 99.8009 35.8301C99.8009 36.8301 100.611 37.6401 101.611 37.6401C102.611 37.6401 103.421 36.8201 103.421 35.8301Z" fill="#2D9CDB"/>
<path d="M83.46 35.8301C83.46 34.8301 82.65 34.0201 81.65 34.0201C80.65 34.0201 79.84 34.8301 79.84 35.8301C79.84 36.8301 80.65 37.6401 81.65 37.6401C82.65 37.6401 83.46 36.8201 83.46 35.8301Z" fill="#2D9CDB"/>
<path d="M63.499 35.8301C63.499 34.8301 62.689 34.0201 61.689 34.0201C60.689 34.0201 59.879 34.8301 59.879 35.8301C59.879 36.8301 60.689 37.6401 61.689 37.6401C62.689 37.6401 63.499 36.8201 63.499 35.8301Z" fill="#2D9CDB"/>
<path d="M43.54 35.8301C43.54 34.8301 42.73 34.0201 41.73 34.0201C40.73 34.0201 39.92 34.8301 39.92 35.8301C39.92 36.8301 40.73 37.6401 41.73 37.6401C42.73 37.6401 43.54 36.8201 43.54 35.8301Z" fill="#2D9CDB"/>
<path d="M23.5791 35.8301C23.5791 34.8301 22.7691 34.0201 21.7691 34.0201C20.7691 34.0201 19.9591 34.8301 19.9591 35.8301C19.9591 36.8301 20.7691 37.6401 21.7691 37.6401C22.7691 37.6401 23.5791 36.8201 23.5791 35.8301Z" fill="#2D9CDB"/>
<path d="M3.62012 35.8301C3.62012 34.8301 2.81012 34.0201 1.81012 34.0201C0.81012 34.0201 0.000122402 34.8301 0.000122284 35.8301C0.000122166 36.8301 0.81012 37.6401 1.81012 37.6401C2.81012 37.6401 3.62012 36.8201 3.62012 35.8301Z" fill="#2D9CDB"/>
<path d="M123.38 18.82C123.38 17.82 122.57 17.01 121.57 17.01C120.57 17.01 119.76 17.82 119.76 18.82C119.76 19.82 120.57 20.63 121.57 20.63C122.57 20.63 123.38 19.82 123.38 18.82Z" fill="#2D9CDB"/>
<path d="M103.421 18.82C103.421 17.82 102.611 17.01 101.611 17.01C100.611 17.01 99.8009 17.82 99.8009 18.82C99.8009 19.82 100.611 20.63 101.611 20.63C102.611 20.63 103.421 19.82 103.421 18.82Z" fill="#2D9CDB"/>
<path d="M83.46 18.82C83.46 17.82 82.65 17.01 81.65 17.01C80.65 17.01 79.84 17.82 79.84 18.82C79.84 19.82 80.65 20.63 81.65 20.63C82.65 20.63 83.46 19.82 83.46 18.82Z" fill="#2D9CDB"/>
<path d="M61.689 17.01C60.6894 17.01 59.879 17.8204 59.879 18.82C59.879 19.8196 60.6894 20.63 61.689 20.63C62.6887 20.63 63.499 19.8196 63.499 18.82C63.499 17.8204 62.6887 17.01 61.689 17.01Z" fill="#2D9CDB"/>
<path d="M41.73 17.01C40.7304 17.01 39.92 17.8204 39.92 18.82C39.92 19.8196 40.7304 20.63 41.73 20.63C42.7297 20.63 43.54 19.8196 43.54 18.82C43.54 17.8204 42.7297 17.01 41.73 17.01Z" fill="#2D9CDB"/>
<path d="M21.7691 17.01C20.7695 17.01 19.9591 17.8204 19.9591 18.82C19.9591 19.8196 20.7695 20.63 21.7691 20.63C22.7687 20.63 23.5791 19.8196 23.5791 18.82C23.5791 17.8204 22.7687 17.01 21.7691 17.01Z" fill="#2D9CDB"/>
<path d="M3.62012 18.82C3.62012 17.82 2.81012 17.01 1.81012 17.01C0.81012 17.01 0.000122402 17.82 0.000122284 18.82C0.000122166 19.82 0.81012 20.63 1.81012 20.63C2.81012 20.63 3.62012 19.82 3.62012 18.82Z" fill="#2D9CDB"/>
<path d="M123.38 1.80998C123.38 0.809982 122.57 -1.53112e-05 121.57 -1.53759e-05C120.57 -1.54407e-05 119.76 0.809982 119.76 1.80998C119.76 2.80998 120.57 3.61999 121.57 3.62C122.57 3.62 123.38 2.80998 123.38 1.80998Z" fill="#2D9CDB"/>
<path d="M103.421 1.80998C103.421 0.809982 102.611 -1.53112e-05 101.611 -1.53759e-05C100.611 -1.54407e-05 99.8009 0.809982 99.8009 1.80998C99.8009 2.80998 100.611 3.61999 101.611 3.62C102.611 3.62 103.421 2.80998 103.421 1.80998Z" fill="#2D9CDB"/>
<path d="M83.46 1.80998C83.46 0.809982 82.65 -1.53112e-05 81.65 -1.53759e-05C80.65 -1.54407e-05 79.84 0.809982 79.84 1.80998C79.84 2.80998 80.65 3.61999 81.65 3.62C82.65 3.62 83.46 2.80998 83.46 1.80998Z" fill="#2D9CDB"/>
<path d="M63.499 1.80998C63.499 0.809982 62.689 -1.53112e-05 61.689 -1.53759e-05C60.689 -1.54407e-05 59.879 0.809982 59.879 1.80998C59.879 2.80998 60.689 3.61999 61.689 3.62C62.689 3.62 63.499 2.80998 63.499 1.80998Z" fill="#2D9CDB"/>
<path d="M43.54 1.80998C43.54 0.809982 42.73 -1.53112e-05 41.73 -1.53759e-05C40.73 -1.54407e-05 39.92 0.809982 39.92 1.80998C39.92 2.80998 40.73 3.61999 41.73 3.62C42.73 3.62 43.54 2.80998 43.54 1.80998Z" fill="#2D9CDB"/>
<path d="M23.5791 1.80998C23.5791 0.809982 22.7691 -1.53112e-05 21.7691 -1.53759e-05C20.7691 -1.54407e-05 19.9591 0.809982 19.9591 1.80998C19.9591 2.80998 20.7691 3.61999 21.7691 3.62C22.7691 3.62 23.5791 2.80998 23.5791 1.80998Z" fill="#2D9CDB"/>
<path d="M3.62012 1.80998C3.62012 0.809982 2.81012 -1.53112e-05 1.81012 -1.53759e-05C0.81012 -1.54407e-05 0.000122402 0.809982 0.000122284 1.80998C0.000122166 2.80998 0.81012 3.61999 1.81012 3.62C2.81012 3.62 3.62012 2.80998 3.62012 1.80998Z" fill="#2D9CDB"/>
</svg>
