<svg width="464" height="487" viewBox="0 0 464 487" fill="none" xmlns="http://www.w3.org/2000/svg">
<path d="M52.4566 359.805C52.4566 456.951 164.267 486.71 261.414 486.71C358.56 486.71 463.93 461.574 463.93 364.428C463.93 267.281 358.56 103.212 261.414 103.212C164.267 103.212 52.4566 262.658 52.4566 359.805Z" fill="#FAD9FF"/>
<circle r="213.728" transform="matrix(-1 0 0 1 214.228 272.482)" stroke="#E3E3E3"/>
<path d="M146.116 88.0096C147.083 88.9772 148.052 89.9451 149.018 90.9129C149.986 89.9456 150.953 88.9778 151.921 88.0096C153.041 86.8904 154.776 88.6261 153.657 89.7453C152.689 90.7121 151.721 91.6804 150.755 92.6469C151.722 93.6142 152.69 94.5824 153.657 95.5502C154.776 96.669 153.04 98.4043 151.921 97.2858C150.954 96.3179 149.986 95.3503 149.018 94.3825C148.05 95.3503 147.083 96.3176 146.116 97.2858C144.997 98.4044 143.262 96.669 144.38 95.5504C145.348 94.5826 146.316 93.6152 147.284 92.6471C146.316 91.6794 145.348 90.7116 144.38 89.7438C143.262 88.625 144.997 86.8892 146.116 88.0084" fill="#E3E3E3"/>
<path d="M104.539 150.092C101.803 152.829 101.803 157.259 104.539 159.988C107.276 162.724 111.706 162.724 114.435 159.988C117.171 157.252 117.171 152.822 114.435 150.092C111.706 147.356 107.269 147.356 104.539 150.092Z" fill="#E3E3E3"/>
<path d="M196.117 9.50623L198.526 5.5794L202.783 3.81858L207.262 4.89634L210.252 8.40101L210.611 12.9939L208.202 16.9208L203.945 18.6816L199.466 17.6038L196.476 14.0991L196.117 9.50623Z" stroke="#E3E3E3"/>
</svg>
