<svg width="464" height="487" viewBox="0 0 464 487" fill="none" xmlns="http://www.w3.org/2000/svg">
<path d="M411.474 359.805C411.474 456.951 299.663 486.71 202.517 486.71C105.37 486.71 0 461.574 0 364.428C0 267.281 105.37 103.212 202.517 103.212C299.663 103.212 411.474 262.658 411.474 359.805Z" fill="#FFD9D9"/>
<circle cx="249.702" cy="272.482" r="213.728" stroke="#E3E3E3"/>
<path d="M317.814 88.0096C316.847 88.9772 315.878 89.9451 314.912 90.9129C313.945 89.9456 312.977 88.9778 312.009 88.0096C310.889 86.8904 309.154 88.6261 310.274 89.7453C311.241 90.7121 312.209 91.6804 313.175 92.6469C312.208 93.6142 311.24 94.5824 310.274 95.5502C309.154 96.669 310.89 98.4043 312.009 97.2858C312.976 96.3179 313.944 95.3503 314.912 94.3825C315.88 95.3503 316.847 96.3176 317.814 97.2858C318.933 98.4044 320.668 96.669 319.55 95.5504C318.582 94.5826 317.615 93.6152 316.647 92.6471C317.615 91.6794 318.582 90.7116 319.55 89.7438C320.668 88.625 318.933 86.8892 317.814 88.0084" fill="#E3E3E3"/>
<path d="M359.391 150.092C362.127 152.829 362.127 157.259 359.391 159.988C356.655 162.724 352.225 162.724 349.496 159.988C346.759 157.252 346.759 152.822 349.496 150.092C352.225 147.356 356.662 147.356 359.391 150.092Z" fill="#E3E3E3"/>
<path d="M267.814 9.50623L265.405 5.5794L261.147 3.81858L256.668 4.89634L253.678 8.40101L253.319 12.9939L255.728 16.9208L259.985 18.6816L264.464 17.6038L267.455 14.0991L267.814 9.50623Z" stroke="#E3E3E3"/>
</svg>
