<svg width="37" height="60" viewBox="0 0 37 60" fill="none" xmlns="http://www.w3.org/2000/svg">
<path d="M31.5656 0H5.85128C2.89735 0 0.494141 2.40321 0.494141 5.35714V54.6429C0.494141 57.5968 2.89735 60 5.85128 60H31.5656C34.5195 60 36.9227 57.5968 36.9227 54.6429V5.35714C36.9227 2.40321 34.5195 0 31.5656 0ZM2.637 10.7143H34.7799V51.4286H2.637V10.7143ZM5.85128 2.14286H31.5656C33.3377 2.14286 34.7799 3.585 34.7799 5.35714V8.57143H2.637V5.35714C2.637 3.585 4.07914 2.14286 5.85128 2.14286ZM31.5656 57.8571H5.85128C4.07914 57.8571 2.637 56.415 2.637 54.6429V53.5714H34.7799V54.6429C34.7799 56.415 33.3377 57.8571 31.5656 57.8571Z" fill="#155263"/>
<path d="M15.4932 6.4285H21.9218C23.3404 6.4285 23.3393 4.28564 21.9218 4.28564H15.4932C14.0746 4.28564 14.0757 6.4285 15.4932 6.4285Z" fill="#155263"/>
<path d="M26.2081 6.4285C26.7999 6.4285 27.2796 5.94881 27.2796 5.35707C27.2796 4.76534 26.7999 4.28564 26.2081 4.28564C25.6164 4.28564 25.1367 4.76534 25.1367 5.35707C25.1367 5.94881 25.6164 6.4285 26.2081 6.4285Z" fill="#155263"/>
<path d="M29.9008 23.6838L19.1865 18.3267C18.8854 18.1756 18.5297 18.1756 18.2276 18.3267L7.5133 23.6838C7.1608 23.8606 6.92188 24.271 6.92188 24.6428V37.4999C6.92188 37.906 7.15116 38.2767 7.51437 38.4588L18.2287 43.816C18.6122 43.9531 18.7087 43.9863 19.1876 43.816L29.9019 38.4588C30.264 38.2767 30.4933 37.906 30.4933 37.4999V24.6428C30.4933 24.272 30.2554 23.8617 29.9008 23.6838ZM18.7076 20.4835L27.0262 24.6428L18.7076 28.802L10.389 24.6428L18.7076 20.4835ZM9.06473 26.3763L17.6362 30.662V41.1235L9.06473 36.8378V26.3763ZM19.779 41.1235V30.662L28.3504 26.3763V36.8378L19.779 41.1235Z" fill="#155263"/>
</svg>
