<svg width="61" height="60" viewBox="0 0 61 60" fill="none" xmlns="http://www.w3.org/2000/svg">
<path d="M30.9236 4.83887C26.6549 4.83887 23.1816 8.31209 23.1816 12.5808C23.1816 16.8495 26.6549 20.3227 30.9236 20.3227C35.1923 20.3227 38.6655 16.8495 38.6655 12.5808C38.6655 8.31209 35.1923 4.83887 30.9236 4.83887ZM30.9236 18.3873C27.7213 18.3873 25.1171 15.7831 25.1171 12.5808C25.1171 9.37854 27.7213 6.77435 30.9236 6.77435C34.1258 6.77435 36.73 9.37854 36.73 12.5808C36.73 15.7831 34.1258 18.3873 30.9236 18.3873Z" fill="#155263"/>
<path d="M30.9237 8.70947C28.7889 8.70947 27.0527 10.4456 27.0527 12.5804C27.0527 14.7153 28.7889 16.4514 30.9237 16.4514C33.0585 16.4514 34.7947 14.7153 34.7947 12.5804C34.7947 10.4456 33.0585 8.70947 30.9237 8.70947ZM30.9237 14.5159C29.8563 14.5159 28.9882 13.6479 28.9882 12.5804C28.9882 11.513 29.8563 10.645 30.9237 10.645C31.9911 10.645 32.8592 11.513 32.8592 12.5804C32.8592 13.6479 31.9911 14.5159 30.9237 14.5159Z" fill="#155263"/>
<path d="M41.548 17.2481C41.6148 17.0961 41.6787 16.9442 41.7377 16.7923L43.5048 16.169V8.99323L41.7377 8.36903C41.6777 8.2171 41.6148 8.06516 41.548 7.91323L42.3571 6.22161L37.2842 1.14677L35.5916 1.95581C35.4416 1.88903 35.2887 1.82613 35.1358 1.76613L34.5126 0H27.3358L26.7126 1.7671C26.5597 1.8271 26.4077 1.89 26.2568 1.95677L24.5642 1.14774L19.4922 6.22258L20.3013 7.91419C20.2345 8.06613 20.1706 8.21807 20.1116 8.37L18.3435 8.99226V11.6129H13.5048C11.9042 11.6129 10.6016 12.9155 10.6016 14.5161V15.4839H5.89062L11.5693 24.0029L17.248 15.4839H12.5371V14.5161C12.5371 13.9829 12.9706 13.5484 13.5048 13.5484H18.3435V16.169L20.1106 16.7932C20.1706 16.9452 20.2335 17.0971 20.3003 17.249L19.4913 18.9406L24.5642 24.0155L26.2568 23.2065C26.4068 23.2732 26.5597 23.3361 26.7126 23.3961L27.3358 25.1613H34.5126L35.1358 23.3942C35.2887 23.3342 35.4406 23.2713 35.5916 23.2045L37.2842 24.0135L42.3571 18.9387L41.548 17.2481ZM11.5693 20.5132L9.50611 17.4194H13.6326L11.5693 20.5132ZM40.0703 15.7181C39.9445 16.0858 39.7897 16.4584 39.6087 16.8271L39.4016 17.2481L40.02 18.539L36.8826 21.6765L35.5906 21.059L35.1687 21.2661C34.8058 21.4452 34.4322 21.6 34.0597 21.7277L33.6164 21.8797L33.1422 23.2258H28.7061L28.2309 21.8787L27.7877 21.7268C27.4151 21.599 27.0416 21.4442 26.6787 21.2652L26.2568 21.0581L24.9648 21.6755L21.8274 18.5381L22.4458 17.2471L22.2387 16.8261C22.0577 16.4574 21.9029 16.0848 21.7771 15.7171L21.6261 15.2739L20.279 14.7987V10.3616L21.6271 9.88645L21.778 9.44323C21.9039 9.07548 22.0587 8.7029 22.2397 8.33419L22.4468 7.91323L21.8284 6.62226L24.9658 3.48484L26.2577 4.10226L26.6797 3.89516C27.0426 3.71613 27.4161 3.56129 27.7887 3.43355L28.2319 3.28161L28.7061 1.93548H33.1422L33.6174 3.28258L34.0606 3.43452C34.4332 3.56226 34.8068 3.7171 35.1697 3.89613L35.5916 4.10323L36.8835 3.48581L40.0209 6.62323L39.4026 7.91419L39.6097 8.33516C39.7906 8.70387 39.9455 9.07645 40.0713 9.44419L40.2222 9.88742L41.5693 10.3626V14.7997L40.2213 15.2748L40.0703 15.7181Z" fill="#155263"/>
<path d="M57.0522 25.1612V14.516C57.0522 12.9154 55.7496 11.6128 54.1489 11.6128H53.1812V6.90088L44.6622 12.5806L53.1812 18.2602V13.5483H54.1489C54.6831 13.5483 55.1167 13.9828 55.1167 14.516V25.1612H43.5038C41.3689 25.1612 39.6328 26.8973 39.6328 29.0322V56.1289C39.6328 58.2638 41.3689 59.9999 43.5038 59.9999H57.0522C59.187 59.9999 60.9231 58.2638 60.9231 56.1289V29.0322C60.9231 26.8973 59.187 25.1612 57.0522 25.1612ZM51.2457 14.6428L48.1518 12.5806L51.2457 10.5183V14.6428ZM43.5038 27.0967H57.0522C58.1196 27.0967 58.9877 27.9648 58.9877 29.0322V32.9031H41.5683V29.0322C41.5683 27.9648 42.4364 27.0967 43.5038 27.0967ZM47.3747 50.3225H45.4393V44.516H47.3747V50.3225ZM51.2457 50.3225H49.3102V38.7096H51.2457V50.3225ZM53.1812 40.6451H55.1167V50.3225H53.1812V40.6451ZM53.1812 38.7096V36.7741H47.3747V42.5806H43.5038V50.3225H41.5683V34.8386H58.9877V50.3225H57.0522V38.7096H53.1812ZM57.0522 58.0644H43.5038C42.4364 58.0644 41.5683 57.1964 41.5683 56.1289V52.258H58.9877V56.1289C58.9877 57.1964 58.1196 58.0644 57.0522 58.0644Z" fill="#155263"/>
<path d="M45.4395 54.1934H55.1169V56.1288H45.4395V54.1934Z" fill="#155263"/>
<path d="M47.375 29.0322H53.1815V30.9677H47.375V29.0322Z" fill="#155263"/>
<path d="M18.3432 25.1611H4.7948C2.65996 25.1611 0.923828 26.8973 0.923828 29.0321V56.1289C0.923828 58.2637 2.65996 59.9998 4.7948 59.9998H18.3432C20.478 59.9998 22.2142 58.2637 22.2142 56.1289V29.0321C22.2142 26.8973 20.478 25.1611 18.3432 25.1611ZM4.7948 27.0966H18.3432C19.4106 27.0966 20.2787 27.9647 20.2787 29.0321V32.9031H2.85931V29.0321C2.85931 27.9647 3.72738 27.0966 4.7948 27.0966ZM8.66576 50.3224H6.73028V38.7095H8.66576V50.3224ZM10.6012 44.516H12.5367V50.3224H10.6012V44.516ZM16.4077 50.3224H14.4722V40.645H16.4077V50.3224ZM12.5367 38.7095V42.5805H10.6012V36.774H4.7948V50.3224H2.85931V34.8386H20.2787V50.3224H18.3432V38.7095H12.5367ZM18.3432 58.0644H4.7948C3.72738 58.0644 2.85931 57.1963 2.85931 56.1289V52.2579H20.2787V56.1289C20.2787 57.1963 19.4106 58.0644 18.3432 58.0644Z" fill="#155263"/>
<path d="M6.73047 54.1934H16.4079V56.1288H6.73047V54.1934Z" fill="#155263"/>
<path d="M8.66602 29.0322H14.4725V30.9677H8.66602V29.0322Z" fill="#155263"/>
</svg>
