<svg width="61" height="60" viewBox="0 0 61 60" fill="none" xmlns="http://www.w3.org/2000/svg">
<path d="M54.367 8.15693C55.6139 8.15693 56.6228 7.14805 56.6228 5.90122C56.6228 4.65439 55.6139 3.64551 54.367 3.64551C53.1202 3.64551 52.1113 4.65439 52.1113 5.90122C52.1113 7.14805 53.1297 8.15693 54.367 8.15693ZM54.367 5.25401C54.7287 5.25401 55.0238 5.54906 55.0238 5.91074C55.0238 6.27241 54.7287 6.56746 54.367 6.56746C53.9958 6.56746 53.7103 6.28193 53.7103 5.91074C53.7103 5.53954 54.0054 5.25401 54.367 5.25401Z" fill="#155263"/>
<path d="M56.8693 0H10.4987C8.73791 0 7.30073 1.43718 7.30073 3.19797V8.08058H4.1218C2.36101 8.08058 0.923828 9.51777 0.923828 11.2786V51.3769C0.923828 53.1377 2.36101 54.5749 4.1218 54.5749H25.375V59.2005C25.375 59.6383 25.7366 60 26.1745 60H41.1935C41.6313 60 41.993 59.6383 41.993 59.2005V54.5749H50.4924C52.2531 54.5749 53.6903 53.1377 53.6903 51.3769V46.4943H56.8693C58.63 46.4943 60.0672 45.0571 60.0672 43.2963V3.19797C60.0672 1.43718 58.63 0 56.8693 0ZM8.89972 3.19797C8.89972 2.31282 9.62307 1.59898 10.4987 1.59898H56.8693C57.7544 1.59898 58.4682 2.32234 58.4682 3.19797V10.2126H28.1256L24.5564 6.51015C24.2804 6.22462 23.8997 6.06282 23.5095 6.06282H15.6478C14.8483 6.06282 14.1916 6.71954 14.1916 7.51904V10.2126H8.89972V3.19797ZM4.1218 52.9854C3.23665 52.9854 2.52281 52.2621 2.52281 51.3864V11.2786C2.52281 10.3934 3.24616 9.67957 4.1218 9.67957H7.30073V43.3058C7.30073 45.0666 8.73791 46.5038 10.4987 46.5038H27.8591C28.1732 47.1129 28.316 47.7982 28.2589 48.5025H27.0215C26.1078 48.5025 25.375 49.2449 25.375 50.1491V52.9854H4.1218ZM32.894 36.2437C33.0558 35.9581 33.3509 35.7773 33.684 35.7773C34.1789 35.7773 34.5787 36.177 34.5787 36.672C34.5787 36.9956 34.4073 37.2906 34.1313 37.4524C33.8267 37.6333 33.4651 37.6142 33.0939 37.4048C33.0463 37.3763 32.9987 37.3382 32.9797 37.2906C32.6751 36.8052 32.7988 36.4245 32.894 36.2437ZM32.8845 34.3306C32.3039 34.5305 31.809 34.9207 31.5044 35.4727C31.0476 36.2912 31.1047 37.2906 31.6377 38.1472C31.809 38.4137 32.0374 38.6326 32.3134 38.7944C32.7512 39.0419 33.2271 39.1751 33.6935 39.1751C34.1313 39.1751 34.5596 39.0609 34.9403 38.842C35.7017 38.3947 36.1776 37.5666 36.1776 36.6815C36.1776 35.5869 35.4638 34.6637 34.4835 34.3306V30.2189L41.5552 42.9822C41.5457 42.9918 41.5361 43.0108 41.5076 43.0203C39.0044 43.6675 37.3674 46.0089 37.5006 48.5025H29.8769C30.0196 45.9994 28.3731 43.658 25.8223 42.9442L32.8845 30.2189V34.3306ZM40.394 58.401H26.974L27.0215 50.092H40.3464C40.375 50.092 40.394 50.111 40.394 50.1396V58.401ZM52.0913 51.3769C52.0913 52.2621 51.368 52.9759 50.4924 52.9759H41.993V50.1396C41.993 49.2259 41.2506 48.493 40.3464 48.493H39.1091C39.052 47.7887 39.2043 47.1034 39.5089 46.4943H52.0913V51.3769ZM56.8693 44.9048H41.0602C41.3172 44.7621 41.5932 44.6383 41.8978 44.5622C42.4023 44.4289 42.8115 44.0768 43.0209 43.6009C43.2208 43.1345 43.1922 42.611 42.9448 42.1637L34.7595 27.4207C34.5501 27.0305 34.1408 26.783 33.6935 26.783C33.2366 26.7925 32.8274 27.0209 32.6085 27.4112L24.4137 42.1637C24.1662 42.611 24.1472 43.144 24.3471 43.6104C24.5469 44.0863 24.9562 44.4289 25.4606 44.5622C25.7652 44.6383 26.0317 44.7621 26.2982 44.9048H10.4987C9.61355 44.9048 8.89972 44.1815 8.89972 43.3058V11.8115H14.3248C15.1243 11.8115 15.7811 11.1548 15.7811 10.3553V7.6618H23.4429L27.012 11.3642C27.288 11.6497 27.6688 11.8115 28.059 11.8115H58.4682V43.2963C58.4682 44.1815 57.7544 44.9048 56.8693 44.9048Z" fill="#155263"/>
<path d="M48.9217 8.15693C50.1686 8.15693 51.1774 7.14805 51.1774 5.90122C51.1774 4.65439 50.1686 3.64551 48.9217 3.64551C47.6749 3.64551 46.666 4.65439 46.666 5.90122C46.666 7.14805 47.6749 8.15693 48.9217 8.15693ZM48.9217 5.25401C49.2834 5.25401 49.5784 5.54906 49.5784 5.91074C49.5784 6.27241 49.2834 6.56746 48.9217 6.56746C48.5505 6.56746 48.265 6.28193 48.265 5.91074C48.265 5.53954 48.5601 5.25401 48.9217 5.25401Z" fill="#155263"/>
<path d="M43.4686 8.15693C44.7154 8.15693 45.7243 7.14805 45.7243 5.90122C45.7243 4.65439 44.7154 3.64551 43.4686 3.64551C42.2218 3.64551 41.2129 4.65439 41.2129 5.90122C41.2129 7.14805 42.2218 8.15693 43.4686 8.15693ZM43.4686 5.25401C43.8303 5.25401 44.1253 5.54906 44.1253 5.91074C44.1253 6.27241 43.8303 6.56746 43.4686 6.56746C43.0974 6.56746 42.8119 6.28193 42.8119 5.91074C42.8119 5.53954 43.1069 5.25401 43.4686 5.25401Z" fill="#155263"/>
<path d="M49.0926 18.7784C48.6262 19.2447 48.3311 19.8348 48.2169 20.463H37.0335V19.2067C37.0335 18.3501 36.3387 17.6553 35.4821 17.6553H31.8749C31.0183 17.6553 30.3235 18.3501 30.3235 19.2067V20.463H19.1497C19.045 19.8444 18.7499 19.2543 18.274 18.7689C17.0653 17.5791 14.9999 17.5982 13.8197 18.7784C13.2201 19.378 12.8965 20.168 12.8965 21.0055C12.8965 21.8526 13.2296 22.6521 13.8197 23.2327C14.4193 23.8513 15.2188 24.1654 16.0469 24.1654C16.5703 24.1654 17.1033 24.0417 17.6078 23.7847C18.1503 23.5087 18.5976 23.0518 18.8641 22.4903C18.9307 22.3475 18.9879 22.2048 19.0354 22.062H26.7924C22.5761 24.1178 19.3971 27.982 18.2931 32.6458H17.0557C16.1991 32.6458 15.5044 33.3406 15.5044 34.1972V37.8044C15.5044 38.661 16.1991 39.3558 17.0557 39.3558H20.663C21.5196 39.3558 22.2144 38.661 22.2144 37.8044V34.1972C22.2144 33.3406 21.5196 32.6458 20.663 32.6458H19.9396C21.2721 27.6204 25.2981 23.68 30.3521 22.4617V22.8044C30.3521 23.661 31.0469 24.3558 31.9035 24.3558H35.5107C36.3673 24.3558 37.0621 23.661 37.0621 22.8044V22.4617C42.1065 23.68 46.1325 27.6204 47.4745 32.6458H46.8178C45.9612 32.6458 45.2664 33.3406 45.2664 34.1972V37.8044C45.2664 38.661 45.9612 39.3558 46.8178 39.3558H50.425C51.2816 39.3558 51.9764 38.661 51.9764 37.8044V34.1972C51.9764 33.3406 51.2816 32.6458 50.425 32.6458H49.1211C48.0075 27.982 44.8286 24.1083 40.6217 22.062H48.3978C48.55 22.4998 48.7975 22.8996 49.1306 23.2327C49.7302 23.8513 50.5297 24.1654 51.3578 24.1654C51.8813 24.1654 52.4143 24.0417 52.9187 23.7847C53.4612 23.5087 53.9085 23.0518 54.175 22.4903C54.7937 21.1864 54.5748 19.7682 53.5945 18.7689C52.3476 17.5886 50.2823 17.5982 49.0926 18.7784ZM17.4079 21.8145C17.2937 22.043 17.1033 22.2428 16.8749 22.357C16.0469 22.7758 15.333 22.5093 14.9428 22.1001C14.6478 21.8145 14.486 21.4243 14.486 21.0055C14.486 20.5963 14.6478 20.206 14.9428 19.9015C15.2379 19.6064 15.6281 19.4446 16.0469 19.4446C16.4561 19.4446 16.8559 19.6064 17.1414 19.8919C17.6363 20.4059 17.7315 21.1197 17.4079 21.8145ZM20.6439 37.7568L17.0843 37.8044L17.0367 34.2447H20.5964L20.6439 37.7568ZM50.3965 37.7568L46.8368 37.8044L46.7893 34.2447H50.3489L50.3965 37.7568ZM31.932 22.8139L31.913 21.6147C31.932 21.529 31.932 21.4433 31.9225 21.3482V21.3386C31.9225 21.3101 31.9415 21.2911 31.9415 21.2625C31.9415 21.2149 31.9225 21.1768 31.913 21.1388L31.8844 19.2638H35.4441L35.4726 21.1388C35.4631 21.1864 35.4441 21.2244 35.4441 21.272C35.4441 21.3006 35.4536 21.3196 35.4631 21.3482V21.3577C35.4441 21.4814 35.4536 21.5956 35.4821 21.7003L35.5012 22.7758L31.932 22.8139ZM52.6903 21.8145C52.5761 22.043 52.3857 22.2428 52.1573 22.357C51.3292 22.7758 50.6154 22.5093 50.2252 22.1001C49.9301 21.8145 49.7683 21.4243 49.7683 21.0055C49.7683 20.5963 49.9301 20.206 50.2252 19.9015C50.5202 19.6064 50.9104 19.4446 51.3292 19.4446C51.7385 19.4446 52.1382 19.6064 52.4238 19.8919C52.9187 20.4059 53.0139 21.1197 52.6903 21.8145Z" fill="#155263"/>
</svg>
