<svg width="61" height="60" viewBox="0 0 61 60" fill="none" xmlns="http://www.w3.org/2000/svg">
<path d="M8.96289 27.1772H14.9313C15.4166 27.1772 15.8102 26.7838 15.8102 26.2983C15.8102 25.8128 15.4166 25.4194 14.9313 25.4194H8.96289C8.4775 25.4194 8.08398 25.8128 8.08398 26.2983C8.08398 26.7838 8.4775 27.1772 8.96289 27.1772Z" fill="#155263"/>
<path d="M59.6312 24.9023C60.1166 24.9023 60.5101 24.5089 60.5101 24.0234V4.39453C60.5101 1.97133 58.5387 0 56.1155 0H48.2128C47.7274 0 47.3339 0.393398 47.3339 0.878906C47.3339 1.36441 47.7274 1.75781 48.2128 1.75781H56.1155C57.5695 1.75781 58.7523 2.9407 58.7523 4.39453V6.70148H39.541V4.39453C39.541 2.9407 40.7238 1.75781 42.1777 1.75781H44.1113C44.5967 1.75781 44.9902 1.36441 44.9902 0.878906C44.9902 0.393398 44.5967 0 44.1113 0H42.1777C39.7545 0 37.7832 1.97133 37.7832 4.39453V17.6953H36.3184C32.6028 17.6953 29.5801 20.718 29.5801 24.4336V35.2148C29.5801 37.9611 27.3459 40.1953 24.5996 40.1953H23.4788V26.6602C23.4788 24.237 21.5075 22.2656 19.0843 22.2656H4.91211C2.48891 22.2656 0.517578 24.237 0.517578 26.6602V55.6055C0.517578 58.0287 2.48891 60 4.91211 60H5.55664C6.04203 60 6.43555 59.6066 6.43555 59.1211C6.43555 58.6356 6.04203 58.2422 5.55664 58.2422H4.91211C3.45816 58.2422 2.27539 57.0593 2.27539 55.6055V54.1596H21.721V55.6055C21.721 57.0593 20.5382 58.2422 19.0843 58.2422H9.6582C9.17281 58.2422 8.7793 58.6356 8.7793 59.1211C8.7793 59.6066 9.17281 60 9.6582 60H19.0843C21.5075 60 23.4788 58.0287 23.4788 55.6055V41.9531H24.5996C28.3152 41.9531 31.3379 38.9304 31.3379 35.2148V24.4336C31.3379 21.6873 33.5721 19.4531 36.3184 19.4531H37.7832V33.5742C37.7832 35.9974 39.7545 37.9688 42.1777 37.9688H56.1157C58.5389 37.9688 60.5102 35.9974 60.5102 33.5742V28.125C60.5102 27.6395 60.1167 27.2461 59.6313 27.2461C59.1459 27.2461 58.7524 27.6395 58.7524 28.125V30.3326H39.541V19.4531H46.9699L45.3649 21.0581C45.0216 21.4015 45.0216 21.9579 45.3649 22.3011C45.5364 22.4727 45.7614 22.5585 45.9863 22.5585C46.2112 22.5585 46.4362 22.4727 46.6078 22.3011L49.7132 19.1957C50.053 18.868 50.0528 18.2802 49.7132 17.9527L46.6078 14.8472C46.2645 14.5041 45.708 14.5041 45.3649 14.8472C45.0216 15.1905 45.0216 15.747 45.3649 16.0902L46.9699 17.6953H39.541V8.4593H58.7524V24.0234C58.7523 24.5089 59.1458 24.9023 59.6312 24.9023ZM4.91211 24.0234H19.0843C20.5382 24.0234 21.721 25.2063 21.721 26.6602V28.9235H2.27539V26.6602C2.27539 25.2063 3.45816 24.0234 4.91211 24.0234ZM21.721 52.4018H2.27539V30.6813H21.721V40.1953H17.109C16.8666 38.9227 15.7463 37.9574 14.4043 37.9574H14.1113C13.6259 37.9574 13.2324 38.3508 13.2324 38.8363C13.2324 39.3218 13.6259 39.7152 14.1113 39.7152H14.4043C14.9536 39.7152 15.4004 40.162 15.4004 40.7113V41.437C15.4004 41.9863 14.9536 42.4331 14.4043 42.4331H9.48242C8.93316 42.4331 8.48633 41.9863 8.48633 41.437V40.7113C8.48633 40.162 8.93316 39.7152 9.48242 39.7152H10.0471C10.5325 39.7152 10.9261 39.3218 10.9261 38.8363C10.9261 38.3508 10.5325 37.9574 10.0471 37.9574H9.48242C7.96391 37.9574 6.72852 39.1928 6.72852 40.7113V41.437C6.72852 42.9555 7.96391 44.1909 9.48242 44.1909H14.4043C15.7464 44.1909 16.8666 43.2257 17.109 41.953H21.721V52.4018ZM58.7523 32.0904V33.5742C58.7523 35.028 57.5695 36.2109 56.1155 36.2109H42.1777C40.7238 36.2109 39.541 35.028 39.541 33.5742V32.0904H58.7523Z" fill="#155263"/>
<path d="M46.1445 4.93213H52.0469C52.5323 4.93213 52.9258 4.53873 52.9258 4.05322C52.9258 3.56772 52.5323 3.17432 52.0469 3.17432H46.1445C45.6591 3.17432 45.2656 3.56772 45.2656 4.05322C45.2656 4.53873 45.6591 4.93213 46.1445 4.93213Z" fill="#155263"/>
</svg>
