<svg width="69" height="60" viewBox="0 0 69 60" fill="none" xmlns="http://www.w3.org/2000/svg">
<path d="M3.59766 44V44.5H4.09766H64.0977H64.5977V44V4V3.5H64.0977H4.09766H3.59766V4V44ZM67.5977 47.5H0.597656V0.5H67.5977V47.5Z" fill="#155263" stroke="white"/>
<path d="M28.5977 48V46.5H31.5977V48C31.5977 54.1731 26.7073 59.2266 20.5977 59.4893V56.4855C25.0531 56.2259 28.5977 52.5195 28.5977 48Z" fill="#155263" stroke="white"/>
<path d="M47.5977 59.4893C41.488 59.2266 36.5977 54.1731 36.5977 48V46.5H39.5977V48C39.5977 52.5195 43.1422 56.2259 47.5977 56.4855V59.4893Z" fill="#155263" stroke="white"/>
<path d="M16.5977 56.5H51.5977V59.5H16.5977V56.5Z" fill="#155263" stroke="white"/>
<path d="M2.59766 36.5H65.5977V39.5H2.59766V36.5Z" fill="#155263" stroke="white"/>
<path d="M18.0977 29.5C15.0654 29.5 12.5977 27.0323 12.5977 24V16C12.5977 12.9677 15.0654 10.5 18.0977 10.5C21.1299 10.5 23.5977 12.9677 23.5977 16V24C23.5977 27.0323 21.1299 29.5 18.0977 29.5ZM18.0977 13.5C16.7187 13.5 15.5977 14.6211 15.5977 16V24C15.5977 25.3789 16.7187 26.5 18.0977 26.5C19.4766 26.5 20.5977 25.3789 20.5977 24V16C20.5977 14.6211 19.4766 13.5 18.0977 13.5Z" fill="#155263" stroke="white"/>
<path d="M55.5977 29.5H52.5977V16C52.5977 14.6211 51.4766 13.5 50.0977 13.5C48.7187 13.5 47.5977 14.6211 47.5977 16V29.5H44.5977V16C44.5977 12.9677 47.0654 10.5 50.0977 10.5C53.1299 10.5 55.5977 12.9677 55.5977 16V29.5Z" fill="#155263" stroke="white"/>
<path d="M46.5977 22.5H53.5977V25.5H46.5977V22.5Z" fill="#155263" stroke="white"/>
<path d="M23.5137 25.2872L26.8059 28.5794L24.685 30.7003L21.3928 27.4081L23.5137 25.2872Z" fill="#155263" stroke="white"/>
<path d="M32.5977 2.5H35.5977V37.5H32.5977V2.5Z" fill="#155263" stroke="white"/>
</svg>
