<svg width="57" height="60" viewBox="0 0 57 60" fill="none" xmlns="http://www.w3.org/2000/svg">
<path d="M55.6495 23.0431L50.488 22.5457C49.9403 20.3482 49.056 18.2484 47.8673 16.3204L51.1573 12.3486C51.4805 11.9589 51.4537 11.3877 51.096 11.0301L45.5132 5.44683C45.1556 5.0892 44.5844 5.06287 44.1947 5.38555L40.2201 8.67654C38.2888 7.4964 36.1913 6.61261 33.9977 6.05486L33.4998 0.886182C33.4514 0.383485 33.0287 0 32.5236 0H24.8936C24.3885 0 23.9662 0.383485 23.9179 0.886182L23.4195 6.05486C21.2258 6.61213 19.1284 7.4964 17.1971 8.67654L13.2224 5.38459C12.8332 5.06191 12.262 5.08824 11.9039 5.44588L6.32112 11.0296C5.96349 11.3877 5.93668 11.9589 6.25984 12.3486L9.54891 16.3199C8.3592 18.2479 7.47445 20.3482 6.92627 22.5462L1.76765 23.0441C1.26591 23.0929 0.884341 23.5157 0.886735 24.0198V31.9346C0.883862 32.4383 1.26543 32.8615 1.76717 32.9103L6.93202 33.4082C7.48881 35.6014 8.37212 37.6993 9.55178 39.6307L6.25936 43.6048C5.92184 44.0123 5.96828 44.6141 6.36469 44.965L10.5993 48.7103C10.8085 48.8956 11.0872 48.9827 11.3653 48.9497C11.643 48.9162 11.8934 48.7658 12.0533 48.5365L18.1393 39.804C18.4107 39.4143 18.3638 38.8857 18.0277 38.5496C12.1888 32.7107 12.1883 23.2432 18.0277 17.4038C23.8671 11.5644 33.3346 11.5644 39.174 17.4038C45.0134 23.2432 45.0134 32.7107 39.174 38.5496C38.8336 38.89 38.7905 39.4267 39.072 39.8169L45.372 48.549C45.5338 48.7735 45.7833 48.919 46.0585 48.9497C46.3338 48.9803 46.6091 48.8932 46.8164 48.7098L51.0525 44.9659C51.4489 44.6155 51.4958 44.0132 51.1578 43.6053L47.8663 39.6307C49.0465 37.6993 49.9303 35.6019 50.4875 33.4082L55.6495 32.9103C56.1512 32.8615 56.5328 32.4383 56.5299 31.9346V24.0188C56.5323 23.5152 56.1512 23.092 55.6495 23.0431ZM54.569 31.0436L49.5961 31.5234C49.1738 31.5641 48.8262 31.8729 48.7358 32.2875C48.1952 34.7392 47.2123 37.0717 45.8359 39.1715C45.6004 39.5316 45.6272 40.0031 45.9015 40.334L49.0422 44.1252L46.329 46.5238L41.1383 39.329C47.1487 32.6987 46.9562 22.4126 40.5605 16.0169C33.9661 9.42244 23.2357 9.42244 16.6412 16.0169C10.2422 22.4159 10.053 32.7097 16.0725 39.3391L11.0738 46.5119L8.37452 44.1248L11.5147 40.3335C11.789 40.0017 11.8154 39.5306 11.5798 39.1706C10.2029 37.0712 9.21952 34.7387 8.67757 32.2875C8.58852 31.8733 8.2419 31.5645 7.82059 31.5234L2.84773 31.0436V24.9103L7.82059 24.4301C8.24477 24.3889 8.59331 24.0782 8.68188 23.6612C9.20947 21.209 10.1924 18.8779 11.5788 16.7877C11.8173 16.4272 11.7914 15.9532 11.5156 15.6204L8.33909 11.7851L12.6594 7.46432L16.4947 10.6404C16.826 10.9152 17.2976 10.9415 17.6572 10.7055C19.7565 9.32861 22.089 8.34524 24.5403 7.80376C24.9554 7.71184 25.2637 7.3633 25.3044 6.94056L25.7841 1.96147H31.6331L32.1133 6.94056C32.154 7.3633 32.4623 7.71184 32.8769 7.80376C35.3286 8.34524 37.6611 9.32909 39.7605 10.706C40.12 10.942 40.5916 10.9157 40.9229 10.6409L44.7578 7.4648L49.0781 11.7851L45.902 15.6204C45.6267 15.9532 45.6013 16.4272 45.8397 16.7872C47.2267 18.8774 48.2096 21.209 48.7377 23.6612C48.8248 24.0777 49.1724 24.3889 49.5956 24.4301L54.569 24.9098V31.0436Z" fill="#155263"/>
<path d="M32.1281 45.2317V30.3438C34.5994 28.9166 36.2219 26.2073 36.2219 23.4152C36.2219 19.6 34.0402 16.8212 30.3859 15.9829C30.0814 15.913 29.7625 15.992 29.526 16.1955C29.29 16.3995 29.1645 16.7035 29.1885 17.0147L29.5126 21.1756C28.6939 21.605 27.7173 21.6055 26.8981 21.1765L27.2466 16.9926C27.2734 16.6709 27.1404 16.3569 26.8904 16.1524C26.6405 15.948 26.3064 15.8795 25.9966 15.9695C22.6544 16.9376 20.5723 19.8121 20.5723 23.4722C20.5723 26.8316 22.3351 29.549 25.2765 30.7268V45.5573C23.193 46.7872 21.1856 49.283 21.2172 52.4586C21.2172 56.2427 23.3744 59.0401 26.9814 59.9425C27.2878 60.0191 27.6119 59.944 27.8532 59.7405C28.0945 59.537 28.2233 59.2301 28.1994 58.9156L27.8767 54.7552C28.6949 54.3257 29.672 54.3253 30.4912 54.7538L30.1426 58.9381C30.1158 59.2598 30.2489 59.5739 30.4988 59.7783C30.7488 59.9827 31.0829 60.0512 31.3927 59.9612C34.7186 58.9975 36.805 56.1374 36.8386 52.4864C36.839 49.1264 35.0533 46.4095 32.1281 45.2317ZM32.2329 57.4697L32.4938 54.3344C32.5216 54.0007 32.3775 53.6761 32.1113 53.4731L32.0744 53.4448C30.348 52.1345 27.9562 52.1503 26.2475 53.4831C25.9909 53.6856 25.852 54.0031 25.8774 54.3291L26.1278 57.5545C24.24 56.6137 23.1844 54.8165 23.1844 52.449C23.159 49.8695 24.9754 47.8362 26.6793 47.0376C27.0226 46.8758 27.2404 46.5292 27.238 46.1495V30.0321C27.2404 29.6007 26.9594 29.2192 26.5467 29.0933C24.071 28.3459 22.5366 26.192 22.5366 23.4712C22.5366 21.2799 23.5114 19.4683 25.1549 18.46L24.895 21.5954C24.8672 21.9296 25.0118 22.2547 25.2789 22.4572L25.3153 22.485C27.0393 23.7948 29.4288 23.781 31.137 22.4514C31.1456 22.4447 31.1552 22.4371 31.1634 22.4304C31.4075 22.2269 31.5377 21.9176 31.5133 21.6007L31.2596 18.3408C33.1852 19.2433 34.2619 21.0324 34.2619 23.4157C34.2619 25.6371 32.8088 27.8787 30.7282 28.8668C30.3863 29.0291 30.1685 29.3738 30.1685 29.7525V45.9259C30.1685 46.3582 30.4519 46.7393 30.8656 46.8643C33.3417 47.6121 34.879 49.766 34.879 52.4777C34.8579 54.6594 33.875 56.4648 32.2334 57.4697H32.2329Z" fill="#155263"/>
</svg>
