<svg width="62" height="64" viewBox="0 0 62 64" fill="none" xmlns="http://www.w3.org/2000/svg">
<path d="M36.1475 55.6257H34.082V45.5044C34.082 45.2304 33.9732 44.9678 33.7795 44.7741C33.5858 44.5804 33.3231 44.4716 33.0492 44.4716C32.7753 44.4716 32.5126 44.5804 32.3189 44.7741C32.1252 44.9678 32.0164 45.2304 32.0164 45.5044V55.6257H5.16393V34.9699H13.7567C14.0306 34.9699 14.2933 34.8611 14.487 34.6674C14.6807 34.4738 14.7895 34.2111 14.7895 33.9371C14.7895 33.6632 14.6807 33.4005 14.487 33.2069C14.2933 33.0132 14.0306 32.9044 13.7567 32.9044H4.13115C3.85724 32.9044 3.59454 33.0132 3.40086 33.2069C3.20717 33.4005 3.09836 33.6632 3.09836 33.9371V55.6257H1.03279C0.758875 55.6257 0.496181 55.7345 0.302496 55.9282C0.108811 56.1218 0 56.3845 0 56.6585V58.724C0 60.0936 0.544056 61.4071 1.51248 62.3755C2.48091 63.3439 3.79437 63.888 5.16393 63.888H32.0164C33.386 63.888 34.6994 63.3439 35.6678 62.3755C36.6363 61.4071 37.1803 60.0936 37.1803 58.724V56.6585C37.1803 56.3845 37.0715 56.1218 36.8778 55.9282C36.6841 55.7345 36.4215 55.6257 36.1475 55.6257ZM35.1148 58.724C35.1148 59.5458 34.7883 60.3338 34.2073 60.9149C33.6262 61.496 32.8381 61.8224 32.0164 61.8224H29.9508V60.7896C29.9508 60.5157 29.842 60.253 29.6483 60.0593C29.4546 59.8656 29.1919 59.7568 28.918 59.7568C28.6441 59.7568 28.3814 59.8656 28.1877 60.0593C27.9941 60.253 27.8852 60.5157 27.8852 60.7896V61.8224H9.29508V60.7896C9.29508 60.5157 9.18627 60.253 8.99259 60.0593C8.7989 59.8656 8.53621 59.7568 8.26229 59.7568C7.98838 59.7568 7.72569 59.8656 7.532 60.0593C7.33832 60.253 7.22951 60.5157 7.22951 60.7896V61.8224H5.16393C4.3422 61.8224 3.55412 61.496 2.97306 60.9149C2.39201 60.3338 2.06557 59.5458 2.06557 58.724V57.6912H35.1148V58.724Z" fill="#155263"/>
<path d="M53.7049 8.11745H55.7705C56.0444 8.11745 56.3071 8.00864 56.5008 7.81496C56.6945 7.62127 56.8033 7.35858 56.8033 7.08467C56.8033 6.81075 56.6945 6.54806 56.5008 6.35438C56.3071 6.16069 56.0444 6.05188 55.7705 6.05188H53.7049C52.8832 6.05188 52.0951 6.37831 51.5141 6.95937C50.933 7.54042 50.6066 8.3285 50.6066 9.15024V10.183H49.5738C49.2999 10.183 49.0372 10.2918 48.8435 10.4855C48.6498 10.6792 48.541 10.9419 48.541 11.2158C48.541 11.4897 48.6498 11.7524 48.8435 11.9461C49.0372 12.1398 49.2999 12.2486 49.5738 12.2486H50.6066V15.347C50.6066 15.6209 50.7154 15.8836 50.9091 16.0773C51.1028 16.2709 51.3655 16.3797 51.6394 16.3797C51.9133 16.3797 52.176 16.2709 52.3697 16.0773C52.5634 15.8836 52.6722 15.6209 52.6722 15.347V12.2486H53.7049C53.9789 12.2486 54.2416 12.1398 54.4352 11.9461C54.6289 11.7524 54.7377 11.4897 54.7377 11.2158C54.7377 10.9419 54.6289 10.6792 54.4352 10.4855C54.2416 10.2918 53.9789 10.183 53.7049 10.183H52.6722V9.15024C52.6722 8.87633 52.781 8.61364 52.9747 8.41995C53.1683 8.22626 53.431 8.11745 53.7049 8.11745Z" fill="#155263"/>
<path d="M58.8688 1.92072H46.4753C45.6536 1.92072 44.8655 2.24715 44.2844 2.8282C43.7034 3.40926 43.377 4.19734 43.377 5.01908V7.08465C43.377 7.35856 43.4858 7.62125 43.6794 7.81494C43.8731 8.00863 44.1358 8.11744 44.4097 8.11744C44.6837 8.11744 44.9463 8.00863 45.14 7.81494C45.3337 7.62125 45.4425 7.35856 45.4425 7.08465V5.01908C45.4425 4.74516 45.5513 4.48247 45.745 4.28879C45.9387 4.0951 46.2014 3.98629 46.4753 3.98629H58.8688C59.1427 3.98629 59.4054 4.0951 59.599 4.28879C59.7927 4.48247 59.9015 4.74516 59.9015 5.01908V17.4125C59.9015 17.6864 59.7927 17.9491 59.599 18.1428C59.4054 18.3365 59.1427 18.4453 58.8688 18.4453H46.4753C46.2014 18.4453 45.9387 18.3365 45.745 18.1428C45.5513 17.9491 45.4425 17.6864 45.4425 17.4125V11.2158C45.4425 10.9419 45.3337 10.6792 45.14 10.4855C44.9463 10.2918 44.6837 10.183 44.4097 10.183C44.1358 10.183 43.8731 10.2918 43.6794 10.4855C43.4858 10.6792 43.377 10.9419 43.377 11.2158V17.4125C43.377 18.2343 43.7034 19.0223 44.2844 19.6034C44.8655 20.1844 45.6536 20.5109 46.4753 20.5109H58.8688C59.6905 20.5109 60.4786 20.1844 61.0596 19.6034C61.6407 19.0223 61.9671 18.2343 61.9671 17.4125V5.01908C61.9671 4.19734 61.6407 3.40926 61.0596 2.8282C60.4786 2.24715 59.6905 1.92072 58.8688 1.92072V1.92072Z" fill="#155263"/>
<path d="M48.541 43.2322C48.541 44.0493 48.7833 44.848 49.2372 45.5274C49.6912 46.2067 50.3364 46.7362 51.0912 47.0489C51.8461 47.3616 52.6767 47.4434 53.4781 47.284C54.2795 47.1246 55.0156 46.7311 55.5933 46.1534C56.1711 45.5756 56.5645 44.8395 56.7239 44.0382C56.8833 43.2368 56.8015 42.4062 56.4888 41.6513C56.1762 40.8964 55.6467 40.2512 54.9673 39.7973C54.2879 39.3434 53.4892 39.1011 52.6722 39.1011C51.5765 39.1011 50.5257 39.5363 49.751 40.3111C48.9763 41.0858 48.541 42.1366 48.541 43.2322ZM54.7377 43.2322C54.7377 43.6408 54.6166 44.0401 54.3896 44.3798C54.1627 44.7195 53.8401 44.9842 53.4626 45.1406C53.0852 45.2969 52.6699 45.3378 52.2692 45.2581C51.8685 45.1784 51.5005 44.9817 51.2116 44.6928C50.9227 44.4039 50.726 44.0359 50.6463 43.6352C50.5666 43.2345 50.6075 42.8192 50.7638 42.4418C50.9202 42.0643 51.1849 41.7417 51.5246 41.5148C51.8643 41.2878 52.2636 41.1666 52.6722 41.1666C53.22 41.1666 53.7454 41.3843 54.1327 41.7716C54.5201 42.159 54.7377 42.6844 54.7377 43.2322Z" fill="#155263"/>
<path d="M58.8688 33.9371H46.4753C45.6536 33.9371 44.8655 34.2636 44.2844 34.8446C43.7034 35.4257 43.377 36.2138 43.377 37.0355V49.4289C43.377 50.2507 43.7034 51.0388 44.2844 51.6198C44.8655 52.2009 45.6536 52.5273 46.4753 52.5273H58.8688C59.6905 52.5273 60.4786 52.2009 61.0596 51.6198C61.6407 51.0388 61.9671 50.2507 61.9671 49.4289V47.3634C61.9671 47.0895 61.8583 46.8268 61.6646 46.6331C61.4709 46.4394 61.2082 46.3306 60.9343 46.3306C60.6604 46.3306 60.3977 46.4394 60.204 46.6331C60.0104 46.8268 59.9015 47.0895 59.9015 47.3634V49.4289C59.9015 49.7028 59.7927 49.9655 59.599 50.1592C59.4054 50.3529 59.1427 50.4617 58.8688 50.4617H46.4753C46.2014 50.4617 45.9387 50.3529 45.745 50.1592C45.5513 49.9655 45.4425 49.7028 45.4425 49.4289V37.0355C45.4425 36.7616 45.5513 36.4989 45.745 36.3052C45.9387 36.1115 46.2014 36.0027 46.4753 36.0027H58.8688C59.1427 36.0027 59.4054 36.1115 59.599 36.3052C59.7927 36.4989 59.9015 36.7616 59.9015 37.0355V43.2322C59.9015 43.5061 60.0104 43.7688 60.204 43.9625C60.3977 44.1562 60.6604 44.265 60.9343 44.265C61.2082 44.265 61.4709 44.1562 61.6646 43.9625C61.8583 43.7688 61.9671 43.5061 61.9671 43.2322V37.0355C61.9671 36.2138 61.6407 35.4257 61.0596 34.8446C60.4786 34.2636 59.6905 33.9371 58.8688 33.9371V33.9371Z" fill="#155263"/>
<path d="M23.2066 14.1592C23.371 14.2611 23.5606 14.3148 23.754 14.3142C23.9157 14.3132 24.0748 14.2743 24.2187 14.2006L30.4155 11.1022C30.5846 11.0155 30.7266 10.8838 30.8257 10.7217C30.9249 10.5595 30.9773 10.3731 30.9773 10.183C30.9773 9.99293 30.9249 9.80654 30.8257 9.64436C30.7266 9.48218 30.5846 9.3505 30.4155 9.26383L24.2187 6.16547C24.0615 6.08625 23.8867 6.04853 23.7108 6.0559C23.5349 6.06327 23.3638 6.11548 23.2137 6.20757C23.0637 6.29967 22.9397 6.42859 22.8535 6.5821C22.7673 6.73561 22.7217 6.9086 22.7212 7.08465V13.2814C22.7208 13.4569 22.7652 13.6296 22.8502 13.7832C22.9351 13.9368 23.0578 14.0662 23.2066 14.1592V14.1592ZM24.7868 8.75777L27.6373 10.183L24.7868 11.6083V8.75777Z" fill="#155263"/>
<path d="M25.8197 19.4781C27.6581 19.4781 29.4552 18.933 30.9838 17.9116C32.5124 16.8902 33.7037 15.4386 34.4073 13.7401C35.1108 12.0416 35.2949 10.1727 34.9362 8.36964C34.5776 6.56657 33.6923 4.91035 32.3924 3.61041C31.0924 2.31047 29.4362 1.4252 27.6331 1.06655C25.8301 0.707893 23.9611 0.891967 22.2627 1.59549C20.5642 2.29901 19.1125 3.49039 18.0912 5.01895C17.0698 6.54752 16.5247 8.34463 16.5247 10.183C16.5247 12.6482 17.504 15.0125 19.2471 16.7556C20.9903 18.4988 23.3545 19.4781 25.8197 19.4781V19.4781ZM25.8197 2.95352C27.2496 2.95352 28.6474 3.37752 29.8362 4.17191C31.0251 4.9663 31.9517 6.09539 32.4989 7.41641C33.0461 8.73743 33.1893 10.191 32.9103 11.5934C32.6314 12.9958 31.9428 14.284 30.9318 15.2951C29.9207 16.3061 28.6325 16.9947 27.2301 17.2736C25.8278 17.5526 24.3741 17.4094 23.0531 16.8622C21.7321 16.315 20.603 15.3884 19.8086 14.1995C19.0142 13.0106 18.5902 11.6129 18.5902 10.183C18.5902 8.26564 19.3519 6.42679 20.7077 5.07099C22.0635 3.71519 23.9024 2.95352 25.8197 2.95352V2.95352Z" fill="#155263"/>
<path d="M36.1475 23.6093C36.3079 23.6093 36.466 23.5719 36.6094 23.5002C36.7528 23.4285 36.8776 23.3244 36.9738 23.1961L40.0721 19.065C40.2365 18.8459 40.307 18.5704 40.2683 18.2993C40.2296 18.0281 40.0847 17.7834 39.8656 17.6191C39.6464 17.4548 39.371 17.3842 39.0998 17.4229C38.8287 17.4617 38.584 17.6065 38.4197 17.8257L35.3213 21.9568C35.157 22.1759 35.0864 22.4514 35.1251 22.7225C35.1639 22.9937 35.3087 23.2384 35.5279 23.4027C35.7066 23.5368 35.9241 23.6093 36.1475 23.6093Z" fill="#155263"/>
<path d="M38.4197 27.3273C38.5159 27.4556 38.6406 27.5597 38.784 27.6314C38.9275 27.7031 39.0856 27.7404 39.2459 27.7404C39.4694 27.7404 39.6868 27.6679 39.8656 27.5339L43.9967 24.4355C44.2159 24.2712 44.3607 24.0265 44.3995 23.7553C44.4382 23.4842 44.3676 23.2087 44.2033 22.9896C44.039 22.7705 43.7943 22.6256 43.5231 22.5869C43.252 22.5481 42.9765 22.6187 42.7574 22.783L38.6263 25.8814C38.4071 26.0457 38.2623 26.2904 38.2235 26.5616C38.1848 26.8327 38.2553 27.1082 38.4197 27.3273V27.3273Z" fill="#155263"/>
<path d="M48.5411 29.5994C48.5165 29.4625 48.4646 29.332 48.3883 29.2156C48.3121 29.0993 48.2131 28.9995 48.0974 28.9224C47.9816 28.8452 47.8515 28.7922 47.7148 28.7666C47.578 28.741 47.4375 28.7432 47.3017 28.7732L42.1378 29.806C42.0022 29.8196 41.8705 29.8597 41.7504 29.9241C41.6303 29.9886 41.5241 30.076 41.4377 30.1815C41.2634 30.3946 41.1809 30.6682 41.2083 30.9421C41.2357 31.216 41.3707 31.4678 41.5838 31.6421C41.7969 31.8164 42.0704 31.899 42.3443 31.8716H42.5509L47.7148 30.8388C47.8518 30.8142 47.9823 30.7623 48.0987 30.686C48.215 30.6098 48.3148 30.5108 48.3919 30.3951C48.4691 30.2794 48.5221 30.1492 48.5477 30.0125C48.5733 29.8758 48.5711 29.7353 48.5411 29.5994Z" fill="#155263"/>
<path d="M1.03279 29.806H13.4262C13.7001 29.806 13.9628 29.6972 14.1565 29.5035C14.3502 29.3098 14.459 29.0471 14.459 28.7732V12.2486C14.459 11.9747 14.3502 11.712 14.1565 11.5183C13.9628 11.3246 13.7001 11.2158 13.4262 11.2158H1.03279C0.758875 11.2158 0.496181 11.3246 0.302496 11.5183C0.108811 11.712 0 11.9747 0 12.2486V28.7732C0 29.0471 0.108811 29.3098 0.302496 29.5035C0.496181 29.6972 0.758875 29.806 1.03279 29.806ZM2.06557 13.2814H12.3934V27.7404H2.06557V13.2814Z" fill="#155263"/>
<path d="M9.29514 15.347H7.22956C6.95565 15.347 6.69296 15.4558 6.49927 15.6495C6.30559 15.8432 6.19678 16.1059 6.19678 16.3798C6.19678 16.6537 6.30559 16.9164 6.49927 17.1101C6.69296 17.3037 6.95565 17.4126 7.22956 17.4126H9.29514C9.56905 17.4126 9.83174 17.3037 10.0254 17.1101C10.2191 16.9164 10.3279 16.6537 10.3279 16.3798C10.3279 16.1059 10.2191 15.8432 10.0254 15.6495C9.83174 15.4558 9.56905 15.347 9.29514 15.347Z" fill="#155263"/>
<path d="M9.29504 19.4781H5.16389C4.88998 19.4781 4.62729 19.5869 4.4336 19.7806C4.23991 19.9743 4.1311 20.237 4.1311 20.5109C4.1311 20.7848 4.23991 21.0475 4.4336 21.2412C4.62729 21.4349 4.88998 21.5437 5.16389 21.5437H9.29504C9.56895 21.5437 9.83164 21.4349 10.0253 21.2412C10.219 21.0475 10.3278 20.7848 10.3278 20.5109C10.3278 20.237 10.219 19.9743 10.0253 19.7806C9.83164 19.5869 9.56895 19.4781 9.29504 19.4781Z" fill="#155263"/>
<path d="M9.29504 23.6093H5.16389C4.88998 23.6093 4.62729 23.7181 4.4336 23.9117C4.23991 24.1054 4.1311 24.3681 4.1311 24.642C4.1311 24.916 4.23991 25.1786 4.4336 25.3723C4.62729 25.566 4.88998 25.6748 5.16389 25.6748H9.29504C9.56895 25.6748 9.83164 25.566 10.0253 25.3723C10.219 25.1786 10.3278 24.916 10.3278 24.642C10.3278 24.3681 10.219 24.1054 10.0253 23.9117C9.83164 23.7181 9.56895 23.6093 9.29504 23.6093Z" fill="#155263"/>
<path d="M35.2388 29.4962C35.1709 29.3782 35.0806 29.2747 34.9727 29.1916C34.8649 29.1086 34.7418 29.0475 34.6104 29.0121C34.4791 28.9766 34.342 28.9673 34.207 28.9848C34.072 29.0023 33.9418 29.0462 33.8238 29.114C33.7058 29.1818 33.6024 29.2722 33.5193 29.38C33.4362 29.4878 33.3752 29.611 33.3397 29.7423C33.3043 29.8737 33.295 30.0108 33.3125 30.1458C33.33 30.2808 33.3739 30.411 33.4417 30.5289L37.9963 38.4091L21.4717 44.6058C21.4717 44.6058 21.4717 44.6058 21.3994 44.6058H21.3168L18.6315 46.155L16.8448 47.1878C16.6096 47.3238 16.3499 47.412 16.0805 47.4475C15.8111 47.4829 15.5374 47.4649 15.275 47.3944C14.7479 47.252 14.2985 46.9066 14.0253 46.4339L11.9597 42.8604C11.7167 42.3929 11.6616 41.8502 11.8056 41.3433C11.9496 40.8365 12.2818 40.4038 12.7343 40.1339L16.3078 38.0683L18.8897 42.5403C18.9807 42.6979 19.1118 42.8286 19.2695 42.9193C19.4273 43.01 19.6063 43.0574 19.7883 43.0567C19.9699 43.0574 20.1485 43.0102 20.3061 42.9198C20.4637 42.8295 20.5946 42.6992 20.6858 42.542C20.7769 42.3849 20.825 42.2065 20.8252 42.0249C20.8253 41.8433 20.7776 41.6648 20.6868 41.5075L18.0222 36.9012L30.9837 26.2119L31.4071 26.9452C31.4749 27.0632 31.5653 27.1667 31.6731 27.2497C31.7809 27.3328 31.904 27.3938 32.0354 27.4293C32.1668 27.4648 32.3039 27.474 32.4389 27.4565C32.5738 27.439 32.704 27.3951 32.822 27.3273C32.94 27.2595 33.0435 27.1691 33.1266 27.0613C33.2096 26.9535 33.2707 26.8304 33.3061 26.699C33.3416 26.5676 33.3509 26.4305 33.3334 26.2955C33.3159 26.1606 33.272 26.0304 33.2042 25.9124L32.1714 24.1257C32.0957 23.9963 31.9927 23.8849 31.8697 23.7993C31.7466 23.7137 31.6064 23.6559 31.4588 23.6299C31.3103 23.602 31.1576 23.6069 31.0112 23.6443C30.8649 23.6818 30.7286 23.7509 30.6119 23.8468L16.1529 35.7652L11.7532 38.3058C10.9636 38.7657 10.3488 39.4744 10.005 40.3209C9.66111 41.1675 9.60762 42.1042 9.85286 42.9844L8.82007 43.573C8.28793 43.8786 7.85852 44.3353 7.58627 44.8853C7.31403 45.4352 7.21121 46.0536 7.29086 46.6621C7.37051 47.2705 7.62904 47.8416 8.03367 48.3029C8.4383 48.7643 8.97081 49.0951 9.56368 49.2534C9.82651 49.323 10.0974 49.3577 10.3692 49.3567C10.9126 49.3544 11.4461 49.2121 11.9184 48.9435L12.9512 48.3548C13.4473 48.8674 14.0713 49.2382 14.7586 49.4289C15.1115 49.5277 15.4766 49.5763 15.843 49.5735C16.569 49.5752 17.2821 49.3827 17.9086 49.0158L18.8071 48.4994L20.8727 52.0832C21.2832 52.7929 21.9583 53.311 22.75 53.524C23.5418 53.7369 24.3857 53.6273 25.0968 53.2193C25.4496 53.016 25.7589 52.7452 26.0069 52.4223C26.255 52.0994 26.437 51.7308 26.5425 51.3375C26.648 50.9443 26.675 50.5341 26.6218 50.1304C26.5687 49.7267 26.4365 49.3374 26.2329 48.9848L24.3532 45.7109L39.845 39.8963C39.9855 39.8435 40.1128 39.7607 40.218 39.6537C40.3232 39.5467 40.4039 39.418 40.4543 39.2766C40.5046 39.137 40.5242 38.9881 40.5117 38.8402C40.4992 38.6922 40.455 38.5487 40.382 38.4194L35.2388 29.4962ZM10.8443 47.1465C10.7267 47.2145 10.5969 47.2586 10.4622 47.2763C10.3275 47.294 10.1906 47.285 10.0594 47.2498C9.79481 47.181 9.56826 47.0102 9.42941 46.7747C9.36142 46.6571 9.3173 46.5272 9.29958 46.3925C9.28186 46.2578 9.29088 46.121 9.32613 45.9898C9.36139 45.8579 9.42245 45.7343 9.50577 45.6262C9.58908 45.518 9.69301 45.4275 9.81154 45.3598L10.7101 44.8434L11.7429 46.6301L10.8443 47.1465ZM24.4358 50.0383C24.5038 50.1559 24.5479 50.2858 24.5656 50.4205C24.5834 50.5551 24.5743 50.692 24.5391 50.8232C24.4654 51.0857 24.2909 51.3085 24.0537 51.4429C23.8178 51.5784 23.5379 51.6154 23.2749 51.5457C23.0119 51.4761 22.787 51.3056 22.6491 51.0711L20.5835 47.4873L22.2979 46.5062H22.3806L24.4358 50.0383Z" fill="#155263"/>
</svg>
