<svg width="33" height="34" viewBox="0 0 33 34" fill="none" xmlns="http://www.w3.org/2000/svg">
<rect x="0.0947266" y="0.432434" width="32.8649" height="32.8649" rx="16.4324" fill="#F4F5F7"/>
<g clip-path="url(#clip0)">
<path d="M21.1493 23.027H16.5277C16.3915 23.027 16.2609 22.9729 16.1646 22.8766C16.0683 22.7803 16.0142 22.6497 16.0142 22.5135V21.4865C16.0142 21.3503 16.0683 21.2197 16.1646 21.1234C16.2609 21.0271 16.3915 20.973 16.5277 20.973H21.1493C21.2855 20.973 21.4161 21.0271 21.5124 21.1234C21.6087 21.2197 21.6628 21.3503 21.6628 21.4865V22.5135C21.6628 22.6497 21.6087 22.7803 21.5124 22.8766C21.4161 22.9729 21.2855 23.027 21.1493 23.027Z" fill="#FFA755"/>
<path d="M21.1488 10.7027H11.9056C11.7694 10.7027 11.6388 10.7568 11.5425 10.8531C11.4462 10.9494 11.3921 11.08 11.3921 11.2162V12.2432C11.3921 12.3794 11.4462 12.51 11.5425 12.6063C11.6388 12.7026 11.7694 12.7568 11.9056 12.7568H21.1488C21.285 12.7568 21.4157 12.7026 21.512 12.6063C21.6083 12.51 21.6624 12.3794 21.6624 12.2432V11.2162C21.6624 11.08 21.6083 10.9494 21.512 10.8531C21.4157 10.7568 21.285 10.7027 21.1488 10.7027Z" fill="#EB5757"/>
<path d="M21.1488 13.7838H11.9056C11.7694 13.7838 11.6388 13.8379 11.5425 13.9342C11.4462 14.0305 11.3921 14.1611 11.3921 14.2973V19.4324C11.3921 19.5686 11.4462 19.6992 11.5425 19.7955C11.6388 19.8918 11.7694 19.9459 11.9056 19.9459H21.1488C21.285 19.9459 21.4157 19.8918 21.512 19.7955C21.6083 19.6992 21.6624 19.5686 21.6624 19.4324V14.2973C21.6624 14.1611 21.6083 14.0305 21.512 13.9342C21.4157 13.8379 21.285 13.7838 21.1488 13.7838Z" fill="#155263"/>
</g>
<defs>
<clipPath id="clip0">
<rect width="12.3243" height="12.3243" fill="white" transform="translate(10.3652 10.7027)"/>
</clipPath>
</defs>
</svg>
