<svg width="34" height="34" viewBox="0 0 34 34" fill="none" xmlns="http://www.w3.org/2000/svg">
<rect x="0.743164" y="0.432434" width="32.8649" height="32.8649" rx="16.4324" fill="#F4F5F7"/>
<g clip-path="url(#clip0)">
<path d="M22.8242 13.7838V11.7297C22.8242 11.5935 22.7701 11.4629 22.6737 11.3666C22.5774 11.2703 22.4468 11.2162 22.3106 11.2162H12.0404C11.9042 11.2162 11.7736 11.2703 11.6773 11.3666C11.581 11.4629 11.5269 11.5935 11.5269 11.7297V13.7838H22.8242Z" fill="#EB5757"/>
<path d="M11.5269 14.8108V22C11.5269 22.1362 11.581 22.2668 11.6773 22.3631C11.7736 22.4594 11.9042 22.5135 12.0404 22.5135H14.6079V14.8108H11.5269Z" fill="#FFA755"/>
<path d="M15.6353 22.5135H22.3109C22.4471 22.5135 22.5777 22.4594 22.674 22.3631C22.7703 22.2668 22.8244 22.1362 22.8244 22V14.8108H15.6353V22.5135Z" fill="#155263"/>
</g>
<defs>
<clipPath id="clip0">
<rect width="12.3243" height="12.3243" fill="white" transform="translate(11.0132 10.7027)"/>
</clipPath>
</defs>
</svg>
