<svg width="33" height="34" viewBox="0 0 33 34" fill="none" xmlns="http://www.w3.org/2000/svg">
<rect x="0.0405273" y="0.432434" width="32.8649" height="32.8649" rx="16.4324" fill="#F4F5F7"/>
<g clip-path="url(#clip0)">
<path d="M19.5537 15.8378H22.6348L21.0943 13.7838L19.5537 15.8378ZM19.5537 17.8919H22.6348L21.0943 19.9459L19.5537 17.8919Z" fill="#FFA755"/>
<path d="M10.8241 10.7027H13.9051V23.027H10.8241C10.6879 23.027 10.5573 22.9729 10.461 22.8766C10.3646 22.7803 10.3105 22.6497 10.3105 22.5135V11.2162C10.3105 11.08 10.3646 10.9494 10.461 10.8531C10.5573 10.7568 10.6879 10.7027 10.8241 10.7027Z" fill="#155263"/>
<path d="M14.9326 10.7027H18.0137C18.1499 10.7027 18.2805 10.7568 18.3768 10.8531C18.4731 10.9494 18.5272 11.08 18.5272 11.2162V22.5135C18.5272 22.6497 18.4731 22.7803 18.3768 22.8766C18.2805 22.9729 18.1499 23.027 18.0137 23.027H14.9326V10.7027Z" fill="#EB5757"/>
</g>
<defs>
<clipPath id="clip0">
<rect width="12.3243" height="12.3243" fill="white" transform="translate(10.3105 10.7027)"/>
</clipPath>
</defs>
</svg>
